<?xml version="1.0" encoding="utf-8"?>
<!-- Generator: Adobe Illustrator 16.0.4, SVG Export Plug-In . SVG Version: 6.00 Build 0)  -->
<!DOCTYPE svg PUBLIC "-//W3C//DTD SVG 1.1//EN" "http://www.w3.org/Graphics/SVG/1.1/DTD/svg11.dtd">
<svg version="1.1" id="Layer_1" xmlns="http://www.w3.org/2000/svg" xmlns:xlink="http://www.w3.org/1999/xlink" x="0px" y="0px"
	 width="197.5px" height="249px" viewBox="0 0 197.5 249" enable-background="new 0 0 197.5 249" xml:space="preserve">
<g>
	<g>
		<g>
			<path fill="#020202" d="M29.852,240.247c0,2.508-2.033,4.54-4.54,4.54h-9.189c-2.508,0-4.54-2.032-4.54-4.54v-31.248
				c0-2.508,2.032-4.539,4.54-4.539h9.189c2.507,0,4.54,2.031,4.54,4.539V240.247z"/>
			<path fill="#020202" d="M186.844,240.247c0,2.508-2.032,4.54-4.54,4.54h-9.188c-2.508,0-4.541-2.032-4.541-4.54v-31.248
				c0-2.508,2.033-4.539,4.541-4.539h9.188c2.508,0,4.54,2.031,4.54,4.539V240.247z"/>
		</g>
		<g>
			<path fill="#CB1D18" d="M188.587,19.492c0-0.304-0.008-0.605-0.02-0.907H9.858c-0.012,0.302-0.02,0.604-0.02,0.907l0.348,6.998
				l177.071,19.719L188.587,19.492z"/>
			<path fill="#F80B03" d="M10.187,26.49l9.811,197.227c0,12.307,9.977,22.283,22.283,22.283h5.003h103.859h5.003
				c12.307,0,22.283-9.977,22.283-22.283l8.829-177.508L10.187,26.49z"/>
		</g>
		<path fill="#F80B03" d="M195.713,17.119c0,3.363-2.727,6.09-6.091,6.09H8.804c-3.363,0-6.091-2.727-6.091-6.09V8.605
			c0-3.364,2.728-6.091,6.091-6.091h180.818c3.364,0,6.091,2.727,6.091,6.091V17.119z"/>
		<g>
			<path fill="#FFFFFF" d="M109.028,103.42l-8.926,6.281l11.704-1.397l0.517-0.062l1.491-0.175l10.408-1.244l4.463-8.938
				l0.467-0.938l5.92-11.858l-9.075,6.389l-7.829-13.559c-2.099-3.237-4.306-4.652-6.479-4.878
				c-3.85-0.189-7.764,3.268-10.546,6.646c-0.763,0.968-1.456,1.948-2.069,2.875c-0.242,0.366-0.474,0.724-0.688,1.069
				c0.213,0.441,0.447,0.917,0.688,1.402c0.329,0.662,0.676,1.35,1.053,2.08C102.412,91.566,105.544,97.26,109.028,103.42z"/>
			<path fill="#FFFFFF" d="M132.642,146.207c-1.16-0.084-2.466-0.166-3.891-0.233c-4.999-0.244-11.493-0.38-18.571-0.442
				l-0.978-10.871l-4.642,10.836l-0.204,0.478l-0.594,1.381l-4.127,9.636l5.51,8.332l0.576,0.875l7.312,11.055l-0.997-11.055h15.657
				c3.855-0.197,6.182-1.402,7.464-3.173c2.09-3.239,1.052-8.357-0.484-12.456C134.036,148.971,133.311,147.477,132.642,146.207z"/>
			<path fill="#FFFFFF" d="M150.567,138.906c0.018-1.24-0.245-1.985-0.407-2.335l-0.193-0.333l-13.921-24.116l-16.07,8.527
				c0.998,1.673,2.205,3.8,3.485,6.077l8.79,15.225c0.314,0.476,1.031,1.613,1.875,3.165l0.05,0.007l0.262,0.478
				c0.644,1.18,1.383,2.74,2.027,4.463c1.297,3.308,2.35,7.093,1.657,10.396L150.567,138.906z"/>
			<path fill="#FFFFFF" d="M99.073,79.319c0.238-0.31,0.48-0.621,0.737-0.933c2.216-2.772,4.967-5.576,8.172-6.629h-8.909H83.096
				c-1.082,0.605-1.597,1.203-1.819,1.52l-0.191,0.331L67.163,97.725l15.42,9.654c0.949-1.702,2.188-3.811,3.519-6.058l8.789-15.225
				c0.256-0.512,0.883-1.7,1.803-3.208l-0.021-0.044l0.286-0.465C97.506,81.482,98.227,80.419,99.073,79.319z"/>
			<path fill="#FFFFFF" d="M60.145,146.257c1.703,0.248,3.363,0.368,4.792,0.421c0.657-0.962,1.378-2.054,2.149-3.25
				c2.711-4.208,6.075-9.767,9.668-15.865l9.904,4.59l-7.062-9.438l-0.312-0.416l-0.9-1.203l-6.28-8.391l-9.971,0.604l-1.045,0.064
				l-13.229,0.802l10.07,4.667l-7.827,13.556c-1.756,3.438-1.875,6.058-0.984,8.052C50.878,143.879,55.83,145.539,60.145,146.257z"
				/>
			<path fill="#FFFFFF" d="M86.401,148.469H68.819c-0.568,0.033-1.913,0.088-3.676,0.042l-0.03,0.041l-0.546-0.016
				c-1.346-0.031-3.063-0.171-4.883-0.475c-3.511-0.529-7.314-1.513-9.826-3.762l12.444,21.554c1.061,0.635,1.84,0.781,2.221,0.817
				h0.386h27.846l0.65-18.182C91.457,148.513,89.012,148.498,86.401,148.469z"/>
		</g>
	</g>
	<g>
		<g>
			<path fill="#FFFFFF" d="M66.389,203.521c0.884-0.15,2.126-0.264,3.877-0.264c1.769,0,3.029,0.339,3.877,1.017
				c0.809,0.64,1.354,1.693,1.354,2.936s-0.414,2.296-1.167,3.012c-0.979,0.922-2.428,1.336-4.121,1.336
				c-0.377,0-0.716-0.019-0.979-0.057v4.536h-2.842V203.521z M69.23,209.279c0.244,0.057,0.546,0.075,0.96,0.075
				c1.524,0,2.465-0.771,2.465-2.07c0-1.167-0.81-1.863-2.239-1.863c-0.584,0-0.979,0.057-1.186,0.113V209.279z"/>
			<path fill="#FFFFFF" d="M77.322,203.351h2.88v10.276h5.044v2.409h-7.924V203.351z"/>
			<path fill="#FFFFFF" d="M90.007,212.78l-0.903,3.256H86.13l3.877-12.686h3.764l3.934,12.686h-3.086l-0.979-3.256H90.007z
				 M93.225,210.635l-0.79-2.691c-0.226-0.753-0.451-1.694-0.64-2.447h-0.038c-0.188,0.753-0.376,1.713-0.583,2.447l-0.753,2.691
				H93.225z"/>
			<path fill="#FFFFFF" d="M99.492,213.081c0.771,0.396,1.957,0.79,3.181,0.79c1.317,0,2.014-0.545,2.014-1.373
				c0-0.791-0.603-1.242-2.127-1.788c-2.107-0.734-3.481-1.901-3.481-3.745c0-2.165,1.807-3.82,4.799-3.82
				c1.431,0,2.484,0.301,3.237,0.64l-0.64,2.314c-0.509-0.244-1.412-0.603-2.654-0.603s-1.844,0.565-1.844,1.224
				c0,0.81,0.715,1.167,2.352,1.788c2.24,0.828,3.294,1.995,3.294,3.783c0,2.126-1.637,3.933-5.119,3.933
				c-1.449,0-2.879-0.376-3.595-0.771L99.492,213.081z"/>
			<path fill="#FFFFFF" d="M112.007,205.76h-3.406v-2.409h9.749v2.409h-3.463v10.276h-2.88V205.76z"/>
			<path fill="#FFFFFF" d="M122.753,203.351v12.686h-2.88v-12.686H122.753z"/>
			<path fill="#FFFFFF" d="M134.553,215.679c-0.526,0.263-1.713,0.545-3.256,0.545c-4.385,0-6.644-2.729-6.644-6.342
				c0-4.329,3.087-6.737,6.926-6.737c1.487,0,2.616,0.301,3.124,0.564l-0.583,2.276c-0.583-0.244-1.393-0.47-2.409-0.47
				c-2.277,0-4.046,1.374-4.046,4.196c0,2.541,1.505,4.141,4.064,4.141c0.866,0,1.826-0.188,2.391-0.414L134.553,215.679z"/>
		</g>
	</g>
</g>
</svg>
