<?xml version="1.0" encoding="utf-8"?>
<!-- Generator: Adobe Illustrator 16.0.4, SVG Export Plug-In . SVG Version: 6.00 Build 0)  -->
<!DOCTYPE svg PUBLIC "-//W3C//DTD SVG 1.1//EN" "http://www.w3.org/Graphics/SVG/1.1/DTD/svg11.dtd">
<svg version="1.1" id="Layer_1" xmlns="http://www.w3.org/2000/svg" xmlns:xlink="http://www.w3.org/1999/xlink" x="0px" y="0px"
	 width="169.667px" height="173.333px" viewBox="0 0 169.667 173.333" enable-background="new 0 0 169.667 173.333"
	 xml:space="preserve">
<g>
	<g>
		<g>
			<g>
				<g>
					<g>
						<path fill="#C4DCE8" d="M112.509,124.835l1.594-0.367c0,0,14.201-2.217,22.109-8.418c7.873-6.17,9.806-14.961,11.742-15.465
							c0.646,0.357,1.297,0.492,1.916,0.354c0.11-0.023,0.216-0.057,0.319-0.098c0.11-0.008,0.222-0.023,0.329-0.049
							c0.826-0.184,1.525-0.701,1.989-1.797l4.373-0.973c-1.017,0.227-2.339-1.562-3.427-4.377c-0.029-1.326-0.199-2.76-0.525-4.236
							c-0.336-1.508-0.789-2.852-1.341-4.086c-0.226-3.074,0.226-5.256,1.255-5.484l-4.551,1.012
							c-0.799-0.619-1.598-0.844-2.35-0.678c-0.109,0.025-0.221,0.031-0.326,0.072c-0.11,0.006-0.225,0.004-0.333,0.029
							c-0.577,0.127-1.079,0.473-1.497,1.002l0.004-0.01c-1.946,0.434-7.44-6.416-17.23-8.688
							c-9.789-2.27-23.594,1.729-23.594,1.729l-1.58,0.416c-1.916,0.424-3.555,1.629-4.854,3.506L51.453,88.237
							c-1.467-0.668-2.923-0.85-4.347-0.609c0,0-0.002-0.014-0.001-0.016l-0.003,0.002c-0.111,0.025-0.236-0.02-0.348,0.006
							c-0.541,0.121-1.067,0.277-1.564,0.523L24.753,94.78c0,0-8.426,3.625-7.812,6.391l0.064,0.287l0.146,0.662
							c0,0,0.309,1.381,1.348,2.146c0,0,0.822,0.846-0.356,1.469c-1.181,0.625-2.095,1.492-2.095,1.492s-3.008,2.17-3.176,5.422
							c-0.007,0.139-0.012,0.279-0.008,0.422c0.088,3.484,0.395,4.865,0.395,4.865s-0.004,1.859,0.943,3.34
							c0.398,0.621,0.961,1.176,1.766,1.498c2.719,1.086,6.449,2.566,6.861,2.645c0.439,0.084,0.561,0.51-0.133,1.783l-2.292,3.92
							c0,0-0.237,0.32-0.383,0.834c-0.269,0.934-0.235,2.508,2.104,3.949c3.619,2.234,3.619,2.234,3.619,2.234
							s3.4,1.602,6.981,1.168l23.114-2.919c0.573,0.018,1.145-0.031,1.707-0.158c1.4-0.311,2.609-1.221,3.672-2.377
							c0.214-0.158,0.42-0.326,0.621-0.51c0.096-0.119,0.189-0.244,0.283-0.371l44.199-9.371
							C108.38,124.813,110.49,125.282,112.509,124.835z M48.237,88.147c0.019-0.004,0.037-0.01,0.056-0.014
							c0.237-0.053,0.474-0.088,0.713-0.113C48.748,88.05,48.493,88.093,48.237,88.147z M93.692,89.353l0.35-0.084
							c0.09-0.051,0.18-0.102,0.268-0.152c-0.164,2.408-0.104,5.02,0.202,7.752c-0.178,0.062-0.356,0.129-0.532,0.193
							C93.618,94.149,93.563,91.581,93.692,89.353z M97.507,111.112c-0.952-2.459-1.854-5.402-2.637-8.932
							c-0.365-1.645-0.638-3.199-0.834-4.672c0.176-0.064,0.352-0.127,0.527-0.191c0.197,1.605,0.477,3.252,0.848,4.916
							c0.699,3.148,1.653,6.09,2.789,8.738L97.507,111.112z M58.711,135.054c-0.021,0.004-0.043,0.01-0.063,0.014
							c0.127-0.031,0.253-0.062,0.377-0.098C58.921,135.001,58.817,135.032,58.711,135.054z M117.097,119.849
							c0.33-0.721,0.626-1.502,0.884-2.336c2.674-0.254,5.335-0.666,7.917-1.291c4.592-1.506,10.068-5.711,14.386-9.822
							c-0.532,1.947-1.837,4.75-4.382,7.436C130.586,118.087,123.901,119.665,117.097,119.849z"/>
					</g>
				</g>
			</g>
		</g>
	</g>
	<path fill="#325B9B" d="M155.72,99.872c-1.046,0.23-2.082-0.428-2.313-1.475l-3.786-17.049c-0.231-1.045,0.428-2.082,1.473-2.312
		l5.686-1.264c1.045-0.232,2.081,0.428,2.312,1.475l3.785,17.047c0.232,1.047-0.426,2.084-1.473,2.316L155.72,99.872z"/>
</g>
</svg>
