<?xml version="1.0" encoding="utf-8"?>
<!-- Generator: Adobe Illustrator 16.0.4, SVG Export Plug-In . SVG Version: 6.00 Build 0)  -->
<!DOCTYPE svg PUBLIC "-//W3C//DTD SVG 1.1//EN" "http://www.w3.org/Graphics/SVG/1.1/DTD/svg11.dtd">
<svg version="1.1" id="Layer_1" xmlns="http://www.w3.org/2000/svg" xmlns:xlink="http://www.w3.org/1999/xlink" x="0px" y="0px"
	 width="169.667px" height="173.333px" viewBox="0 0 169.667 173.333" enable-background="new 0 0 169.667 173.333"
	 xml:space="preserve">
<g>
	<g>
		<polygon fill="none" points="14.445,55.559 11.784,58.433 15.304,55.576 		"/>
		<path fill="#A2C5D3" d="M73.677,8.187L30.391,43.328l0.374,12.547L11.3,55.159l0.484,3.273l-1.332,1.439l-1.3,22.581l16.545,3.234
			l-1.704,15.047l49.848,61.403c5.914,7.285,16.614,8.398,23.9,2.482l62.041-50.367c7.285-5.915,8.396-16.614,2.481-23.901
			L97.576,10.67C91.662,3.385,80.962,2.273,73.677,8.187z M84.669,31.657L56.268,54.714c-3.464,2.812-8.548,2.283-11.36-1.181
			c-2.812-3.463-2.284-8.549,1.18-11.359l28.402-23.058c3.463-2.811,8.549-2.283,11.36,1.18S88.133,28.845,84.669,31.657z"/>
	</g>
	<path fill="#325B9B" d="M10.946,52.812c1.883,0.06,3.363,1.634,3.306,3.521L13.45,81.777c-0.058,1.885-1.633,3.365-3.52,3.307l0,0
		c-1.887-0.061-3.363-1.636-3.305-3.521l0.799-25.445C7.483,54.231,9.061,52.752,10.946,52.812L10.946,52.812z"/>
</g>
</svg>
