<?xml version="1.0" encoding="utf-8"?>
<!-- Generator: Adobe Illustrator 16.0.4, SVG Export Plug-In . SVG Version: 6.00 Build 0)  -->
<!DOCTYPE svg PUBLIC "-//W3C//DTD SVG 1.1//EN" "http://www.w3.org/Graphics/SVG/1.1/DTD/svg11.dtd">
<svg version="1.1" id="Layer_1" xmlns="http://www.w3.org/2000/svg" xmlns:xlink="http://www.w3.org/1999/xlink" x="0px" y="0px"
	 width="197.5px" height="249px" viewBox="0 0 197.5 249" enable-background="new 0 0 197.5 249" xml:space="preserve">
<g>
	<g>
		<path fill="#020202" d="M29.053,240.827c0,2.506-2.033,4.543-4.539,4.543h-9.188c-2.506,0-4.541-2.037-4.541-4.543v-31.245
			c0-2.509,2.035-4.543,4.541-4.543h9.188c2.506,0,4.539,2.034,4.539,4.543V240.827z"/>
		<path fill="#020202" d="M186.046,240.827c0,2.506-2.033,4.543-4.541,4.543h-9.188c-2.508,0-4.539-2.037-4.539-4.543v-31.245
			c0-2.509,2.031-4.543,4.539-4.543h9.188c2.508,0,4.541,2.034,4.541,4.543V240.827z"/>
	</g>
	<g>
		<path fill="#046443" d="M187.788,20.074c0-0.303-0.008-0.606-0.02-0.907H9.06c-0.011,0.301-0.019,0.604-0.019,0.907l0.347,6.998
			l177.07,19.717L187.788,20.074z"/>
		<path fill="#009967" d="M9.389,27.072l9.81,197.224c0,12.311,9.977,22.285,22.284,22.285h5.003h103.859h5.002
			c12.309,0,22.284-9.975,22.284-22.285l8.828-177.507L9.389,27.072z"/>
	</g>
	<path fill="#009967" d="M194.915,17.702c0,3.362-2.729,6.09-6.091,6.09H8.005c-3.361,0-6.089-2.728-6.089-6.09V9.187
		c0-3.363,2.728-6.089,6.089-6.089h180.819c3.361,0,6.091,2.726,6.091,6.089V17.702z"/>
	<g>
		<path fill="#FFFFFF" d="M108.204,104.003l-8.925,6.281l11.703-1.396l0.516-0.063l1.492-0.177l10.408-1.245l4.462-8.936
			l0.471-0.938l5.917-11.857l-9.077,6.387l-7.827-13.556c-2.101-3.24-4.304-4.655-6.479-4.881c-3.85-0.187-7.766,3.269-10.547,6.647
			c-0.765,0.967-1.456,1.949-2.069,2.875c-0.24,0.367-0.473,0.722-0.688,1.067c0.212,0.443,0.447,0.92,0.688,1.406
			c0.327,0.663,0.675,1.349,1.053,2.079C101.59,92.146,104.718,97.842,108.204,104.003z"/>
		<path fill="#FFFFFF" d="M131.819,146.788c-1.163-0.084-2.468-0.164-3.891-0.234c-4.999-0.244-11.494-0.379-18.572-0.439
			l-0.978-10.873l-4.643,10.838l-0.201,0.474l-0.597,1.381l-4.127,9.639l5.509,8.332l0.577,0.873l7.312,11.053l-0.995-11.053h15.655
			c3.854-0.196,6.183-1.402,7.469-3.173c2.085-3.24,1.048-8.357-0.488-12.455C133.212,149.552,132.487,148.058,131.819,146.788z"/>
		<path fill="#FFFFFF" d="M149.745,139.488c0.017-1.241-0.247-1.985-0.41-2.335l-0.19-0.332l-13.922-24.119l-16.069,8.529
			c0.997,1.674,2.204,3.798,3.483,6.078l8.791,15.225c0.315,0.473,1.032,1.612,1.874,3.166l0.052,0.006l0.26,0.475
			c0.645,1.181,1.381,2.74,2.026,4.465c1.297,3.305,2.351,7.091,1.659,10.396L149.745,139.488z"/>
		<path fill="#FFFFFF" d="M98.249,79.898c0.238-0.305,0.481-0.62,0.735-0.931c2.219-2.768,4.968-5.574,8.173-6.629h-8.908H82.27
			c-1.079,0.606-1.594,1.205-1.816,1.522l-0.189,0.331L66.339,98.307l15.421,9.654c0.949-1.702,2.188-3.812,3.519-6.058
			l8.787-15.224c0.257-0.513,0.885-1.701,1.805-3.208l-0.023-0.043l0.287-0.467C96.684,82.065,97.404,81,98.249,79.898z"/>
		<path fill="#FFFFFF" d="M59.321,146.84c1.703,0.244,3.362,0.365,4.792,0.419c0.656-0.961,1.376-2.054,2.148-3.25
			c2.712-4.209,6.075-9.765,9.67-15.862l9.901,4.588l-7.06-9.438l-0.312-0.418l-0.901-1.205l-6.279-8.39l-9.972,0.606l-1.045,0.062
			l-13.23,0.803l10.07,4.666l-7.824,13.559c-1.757,3.435-1.876,6.057-0.985,8.049C50.055,144.461,55.007,146.119,59.321,146.84z"/>
		<path fill="#FFFFFF" d="M85.577,149.048H67.994c-0.567,0.036-1.911,0.089-3.676,0.045l-0.029,0.04l-0.545-0.013
			c-1.346-0.034-3.065-0.174-4.884-0.479c-3.51-0.53-7.314-1.514-9.824-3.762l12.442,21.556c1.062,0.634,1.841,0.779,2.221,0.817
			h0.387h27.846l0.65-18.181C90.633,149.094,88.19,149.081,85.577,149.048z"/>
	</g>
</g>
<g>
	<g>
		<path fill="#FFFFFF" d="M70.924,206.75c0,4.152-2.52,6.672-6.221,6.672c-3.759,0-5.958-2.838-5.958-6.445
			c0-3.797,2.424-6.635,6.164-6.635C68.799,200.342,70.924,203.254,70.924,206.75z M61.771,206.921c0,2.479,1.164,4.225,3.082,4.225
			c1.936,0,3.044-1.84,3.044-4.302c0-2.273-1.091-4.226-3.062-4.226C62.898,202.618,61.771,204.457,61.771,206.921z"/>
		<path fill="#FFFFFF" d="M72.804,200.718c0.92-0.149,2.291-0.263,3.812-0.263c1.88,0,3.195,0.282,4.098,0.995
			c0.751,0.602,1.165,1.484,1.165,2.649c0,1.616-1.145,2.726-2.234,3.121v0.057c0.882,0.354,1.371,1.201,1.69,2.366
			c0.395,1.43,0.789,3.083,1.034,3.572h-2.933c-0.206-0.358-0.507-1.391-0.884-2.952c-0.338-1.578-0.883-2.01-2.048-2.029h-0.863
			v4.981h-2.837V200.718z M75.641,206.169h1.127c1.428,0,2.273-0.715,2.273-1.824c0-1.165-0.789-1.747-2.104-1.767
			c-0.695,0-1.09,0.057-1.296,0.096V206.169z"/>
		<path fill="#FFFFFF" d="M94.45,212.633c-0.883,0.301-2.557,0.714-4.228,0.714c-2.312,0-3.984-0.583-5.149-1.711
			c-1.165-1.09-1.804-2.743-1.786-4.604c0.02-4.209,3.083-6.615,7.235-6.615c1.636,0,2.895,0.32,3.515,0.62l-0.601,2.292
			c-0.696-0.299-1.56-0.544-2.951-0.544c-2.387,0-4.189,1.354-4.189,4.096c0,2.613,1.634,4.154,3.982,4.154
			c0.658,0,1.185-0.075,1.409-0.188v-2.649h-1.954v-2.236h4.717V212.633z"/>
		<path fill="#FFFFFF" d="M99.636,209.965l-0.9,3.251h-2.97l3.87-12.667h3.761l3.926,12.667h-3.08l-0.979-3.251H99.636z
			 M102.852,207.823l-0.79-2.688c-0.226-0.753-0.451-1.691-0.64-2.444h-0.038c-0.187,0.753-0.376,1.711-0.582,2.444l-0.751,2.688
			H102.852z"/>
		<path fill="#FFFFFF" d="M109.015,213.216v-12.667h3.343l2.633,4.642c0.753,1.334,1.502,2.913,2.067,4.341h0.057
			c-0.187-1.673-0.246-3.382-0.246-5.28v-3.702h2.632v12.667h-3.008l-2.704-4.886c-0.753-1.354-1.577-2.989-2.199-4.474
			l-0.057,0.018c0.076,1.673,0.112,3.46,0.112,5.526v3.815H109.015z"/>
		<path fill="#FFFFFF" d="M124.856,200.549v12.667h-2.875v-12.667H124.856z"/>
		<path fill="#FFFFFF" d="M136.637,212.857c-0.526,0.263-1.708,0.545-3.25,0.545c-4.376,0-6.633-2.724-6.633-6.334
			c0-4.321,3.081-6.727,6.914-6.727c1.486,0,2.612,0.302,3.121,0.563l-0.583,2.274c-0.582-0.245-1.392-0.471-2.403-0.471
			c-2.275,0-4.043,1.371-4.043,4.192c0,2.537,1.503,4.134,4.06,4.134c0.864,0,1.822-0.188,2.387-0.415L136.637,212.857z"/>
	</g>
</g>
</svg>
