<?xml version="1.0" encoding="utf-8"?>
<!-- Generator: Adobe Illustrator 16.0.4, SVG Export Plug-In . SVG Version: 6.00 Build 0)  -->
<!DOCTYPE svg PUBLIC "-//W3C//DTD SVG 1.1//EN" "http://www.w3.org/Graphics/SVG/1.1/DTD/svg11.dtd">
<svg version="1.1" id="Layer_1" xmlns="http://www.w3.org/2000/svg" xmlns:xlink="http://www.w3.org/1999/xlink" x="0px" y="0px"
	 width="130px" height="148px" viewBox="0 0 130 148" enable-background="new 0 0 130 148" xml:space="preserve">
<g>
	<circle fill="#F37F19" cx="67.834" cy="83.751" r="50.659"/>
	<path fill="#61913D" d="M70.742,38.916c0,0-1.797-22.581,4.106-27.2l3.592,2.309c0,0-5.645,4.105-5.645,25.405
		C72.796,39.43,71.768,41.482,70.742,38.916z"/>
	<path fill="#61913D" d="M56.922,8.748c9.425,3.323,13.969,14.802,13.969,14.802s-10.736,6.09-20.164,2.768
		c-9.424-3.323-13.97-14.802-13.97-14.802S47.496,5.426,56.922,8.748z"/>
	
		<ellipse transform="matrix(0.9891 0.1469 -0.1469 0.9891 9.9142 -5.0229)" fill="#E7B38D" cx="38.962" cy="64.607" rx="7.445" ry="9.431"/>
</g>
</svg>
