<?xml version="1.0" encoding="utf-8"?>
<!-- Generator: Adobe Illustrator 16.0.4, SVG Export Plug-In . SVG Version: 6.00 Build 0)  -->
<!DOCTYPE svg PUBLIC "-//W3C//DTD SVG 1.1//EN" "http://www.w3.org/Graphics/SVG/1.1/DTD/svg11.dtd">
<svg version="1.1" id="Layer_1" xmlns="http://www.w3.org/2000/svg" xmlns:xlink="http://www.w3.org/1999/xlink" x="0px" y="0px"
	 width="103.667px" height="155.667px" viewBox="0 0 103.667 155.667" enable-background="new 0 0 103.667 155.667"
	 xml:space="preserve">
<g>
	<path fill="#C8C3C1" d="M56.123,48.924l1.79-23.895c0,0-16.774-9.86-7.704-17.864c9.071-8.002,15.527,3.462,15.527,3.462
		s9.203-11.911,15.237-2.416c6.033,9.494-8.578,15.108-8.578,15.108l-3.087,26.051l-12.494,0.797"/>
	<g>
		<path fill="#C2844F" d="M59.154,48.123c-1.227-0.074-2.338-0.257-3.345-0.529c-6.145,5.734-59.217,57.289-22.446,94.737
			c2.314,2.358,4.561,4.296,6.75,5.909C53.661,132.107,84.711,87.94,59.154,48.123z"/>
		<path fill="#B7794C" d="M59.154,48.123c25.557,39.818-5.493,83.984-19.042,100.117c34.676,25.542,53.483-37.595,53.483-37.595
			s6.691-37.403-24.212-64.061C65.296,47.89,61.935,48.29,59.154,48.123z"/>
	</g>
</g>
</svg>
