<?xml version="1.0" encoding="utf-8"?>
<!-- Generator: Adobe Illustrator 16.0.4, SVG Export Plug-In . SVG Version: 6.00 Build 0)  -->
<!DOCTYPE svg PUBLIC "-//W3C//DTD SVG 1.1//EN" "http://www.w3.org/Graphics/SVG/1.1/DTD/svg11.dtd">
<svg version="1.1" id="Layer_1" xmlns="http://www.w3.org/2000/svg" xmlns:xlink="http://www.w3.org/1999/xlink" x="0px" y="0px"
	 width="123px" height="136.667px" viewBox="0 0 123 136.667" enable-background="new 0 0 123 136.667" xml:space="preserve">
<g>
	<g>
		<path fill="#5D7235" d="M70.416,67.848c0.619-3.773-0.09-7.566-2.309-10.68c-2.112-2.967-5.254-4.842-8.799-5.574
			c0.211-3.668-0.76-7.396-3.029-10.58c-4.613-6.479-13.098-8.623-20.357-5.656c-0.577-1.42-1.334-2.809-2.275-4.129
			c-5.582-7.836-15.496-10.35-22.146-5.615C5.573,29.836,4.242,38.391,7.975,45.75c-6.123,5.453-7.459,14.49-2.822,21.004
			c2.272,3.188,5.587,5.221,9.218,5.996c-2.637,5.594-2.431,12.074,1.141,17.088c3.043,4.273,7.895,6.584,13.068,6.762
			c0.578,3.115,1.847,6.195,3.839,8.994c6.585,9.245,18.658,12.034,27.469,6.545c6.246,4.41,14.188,11.314,21.42,21.469l2.979-2.121
			l1.1-0.783l2.978-2.121c-6.659-9.352-10.515-18.365-12.743-25.469c0.09-0.15,0.178-0.303,0.264-0.453
			c7.555-6.641,8.65-18.596,2.225-27.619c-1.985-2.787-4.47-4.984-7.213-6.549L70.416,67.848z"/>
		<path fill="#A4CB5E" d="M84.894,130.415c-0.298,0.213-0.71,0.143-0.921-0.154L10.869,27.613c-0.212-0.297-0.143-0.709,0.155-0.922
			c0.296-0.211,0.708-0.143,0.919,0.156l73.105,102.647C85.26,129.792,85.191,130.204,84.894,130.415z"/>
		<path fill="#A4CB5E" d="M35.674,61.281c-2.291,1.629-5.313,2.713-8.984,3.215c-2.899,0.398-6.213,0.439-9.85,0.121
			c-6.168-0.541-11.221-1.951-11.271-1.965c-0.351-0.1-0.555-0.463-0.455-0.814c0.099-0.35,0.463-0.555,0.812-0.455
			c0.051,0.014,5.002,1.393,11.051,1.922c5.52,0.482,13.11,0.334,17.932-3.1c0.297-0.211,0.709-0.141,0.92,0.156
			S35.971,61.068,35.674,61.281z"/>
		<path fill="#A4CB5E" d="M40.646,67.887c-0.297,0.211-0.708,0.143-0.92-0.154c-0.211-0.295-0.143-0.707,0.154-0.92
			c6.049-4.307,8.549-11.414,9.578-16.617c1.127-5.678,0.799-10.365,0.796-10.414c-0.027-0.361,0.245-0.678,0.608-0.705
			c0.364-0.027,0.681,0.248,0.707,0.609c0.014,0.199,0.344,4.916-0.815,10.766c-0.684,3.449-1.746,6.566-3.157,9.27
			C45.818,63.121,43.481,65.869,40.646,67.887z"/>
		<path fill="#A4CB5E" d="M52.586,85.027c-2.335,1.662-5.473,2.734-9.324,3.182c-3.041,0.354-6.54,0.322-10.398-0.09
			c-6.543-0.703-11.954-2.291-12.008-2.307c-0.35-0.104-0.549-0.471-0.445-0.82s0.471-0.549,0.82-0.445
			c0.053,0.018,5.366,1.574,11.795,2.26c5.865,0.629,13.888,0.641,18.795-2.854c0.297-0.211,0.709-0.143,0.92,0.154
			C52.953,84.404,52.883,84.814,52.586,85.027z"/>
		<path fill="#A4CB5E" d="M48.762,79.471c-0.297,0.213-0.709,0.143-0.92-0.156c-0.211-0.295-0.142-0.709,0.155-0.92
			c5.68-4.045,9.661-9.281,12.001-12.959c2.533-3.986,3.729-7.037,3.742-7.066c0.131-0.34,0.514-0.508,0.853-0.375
			c0.341,0.131,0.509,0.512,0.377,0.854c-0.051,0.129-1.257,3.201-3.86,7.295C58.707,69.922,54.615,75.301,48.762,79.471z"/>
		<path fill="#A4CB5E" d="M66.154,104.078c-2.246,1.6-5.032,2.678-8.279,3.205c-2.571,0.416-5.438,0.49-8.521,0.221
			c-5.232-0.459-9.228-1.736-9.395-1.789c-0.348-0.113-0.538-0.484-0.426-0.832c0.112-0.346,0.483-0.537,0.83-0.426l0,0
			c0.041,0.016,4.045,1.291,9.133,1.732c4.641,0.406,11.165,0.182,15.893-3.186c0.296-0.213,0.708-0.143,0.92,0.154
			C66.521,103.455,66.45,103.867,66.154,104.078z"/>
		<path fill="#A4CB5E" d="M67.09,93.252c-3.384,2.408-6.272,3.424-6.404,3.471c-0.343,0.117-0.719-0.064-0.839-0.408
			c-0.12-0.346,0.063-0.721,0.408-0.84c0.053-0.02,3.358-1.189,6.917-3.926c3.264-2.51,7.424-6.898,8.697-13.547
			c0.069-0.359,0.414-0.594,0.773-0.523c0.357,0.066,0.592,0.412,0.523,0.77c-0.598,3.127-1.842,6.047-3.691,8.676
			c-1.475,2.098-3.337,4.014-5.535,5.699C67.654,92.842,67.37,93.053,67.09,93.252z"/>
	</g>
	<g>
		<path fill="#71843B" d="M88.617,68.049c1.572-3.482,1.868-7.332,0.531-10.914c-1.273-3.412-3.821-6.035-7.059-7.66
			c1.154-3.486,1.18-7.34-0.188-11.004c-2.78-7.451-10.423-11.717-18.2-10.729c-0.191-1.52-0.564-3.057-1.131-4.578
			c-3.365-9.012-12.293-14.005-19.941-11.151c-6.816,2.544-10.316,10.465-8.614,18.54c-7.325,3.682-10.952,12.066-8.157,19.557
			c1.369,3.67,4.045,6.492,7.352,8.178c-3.993,4.723-5.47,11.033-3.318,16.801c1.835,4.916,5.924,8.404,10.875,9.914
			c-0.247,3.158,0.182,6.461,1.383,9.68c3.969,10.633,14.91,16.452,24.84,13.428c4.894,5.875,10.779,14.6,15.139,26.278l3.426-1.279
			l1.264-0.471l3.427-1.279c-4.015-10.754-5.407-20.459-5.724-27.899c0.127-0.121,0.249-0.244,0.373-0.369
			c9.015-4.461,13.166-15.725,9.291-26.102c-1.195-3.205-3.027-5.973-5.272-8.195L88.617,68.049z"/>
		<path fill="#A4CB5E" d="M86.418,132.231c-0.342,0.129-0.721-0.045-0.85-0.387L41.502,13.782c-0.127-0.343,0.046-0.723,0.389-0.851
			c0.34-0.126,0.721,0.047,0.848,0.388l44.066,118.064C86.933,131.723,86.759,132.104,86.418,132.231z"/>
		<path fill="#A4CB5E" d="M56.755,52.719c-2.636,0.982-5.835,1.248-9.511,0.783c-2.904-0.365-6.115-1.184-9.545-2.432
			c-5.82-2.117-10.334-4.787-10.38-4.812c-0.313-0.188-0.416-0.592-0.23-0.906c0.187-0.312,0.592-0.414,0.905-0.23
			c0.044,0.027,4.469,2.643,10.176,4.717c5.207,1.891,12.578,3.713,18.123,1.643c0.342-0.127,0.722,0.049,0.85,0.389
			C57.27,52.211,57.096,52.59,56.755,52.719z"/>
		<path fill="#A4CB5E" d="M59.85,60.389C59.508,60.516,59.129,60.342,59,60c-0.128-0.342,0.046-0.721,0.389-0.848
			c6.956-2.598,11.207-8.816,13.551-13.576c2.555-5.193,3.451-9.807,3.46-9.854c0.067-0.355,0.414-0.592,0.771-0.523
			c0.359,0.07,0.594,0.414,0.527,0.771c-0.039,0.195-0.941,4.838-3.574,10.189c-1.553,3.152-3.385,5.891-5.447,8.137
			C66.078,57.121,63.109,59.172,59.85,60.389z"/>
		<path fill="#A4CB5E" d="M66.949,80.031c-2.686,1.004-5.994,1.225-9.831,0.662c-3.028-0.445-6.399-1.381-10.019-2.777
			c-6.141-2.369-10.957-5.305-11.005-5.332c-0.31-0.191-0.407-0.598-0.218-0.908c0.19-0.309,0.596-0.406,0.906-0.219
			c0.048,0.031,4.777,2.91,10.811,5.236c5.504,2.121,13.248,4.209,18.894,2.102c0.343-0.125,0.722,0.047,0.849,0.389
			C67.463,79.523,67.291,79.906,66.949,80.031z"/>
		<path fill="#A4CB5E" d="M64.691,73.676c-0.341,0.127-0.721-0.047-0.849-0.387c-0.126-0.344,0.047-0.723,0.388-0.85
			c6.534-2.439,11.733-6.467,14.944-9.418c3.479-3.193,5.423-5.83,5.444-5.857c0.215-0.293,0.627-0.357,0.922-0.143
			c0.294,0.217,0.357,0.631,0.142,0.924c-0.081,0.111-2.04,2.766-5.614,6.051C76.771,67.025,71.427,71.162,64.691,73.676z"/>
		<path fill="#A4CB5E" d="M75.128,101.945c-2.583,0.963-5.553,1.285-8.826,0.953c-2.591-0.262-5.38-0.932-8.29-1.99
			c-4.934-1.799-8.463-4.064-8.611-4.16c-0.307-0.197-0.394-0.605-0.195-0.91c0.197-0.307,0.605-0.395,0.911-0.197l0,0
			c0.036,0.023,3.573,2.291,8.374,4.035c4.379,1.592,10.74,3.061,16.175,1.033c0.341-0.129,0.724,0.045,0.851,0.387
			S75.469,101.816,75.128,101.945z"/>
		<path fill="#A4CB5E" d="M78.832,91.727c-3.892,1.453-6.944,1.688-7.084,1.697c-0.362,0.025-0.679-0.248-0.705-0.611
			c-0.026-0.365,0.248-0.68,0.611-0.705c0.057-0.004,3.553-0.281,7.697-2.004c3.803-1.58,8.957-4.744,11.906-10.838
			c0.158-0.326,0.553-0.465,0.882-0.305c0.327,0.16,0.465,0.553,0.306,0.881c-1.387,2.865-3.342,5.363-5.809,7.424
			c-1.968,1.646-4.262,3.016-6.82,4.076C79.484,91.479,79.154,91.607,78.832,91.727z"/>
	</g>
	<g>
		<path fill="#84A73F" d="M114.32,74.254c2.802-2.6,4.567-6.031,4.726-9.854c0.15-3.637-1.181-7.045-3.532-9.799
			c2.416-2.766,3.936-6.305,4.097-10.213c0.329-7.947-5.06-14.844-12.61-16.953c0.412-1.473,0.666-3.033,0.733-4.656
			c0.397-9.613-5.893-17.68-14.049-18.017c-7.271-0.3-13.569,5.641-15.136,13.742c-8.18,0.553-14.777,6.871-15.107,14.859
			c-0.16,3.912,1.209,7.553,3.603,10.391c-5.514,2.803-9.325,8.047-9.579,14.195c-0.217,5.244,2.197,10.043,6.176,13.357
			c-1.455,2.816-2.342,6.025-2.484,9.459c-0.468,11.34,7.358,20.947,17.684,22.014c2.228,7.315,4.268,17.639,3.752,30.094
			l3.655,0.152l1.347,0.055l3.654,0.152c0.475-11.471,2.957-20.955,5.553-27.934c0.163-0.062,0.325-0.129,0.486-0.197
			c10.04-0.611,18.236-9.381,18.693-20.447c0.143-3.42-0.471-6.682-1.679-9.6L114.32,74.254z"/>
		<path fill="#A4CB5E" d="M87.385,132.553c-0.365-0.016-0.648-0.324-0.633-0.688L91.96,5.955c0.015-0.364,0.321-0.647,0.687-0.633
			c0.363,0.016,0.646,0.323,0.633,0.688L88.07,131.92C88.057,132.284,87.748,132.567,87.385,132.553z"/>
		<path fill="#A4CB5E" d="M90.904,47.76c-2.81-0.117-5.861-1.115-9.07-2.969c-2.533-1.463-5.175-3.467-7.852-5.947
			c-4.542-4.209-7.666-8.422-7.697-8.465c-0.217-0.293-0.154-0.705,0.139-0.922c0.292-0.215,0.706-0.154,0.922,0.141
			c0.031,0.041,3.096,4.166,7.549,8.293c4.064,3.766,10.15,8.305,16.064,8.549c0.364,0.018,0.647,0.322,0.632,0.688
			C91.576,47.492,91.269,47.773,90.904,47.76z"/>
		<path fill="#A4CB5E" d="M90.779,56.029c-0.363-0.016-0.646-0.324-0.632-0.688c0.017-0.363,0.323-0.646,0.687-0.633
			c7.42,0.309,13.752-3.771,17.758-7.25c4.372-3.795,6.987-7.699,7.014-7.738c0.201-0.303,0.611-0.385,0.916-0.184
			c0.303,0.201,0.385,0.611,0.183,0.916c-0.11,0.164-2.741,4.092-7.247,8.002c-2.654,2.305-5.405,4.115-8.179,5.385
			C97.789,55.438,94.258,56.174,90.779,56.029z"/>
		<path fill="#A4CB5E" d="M89.7,76.889c-2.864-0.119-5.999-1.197-9.317-3.205c-2.617-1.586-5.362-3.756-8.156-6.449
			c-4.738-4.566-8.039-9.139-8.072-9.186c-0.212-0.295-0.145-0.707,0.151-0.92c0.297-0.215,0.709-0.145,0.921,0.15
			c0.031,0.045,3.273,4.535,7.932,9.02c4.248,4.092,10.575,9.021,16.596,9.271c0.364,0.014,0.647,0.322,0.633,0.688
			C90.371,76.621,90.064,76.902,89.7,76.889z"/>
		<path fill="#A4CB5E" d="M90.086,70.154c-0.363-0.016-0.646-0.322-0.631-0.688c0.016-0.363,0.322-0.646,0.686-0.631
			c6.969,0.289,13.324-1.406,17.428-2.879c4.447-1.594,7.262-3.27,7.29-3.285c0.312-0.188,0.718-0.086,0.904,0.227
			c0.188,0.312,0.087,0.717-0.227,0.906c-0.118,0.07-2.954,1.756-7.522,3.395C103.799,68.713,97.269,70.453,90.086,70.154z"/>
		<path fill="#A4CB5E" d="M88.733,100.258c-2.755-0.115-5.615-0.971-8.505-2.547c-2.286-1.248-4.597-2.949-6.867-5.053
			c-3.85-3.57-6.223-7.029-6.322-7.174c-0.205-0.301-0.128-0.711,0.174-0.918c0.301-0.203,0.711-0.127,0.916,0.174l0,0
			c0.023,0.035,2.403,3.498,6.15,6.971c3.42,3.164,8.709,6.988,14.508,7.229c0.364,0.014,0.647,0.322,0.634,0.686
			C89.404,99.99,89.098,100.271,88.733,100.258z"/>
		<path fill="#A4CB5E" d="M96.111,92.279c-4.149-0.172-7.055-1.141-7.186-1.186c-0.346-0.117-0.529-0.492-0.412-0.838
			c0.116-0.346,0.49-0.529,0.836-0.412c0.054,0.018,3.383,1.119,7.872,1.141c4.118,0.02,10.093-0.896,15.178-5.367
			c0.274-0.24,0.691-0.215,0.932,0.061c0.239,0.273,0.214,0.691-0.06,0.932c-2.391,2.102-5.16,3.645-8.234,4.588
			c-2.451,0.752-5.099,1.123-7.868,1.107C96.81,92.303,96.455,92.293,96.111,92.279z"/>
	</g>
</g>
</svg>
