<?xml version="1.0" encoding="utf-8"?>
<!-- Generator: Adobe Illustrator 16.0.4, SVG Export Plug-In . SVG Version: 6.00 Build 0)  -->
<!DOCTYPE svg PUBLIC "-//W3C//DTD SVG 1.1//EN" "http://www.w3.org/Graphics/SVG/1.1/DTD/svg11.dtd">
<svg version="1.1" id="Layer_1" xmlns="http://www.w3.org/2000/svg" xmlns:xlink="http://www.w3.org/1999/xlink" x="0px" y="0px"
	 width="216px" height="154px" viewBox="0 0 216 154" enable-background="new 0 0 216 154" xml:space="preserve">
<g>
	<g>
		<polygon fill="#58442B" points="120.175,22.064 131.282,107.419 61.448,100.171 46.272,43.669 		"/>
	</g>
	<g>
		<polygon fill="#674F2C" points="174.653,38.314 120.173,22.042 132.442,116.345 160.522,89.087 		"/>
	</g>
	<g>
		<path fill="#9A7C54" d="M115.302,131.623C107.29,129.5,96.05,99.509,90.269,79.708l12.418,70.849l41.566-21.543
			C131.397,131.258,119.767,132.805,115.302,131.623z"/>
		<path fill="#8C734B" d="M175.601,42.029L88.45,69.007l1.818,10.701c5.781,19.801,17.021,49.792,25.033,51.915
			c4.465,1.182,16.096-0.365,28.951-2.609l33.176-17.194L175.601,42.029z"/>
	</g>
	<g>
		<path fill="#BB9961" d="M51.577,64.027l-0.732-0.1l11.438,46.102l37.891,38.007c-7.023-8.361-28.971-34.528-33.773-40.839
			C62.751,102.406,56.534,83.884,51.577,64.027z"/>
		<path fill="#AF8F59" d="M88.45,69.007l-36.873-4.98c4.957,19.857,11.174,38.379,14.822,43.17
			c4.803,6.311,26.75,32.478,33.773,40.839l2.514,2.521L88.45,69.007z"/>
	</g>
	<g>
		<polygon fill="#BE9C72" points="120.636,21.981 174.884,38.267 205.948,12.241 147.909,1.661 		"/>
	</g>
	<g>
		<polygon fill="#CDAA80" points="88.45,69.007 174.884,38.267 214.606,31.74 117.075,67.775 		"/>
	</g>
	<g>
		<path fill="#D5B48A" d="M88.44,69L46.616,43.625L3.667,40.57c5.797,4.459,28.035,21.375,32.885,22.395
			C41.438,63.992,79.046,68.005,88.44,69z"/>
		<path fill="#E5C6A3" d="M36.552,62.964c-4.85-1.02-27.088-17.936-32.885-22.395l-0.975-0.068L34.526,67.41l53.924,1.598L88.44,69
			C79.046,68.005,41.438,63.992,36.552,62.964z"/>
	</g>
	<g>
		<path fill="#CCA97E" d="M51.937,36.689c-8.514-1.051-16.939-9.877-20.994-14.739l-1.16,0.295l16.834,21.379l35.072-10.254
			C69.065,35.582,56.843,37.294,51.937,36.689z"/>
		<path fill="#BE9D71" d="M100.001,4.494L30.942,21.95c4.055,4.862,12.48,13.688,20.994,14.739
			c4.906,0.605,17.129-1.107,29.752-3.318l38.947-11.389L100.001,4.494z"/>
	</g>
</g>
</svg>
