<?xml version="1.0" encoding="utf-8"?>
<!-- Generator: Adobe Illustrator 16.0.4, SVG Export Plug-In . SVG Version: 6.00 Build 0)  -->
<!DOCTYPE svg PUBLIC "-//W3C//DTD SVG 1.1//EN" "http://www.w3.org/Graphics/SVG/1.1/DTD/svg11.dtd">
<svg version="1.1" id="Layer_1" xmlns="http://www.w3.org/2000/svg" xmlns:xlink="http://www.w3.org/1999/xlink" x="0px" y="0px"
	 width="197.5px" height="249px" viewBox="0 0 197.5 249" enable-background="new 0 0 197.5 249" xml:space="preserve">
<g>
	<g>
		<path fill="#020202" d="M31.638,240.42c0,2.508-2.032,4.541-4.54,4.541h-9.188c-2.508,0-4.54-2.033-4.54-4.541v-31.246
			c0-2.508,2.032-4.541,4.54-4.541h9.188c2.508,0,4.54,2.033,4.54,4.541V240.42z"/>
		<path fill="#020202" d="M188.631,240.42c0,2.508-2.033,4.541-4.54,4.541h-9.189c-2.507,0-4.54-2.033-4.54-4.541v-31.246
			c0-2.508,2.033-4.541,4.54-4.541h9.189c2.507,0,4.54,2.033,4.54,4.541V240.42z"/>
	</g>
	<g>
		<path fill="#FEA305" d="M190.374,19.665c0-0.304-0.008-0.605-0.02-0.906H11.646c-0.012,0.301-0.02,0.603-0.02,0.906l0.348,6.999
			l177.071,19.719L190.374,19.665z"/>
		<path fill="#FFC802" d="M11.974,26.663l9.81,197.228c0,12.307,9.977,22.283,22.284,22.283h5.003H152.93h5.003
			c12.307,0,22.284-9.977,22.284-22.283l8.828-177.508L11.974,26.663z"/>
	</g>
	<path fill="#FFC802" d="M197.5,17.292c0,3.364-2.728,6.091-6.091,6.091H10.591c-3.364,0-6.091-2.727-6.091-6.091V8.779
		c0-3.364,2.727-6.091,6.091-6.091h180.818c3.363,0,6.091,2.727,6.091,6.091V17.292z"/>
	<g>
		<path fill="#FFFFFF" d="M110.814,103.593l-8.925,6.282l11.704-1.397l0.517-0.062l1.491-0.175l10.408-1.244l4.463-8.938
			l0.467-0.938l5.92-11.859l-9.076,6.389l-7.828-13.559c-2.1-3.238-4.306-4.652-6.479-4.877c-3.85-0.189-7.764,3.268-10.546,6.646
			c-0.763,0.968-1.456,1.948-2.069,2.875c-0.242,0.366-0.474,0.724-0.689,1.069c0.214,0.442,0.448,0.917,0.689,1.402
			c0.328,0.662,0.676,1.35,1.053,2.081C104.199,91.74,107.331,97.433,110.814,103.593z"/>
		<path fill="#FFFFFF" d="M134.429,146.38c-1.16-0.084-2.466-0.166-3.891-0.233c-4.999-0.244-11.493-0.38-18.571-0.442
			l-0.978-10.871l-4.642,10.836l-0.204,0.478l-0.594,1.38l-4.127,9.637l5.51,8.332l0.576,0.875l7.311,11.055l-0.996-11.055h15.657
			c3.855-0.197,6.181-1.402,7.465-3.174c2.089-3.238,1.051-8.357-0.485-12.455C135.824,149.145,135.098,147.649,134.429,146.38z"/>
		<path fill="#FFFFFF" d="M152.354,139.08c0.018-1.24-0.246-1.985-0.407-2.335l-0.192-0.333l-13.921-24.117l-16.071,8.527
			c0.998,1.674,2.205,3.8,3.484,6.077l8.791,15.225c0.314,0.476,1.031,1.613,1.875,3.165l0.05,0.007l0.262,0.478
			c0.644,1.18,1.383,2.74,2.028,4.464c1.296,3.307,2.349,7.092,1.656,10.395L152.354,139.08z"/>
		<path fill="#FFFFFF" d="M100.86,79.492c0.237-0.31,0.48-0.621,0.737-0.933c2.216-2.772,4.967-5.576,8.172-6.629h-8.909H84.883
			c-1.083,0.605-1.597,1.204-1.819,1.52l-0.191,0.331L68.949,97.898l15.42,9.654c0.95-1.702,2.188-3.811,3.521-6.058l8.788-15.225
			c0.256-0.511,0.882-1.7,1.804-3.207l-0.022-0.044l0.286-0.465C99.293,81.656,100.014,80.592,100.86,79.492z"/>
		<path fill="#FFFFFF" d="M61.932,146.43c1.703,0.248,3.363,0.368,4.792,0.421c0.656-0.962,1.378-2.054,2.148-3.25
			c2.712-4.208,6.076-9.767,9.669-15.865l9.904,4.589l-7.062-9.438l-0.312-0.416l-0.9-1.203l-6.28-8.391l-9.971,0.605l-1.045,0.063
			l-13.23,0.802l10.071,4.667l-7.827,13.556c-1.756,3.438-1.875,6.058-0.984,8.052C52.665,144.052,57.617,145.712,61.932,146.43z"/>
		<path fill="#FFFFFF" d="M88.188,148.642H70.606c-0.568,0.033-1.913,0.088-3.676,0.042l-0.03,0.041l-0.546-0.016
			c-1.347-0.031-3.064-0.171-4.884-0.475c-3.51-0.529-7.313-1.513-9.825-3.762l12.443,21.554c1.062,0.635,1.842,0.781,2.222,0.816
			h0.386h27.846l0.65-18.181C93.245,148.686,90.799,148.671,88.188,148.642z"/>
	</g>
</g>
<g>
	<path fill="#FFFFFF" d="M75.462,201.951c0.905-0.153,2.177-0.27,3.969-0.27c1.811,0,3.102,0.348,3.968,1.041
		c0.828,0.654,1.388,1.733,1.388,3.005s-0.424,2.351-1.195,3.082c-1.001,0.944-2.484,1.368-4.219,1.368
		c-0.385,0-0.731-0.02-1.001-0.059v4.643h-2.909V201.951z M78.371,207.847c0.25,0.058,0.559,0.077,0.982,0.077
		c1.561,0,2.523-0.79,2.523-2.119c0-1.194-0.828-1.907-2.293-1.907c-0.597,0-1.001,0.058-1.213,0.116V207.847z"/>
	<path fill="#FFFFFF" d="M88.522,211.43l-0.925,3.332h-3.043l3.968-12.983h3.853l4.026,12.983h-3.159l-1.002-3.332H88.522z
		 M91.816,209.233l-0.809-2.755c-0.231-0.77-0.463-1.733-0.655-2.504h-0.038c-0.193,0.771-0.386,1.753-0.598,2.504l-0.771,2.755
		H91.816z"/>
	<path fill="#FFFFFF" d="M98.135,201.951c0.905-0.153,2.177-0.27,3.968-0.27c1.812,0,3.102,0.348,3.969,1.041
		c0.828,0.654,1.387,1.733,1.387,3.005s-0.424,2.351-1.194,3.082c-1.002,0.944-2.484,1.368-4.219,1.368
		c-0.385,0-0.731-0.02-1.002-0.059v4.643h-2.908V201.951z M101.043,207.847c0.251,0.058,0.56,0.077,0.983,0.077
		c1.56,0,2.523-0.79,2.523-2.119c0-1.194-0.829-1.907-2.293-1.907c-0.597,0-1.001,0.058-1.214,0.116V207.847z"/>
	<path fill="#FFFFFF" d="M117.051,209.271h-4.777v3.083h5.336v2.407h-8.283v-12.983h8.014v2.408h-5.066v2.696h4.777V209.271z"/>
	<path fill="#FFFFFF" d="M119.613,201.951c0.943-0.153,2.35-0.27,3.91-0.27c1.927,0,3.275,0.289,4.199,1.021
		c0.771,0.617,1.194,1.521,1.194,2.717c0,1.656-1.175,2.793-2.292,3.197v0.058c0.905,0.366,1.406,1.233,1.733,2.427
		c0.405,1.465,0.81,3.16,1.06,3.66h-3.005c-0.212-0.365-0.521-1.426-0.905-3.023c-0.347-1.619-0.905-2.062-2.1-2.081h-0.887v5.104
		h-2.908V201.951z M122.521,207.538h1.156c1.464,0,2.331-0.731,2.331-1.868c0-1.194-0.81-1.791-2.158-1.811
		c-0.712,0-1.117,0.058-1.329,0.096V207.538z"/>
</g>
</svg>
