<?xml version="1.0" encoding="utf-8"?>
<!-- Generator: Adobe Illustrator 16.0.4, SVG Export Plug-In . SVG Version: 6.00 Build 0)  -->
<!DOCTYPE svg PUBLIC "-//W3C//DTD SVG 1.1//EN" "http://www.w3.org/Graphics/SVG/1.1/DTD/svg11.dtd">
<svg version="1.1" id="Layer_1" xmlns="http://www.w3.org/2000/svg" xmlns:xlink="http://www.w3.org/1999/xlink" x="0px" y="0px"
	 width="169.667px" height="173.333px" viewBox="0 0 169.667 173.333" enable-background="new 0 0 169.667 173.333"
	 xml:space="preserve">
<g>
	<g>
		<path fill="#8E663D" d="M129.666,23.698L3.571,85.621l37.786,76.944l58.249-28.604c1.555,0.736,3.741,0.675,5.791-0.332
			c2.053-1.008,3.438-2.699,3.804-4.381l58.25-28.604L129.666,23.698z"/>
		
			<rect x="18.093" y="51.857" transform="matrix(0.8976 -0.4408 0.4408 0.8976 -31.9921 46.9803)" fill="#C2B59F" width="134.071" height="80.991"/>
		<path fill="#2C5F5B" d="M73.425,136.024c0,0,5.834,8.024,6.067,15.25l3.468-6.438l5.593,2.227c0,0-0.99-7.801-6.923-15.542
			L73.425,136.024z"/>
		<path fill="#D0C2A7" d="M6.399,84.113l36.509,74.343c0,0,23.511-25.31,59.699-29.555L66.201,54.763
			C66.201,54.763,30.562,67.914,6.399,84.113z"/>
		<path fill="#DFDAC4" d="M7.798,81.898l36.508,74.343c0,0,27.199-26.856,58.308-27.351L66.3,54.725
			C66.3,54.725,16.056,71.726,7.798,81.898z"/>
		<path fill="#EDE6D8" d="M8.598,70.036l36.513,73.83c0,0,34.417-20.474,57.502-14.987L66.184,54.782
			C66.184,54.782,31.531,53.929,8.598,70.036z"/>
		<path fill="#FFFFF9" d="M16.758,58.394l36.811,74.959c0,0,21.798-14.782,49.044-4.457L66.314,54.501
			C66.314,54.501,42.447,43.23,16.758,58.394z"/>
	</g>
	<g>
		<path fill="#D0C2A7" d="M126.223,25.699l36.508,74.342c0,0-34.869,2.951-60.123,28.862l-35.94-73.958
			C66.667,54.945,98.632,34.915,126.223,25.699z"/>
		<path fill="#DFDAC4" d="M123.829,25.338l36.508,74.342c0,0-38.317,4.894-57.728,29.208L66.522,55.009
			C66.522,55.009,110.731,25.654,123.829,25.338z"/>
		<path fill="#EDE6D8" d="M113.64,18.769l36.101,74.033c0,0-37.354,14.465-47.127,36.088l-36.3-74.137
			C66.313,54.753,86.874,27.07,113.64,18.769z"/>
	</g>
</g>
</svg>
