<?xml version="1.0" encoding="utf-8"?>
<!-- Generator: Adobe Illustrator 16.0.4, SVG Export Plug-In . SVG Version: 6.00 Build 0)  -->
<!DOCTYPE svg PUBLIC "-//W3C//DTD SVG 1.1//EN" "http://www.w3.org/Graphics/SVG/1.1/DTD/svg11.dtd">
<svg version="1.1" id="Layer_1" xmlns="http://www.w3.org/2000/svg" xmlns:xlink="http://www.w3.org/1999/xlink" x="0px" y="0px"
	 width="169.667px" height="173.333px" viewBox="0 0 169.667 173.333" enable-background="new 0 0 169.667 173.333"
	 xml:space="preserve">
<g>
	<polygon fill="#D9D9D8" points="23.771,152.954 164.164,152.792 164.155,144.874 26.003,145.034 	"/>
	<g>
		<path fill="#949292" d="M23.771,152.954c4.931-0.006,5.518-8.521,5.518-8.521l123.982-0.143l-0.135-115.376L18.411,29.07
			l0.136,118.022C19.076,149.393,20.431,152.958,23.771,152.954z"/>
	</g>
	
		<rect x="29.32" y="19.623" transform="matrix(1 -0.0012 0.0012 1 -0.0958 0.1122)" fill="#D9D9D8" width="134.725" height="126.151"/>
	<g>
		<g>
			<g>
				<path fill="#5B6475" d="M44.094,49.393l-0.02-16.309l4.307-0.006l3.396,5.973c0.97,1.717,1.939,3.748,2.668,5.586h0.071
					c-0.243-2.152-0.319-4.355-0.321-6.799l-0.006-4.768l3.388-0.002l0.019,16.307l-3.871,0.006l-3.491-6.287
					c-0.97-1.74-2.037-3.846-2.839-5.756l-0.071,0.025c0.1,2.152,0.15,4.451,0.153,7.113l0.005,4.91L44.094,49.393z"/>
				<path fill="#5B6475" d="M70.482,42.465l-6,0.008l0.004,3.871l6.702-0.008l0.005,3.025l-10.405,0.012L60.77,33.064l10.065-0.012
					l0.003,3.023l-6.363,0.008l0.004,3.389l6.001-0.008L70.482,42.465z"/>
				<path fill="#5B6475" d="M76.514,49.354l-3.89-16.303l3.944-0.004l1.242,6.725c0.364,1.936,0.706,4.039,0.974,5.684h0.048
					c0.264-1.766,0.65-3.727,1.059-5.736l1.373-6.68l3.92-0.004l1.313,6.871c0.365,1.91,0.634,3.652,0.877,5.467h0.05
					c0.238-1.814,0.598-3.727,0.936-5.662l1.323-6.682l3.75-0.004L89.241,49.34l-3.991,0.004l-1.389-7.016
					c-0.315-1.645-0.584-3.168-0.78-5.031h-0.049c-0.286,1.838-0.552,3.389-0.938,5.033l-1.54,7.02L76.514,49.354z"/>
				<path fill="#5B6475" d="M95.284,45.533c0.992,0.508,2.519,1.014,4.091,1.012c1.693-0.002,2.589-0.705,2.588-1.77
					c-0.003-1.016-0.776-1.596-2.738-2.295c-2.71-0.941-4.479-2.439-4.481-4.809c-0.003-2.783,2.317-4.916,6.165-4.92
					c1.839-0.002,3.193,0.383,4.163,0.816l-0.819,2.979c-0.654-0.314-1.816-0.771-3.413-0.771c-1.598,0.002-2.371,0.73-2.368,1.576
					c0,1.041,0.92,1.5,3.027,2.295c2.878,1.061,4.235,2.561,4.239,4.857c0.002,2.736-2.101,5.061-6.576,5.066
					c-1.862,0-3.703-0.48-4.622-0.988L95.284,45.533z"/>
			</g>
		</g>
		
			<rect x="112.758" y="36.29" transform="matrix(1 -0.0012 0.0012 1 -0.0495 0.1604)" fill="#658283" width="40.487" height="9.662"/>
	</g>
	
		<rect x="38.054" y="52.65" transform="matrix(1 -0.0012 0.0012 1 -0.0642 0.1145)" fill="#949292" width="121.254" height="5.549"/>
	
		<rect x="38.483" y="61.459" transform="matrix(1 -0.0012 0.0012 1 -0.0932 0.0816)" fill="#658283" width="64.313" height="38.627"/>
	
		<rect x="106.156" y="61.387" transform="matrix(1 -0.0012 0.0012 1 -0.0746 0.1561)" fill="#949292" width="53.162" height="4.381"/>
	
		<rect x="106.169" y="72.803" transform="matrix(1 -0.0012 0.0012 1 -0.0881 0.1561)" fill="#949292" width="53.161" height="4.381"/>
	
		<rect x="106.182" y="84.22" transform="matrix(1 -0.0011 0.0011 1 -0.0983 0.1513)" fill="#949292" width="53.161" height="4.379"/>
	
		<rect x="106.196" y="95.633" transform="matrix(1 -0.0012 0.0012 1 -0.1149 0.1562)" fill="#949292" width="53.161" height="4.381"/>
	
		<rect x="39.917" y="106.836" transform="matrix(1 -0.0011 0.0011 1 -0.1316 0.1123)" fill="#D46D3E" width="115.756" height="15.898"/>
	
		<rect x="39.938" y="128.497" transform="matrix(1 -0.0012 0.0012 1 -0.1557 0.0752)" fill="#658283" width="48.356" height="8.905"/>
	
		<rect x="105.671" y="128.42" transform="matrix(1 -0.0012 0.0012 1 -0.1555 0.1532)" fill="#658283" width="50.022" height="8.905"/>
	<rect x="39.952" y="142.105" transform="matrix(1 -0.0012 0.0012 1 -0.1688 0.0752)" fill="#949292" width="48.4" height="4.381"/>
	
		<rect x="107.308" y="142.029" transform="matrix(1 -0.0012 0.0012 1 -0.1687 0.154)" fill="#949292" width="48.401" height="4.379"/>
</g>
</svg>
