<?xml version="1.0" encoding="utf-8"?>
<!-- Generator: Adobe Illustrator 16.0.4, SVG Export Plug-In . SVG Version: 6.00 Build 0)  -->
<!DOCTYPE svg PUBLIC "-//W3C//DTD SVG 1.1//EN" "http://www.w3.org/Graphics/SVG/1.1/DTD/svg11.dtd">
<svg version="1.1" id="Layer_1" xmlns="http://www.w3.org/2000/svg" xmlns:xlink="http://www.w3.org/1999/xlink" x="0px" y="0px"
	 width="131.333px" height="179.333px" viewBox="0 0 131.333 179.333" enable-background="new 0 0 131.333 179.333"
	 xml:space="preserve">
<g>
	<g>
		<g>
			<g>
				<path fill="#A1C4DA" d="M68.091,56.714C58.41,39.739,42.805,44.712,42.805,44.712L20.852,4.753L5.268,13.316l21.953,39.958
					c0,0-12.564,10.504-3.43,27.779c0.006,0.033,0.021,0.1,0.021,0.1l0.221,0.4l51.59,93.9c8.874-1.084,17.159-4.613,24.114-8.658
					c7.144-3.701,14.563-8.801,20.239-15.709l-51.592-93.9l-0.22-0.4C68.166,56.786,68.117,56.737,68.091,56.714z"/>
			</g>
			<g>
				
					<rect x="36.272" y="82.749" transform="matrix(0.8764 -0.4815 0.4815 0.8764 -39.2618 41.6772)" fill="#7EA2B2" width="50.605" height="29.178"/>
			</g>
			<g>
				<polygon fill="#7EA2B2" points="21.377,2.839 20.474,3.335 4.274,12.236 3.374,12.731 10.205,25.166 11.106,24.67 22.302,45.05 
					38.502,36.147 27.305,15.77 28.208,15.274 				"/>
			</g>
		</g>
		<path fill="#A1C4DA" d="M82.104,90.054c1.605,2.922,0.537,6.592-2.385,8.197l-27.25,14.971c-2.922,1.605-6.591,0.539-8.197-2.383
			l-2.655-4.834c-1.605-2.922-0.538-6.592,2.384-8.197l27.25-14.971c2.922-1.605,6.592-0.539,8.197,2.383L82.104,90.054z"/>
	</g>
</g>
</svg>
