<?xml version="1.0" encoding="utf-8"?>
<!-- Generator: Adobe Illustrator 16.0.4, SVG Export Plug-In . SVG Version: 6.00 Build 0)  -->
<!DOCTYPE svg PUBLIC "-//W3C//DTD SVG 1.1//EN" "http://www.w3.org/Graphics/SVG/1.1/DTD/svg11.dtd">
<svg version="1.1" id="Layer_1" xmlns="http://www.w3.org/2000/svg" xmlns:xlink="http://www.w3.org/1999/xlink" x="0px" y="0px"
	 width="134.667px" height="184px" viewBox="0 0 134.667 184" enable-background="new 0 0 134.667 184" xml:space="preserve">
<g>
	<g>
		<polygon fill="#86A4B4" points="107.45,12.24 120.365,15.981 120.919,15.187 121.738,16.378 124.042,17.045 123.24,18.567 
			126.807,23.766 126.201,24.784 106.843,13.26 		"/>
		<path fill="#A1C4DA" d="M93.695,35.345l13.148-22.085l19.357,11.524l-13.147,22.083c0,0,10.421,22.273-1.846,42.881
			c-12.267,20.605-50.927,85.547-50.927,85.547h-0.002c-3.336,5.377-18.076,2.559-33.016-6.336S2.82,148.452,5.958,142.956
			l-0.002-0.002c0,0,38.659-64.939,50.927-85.547C69.15,36.801,93.695,35.345,93.695,35.345z"/>
	</g>
	<path fill="#BFD9E7" d="M106.187,7.261c-1.027,1.724-0.463,3.954,1.263,4.979l19.357,11.525c1.725,1.025,3.954,0.46,4.981-1.264
		l0,0c1.026-1.725,0.459-3.954-1.265-4.98L111.166,5.997C109.442,4.971,107.213,5.536,106.187,7.261L106.187,7.261z"/>
	<g>
		<polygon fill="#FFFFFF" points="104.535,41.338 116.88,20.672 123.042,24.351 110.701,45.008 		"/>
		<path fill="#FFFFFF" d="M105.993,58.956c-0.161-3.07-0.618-5.666-1.108-7.678l8.083,4.812c0.067,0.664,0.124,1.35,0.167,2.055
			c0.316,5.203-0.143,10.541-1.369,15.865c-0.928,4.027-2.296,8.053-4.09,12.033l-6.202-3.691
			C104.882,74.54,106.4,66.7,105.993,58.956z"/>
		<path fill="#FFFFFF" d="M50.333,169.278L97.56,89.946c0.027-0.049,0.055-0.094,0.082-0.141l6.166,3.67
			c-0.027,0.047-0.055,0.094-0.082,0.141l-47.664,80.066c0,0-9.664,2.801-28.113-8.18C27.949,165.502,45.235,171.741,50.333,169.278
			z"/>
	</g>
</g>
</svg>
