<?xml version="1.0" encoding="utf-8"?>
<!-- Generator: Adobe Illustrator 16.0.4, SVG Export Plug-In . SVG Version: 6.00 Build 0)  -->
<!DOCTYPE svg PUBLIC "-//W3C//DTD SVG 1.1//EN" "http://www.w3.org/Graphics/SVG/1.1/DTD/svg11.dtd">
<svg version="1.1" id="Layer_1" xmlns="http://www.w3.org/2000/svg" xmlns:xlink="http://www.w3.org/1999/xlink" x="0px" y="0px"
	 width="103.333px" height="118.667px" viewBox="0 0 103.333 118.667" enable-background="new 0 0 103.333 118.667"
	 xml:space="preserve">
<path fill="#A1C4DA" d="M58.327,19.142C52.596,12.075,45.553,6.917,38.04,2.337l-2.258,1.577L6.658,24.263L4.4,25.841
	c1.716,8.63,4.137,17.017,8.803,24.829c0.996,1.668,2.312,3.709,3.678,5.266c9.082,10.326,21.32,3.416,31.561,6.436
	c6.096,1.797,26.496,30.65,28.162,36.229c1.281,4.289-2.727,8.59-6.299,11.878c-1.303,1.199-3.971,2.391-3.545,4.611
	c4.641-1.949,11.277-6.167,17.607-10.626c6.361-4.408,12.607-9.191,16.033-12.877c-1.939-1.164-3.975,0.932-5.549,1.742
	c-4.318,2.223-9.734,4.508-13.322,1.83c-4.664-3.482-24.744-32.562-24.334-38.904c0.686-10.653,11.385-19.77,4.809-31.848
	C61.016,22.588,59.549,20.651,58.327,19.142z"/>
</svg>
