<?xml version="1.0" encoding="utf-8"?>
<!-- Generator: Adobe Illustrator 16.0.4, SVG Export Plug-In . SVG Version: 6.00 Build 0)  -->
<!DOCTYPE svg PUBLIC "-//W3C//DTD SVG 1.1//EN" "http://www.w3.org/Graphics/SVG/1.1/DTD/svg11.dtd">
<svg version="1.1" id="Layer_1" xmlns="http://www.w3.org/2000/svg" xmlns:xlink="http://www.w3.org/1999/xlink" x="0px" y="0px"
	 width="197.5px" height="249px" viewBox="0 0 197.5 249" enable-background="new 0 0 197.5 249" xml:space="preserve">
<g>
	<g>
		<path fill="#020202" d="M30.638,239.732c0,2.508-2.032,4.54-4.54,4.54h-9.188c-2.508,0-4.54-2.032-4.54-4.54v-31.248
			c0-2.507,2.032-4.54,4.54-4.54h9.188c2.508,0,4.54,2.033,4.54,4.54V239.732z"/>
		<path fill="#020202" d="M187.63,239.732c0,2.508-2.032,4.54-4.54,4.54h-9.188c-2.508,0-4.54-2.032-4.54-4.54v-31.248
			c0-2.507,2.032-4.54,4.54-4.54h9.188c2.508,0,4.54,2.033,4.54,4.54V239.732z"/>
	</g>
	<g>
		<path fill="#0165AB" d="M189.374,18.977c0-0.304-0.009-0.605-0.021-0.907H10.646c-0.013,0.301-0.021,0.603-0.021,0.907
			l0.349,6.999l177.071,19.719L189.374,18.977z"/>
		<path fill="#0099CF" d="M10.974,25.976l9.81,197.227c0,12.307,9.977,22.283,22.283,22.283h5.004H151.93h5.003
			c12.307,0,22.283-9.977,22.283-22.283l8.829-177.507L10.974,25.976z"/>
	</g>
	<path fill="#0099CF" d="M196.5,16.604c0,3.364-2.728,6.09-6.092,6.09H9.591c-3.364,0-6.091-2.727-6.091-6.09V8.091
		C3.5,4.727,6.227,2,9.591,2h180.817c3.364,0,6.092,2.727,6.092,6.091V16.604z"/>
	<g>
		<path fill="#FFFFFF" d="M109.814,102.905l-8.926,6.282l11.705-1.397l0.517-0.062l1.491-0.175l10.407-1.244l4.463-8.938
			l0.467-0.938l5.921-11.858l-9.076,6.388l-7.828-13.558c-2.1-3.238-4.307-4.653-6.48-4.878c-3.85-0.189-7.764,3.268-10.545,6.647
			c-0.763,0.967-1.456,1.948-2.069,2.875c-0.242,0.366-0.475,0.724-0.689,1.069c0.213,0.442,0.448,0.918,0.689,1.402
			c0.328,0.662,0.675,1.35,1.052,2.081C103.199,91.052,106.33,96.745,109.814,102.905z"/>
		<path fill="#FFFFFF" d="M133.428,145.692c-1.16-0.084-2.466-0.166-3.891-0.233c-4.998-0.244-11.492-0.381-18.57-0.442
			l-0.979-10.871l-4.642,10.836l-0.203,0.478l-0.595,1.38l-4.126,9.637l5.51,8.332l0.576,0.874l7.311,11.056l-0.996-11.056h15.657
			c3.855-0.196,6.181-1.401,7.464-3.172c2.09-3.239,1.052-8.357-0.484-12.456C134.823,148.456,134.097,146.961,133.428,145.692z"/>
		<path fill="#FFFFFF" d="M151.354,138.392c0.019-1.24-0.245-1.985-0.406-2.335l-0.193-0.333l-13.921-24.117l-16.071,8.527
			c0.998,1.674,2.206,3.8,3.485,6.078l8.791,15.225c0.314,0.476,1.031,1.613,1.874,3.165l0.051,0.007l0.261,0.478
			c0.645,1.18,1.384,2.74,2.029,4.464c1.296,3.306,2.349,7.092,1.655,10.395L151.354,138.392z"/>
		<path fill="#FFFFFF" d="M99.86,78.805c0.237-0.31,0.48-0.621,0.737-0.933c2.216-2.772,4.967-5.576,8.172-6.629H99.86H83.883
			c-1.083,0.605-1.597,1.203-1.819,1.52l-0.192,0.331L67.949,97.21l15.42,9.654c0.949-1.702,2.188-3.811,3.52-6.058l8.789-15.225
			c0.256-0.511,0.882-1.7,1.803-3.207l-0.021-0.044l0.285-0.466C98.292,80.968,99.014,79.905,99.86,78.805z"/>
		<path fill="#FFFFFF" d="M60.932,145.742c1.703,0.248,3.363,0.368,4.792,0.421c0.656-0.962,1.378-2.054,2.148-3.25
			c2.712-4.208,6.076-9.767,9.669-15.865l9.903,4.59l-7.062-9.439l-0.312-0.416l-0.899-1.203l-6.281-8.391l-9.97,0.605l-1.046,0.063
			l-13.229,0.802l10.071,4.667l-7.828,13.556c-1.755,3.438-1.874,6.058-0.983,8.052C51.665,143.364,56.617,145.024,60.932,145.742z"
			/>
		<path fill="#FFFFFF" d="M87.188,147.953H69.606c-0.569,0.034-1.913,0.089-3.676,0.043l-0.03,0.041l-0.546-0.016
			c-1.347-0.031-3.064-0.171-4.884-0.475c-3.511-0.529-7.314-1.513-9.825-3.762l12.443,21.554c1.062,0.635,1.841,0.781,2.222,0.817
			h0.386h27.845l0.65-18.182C92.244,147.998,89.799,147.983,87.188,147.953z"/>
	</g>
</g>
<g>
	<g>
		<path fill="#FFFFFF" d="M86.19,213.818c-0.884,0.301-2.56,0.715-4.234,0.715c-2.314,0-3.99-0.583-5.156-1.712
			c-1.167-1.092-1.807-2.748-1.788-4.611c0.019-4.216,3.086-6.624,7.245-6.624c1.638,0,2.898,0.319,3.52,0.621l-0.602,2.295
			c-0.697-0.301-1.562-0.545-2.955-0.545c-2.391,0-4.197,1.355-4.197,4.103c0,2.616,1.638,4.159,3.99,4.159
			c0.658,0,1.186-0.075,1.411-0.188v-2.654h-1.957v-2.24h4.724V213.818z"/>
		<path fill="#FFFFFF" d="M88.43,201.717h2.88v10.276h5.044v2.409H88.43V201.717z"/>
		<path fill="#FFFFFF" d="M101.114,211.146l-0.903,3.256h-2.974l3.877-12.686h3.764l3.934,12.686h-3.087l-0.978-3.256H101.114z
			 M104.333,209l-0.791-2.69c-0.226-0.753-0.451-1.694-0.64-2.446h-0.038c-0.188,0.752-0.376,1.712-0.583,2.446l-0.753,2.69H104.333
			z"/>
		<path fill="#FFFFFF" d="M110.6,211.447c0.771,0.396,1.957,0.791,3.181,0.791c1.317,0,2.014-0.547,2.014-1.375
			c0-0.79-0.603-1.242-2.127-1.787c-2.107-0.734-3.481-1.9-3.481-3.746c0-2.164,1.807-3.82,4.799-3.82
			c1.431,0,2.484,0.302,3.237,0.641l-0.641,2.314c-0.508-0.244-1.411-0.602-2.653-0.602s-1.844,0.564-1.844,1.223
			c0,0.81,0.715,1.167,2.352,1.788c2.24,0.828,3.294,1.995,3.294,3.782c0,2.127-1.638,3.934-5.119,3.934
			c-1.449,0-2.879-0.376-3.595-0.771L110.6,211.447z"/>
		<path fill="#FFFFFF" d="M120.762,211.447c0.771,0.396,1.957,0.791,3.181,0.791c1.317,0,2.014-0.547,2.014-1.375
			c0-0.79-0.602-1.242-2.127-1.787c-2.107-0.734-3.481-1.9-3.481-3.746c0-2.164,1.807-3.82,4.8-3.82c1.43,0,2.483,0.302,3.236,0.641
			l-0.64,2.314c-0.508-0.244-1.411-0.602-2.653-0.602s-1.845,0.564-1.845,1.223c0,0.81,0.715,1.167,2.353,1.788
			c2.239,0.828,3.294,1.995,3.294,3.782c0,2.127-1.638,3.934-5.119,3.934c-1.449,0-2.88-0.376-3.595-0.771L120.762,211.447z"/>
	</g>
</g>
</svg>
