<?xml version="1.0" encoding="utf-8"?>
<!-- Generator: Adobe Illustrator 16.0.4, SVG Export Plug-In . SVG Version: 6.00 Build 0)  -->
<!DOCTYPE svg PUBLIC "-//W3C//DTD SVG 1.1//EN" "http://www.w3.org/Graphics/SVG/1.1/DTD/svg11.dtd">
<svg version="1.1" id="Layer_1" xmlns="http://www.w3.org/2000/svg" xmlns:xlink="http://www.w3.org/1999/xlink" x="0px" y="0px"
	 width="1920px" height="1080px" viewBox="0 0 1920 1080" enable-background="new 0 0 1920 1080" xml:space="preserve">
<g>
	<rect fill-rule="evenodd" clip-rule="evenodd" fill="#BDF9F6" width="1920" height="734.739"/>
</g>
<g>
	<g>
		<path fill-rule="evenodd" clip-rule="evenodd" fill="#FFFFFF" d="M1919.631,88.49c-12.179-3.376-18.458,1.893-21.897,11.359
			c-4.322-7.509-11.99-10.002-20.951-10.507c17.133-51.242-53.955-46.036-48.055-5.238c-16.312-11.864-49.411-3.628-64.652,12.243
			c-19.12-7.73-41.335,12.526-43.669,27.956c-3.691-12.936-25.526-13.189-31.616-4.48c-6.879-2.588-15.682,11.643-11.17,20.193
			c-24.958-5.521-66.544-1.01-74.243,9.624h316.254V88.49z"/>
		<path fill-rule="evenodd" clip-rule="evenodd" fill="#B9DFF7" d="M1603.377,149.639c19.121-8.866,47.771-10.065,84.939-4.385
			c-11.012-5.9-3.817-22.908,10.034-21.393c-1.577,2.903-1.577,6.121,0,9.592c6.563-3.787,17.732-0.505,20.541,3.502
			c5.554-16.881,26.852-30.291,43.228-25.779c6.405-15.556,20.889-22.844,37.579-20.509c-15.492,1.452-24.517,8.583-29.723,22.718
			c15.492-14.956,61.371-11.611,73.393,4.354c10.538-2.84,20.004,0.883,24.895,7.004c-3.975-8.488-10.759-12.811-19.657-13.978
			c-2.492-8.331-6.09-16.439-15.303-23.602c-1.546-8.425,5.395-28.334,17.479-26.63c-6.594,1.893-8.803,20.699-6.562,27.956
			c10.255-2.114,17.923,4.165,19.216,10.917c18.742-1.704,27.009,12.874,27.104,23.57c4.512-3.187,12.715-1.767,18.332,3.502
			c-5.68-2.272-10.729-0.663-12.243,1.736c8.74-2.051,16.598-0.694,23.002,6.562v14.861H1603.377z"/>
	</g>
	<g>
		<path fill-rule="evenodd" clip-rule="evenodd" fill="#FFFFFF" d="M-0.369,79.366c16.092-4.449,24.359,2.524,28.902,14.987
			c5.711-9.876,15.808-13.157,27.704-13.82c-22.655-67.649,71.183-60.802,63.421-6.91c21.519-15.682,65.22-4.828,85.319,16.124
			c25.274-10.192,54.586,16.534,57.647,36.917c4.89-17.069,33.698-17.385,41.776-5.9c9.024-3.408,20.667,15.366,14.735,26.662
			c32.941-7.32,87.812-1.356,98.003,12.684H-0.369V79.366z"/>
		<path fill-rule="evenodd" clip-rule="evenodd" fill="#B9DFF7" d="M417.139,160.11c-25.242-11.706-63.042-13.284-112.139-5.774
			c14.546-7.793,5.048-30.259-13.252-28.271c2.114,3.849,2.114,8.078,0,12.684c-8.677-5.017-23.412-0.662-27.104,4.639
			c-7.352-22.308-35.465-39.978-57.079-34.014c-8.456-20.573-27.577-30.196-49.569-27.104c20.415,1.925,32.31,11.328,39.188,29.976
			c-20.446-19.752-80.996-15.335-96.867,5.774c-13.915-3.755-26.378,1.136-32.847,9.213c5.206-11.17,14.167-16.881,25.937-18.458
			c3.281-10.98,8.045-21.677,20.193-31.111c2.051-11.169-7.131-37.453-23.065-35.181c8.677,2.493,11.611,27.325,8.646,36.885
			c-13.505-2.777-23.633,5.521-25.368,14.419c-24.707-2.24-35.624,17.007-35.75,31.143c-5.995-4.228-16.786-2.367-24.232,4.606
			c7.51-2.997,14.167-0.883,16.155,2.304c-11.517-2.714-21.898-0.916-30.354,8.645v19.626H417.139z"/>
	</g>
	<g>
		<path fill-rule="evenodd" clip-rule="evenodd" fill="#FFFFFF" d="M1645.657,48.639c8.93-26.789-29.88-23.98-27.514-7.573
			c-5.144-3.723-15.587-1.136-20.384,3.881c-11.516-10.728-30.732,7.226-27.293,13.757c-7.889-1.736-20.982-0.315-23.412,3.029
			h133.059C1675.854,53.119,1662.002,46.083,1645.657,48.639L1645.657,48.639z"/>
		<path fill-rule="evenodd" clip-rule="evenodd" fill="#B9DFF7" d="M1547.055,61.733c8.33-3.502,17.07-2.776,25.81-1.641
			c2.493-6.248,8.142-11.454,14.704-9.718c-3.881,0.947-5.648,3.597-6.595,6.91c6.09-5.679,12.464-5.932,18.964-3.376
			c2.397-9.119,9.876-11.233,19.152-10.917c3.281-6.248,12.716-9.308,16.629-5.301c0.094-1.231-1.673-2.524-3.377-2.935
			c10.76-2.208,14.325,10.128,11.486,16.628c15.996-0.221,30.101,1.356,36.285,10.349
			C1635.75,61.733,1591.386,61.733,1547.055,61.733L1547.055,61.733z"/>
	</g>
	<g>
		<path fill-rule="evenodd" clip-rule="evenodd" fill="#FFFFFF" d="M268.272,164.591c16.88-50.611-56.48-45.311-52-14.293
			c-9.718-7.068-29.502-2.177-38.558,7.289c-21.771-20.226-58.121,13.662-51.589,26.062c-14.893-3.313-39.693-0.599-44.3,5.743
			h251.571C325.32,173.047,299.163,159.763,268.272,164.591L268.272,164.591z"/>
		<path fill-rule="evenodd" clip-rule="evenodd" fill="#B9DFF7" d="M81.826,189.391c15.776-6.689,32.279-5.269,48.812-3.155
			c4.702-11.801,15.43-21.614,27.83-18.364c-7.383,1.767-10.696,6.815-12.527,13.063c11.549-10.76,23.602-11.233,35.907-6.405
			c4.512-17.197,18.648-21.204,36.16-20.572c6.216-11.864,24.043-17.638,31.458-10.034c0.158-2.335-3.155-4.828-6.405-5.553
			c20.352-4.165,27.072,19.121,21.708,31.427c30.291-0.442,56.921,2.556,68.627,19.594
			C249.53,189.391,165.694,189.391,81.826,189.391L81.826,189.391z"/>
	</g>
	<g>
		<path fill-rule="evenodd" clip-rule="evenodd" fill="#FFFFFF" d="M559.316,48.823c10.728-32.216-35.97-28.84-33.099-9.119
			c-6.185-4.48-18.774-1.357-24.548,4.638c-13.852-12.874-36.979,8.709-32.846,16.597c-9.466-2.114-25.243-0.379-28.177,3.66h160.1
			C595.602,54.187,578.974,45.73,559.316,48.823L559.316,48.823z"/>
		<path fill-rule="evenodd" clip-rule="evenodd" fill="#B9DFF7" d="M440.646,64.6c10.065-4.26,20.541-3.376,31.08-2.02
			c2.998-7.509,9.813-13.757,17.702-11.674c-4.702,1.135-6.815,4.322-7.983,8.298c7.352-6.847,15.019-7.131,22.844-4.07
			c2.902-10.949,11.895-13.505,23.033-13.095c3.944-7.541,15.303-11.232,20.004-6.374c0.126-1.483-1.987-3.061-4.07-3.534
			c12.937-2.65,17.228,12.148,13.82,20.004c19.278-0.284,36.223,1.609,43.669,12.464C547.389,64.6,494.001,64.6,440.646,64.6
			L440.646,64.6z"/>
	</g>
	<g>
		<path fill-rule="evenodd" clip-rule="evenodd" fill="#FFFFFF" d="M1225.104,80.226c11.454-34.361-38.368-30.764-35.308-9.718
			c-6.594-4.796-20.036-1.452-26.188,4.954c-14.767-13.725-39.473,9.276-35.023,17.701c-10.129-2.24-26.947-0.41-30.07,3.881
			h170.796C1263.819,85.968,1246.087,76.944,1225.104,80.226L1225.104,80.226z"/>
		<path fill-rule="evenodd" clip-rule="evenodd" fill="#B9DFF7" d="M1098.514,97.043c10.729-4.512,21.897-3.565,33.131-2.146
			c3.219-7.983,10.475-14.672,18.899-12.463c-5.017,1.23-7.257,4.638-8.487,8.897c7.826-7.32,16.029-7.636,24.359-4.354
			c3.092-11.675,12.684-14.42,24.579-13.978c4.196-8.046,16.313-11.99,21.33-6.816c0.126-1.578-2.146-3.25-4.323-3.754
			c13.789-2.84,18.364,12.968,14.735,21.33c20.541-0.284,38.62,1.736,46.572,13.284
			C1212.389,97.043,1155.435,97.043,1098.514,97.043L1098.514,97.043z"/>
	</g>
	<g>
		<path fill-rule="evenodd" clip-rule="evenodd" fill="#FFFFFF" d="M1347.781,96.317c16.376-49.128-54.839-43.953-50.484-13.852
			c-9.466-6.878-28.619-2.114-37.453,7.068c-21.109-19.626-56.385,13.252-50.074,25.305c-14.452-3.218-38.527-0.6-42.975,5.554
			h244.188C1403.125,104.521,1377.757,91.647,1347.781,96.317L1347.781,96.317z"/>
		<path fill-rule="evenodd" clip-rule="evenodd" fill="#B9DFF7" d="M1166.795,120.393c15.334-6.469,31.331-5.112,47.393-3.061
			c4.574-11.422,14.955-20.983,27.009-17.828c-7.163,1.736-10.413,6.626-12.18,12.685c11.232-10.444,22.907-10.886,34.865-6.216
			C1268.268,89.281,1281.994,85.4,1299,86c5.996-11.485,23.318-17.134,30.513-9.719c0.157-2.271-3.062-4.701-6.217-5.427
			c19.753-4.007,26.284,18.553,21.077,30.543c29.376-0.441,55.25,2.461,66.609,18.995
			C1329.576,120.393,1248.169,120.393,1166.795,120.393L1166.795,120.393z"/>
	</g>
	<g>
		<path fill-rule="evenodd" clip-rule="evenodd" fill="#FFFFFF" d="M254.326,267.706c7.888-23.665-26.41-21.172-24.296-6.689
			c-4.575-3.313-13.789-1.01-18.048,3.408c-10.16-9.466-27.167,6.374-24.106,12.179c-6.942-1.546-18.553-0.284-20.699,2.683h117.598
			C280.988,271.65,268.777,265.434,254.326,267.706L254.326,267.706z"/>
		<path fill-rule="evenodd" clip-rule="evenodd" fill="#B9DFF7" d="M167.177,279.286c7.383-3.124,15.083-2.462,22.812-1.483
			c2.209-5.49,7.226-10.097,13-8.582c-3.439,0.852-4.985,3.187-5.837,6.121c5.396-5.017,11.044-5.269,16.787-2.998
			c2.114-8.046,8.708-9.908,16.912-9.624c2.871-5.522,11.233-8.235,14.672-4.67c0.095-1.104-1.451-2.272-2.966-2.619
			c9.498-1.925,12.653,8.929,10.128,14.703c14.167-0.221,26.599,1.199,32.089,9.151
			C245.554,279.286,206.365,279.286,167.177,279.286L167.177,279.286z"/>
	</g>
	<g>
		<path fill-rule="evenodd" clip-rule="evenodd" fill="#FFFFFF" d="M735.104,185.226c11.454-34.361-38.368-30.764-35.308-9.718
			c-6.594-4.796-20.036-1.452-26.188,4.954c-14.767-13.725-39.473,9.276-35.023,17.701c-10.129-2.24-26.947-0.41-30.07,3.881H779.31
			C773.819,190.968,756.087,181.944,735.104,185.226L735.104,185.226z"/>
		<path fill-rule="evenodd" clip-rule="evenodd" fill="#B9DFF7" d="M608.514,202.043c10.729-4.512,21.897-3.565,33.131-2.146
			c3.219-7.983,10.475-14.672,18.899-12.463c-5.017,1.23-7.257,4.638-8.487,8.897c7.826-7.32,16.029-7.636,24.359-4.354
			c3.092-11.675,12.684-14.42,24.579-13.978c4.196-8.046,16.313-11.99,21.33-6.816c0.126-1.578-2.146-3.25-4.323-3.754
			c13.789-2.84,18.364,12.968,14.735,21.33c20.541-0.284,38.62,1.736,46.572,13.284
			C722.389,202.043,665.435,202.043,608.514,202.043L608.514,202.043z"/>
	</g>
	<g>
		<path fill-rule="evenodd" clip-rule="evenodd" fill="#FFFFFF" d="M857.781,201.317c16.376-49.128-54.839-43.953-50.484-13.852
			c-9.466-6.878-28.619-2.114-37.453,7.068c-21.109-19.626-56.385,13.252-50.074,25.305c-14.452-3.218-38.527-0.6-42.975,5.554
			h244.188C913.125,209.521,887.757,196.647,857.781,201.317L857.781,201.317z"/>
		<path fill-rule="evenodd" clip-rule="evenodd" fill="#B9DFF7" d="M676.795,225.393c15.334-6.469,31.331-5.112,47.393-3.061
			c4.574-11.422,14.955-20.983,27.009-17.828c-7.163,1.736-10.413,6.626-12.18,12.685c11.232-10.444,22.907-10.886,34.865-6.216
			C778.268,194.281,791.994,190.4,809,191c5.996-11.485,23.318-17.134,30.513-9.719c0.157-2.271-3.062-4.701-6.217-5.427
			c19.753-4.007,26.284,18.553,21.077,30.543c29.376-0.441,55.25,2.461,66.609,18.995
			C839.576,225.393,758.169,225.393,676.795,225.393L676.795,225.393z"/>
	</g>
</g>
<rect y="309.531" fill-rule="evenodd" clip-rule="evenodd" fill="#FFD862" width="1922.678" height="770.018"/>
<g>
	<rect y="253.217" fill-rule="evenodd" clip-rule="evenodd" fill="#29BCC5" width="1919.679" height="136.655"/>
	<path fill-rule="evenodd" clip-rule="evenodd" fill="#FFFFFF" d="M1035.552,375.832c14.052-1.231,25.493-13.441,39.622-12.526
		c14.052,0.946,22.652,15.491,36.551,17.543c10.75,1.578,20.578-7.004,31.482-7.51c12.978-0.63,25.647,4.859,38.625,4.166
		c18.275-0.979,35.514-9.277,53.826-9.182c93.566,0.473,167.282,3.849,260.81,2.082c12.477-0.221,32.634-5.048,44.919-6.91
		c10.099-1.514,25.303,6.626,35.592,6.5c12.976-0.158,21.038-4.386,34.016-4.386c8.831,0,19.236,3.313,27.951,4.386
		c7.756,0.946,15.55-3.124,23.344-2.492c6.833,0.536,12.478,6.09,19.312,5.836c9.944-0.347,18.505-6.941,28.45-7.509
		c18.928-1.104,38.2,5.333,56.898,2.493c15.319-2.335,26.185-5.459,41.389-8.33c9.367-1.799,18.812,4.006,28.45,4.165
		c8.216,0.126,16.316-4.765,24.38-3.345c13.477,2.367,24.495,2.146,37.816,5.017c6.719,1.42,13.784-1.104,20.694-1.672v25.714H0
		v-15.838c24.188,0.03,48.376,1.229,72.525,0.125c23.842-1.072,47.301-7.572,71.105-6.657c20.195,0.757,38.816,9.971,58.934,11.673
		c12.861,1.105,25.686-2.65,38.585-3.344c18.276-0.979,36.627-0.537,54.865-1.673c18.352-1.104,36.474-5.868,54.865-4.985
		c28.104,1.356,55.133,10.885,83.275,11.674c31.944,0.884,63.542-6.689,95.485-6.689c13.168,0,25.454,6.406,38.624,6.689
		c12.363,0.285,24.188-5.017,36.55-5.017c15.703,0,31.022,5.363,46.726,5.017c11.172-0.22,21.346-6.406,32.519-6.689
		c13.016-0.283,25.57,4.638,38.624,5.017c6.872,0.19,13.399-3.722,20.31-3.344c12.747,0.726,24.803,7.131,37.588,6.531
		c12.478-0.567,23.151-8.456,35.553-9.876c12.094-1.356,24.457,0.474,36.55,1.673c10.29,1.042,20.119,5.017,30.485,5.017
		c23.112,0,45.957-4.511,69.069-5.017C979.996,373.56,1007.909,378.293,1035.552,375.832L1035.552,375.832z"/>
</g>
<g>
	<g>
		<polygon fill-rule="evenodd" clip-rule="evenodd" fill="#FFCC99" points="1233.83,253.22 1250.144,228.293 1273.304,216.177 
			1283.811,207.752 1300.659,207.215 1320.128,200.369 1338.05,184.056 1352.249,161.432 1383.298,160.896 1418.573,180.901 
			1440.155,176.704 1474.896,189.861 1495.437,224.601 1507.521,228.293 1520.174,253.22 		"/>
		<polygon fill-rule="evenodd" clip-rule="evenodd" fill="#1FA394" points="1241.972,240.756 1250.144,228.293 1273.304,216.177 
			1283.811,207.752 1300.659,207.215 1320.128,200.369 1338.05,184.056 1352.249,161.432 1383.298,160.896 1418.573,180.901 
			1440.155,176.704 1474.896,189.861 1495.437,224.601 1507.521,228.293 1512.159,237.412 1506.479,243.028 1480.953,239.873 
			1464.641,244.322 1440.407,235.897 1415.418,234.067 1393.3,241.704 1370.14,237.475 1346.979,243.281 1316.973,235.393 
			1299.619,242.744 1279.078,244.606 1269.359,241.955 1260.146,246.184 		"/>
		<path fill-rule="evenodd" clip-rule="evenodd" fill="#34C290" d="M1243.706,238.074l6.438-9.781l23.16-12.117l10.507-8.424
			l16.849-0.537l19.469-6.847l17.922-16.312l14.199-22.624l31.206,14.262l0.852,15.839l-8.361,7.952l15.87,0.411l22.939-12.117
			l12.969-1.672l-11.706,10.853l-6.248,13.379l-30.89,13.347l-11.707-8.772l-24.611,7.1l-12.525,7.51l-17.545-4.165l16.692-8.771
			l-16.692-2.492l-17.101,5.426l-6.689-7.099l-21.708,18.364l-12.937,3.345l-5.018,3.755L1243.706,238.074z M1460.254,218.259
			l-10.002,2.935l-4.165,3.755l6.657-2.083L1460.254,218.259z M1449.4,196.96l-16.25,5.87l-5.869,7.92l12.527-1.262l4.165-5.428
			l4.605-1.23L1449.4,196.96z"/>
	</g>
	<g>
		<polygon fill-rule="evenodd" clip-rule="evenodd" fill="#FFCC99" points="1073.1,253.22 1080.957,241.167 1097.207,231.259 
			1113.74,220.089 1162.237,218.322 1172.682,216.272 1189.436,222.645 1199.343,239.399 1205.181,241.167 1211.271,253.22 		"/>
		<polygon fill-rule="evenodd" clip-rule="evenodd" fill="#1FA394" points="1077.013,247.193 1080.957,241.167 1097.207,231.259 
			1113.74,220.089 1162.237,218.322 1172.682,216.272 1189.436,222.645 1199.343,239.399 1205.181,241.167 1207.421,245.584 
			1204.676,248.297 1192.37,246.751 1184.482,248.929 1172.808,244.859 1160.723,243.975 1150.058,247.666 1138.889,245.616 
			1127.719,248.424 1113.235,244.606 1104.842,248.171 1094.936,249.055 1090.234,247.793 1085.784,249.812 		"/>
		<path fill-rule="evenodd" clip-rule="evenodd" fill="#34C290" d="M1077.864,245.899l3.093-4.733l11.17-5.837l5.08-4.07
			l16.533-11.17l37.58-1.389l-9.624,8.583l7.636,0.189l11.075-5.837l6.247-0.789l-5.647,5.238l-2.998,6.437l-14.924,6.438
			l-5.648-4.229l-11.864,3.439l-6.058,3.597l-8.456-1.988l8.046-4.228l-8.046-1.23l-8.267,2.619l-3.219-3.408l-10.476,8.866
			l-6.247,1.609l-2.398,1.799L1077.864,245.899z M1182.368,236.339l-4.827,1.42l-2.021,1.798l3.219-1.009L1182.368,236.339z
			 M1177.13,226.084l-7.856,2.809l-2.808,3.817l6.025-0.6l2.02-2.618l2.209-0.6L1177.13,226.084z"/>
	</g>
</g>
<g>
	<g>
		<g>
			<path fill-rule="evenodd" clip-rule="evenodd" fill="#C47D47" d="M0,827.7c21.172-3.503,31.458,32.278,47.203,48.401
				c14.451,15.303,33.951,16.438,43.385,45.94C88.632,933.371,42.912,936.178,0,939.555V827.7z"/>
			<path fill-rule="evenodd" clip-rule="evenodd" fill="#A35E3B" d="M85.003,927.659C71.246,934.443,34.708,936.841,0,939.555
				v-9.088C29.912,928.763,52.914,937.347,85.003,927.659L85.003,927.659z"/>
			<path fill-rule="evenodd" clip-rule="evenodd" fill="#FFB773" d="M0,827.7c21.172-3.503,31.458,32.278,47.203,48.401
				c13.946,14.798,32.594,16.344,42.376,43.007c-3.345,3.124-6.69,4.765-10.034,3.754c-11.517-10.854-19.847-11.705-27.987-11.896
				c12.621,2.936,18.774,8.33,19.437,15.871c-15.493,1.39-30.575-0.788-44.679-11.075c-10.254,1.609-19.658,1.8-26.315-2.713v-52.03
				c11.454,3.406,12.053,16.975,20.667,23.034c7.542,7.571,9.624,19.12,22.561,22.749c-10.413-4.733-11.422-14.482-17.133-21.709
				C17.417,876.259,14.861,863.544,0,858.59V827.7z"/>
		</g>
		<g>
			<path fill-rule="evenodd" clip-rule="evenodd" fill="#C47D47" d="M36.191,951.545c-4.954-23.065-1.735-41.46,18.364-50.076
				c11.801-23.633,34.645-32.75,64.273-32.972c58.026-8.235,93.365,6.247,113.528,35.876c43.511,6.752,46.761,19.532,45.499,33.004
				c-7.036,7.416-26.599,9.688-65.946,3.755C179.252,958.423,118.923,960.948,36.191,951.545L36.191,951.545z"/>
			<path fill-rule="evenodd" clip-rule="evenodd" fill="#A35E3B" d="M36.191,951.545c-4.071-18.901-2.65-34.678,9.087-44.49
				c-4.765,10.571-4.638,20.131,1.735,28.461c15.051,7.162,33.888,5.964,53.987,1.987c26.22,14.893,50.201,12.873,73.645,7.1
				c-2.083-2.303-5.112-4.354-9.182-6.247c16.376,1.988,30.891-1.578,44.458-7.92c1.42-4.513,3.628-8.457,7.51-11.295
				c-4.165,21.55,26.599,20.256,50.516,23.442c-10.634,2.84-28.492,2.682-56.038-1.451
				C179.252,958.423,118.923,960.948,36.191,951.545L36.191,951.545z"/>
			<path fill-rule="evenodd" clip-rule="evenodd" fill="#FFB773" d="M85.918,873.735c9.624-3.534,20.699-5.144,32.91-5.238
				c58.026-8.235,93.365,6.247,113.528,35.876c27.482,4.259,38.904,10.948,43.29,18.68c-20.32,10.821-37.989,6.594-54.965-1.546
				c0.063-6.501,2.998-11.739,9.182-15.461c-10.191,1.766-19.09,6.184-26.504,13.788c-7.541,7.415-19.026,10.729-32.973,11.485
				c-7.731-3.692-15.587-4.322-23.602-3.123c-5.017-5.869-10.759-9.625-17.732-9.625c6.878,1.861,11.075,5.869,13.789,11.075
				c6.027,0.537,10.791,1.956,13.757,4.575c-0.063,2.051-2.84,3.533-9.592,4.197c-12.811-1.23-25.242-3.409-34.424-13.568
				c-24.769,3.282-46.604,4.039-54.082-7.729c3.218-10.351,10.917-14.326,19.437-17.135c5.521-9.497,14.987-14.419,26.062-17.511
				c-10.917,1.703-20.919,5.615-28.523,15.113c-5.143,0.41-10.223,1.294-15.082,3.66C63.895,888.47,73.518,880.109,85.918,873.735
				L85.918,873.735z M127.347,880.329c14.672-1.23,28.208,1.231,39.852,10.003c10.192-5.301,23.949-6.91,42.786-3.313
				c-8.172-5.144-18.269-6.973-31.71-2.934C160.163,875.975,143.471,876.449,127.347,880.329L127.347,880.329z"/>
		</g>
		<g>
			<path fill-rule="evenodd" clip-rule="evenodd" fill="#C47D47" d="M296.345,945.234c0.473-2.524,1.388-4.639,3.218-5.995
				c1.893-2.872,4.259-4.322,7.509-3.092c2.745,0.914,4.67,2.523,5.207,5.205c0.441,0.82,1.23,2.272,0.662,3.976
				C310.291,947.602,300.92,946.906,296.345,945.234L296.345,945.234z"/>
			<path fill-rule="evenodd" clip-rule="evenodd" fill="#A35E3B" d="M299.216,939.522c-0.915,1.705-1.104,3.061-0.884,4.26
				c3.787,1.988,8.298,2.366,13.031,2.366c-3.755,1.23-11.106,0.506-15.019-0.914C296.787,942.868,297.639,940.881,299.216,939.522
				L299.216,939.522z"/>
			<path fill-rule="evenodd" clip-rule="evenodd" fill="#FFB773" d="M303.823,935.799L303.823,935.799
				c0.979-0.188,2.051-0.094,3.25,0.349c2.745,0.914,4.67,2.523,5.207,5.205c0.347,0.632,0.915,1.673,0.852,2.872
				c-0.694,0.6-1.988,0.852-4.165,0.283c-4.292,0.568-7.731,0.127-8.898-2.934C300.194,939.049,301.393,937.314,303.823,935.799
				L303.823,935.799z"/>
		</g>
		<g>
			<path fill-rule="evenodd" clip-rule="evenodd" fill="#C47D47" d="M209.101,961.642c0.474-2.493,1.42-4.638,3.218-5.964
				c1.925-2.903,4.291-4.354,7.541-3.092c2.745,0.916,4.67,2.493,5.206,5.207c0.411,0.82,1.231,2.239,0.663,3.943
				C223.047,964.04,213.708,963.314,209.101,961.642L209.101,961.642z"/>
			<path fill-rule="evenodd" clip-rule="evenodd" fill="#A35E3B" d="M211.972,955.93c-0.883,1.704-1.073,3.094-0.883,4.261
				c3.787,1.988,8.33,2.398,13.031,2.367c-3.755,1.229-11.106,0.503-15.019-0.916C209.543,959.307,210.395,957.287,211.972,955.93
				L211.972,955.93z"/>
			<path fill-rule="evenodd" clip-rule="evenodd" fill="#FFB773" d="M216.61,952.239L216.61,952.239
				c0.979-0.222,2.051-0.127,3.25,0.347c2.745,0.916,4.67,2.493,5.206,5.207c0.316,0.63,0.884,1.641,0.853,2.869
				c-0.694,0.601-2.02,0.853-4.197,0.286c-4.291,0.535-7.699,0.093-8.866-2.936C212.982,955.489,214.181,953.754,216.61,952.239
				L216.61,952.239z"/>
		</g>
		<g>
			<path fill-rule="evenodd" clip-rule="evenodd" fill="#C47D47" d="M226.234,970.824c0.378-1.988,1.104-3.661,2.524-4.733
				c1.515-2.272,3.408-3.44,5.964-2.43c2.177,0.726,3.691,1.956,4.133,4.101c0.315,0.664,0.978,1.8,0.504,3.124
				C237.246,972.717,229.863,972.148,226.234,970.824L226.234,970.824z"/>
			<path fill-rule="evenodd" clip-rule="evenodd" fill="#A35E3B" d="M228.506,966.312c-0.726,1.357-0.852,2.43-0.694,3.377
				c2.998,1.546,6.563,1.861,10.286,1.861c-2.966,0.977-8.772,0.41-11.864-0.726C226.582,968.961,227.244,967.384,228.506,966.312
				L228.506,966.312z"/>
			<path fill-rule="evenodd" clip-rule="evenodd" fill="#FFB773" d="M232.166,963.378L232.166,963.378
				c0.758-0.159,1.609-0.096,2.556,0.283c2.177,0.726,3.691,1.956,4.133,4.101c0.252,0.506,0.694,1.295,0.663,2.273
				c-0.537,0.472-1.578,0.662-3.313,0.22c-3.375,0.442-6.089,0.096-7.004-2.303C229.295,965.933,230.242,964.575,232.166,963.378
				L232.166,963.378z"/>
		</g>
		<g>
			<path fill-rule="evenodd" clip-rule="evenodd" fill="#C47D47" d="M12.779,977.985c1.798-9.496,5.301-17.511,12.085-22.56
				c7.226-10.887,16.187-16.377,28.397-11.676c10.35,3.471,17.606,9.467,19.626,19.628c7.32,1.229,12.716,5.3,15.019,13.757
				C77.841,985.78,30.038,984.266,12.779,977.985L12.779,977.985z"/>
			<path fill-rule="evenodd" clip-rule="evenodd" fill="#A35E3B" d="M12.779,977.985c1.672-8.897,4.859-16.471,10.823-21.55
				c-3.408,6.437-4.102,11.58-3.376,16.06c16.344,8.521,36.286,9.245,56.795,8.835C58.91,984.928,26.378,982.939,12.779,977.985
				L12.779,977.985z"/>
			<path fill-rule="evenodd" clip-rule="evenodd" fill="#FFB773" d="M40.987,942.458c3.691-0.789,7.762-0.442,12.274,1.292
				c10.35,3.471,17.606,9.467,19.626,19.628c2.24,0.882,4.102,1.893,5.427,3.123c-1.704,2.492-5.301,2.429-9.908,1.041
				c-3.029-5.111-7.352-8.362-13.378-9.087c5.301,1.482,8.708,4.701,10.665,9.182c2.208,1.231,3.376,3.249,4.26,5.427
				c-1.199-1.609-2.998-2.935-6.342-3.438c0.284,2.46-0.631,4.416-3.25,5.646c-16.218,2.115-29.124,0.442-33.509-11.075
				c1.578-4.006,4.954-6.025,11.391-4.574c-2.745-1.829-5.68-2.809-8.993-2.43C30.701,951.86,33.415,946.718,40.987,942.458
				L40.987,942.458z"/>
		</g>
		<g>
			<path fill-rule="evenodd" clip-rule="evenodd" fill="#C47D47" d="M109.962,978.459c0.757-4.008,2.24-7.383,5.111-9.529
				c3.029-4.574,6.815-6.909,11.99-4.922c4.354,1.451,7.447,3.977,8.267,8.267c0.694,1.326,1.987,3.63,1.073,6.312
				C132.144,982.246,117.25,981.11,109.962,978.459L109.962,978.459z"/>
			<path fill-rule="evenodd" clip-rule="evenodd" fill="#A35E3B" d="M114.537,969.371c-1.451,2.714-1.735,4.892-1.419,6.784
				c6.027,3.124,13.221,3.756,20.73,3.756c-5.964,1.956-17.67,0.82-23.886-1.452C110.656,974.705,112.013,971.518,114.537,969.371
				L114.537,969.371z"/>
			<path fill-rule="evenodd" clip-rule="evenodd" fill="#FFB773" d="M121.889,963.471L121.889,963.471
				c1.546-0.347,3.282-0.188,5.175,0.537c4.354,1.451,7.447,3.977,8.267,8.267c0.536,1.041,1.451,2.65,1.388,4.575
				c-1.104,0.979-3.218,1.389-6.658,0.474c-6.847,0.884-12.306,0.189-14.167-4.67C116.114,968.646,118.008,965.869,121.889,963.471
				L121.889,963.471z"/>
		</g>
	</g>
	<g>
		<g>
			<path fill-rule="evenodd" clip-rule="evenodd" fill="#C47D47" d="M324.458,932.802c1.798-9.497,5.301-17.48,12.117-22.528
				c7.194-10.886,16.155-16.407,28.366-11.674c10.381,3.47,17.606,9.434,19.626,19.594c7.32,1.262,12.716,5.301,15.019,13.788
				C389.521,940.627,341.75,939.112,324.458,932.802L324.458,932.802z"/>
			<path fill-rule="evenodd" clip-rule="evenodd" fill="#A35E3B" d="M324.458,932.802c1.704-8.865,4.859-16.438,10.823-21.518
				c-3.408,6.403-4.102,11.578-3.345,16.06c16.312,8.486,36.286,9.244,56.795,8.804
				C370.589,939.743,338.058,937.755,324.458,932.802L324.458,932.802z"/>
			<path fill-rule="evenodd" clip-rule="evenodd" fill="#FFB773" d="M352.698,897.305c3.692-0.788,7.73-0.441,12.243,1.295
				c10.381,3.47,17.606,9.434,19.626,19.594c2.24,0.884,4.102,1.924,5.427,3.123c-1.704,2.493-5.301,2.462-9.908,1.072
				c-3.029-5.143-7.352-8.359-13.347-9.087c5.27,1.484,8.677,4.703,10.633,9.183c2.208,1.23,3.376,3.219,4.26,5.426
				c-1.199-1.607-2.966-2.933-6.342-3.438c0.284,2.462-0.6,4.418-3.25,5.617c-16.187,2.145-29.123,0.474-33.478-11.044
				c1.578-4.007,4.922-6.026,11.359-4.605c-2.745-1.832-5.679-2.809-8.961-2.398C342.381,906.676,345.125,901.564,352.698,897.305
				L352.698,897.305z"/>
		</g>
		<g>
			<path fill-rule="evenodd" clip-rule="evenodd" fill="#C47D47" d="M383.084,941.73c0.757-4.005,2.24-7.383,5.111-9.497
				c3.061-4.606,6.815-6.941,11.99-4.953c4.386,1.482,7.446,4.008,8.298,8.299c0.663,1.294,1.956,3.597,1.042,6.311
				C405.266,945.519,390.373,944.414,383.084,941.73L383.084,941.73z"/>
			<path fill-rule="evenodd" clip-rule="evenodd" fill="#A35E3B" d="M387.659,932.644c-1.451,2.715-1.735,4.892-1.419,6.784
				c6.026,3.155,13.252,3.787,20.761,3.756c-5.995,1.988-17.701,0.82-23.917-1.453C383.81,937.977,385.135,934.79,387.659,932.644
				L387.659,932.644z"/>
			<path fill-rule="evenodd" clip-rule="evenodd" fill="#FFB773" d="M395.011,926.743L395.011,926.743
				c1.546-0.347,3.282-0.188,5.175,0.537c4.386,1.482,7.446,4.008,8.298,8.299c0.505,1.009,1.42,2.618,1.357,4.574
				c-1.104,0.947-3.219,1.357-6.658,0.442c-6.847,0.884-12.306,0.189-14.136-4.67C389.236,931.918,391.129,929.142,395.011,926.743
				L395.011,926.743z"/>
		</g>
		<g>
			<path fill-rule="evenodd" clip-rule="evenodd" fill="#C47D47" d="M434.768,928.385c0.473-2.523,1.419-4.639,3.218-5.964
				c1.925-2.902,4.292-4.354,7.542-3.124c2.745,0.947,4.669,2.525,5.206,5.207c0.41,0.852,1.23,2.271,0.662,3.976
				C448.714,930.751,439.374,930.057,434.768,928.385L434.768,928.385z"/>
			<path fill-rule="evenodd" clip-rule="evenodd" fill="#A35E3B" d="M437.639,922.674c-0.883,1.703-1.073,3.061-0.883,4.26
				c3.786,1.987,8.33,2.366,13.031,2.366c-3.754,1.23-11.106,0.506-15.019-0.915C435.209,926.018,436.061,924.03,437.639,922.674
				L437.639,922.674z"/>
			<path fill-rule="evenodd" clip-rule="evenodd" fill="#FFB773" d="M442.277,918.981L442.277,918.981
				c0.978-0.22,2.051-0.126,3.25,0.315c2.745,0.947,4.669,2.525,5.206,5.207c0.315,0.662,0.883,1.672,0.852,2.871
				c-0.694,0.599-2.019,0.885-4.196,0.284c-4.292,0.568-7.73,0.126-8.866-2.934C438.648,922.232,439.847,920.465,442.277,918.981
				L442.277,918.981z"/>
		</g>
		<g>
			<path fill-rule="evenodd" clip-rule="evenodd" fill="#C47D47" d="M461.019,937.787c0.379-1.988,1.104-3.659,2.525-4.733
				c1.515-2.271,3.407-3.438,5.963-2.428c2.177,0.726,3.692,1.956,4.102,4.101c0.347,0.662,0.978,1.8,0.537,3.124
				C472.031,939.682,464.616,939.112,461.019,937.787L461.019,937.787z"/>
			<path fill-rule="evenodd" clip-rule="evenodd" fill="#A35E3B" d="M463.292,933.275c-0.726,1.356-0.884,2.43-0.726,3.376
				c2.998,1.546,6.595,1.862,10.318,1.862c-2.966,0.978-8.803,0.41-11.864-0.727C461.367,935.926,462.029,934.348,463.292,933.275
				L463.292,933.275z"/>
			<path fill-rule="evenodd" clip-rule="evenodd" fill="#FFB773" d="M466.92,930.341L466.92,930.341
				c0.789-0.157,1.641-0.094,2.587,0.285c2.177,0.726,3.692,1.956,4.102,4.101c0.252,0.506,0.726,1.326,0.694,2.271
				c-0.568,0.474-1.609,0.695-3.313,0.222c-3.407,0.442-6.121,0.095-7.036-2.303C464.049,932.897,464.995,931.54,466.92,930.341
				L466.92,930.341z"/>
		</g>
	</g>
</g>
<g>
	<g>
		<g>
			<path fill-rule="evenodd" clip-rule="evenodd" fill="#34C290" d="M1661.424,970.764c21.551-19.057,31.049-5.238,29.66,20.793
				c14.641-15.145,20.636-6.12,12.306,14.011c7.604-5.048,11.99-1.956,12.116,10.602c8.992-18.175,13.126-13.063,12.905,2.493
				c21.077-19.657,39.725-10.445,33.667,22.876c10.444,5.554,7.257,12.589-10.223,19.972c2.934-0.314,4.448,0.315,3.028,2.557
				c19.026-7.826,42.502-8.236,33.479,15.934h-261.417c-7.067-20.414,4.576-35.15,32.374-30.386
				c-12.874-16.438-8.866-23.789,12.053-18.143c-14.956-34.107-5.237-42.911,23.034-20.698c-1.799-20.509,14.641-15.776,19.595-2.84
				c0.946-14.325,6.089-17.354,15.87-5.9C1622.235,968.713,1631.291,944.386,1661.424,970.764L1661.424,970.764z"/>
			<path fill-rule="evenodd" clip-rule="evenodd" fill="#057551" d="M1686.383,965.906c3.786,4.921,5.301,14.072,4.701,25.65
				c14.641-15.145,20.636-6.12,12.306,14.011c7.604-5.048,11.99-1.956,12.116,10.602c8.992-18.175,13.126-13.063,12.905,2.493
				c21.077-19.657,39.725-10.445,33.667,22.876c10.444,5.554,7.257,12.589-10.223,19.972c2.934-0.314,4.448,0.315,3.028,2.557
				c19.026-7.826,42.502-8.236,33.479,15.934h-256.399c-0.727-15.112,11.201-24.674,34.361-20.697
				c-12.843-16.44-8.867-23.792,12.053-18.144c-14.956-34.109-5.237-42.911,23.034-20.699c-1.799-20.51,14.64-15.776,19.594-2.84
				c0.979-14.324,6.121-17.354,15.903-5.9c-7.637-33.319,1.388-57.646,31.521-31.268
				C1672.688,973.131,1678.968,968.461,1686.383,965.906L1686.383,965.906z"/>
		</g>
		<g>
			<path fill-rule="evenodd" clip-rule="evenodd" fill="#34C290" d="M1894.79,948.235c10.317-9.119,18.71-12.937,25.21-12.621V1080
				h-218.787c4.164-15.397,20.54-24.012,47.991-19.311c-18.332-23.442-12.621-33.951,17.196-25.872
				c-21.361-48.655-7.478-61.182,32.815-29.533c-2.524-29.25,20.889-22.466,27.956-4.04c1.356-20.445,8.708-24.769,22.655-8.394
				C1838.941,945.333,1851.814,910.625,1894.79,948.235L1894.79,948.235z"/>
			<path fill-rule="evenodd" clip-rule="evenodd" fill="#057551" d="M1920,947.258V1080h-206.261
				c7.763-8.361,21.961-12.084,42.122-8.613c-3.092-3.977-5.521-7.573-7.225-10.792c0.189,0.031,0.379,0.063,0.567,0.095
				c-0.536-0.693-1.072-1.355-1.546-2.02c-6.784-14.262,1.673-19.594,25.432-13.188c-21.361-48.624-7.478-61.182,32.814-29.502
				c-2.555-29.25,20.889-22.466,27.957-4.071c1.356-20.414,8.709-24.736,22.623-8.394c-10.886-47.518,2.02-82.194,44.994-44.584
				C1908.547,952.652,1914.731,948.898,1920,947.258L1920,947.258z"/>
		</g>
	</g>
	<g>
		<g>
			<path fill-rule="evenodd" clip-rule="evenodd" fill="#34C290" d="M274.762,1042.578c21.551-19.026,31.017-5.238,29.66,20.793
				c14.609-15.145,20.635-6.089,12.306,14.042c5.585-3.724,9.434-3.03,11.138,2.587h-120.28
				c-0.189-17.479,15.019-12.59,19.752-0.252c0.947-14.325,6.09-17.354,15.871-5.868
				C235.574,1040.527,244.629,1016.2,274.762,1042.578L274.762,1042.578z M333.482,1080c3.723-5.048,6.153-4.447,7.383,0H333.482z
				 M177.769,1080c-0.694-12.526,8.771-13.095,26.568,0H177.769z"/>
			<path fill-rule="evenodd" clip-rule="evenodd" fill="#057551" d="M299.721,1037.719c3.787,4.923,5.301,14.074,4.702,25.652
				c14.609-15.145,20.635-6.089,12.306,14.042c5.585-3.724,9.434-3.03,11.138,2.587h-78.377
				c-6.216-31.458,3.218-53.166,32.278-27.733C286.027,1044.945,292.306,1040.307,299.721,1037.719L299.721,1037.719z M333.482,1080
				c3.723-5.048,6.153-4.447,7.383,0H333.482z M217.431,1080c2.429-2.398,6.058-2.113,9.466,0H217.431z M236.205,1080
				c2.02-4.511,5.522-4.732,10.665,0H236.205z"/>
		</g>
		<g>
			<path fill-rule="evenodd" clip-rule="evenodd" fill="#34C290" d="M39.347,1020.87c21.55-19.026,31.016-5.238,29.66,20.793
				c14.609-15.145,20.635-6.089,12.305,14.042c7.573-5.048,11.959-1.988,12.116,10.57c8.993-18.144,13.095-13.063,12.906,2.524
				c18.363-17.134,34.866-12.369,34.803,11.2H0v-34.423c2.146,0.851,4.765,3.028,7.793,6.594
				C0.158,1018.818,9.214,994.492,39.347,1020.87L39.347,1020.87z"/>
			<path fill-rule="evenodd" clip-rule="evenodd" fill="#057551" d="M64.273,1016.011c3.787,4.923,5.333,14.073,4.733,25.652
				c14.609-15.145,20.635-6.089,12.305,14.042c7.573-5.048,11.959-1.988,12.116,10.57c8.993-18.144,13.095-13.063,12.906,2.524
				c18.363-17.134,34.866-12.369,34.803,11.2H0v-19.467c2.114-7.764,6.973-7.856,14.798,1.324c-7.636-33.351,1.42-57.68,31.553-31.3
				C50.579,1023.236,56.89,1018.599,64.273,1016.011L64.273,1016.011z"/>
		</g>
	</g>
</g>
</svg>
