<?xml version="1.0" encoding="utf-8"?>
<!-- Generator: Adobe Illustrator 16.0.4, SVG Export Plug-In . SVG Version: 6.00 Build 0)  -->
<!DOCTYPE svg PUBLIC "-//W3C//DTD SVG 1.1//EN" "http://www.w3.org/Graphics/SVG/1.1/DTD/svg11.dtd">
<svg version="1.1" id="Layer_1" xmlns="http://www.w3.org/2000/svg" xmlns:xlink="http://www.w3.org/1999/xlink" x="0px" y="0px"
	 width="1920px" height="1080px" viewBox="0 0 1920 1080" enable-background="new 0 0 1920 1080" xml:space="preserve">
<g>
	<g id="BG">
		<g>
			<g>
				<rect fill="#BDF9F6" width="1920" height="734.739"/>
			</g>
			<g>
				<g>
					<path fill="#FFFFFF" d="M1919.631,88.49c-12.179-3.376-18.458,1.893-21.896,11.359c-4.322-7.509-11.99-10.002-20.951-10.507
						c17.133-51.242-53.955-46.036-48.057-5.238c-16.312-11.864-49.411-3.628-64.65,12.243c-19.12-7.73-41.335,12.526-43.669,27.956
						c-3.691-12.936-25.526-13.189-31.616-4.48c-6.879-2.588-15.682,11.643-11.17,20.193c-24.958-5.521-66.544-1.01-74.243,9.624
						h316.254L1919.631,88.49L1919.631,88.49z"/>
					<path fill="#B9DFF7" d="M1603.377,149.639c19.121-8.866,47.771-10.065,84.939-4.385c-11.014-5.9-3.817-22.908,10.032-21.393
						c-1.576,2.903-1.576,6.121,0,9.592c6.563-3.787,17.732-0.505,20.541,3.502c5.556-16.881,26.854-30.291,43.229-25.779
						c6.404-15.556,20.889-22.844,37.579-20.509c-15.492,1.452-24.519,8.583-29.725,22.718
						c15.492-14.956,61.371-11.611,73.395,4.354c10.538-2.84,20.004,0.883,24.895,7.004c-3.975-8.488-10.759-12.811-19.657-13.978
						c-2.49-8.331-6.09-16.439-15.303-23.602c-1.546-8.425,5.396-28.334,17.479-26.63c-6.595,1.893-8.804,20.699-6.562,27.956
						c10.255-2.114,17.923,4.165,19.216,10.917c18.742-1.704,27.011,12.874,27.104,23.57c4.512-3.187,12.715-1.767,18.332,3.502
						c-5.681-2.272-10.729-0.663-12.243,1.736c8.74-2.051,16.598-0.694,23.002,6.562v14.861h-316.254V149.639L1603.377,149.639z"/>
				</g>
				<g>
					<path fill="#FFFFFF" d="M0.631,79.366c16.092-4.449,24.359,2.524,28.902,14.987c5.711-9.876,15.808-13.157,27.704-13.82
						c-22.655-67.649,71.183-60.802,63.421-6.91c21.519-15.682,65.22-4.828,85.319,16.124
						c25.274-10.192,54.586,16.534,57.647,36.917c4.89-17.069,33.698-17.385,41.776-5.9c9.024-3.408,20.667,15.366,14.735,26.662
						c32.941-7.32,87.812-1.356,98.003,12.684H0.631V79.366z"/>
					<path fill="#B9DFF7" d="M418.139,160.11c-25.24-11.706-63.042-13.284-112.139-5.774c14.546-7.793,5.048-30.259-13.252-28.271
						c2.114,3.849,2.114,8.078,0,12.684c-8.677-5.017-23.412-0.662-27.104,4.639c-7.352-22.308-35.465-39.978-57.079-34.014
						c-8.456-20.573-27.577-30.196-49.569-27.104c20.415,1.925,32.31,11.328,39.188,29.976
						c-20.446-19.752-80.996-15.335-96.867,5.774c-13.915-3.755-26.378,1.136-32.847,9.213c5.206-11.17,14.167-16.881,25.937-18.458
						c3.281-10.98,8.045-21.677,20.193-31.111c2.051-11.169-7.131-37.453-23.065-35.181c8.677,2.493,11.611,27.325,8.646,36.885
						c-13.505-2.777-23.633,5.521-25.368,14.419c-24.707-2.24-35.624,17.007-35.75,31.143c-5.995-4.228-16.786-2.367-24.232,4.606
						c7.51-2.997,14.167-0.883,16.155,2.304c-11.517-2.714-21.898-0.916-30.354,8.645v19.626L418.139,160.11L418.139,160.11z"/>
				</g>
				<g>
					<path fill="#FFFFFF" d="M1645.657,48.639c8.93-26.789-29.88-23.98-27.516-7.573c-5.144-3.723-15.587-1.136-20.384,3.881
						c-11.516-10.728-30.73,7.226-27.293,13.757c-7.889-1.736-20.98-0.315-23.412,3.029h133.061
						C1675.854,53.119,1662.002,46.083,1645.657,48.639L1645.657,48.639z"/>
					<path fill="#B9DFF7" d="M1547.055,61.733c8.33-3.502,17.07-2.776,25.812-1.641c2.493-6.248,8.142-11.454,14.704-9.718
						c-3.881,0.947-5.648,3.597-6.596,6.91c6.091-5.679,12.465-5.932,18.965-3.376c2.396-9.119,9.876-11.233,19.15-10.917
						c3.281-6.248,12.716-9.308,16.629-5.301c0.096-1.231-1.673-2.524-3.377-2.935c10.762-2.208,14.325,10.128,11.486,16.628
						c15.996-0.221,30.101,1.356,36.285,10.349C1635.75,61.733,1591.386,61.733,1547.055,61.733L1547.055,61.733z"/>
				</g>
				<g>
					<path fill="#FFFFFF" d="M268.272,164.591c16.88-50.611-56.48-45.311-52-14.293c-9.718-7.068-29.502-2.177-38.558,7.289
						c-21.771-20.226-58.121,13.662-51.589,26.062c-14.893-3.313-39.693-0.599-44.3,5.743h251.571
						C325.32,173.047,299.163,159.763,268.272,164.591L268.272,164.591z"/>
					<path fill="#B9DFF7" d="M81.826,189.391c15.776-6.689,32.279-5.269,48.812-3.155c4.702-11.801,15.43-21.614,27.83-18.364
						c-7.383,1.767-10.696,6.815-12.527,13.063c11.549-10.76,23.602-11.233,35.907-6.405c4.512-17.197,18.648-21.204,36.16-20.572
						c6.216-11.864,24.043-17.638,31.458-10.034c0.158-2.335-3.155-4.828-6.405-5.553c20.352-4.165,27.072,19.121,21.708,31.427
						c30.291-0.442,56.921,2.556,68.627,19.594C249.53,189.391,165.694,189.391,81.826,189.391L81.826,189.391z"/>
				</g>
				<g>
					<path fill="#FFFFFF" d="M559.316,48.823c10.728-32.216-35.972-28.84-33.101-9.119c-6.185-4.48-18.772-1.357-24.548,4.638
						c-13.852-12.874-36.979,8.709-32.846,16.597c-9.466-2.114-25.243-0.379-28.179,3.66h160.102
						C595.602,54.187,578.974,45.73,559.316,48.823L559.316,48.823z"/>
					<path fill="#B9DFF7" d="M440.646,64.6c10.063-4.26,20.541-3.376,31.078-2.02c2.998-7.509,9.813-13.757,17.702-11.674
						c-4.702,1.135-6.813,4.322-7.981,8.298c7.352-6.847,15.019-7.131,22.844-4.07c2.902-10.949,11.895-13.505,23.033-13.095
						c3.942-7.541,15.303-11.232,20.004-6.374c0.126-1.483-1.987-3.061-4.07-3.534c12.938-2.65,17.229,12.148,13.82,20.004
						c19.277-0.284,36.223,1.609,43.669,12.464C547.389,64.6,494.001,64.6,440.646,64.6L440.646,64.6z"/>
				</g>
				<g>
					<path fill="#FFFFFF" d="M1225.104,80.226c11.454-34.361-38.366-30.764-35.308-9.718c-6.594-4.796-20.036-1.452-26.188,4.954
						c-14.769-13.725-39.475,9.276-35.023,17.701c-10.129-2.24-26.947-0.41-30.069,3.881h170.797
						C1263.819,85.968,1246.087,76.944,1225.104,80.226L1225.104,80.226z"/>
					<path fill="#B9DFF7" d="M1098.514,97.043c10.729-4.512,21.897-3.565,33.131-2.146c3.221-7.983,10.477-14.672,18.899-12.463
						c-5.017,1.23-7.257,4.638-8.487,8.897c7.826-7.32,16.029-7.636,24.359-4.354c3.092-11.675,12.684-14.42,24.579-13.978
						c4.196-8.046,16.312-11.99,21.33-6.816c0.126-1.578-2.146-3.25-4.323-3.754c13.789-2.84,18.364,12.968,14.735,21.33
						c20.541-0.284,38.62,1.736,46.57,13.284C1212.389,97.043,1155.436,97.043,1098.514,97.043L1098.514,97.043z"/>
				</g>
				<g>
					<path fill="#FFFFFF" d="M1347.781,96.317c16.376-49.128-54.839-43.953-50.484-13.852c-9.466-6.878-28.619-2.114-37.453,7.068
						c-21.107-19.626-56.385,13.252-50.074,25.305c-14.45-3.218-38.525-0.6-42.975,5.554h244.188
						C1403.125,104.521,1377.757,91.647,1347.781,96.317L1347.781,96.317z"/>
					<path fill="#B9DFF7" d="M1166.795,120.393c15.334-6.469,31.331-5.112,47.393-3.061c4.574-11.422,14.955-20.983,27.011-17.828
						c-7.163,1.736-10.413,6.626-12.182,12.685c11.232-10.444,22.907-10.886,34.865-6.216C1268.268,89.281,1281.994,85.4,1299,86
						c5.996-11.485,23.318-17.134,30.513-9.719c0.157-2.271-3.062-4.701-6.217-5.427c19.753-4.007,26.284,18.553,21.077,30.543
						c29.376-0.441,55.25,2.461,66.609,18.995C1329.576,120.393,1248.169,120.393,1166.795,120.393L1166.795,120.393z"/>
				</g>
				<g>
					<path fill="#FFFFFF" d="M254.326,267.706c7.888-23.665-26.41-21.172-24.296-6.689c-4.575-3.313-13.789-1.01-18.048,3.408
						c-10.16-9.466-27.167,6.374-24.106,12.179c-6.942-1.546-18.553-0.284-20.699,2.683h117.598
						C280.988,271.65,268.777,265.434,254.326,267.706L254.326,267.706z"/>
					<path fill="#B9DFF7" d="M167.177,279.286c7.383-3.124,15.083-2.462,22.812-1.483c2.209-5.49,7.226-10.097,13-8.582
						c-3.439,0.852-4.985,3.187-5.837,6.121c5.396-5.017,11.044-5.269,16.787-2.998c2.114-8.046,8.708-9.908,16.912-9.624
						c2.871-5.522,11.233-8.235,14.672-4.67c0.095-1.104-1.451-2.272-2.966-2.619c9.498-1.925,12.653,8.929,10.128,14.703
						c14.167-0.221,26.599,1.199,32.089,9.151C245.554,279.286,206.365,279.286,167.177,279.286L167.177,279.286z"/>
				</g>
				<g>
					<path fill="#FFFFFF" d="M735.104,185.226c11.454-34.361-38.366-30.764-35.308-9.718c-6.594-4.796-20.036-1.452-26.188,4.954
						c-14.769-13.725-39.475,9.276-35.023,17.701c-10.129-2.24-26.947-0.41-30.07,3.881H779.31
						C773.819,190.968,756.087,181.944,735.104,185.226L735.104,185.226z"/>
					<path fill="#B9DFF7" d="M608.514,202.043c10.729-4.512,21.897-3.565,33.131-2.146c3.221-7.983,10.477-14.672,18.899-12.463
						c-5.017,1.23-7.257,4.638-8.487,8.897c7.826-7.32,16.029-7.636,24.359-4.354c3.092-11.675,12.684-14.42,24.579-13.978
						c4.196-8.046,16.312-11.99,21.33-6.816c0.126-1.578-2.146-3.25-4.323-3.754c13.789-2.84,18.364,12.968,14.735,21.33
						c20.541-0.284,38.62,1.736,46.57,13.284C722.389,202.043,665.435,202.043,608.514,202.043L608.514,202.043z"/>
				</g>
				<g>
					<path fill="#FFFFFF" d="M857.781,201.317c16.376-49.128-54.839-43.953-50.484-13.852c-9.466-6.878-28.619-2.114-37.453,7.068
						c-21.107-19.626-56.385,13.252-50.074,25.305c-14.45-3.218-38.525-0.6-42.975,5.554h244.188
						C913.125,209.521,887.757,196.647,857.781,201.317L857.781,201.317z"/>
					<path fill="#B9DFF7" d="M676.795,225.393c15.334-6.469,31.331-5.112,47.393-3.061c4.574-11.422,14.955-20.983,27.011-17.828
						c-7.163,1.736-10.413,6.626-12.182,12.685c11.232-10.444,22.907-10.886,34.865-6.216C778.268,194.281,791.994,190.4,809,191
						c5.996-11.485,23.318-17.134,30.513-9.719c0.157-2.271-3.062-4.701-6.217-5.427c19.753-4.007,26.284,18.553,21.077,30.543
						c29.376-0.441,55.25,2.461,66.609,18.995C839.576,225.393,758.169,225.393,676.795,225.393L676.795,225.393z"/>
				</g>
			</g>
			<rect y="309.531" fill="#FFD862" width="1919.5" height="770.562"/>
			<g>
				<rect y="253.217" fill="#29BCC5" width="1919.679" height="136.655"/>
				<path fill="#FFFFFF" d="M1035.552,375.832c14.052-1.231,25.493-13.441,39.622-12.526c14.052,0.946,22.652,15.491,36.551,17.543
					c10.75,1.578,20.578-7.004,31.482-7.51c12.979-0.63,25.646,4.859,38.625,4.166c18.275-0.979,35.514-9.277,53.826-9.182
					c93.566,0.473,167.282,3.849,260.81,2.082c12.479-0.221,32.634-5.048,44.919-6.91c10.101-1.514,25.303,6.626,35.592,6.5
					c12.978-0.158,21.038-4.386,34.018-4.386c8.831,0,19.234,3.313,27.951,4.386c7.756,0.946,15.55-3.124,23.344-2.492
					c6.833,0.536,12.479,6.09,19.312,5.836c9.943-0.347,18.506-6.941,28.449-7.509c18.93-1.104,38.2,5.333,56.898,2.493
					c15.317-2.335,26.185-5.459,41.389-8.33c9.367-1.799,18.812,4.006,28.45,4.165c8.216,0.126,16.315-4.765,24.38-3.345
					c13.479,2.367,24.495,2.146,37.816,5.017c6.719,1.42,13.783-1.104,20.692-1.672v25.714H0v-15.838
					c24.188,0.03,48.376,1.229,72.525,0.125c23.842-1.072,47.301-7.572,71.105-6.657c20.195,0.757,38.816,9.971,58.934,11.673
					c12.861,1.105,25.686-2.65,38.585-3.344c18.276-0.979,36.627-0.537,54.865-1.673c18.352-1.104,36.474-5.868,54.865-4.985
					c28.104,1.356,55.133,10.885,83.275,11.674c31.942,0.884,63.542-6.689,95.483-6.689c13.168,0,25.454,6.406,38.624,6.689
					c12.363,0.285,24.188-5.017,36.55-5.017c15.703,0,31.022,5.363,46.728,5.017c11.172-0.22,21.346-6.406,32.519-6.689
					c13.018-0.283,25.57,4.638,38.624,5.017c6.872,0.19,13.399-3.722,20.312-3.344c12.747,0.726,24.803,7.131,37.588,6.531
					c12.478-0.567,23.151-8.456,35.553-9.876c12.094-1.356,24.457,0.474,36.55,1.673c10.29,1.042,20.119,5.017,30.485,5.017
					c23.112,0,45.957-4.511,69.069-5.017C979.996,373.56,1007.909,378.293,1035.552,375.832L1035.552,375.832z"/>
			</g>
			<g>
				<g>
					<polygon fill="#FFCC99" points="1233.83,253.22 1250.145,228.293 1273.304,216.177 1283.811,207.752 1300.659,207.215 
						1320.128,200.369 1338.05,184.056 1352.249,161.432 1383.298,160.896 1418.573,180.901 1440.155,176.704 1474.896,189.861 
						1495.438,224.601 1507.521,228.293 1520.174,253.22 					"/>
					<polygon fill="#1FA394" points="1241.972,240.756 1250.145,228.293 1273.304,216.177 1283.811,207.752 1300.659,207.215 
						1320.128,200.369 1338.05,184.056 1352.249,161.432 1383.298,160.896 1418.573,180.901 1440.155,176.704 1474.896,189.861 
						1495.438,224.601 1507.521,228.293 1512.159,237.412 1506.479,243.028 1480.953,239.873 1464.641,244.322 1440.407,235.897 
						1415.418,234.067 1393.3,241.704 1370.14,237.475 1346.979,243.281 1316.973,235.393 1299.619,242.744 1279.078,244.606 
						1269.359,241.955 1260.146,246.184 					"/>
					<path fill="#34C290" d="M1243.706,238.074l6.438-9.781l23.158-12.117l10.508-8.424l16.85-0.537l19.469-6.847l17.922-16.312
						l14.199-22.624l31.206,14.262l0.853,15.839l-8.36,7.952l15.87,0.411l22.938-12.117l12.969-1.672l-11.704,10.853l-6.248,13.379
						l-30.892,13.347l-11.707-8.772l-24.61,7.1l-12.524,7.51l-17.545-4.165l16.691-8.771l-16.691-2.492l-17.103,5.426l-6.688-7.099
						l-21.708,18.364l-12.938,3.345l-5.018,3.755L1243.706,238.074z M1460.254,218.259l-10.002,2.935l-4.165,3.755l6.657-2.083
						L1460.254,218.259z M1449.4,196.96l-16.25,5.87l-5.869,7.92l12.525-1.262l4.165-5.428l4.605-1.23L1449.4,196.96z"/>
				</g>
				<g>
					<polygon fill="#FFCC99" points="1073.1,253.22 1080.957,241.167 1097.207,231.259 1113.74,220.089 1162.237,218.322 
						1172.682,216.272 1189.436,222.645 1199.343,239.399 1205.181,241.167 1211.271,253.22 					"/>
					<polygon fill="#1FA394" points="1077.013,247.193 1080.957,241.167 1097.207,231.259 1113.74,220.089 1162.237,218.322 
						1172.682,216.272 1189.436,222.645 1199.343,239.399 1205.181,241.167 1207.421,245.584 1204.676,248.297 1192.37,246.751 
						1184.482,248.929 1172.808,244.859 1160.723,243.975 1150.058,247.666 1138.889,245.616 1127.719,248.424 1113.235,244.606 
						1104.842,248.171 1094.936,249.055 1090.234,247.793 1085.784,249.812 					"/>
					<path fill="#34C290" d="M1077.864,245.899l3.093-4.733l11.17-5.837l5.08-4.07l16.533-11.17l37.58-1.389l-9.624,8.583
						l7.636,0.189l11.075-5.837l6.247-0.789l-5.647,5.238l-2.998,6.437l-14.924,6.438l-5.648-4.229l-11.862,3.439l-6.06,3.597
						l-8.456-1.988l8.046-4.228l-8.046-1.23l-8.267,2.619l-3.219-3.408l-10.478,8.866l-6.247,1.609l-2.396,1.799L1077.864,245.899z
						 M1182.368,236.339l-4.827,1.42l-2.021,1.798l3.221-1.009L1182.368,236.339z M1177.13,226.084l-7.854,2.809l-2.81,3.817
						l6.025-0.6l2.02-2.618l2.209-0.6L1177.13,226.084z"/>
				</g>
			</g>
			<g>
				<g>
					<g>
						<path fill="#C47D47" d="M0,827.7c21.172-3.503,31.458,32.278,47.203,48.399c14.451,15.305,33.951,16.438,43.385,45.94
							C88.632,933.371,42.912,936.178,0,939.555V827.7z"/>
						<path fill="#A35E3B" d="M85.003,927.659C71.246,934.443,34.708,936.841,0,939.555v-9.088
							C29.912,928.763,52.914,937.347,85.003,927.659L85.003,927.659z"/>
						<path fill="#FFB773" d="M0,827.7c21.172-3.503,31.458,32.278,47.203,48.399c13.946,14.8,32.594,16.346,42.376,43.009
							c-3.345,3.124-6.69,4.765-10.034,3.754c-11.517-10.854-19.847-11.705-27.987-11.896c12.621,2.938,18.774,8.33,19.437,15.871
							c-15.493,1.39-30.575-0.788-44.679-11.075c-10.254,1.609-19.658,1.802-26.315-2.713V861.02
							c11.454,3.405,12.053,16.976,20.667,23.033c7.542,7.571,9.624,19.12,22.561,22.749c-10.413-4.731-11.422-14.48-17.133-21.709
							C17.417,876.259,14.861,863.544,0,858.59V827.7z"/>
					</g>
					<g>
						<path fill="#C47D47" d="M36.191,951.545c-4.954-23.064-1.735-41.46,18.364-50.076c11.801-23.633,34.645-32.75,64.273-32.972
							c58.026-8.235,93.365,6.247,113.528,35.876c43.511,6.752,46.761,19.532,45.499,33.004c-7.036,7.416-26.599,9.688-65.946,3.755
							C179.252,958.423,118.923,960.948,36.191,951.545L36.191,951.545z"/>
						<path fill="#A35E3B" d="M36.191,951.545c-4.071-18.901-2.65-34.678,9.087-44.49c-4.765,10.571-4.638,20.131,1.735,28.461
							c15.051,7.162,33.888,5.966,53.987,1.987c26.22,14.894,50.201,12.873,73.645,7.1c-2.083-2.303-5.112-4.354-9.182-6.247
							c16.376,1.988,30.891-1.576,44.458-7.92c1.42-4.513,3.628-8.457,7.51-11.295c-4.165,21.552,26.599,20.256,50.516,23.442
							c-10.634,2.84-28.492,2.682-56.038-1.451C179.252,958.423,118.923,960.948,36.191,951.545L36.191,951.545z"/>
						<path fill="#FFB773" d="M85.918,873.735c9.624-3.534,20.699-5.146,32.91-5.238c58.026-8.235,93.365,6.247,113.528,35.876
							c27.482,4.259,38.904,10.948,43.29,18.68c-20.32,10.821-37.989,6.594-54.965-1.546c0.063-6.501,2.998-11.739,9.182-15.461
							c-10.191,1.766-19.09,6.185-26.504,13.788c-7.541,7.415-19.026,10.729-32.973,11.485c-7.731-3.692-15.587-4.322-23.602-3.123
							c-5.017-5.869-10.759-9.625-17.732-9.625c6.878,1.859,11.075,5.869,13.789,11.075c6.027,0.535,10.791,1.954,13.757,4.573
							c-0.063,2.052-2.84,3.533-9.592,4.197c-12.811-1.229-25.242-3.409-34.424-13.568c-24.769,3.282-46.604,4.039-54.082-7.729
							c3.218-10.353,10.917-14.326,19.437-17.135c5.521-9.497,14.987-14.419,26.062-17.513
							c-10.917,1.703-20.919,5.615-28.523,15.113c-5.143,0.41-10.223,1.294-15.082,3.66
							C63.895,888.47,73.518,880.109,85.918,873.735L85.918,873.735z M127.347,880.329c14.672-1.23,28.208,1.229,39.852,10.003
							c10.192-5.301,23.949-6.91,42.786-3.313c-8.172-5.144-18.269-6.973-31.71-2.934
							C160.163,875.975,143.471,876.449,127.347,880.329L127.347,880.329z"/>
					</g>
					<g>
						<path fill="#C47D47" d="M296.345,945.234c0.473-2.524,1.388-4.641,3.218-5.995c1.893-2.872,4.259-4.322,7.509-3.092
							c2.745,0.913,4.67,2.521,5.207,5.203c0.439,0.82,1.229,2.272,0.662,3.978C310.291,947.602,300.92,946.906,296.345,945.234
							L296.345,945.234z"/>
						<path fill="#A35E3B" d="M299.216,939.521c-0.915,1.704-1.104,3.062-0.884,4.261c3.787,1.986,8.298,2.366,13.031,2.366
							c-3.755,1.229-11.106,0.506-15.021-0.914C296.787,942.868,297.639,940.881,299.216,939.521L299.216,939.521z"/>
						<path fill="#FFB773" d="M303.823,935.799L303.823,935.799c0.979-0.188,2.051-0.094,3.25,0.351
							c2.745,0.913,4.67,2.521,5.207,5.204c0.347,0.633,0.915,1.674,0.852,2.871c-0.694,0.602-1.988,0.854-4.165,0.283
							c-4.292,0.568-7.731,0.127-8.898-2.934C300.194,939.049,301.393,937.314,303.823,935.799L303.823,935.799z"/>
					</g>
					<g>
						<path fill="#C47D47" d="M209.101,961.642c0.474-2.491,1.42-4.638,3.218-5.964c1.925-2.901,4.291-4.354,7.541-3.092
							c2.745,0.916,4.67,2.493,5.206,5.207c0.411,0.82,1.231,2.239,0.663,3.943C223.047,964.04,213.708,963.314,209.101,961.642
							L209.101,961.642z"/>
						<path fill="#A35E3B" d="M211.972,955.93c-0.883,1.704-1.073,3.096-0.883,4.263c3.787,1.986,8.33,2.396,13.031,2.365
							c-3.755,1.229-11.106,0.503-15.019-0.916C209.543,959.307,210.395,957.287,211.972,955.93L211.972,955.93z"/>
						<path fill="#FFB773" d="M216.61,952.239L216.61,952.239c0.979-0.224,2.051-0.127,3.25,0.347
							c2.745,0.916,4.67,2.493,5.206,5.207c0.316,0.63,0.884,1.641,0.853,2.869c-0.694,0.601-2.02,0.853-4.197,0.286
							c-4.291,0.535-7.699,0.093-8.866-2.938C212.982,955.489,214.181,953.754,216.61,952.239L216.61,952.239z"/>
					</g>
					<g>
						<path fill="#C47D47" d="M226.234,970.824c0.378-1.988,1.104-3.661,2.524-4.733c1.515-2.271,3.408-3.438,5.964-2.43
							c2.177,0.726,3.691,1.956,4.133,4.101c0.315,0.664,0.978,1.802,0.504,3.124C237.246,972.717,229.863,972.148,226.234,970.824
							L226.234,970.824z"/>
						<path fill="#A35E3B" d="M228.506,966.312c-0.726,1.355-0.852,2.43-0.694,3.377c2.998,1.546,6.563,1.859,10.286,1.859
							c-2.966,0.979-8.772,0.41-11.864-0.726C226.582,968.961,227.244,967.384,228.506,966.312L228.506,966.312z"/>
						<path fill="#FFB773" d="M232.166,963.378L232.166,963.378c0.758-0.159,1.609-0.096,2.556,0.283
							c2.177,0.726,3.691,1.956,4.133,4.101c0.252,0.506,0.694,1.295,0.663,2.273c-0.537,0.472-1.578,0.662-3.313,0.22
							c-3.375,0.442-6.089,0.096-7.004-2.303C229.295,965.933,230.242,964.575,232.166,963.378L232.166,963.378z"/>
					</g>
					<g>
						<path fill="#C47D47" d="M12.779,977.985c1.798-9.496,5.301-17.513,12.085-22.562c7.226-10.887,16.187-16.377,28.397-11.676
							c10.35,3.471,17.606,9.467,19.626,19.628c7.32,1.229,12.716,5.3,15.019,13.757C77.841,985.78,30.038,984.266,12.779,977.985
							L12.779,977.985z"/>
						<path fill="#A35E3B" d="M12.779,977.985c1.672-8.897,4.859-16.473,10.823-21.552c-3.408,6.438-4.102,11.58-3.376,16.062
							c16.344,8.521,36.286,9.245,56.795,8.835C58.91,984.928,26.378,982.939,12.779,977.985L12.779,977.985z"/>
						<path fill="#FFB773" d="M40.987,942.458c3.691-0.789,7.762-0.442,12.274,1.292c10.35,3.471,17.606,9.467,19.626,19.628
							c2.24,0.882,4.102,1.894,5.427,3.123c-1.704,2.492-5.301,2.429-9.908,1.041c-3.029-5.111-7.352-8.362-13.378-9.087
							c5.301,1.482,8.708,4.701,10.665,9.182c2.208,1.231,3.376,3.249,4.26,5.429c-1.199-1.609-2.998-2.937-6.342-3.438
							c0.284,2.46-0.631,4.416-3.25,5.646c-16.218,2.113-29.124,0.44-33.509-11.075c1.578-4.006,4.954-6.025,11.391-4.574
							c-2.745-1.829-5.68-2.809-8.993-2.43C30.701,951.86,33.415,946.718,40.987,942.458L40.987,942.458z"/>
					</g>
					<g>
						<path fill="#C47D47" d="M109.962,978.459c0.757-4.008,2.24-7.383,5.111-9.529c3.029-4.572,6.815-6.908,11.99-4.922
							c4.354,1.451,7.447,3.979,8.267,8.269c0.694,1.324,1.987,3.63,1.073,6.312C132.144,982.246,117.25,981.11,109.962,978.459
							L109.962,978.459z"/>
						<path fill="#A35E3B" d="M114.537,969.371c-1.451,2.714-1.735,4.892-1.419,6.784c6.027,3.124,13.221,3.756,20.73,3.756
							c-5.964,1.956-17.67,0.818-23.886-1.452C110.656,974.705,112.013,971.518,114.537,969.371L114.537,969.371z"/>
						<path fill="#FFB773" d="M121.889,963.471L121.889,963.471c1.546-0.347,3.282-0.188,5.175,0.537
							c4.354,1.451,7.447,3.979,8.267,8.269c0.536,1.041,1.451,2.648,1.388,4.573c-1.104,0.979-3.218,1.391-6.658,0.476
							c-6.847,0.884-12.306,0.188-14.167-4.67C116.114,968.646,118.008,965.869,121.889,963.471L121.889,963.471z"/>
					</g>
				</g>
				<g>
					<g>
						<path fill="#C47D47" d="M324.458,932.802c1.798-9.497,5.301-17.479,12.117-22.526c7.192-10.888,16.155-16.407,28.366-11.676
							c10.381,3.472,17.604,9.436,19.626,19.596c7.318,1.262,12.716,5.301,15.019,13.788
							C389.521,940.627,341.75,939.112,324.458,932.802L324.458,932.802z"/>
						<path fill="#A35E3B" d="M324.458,932.802c1.704-8.864,4.859-16.438,10.823-21.518c-3.408,6.403-4.104,11.578-3.347,16.06
							c16.312,8.486,36.286,9.244,56.797,8.806C370.589,939.743,338.058,937.755,324.458,932.802L324.458,932.802z"/>
						<path fill="#FFB773" d="M352.698,897.305c3.69-0.788,7.729-0.439,12.243,1.295c10.381,3.472,17.604,9.436,19.626,19.596
							c2.238,0.884,4.102,1.924,5.427,3.123c-1.704,2.491-5.301,2.462-9.908,1.07c-3.029-5.143-7.352-8.357-13.347-9.087
							c5.27,1.484,8.677,4.703,10.633,9.185c2.208,1.229,3.376,3.219,4.26,5.426c-1.199-1.607-2.966-2.934-6.342-3.438
							c0.284,2.462-0.6,4.418-3.25,5.617c-16.188,2.146-29.123,0.476-33.478-11.044c1.576-4.007,4.922-6.025,11.357-4.604
							c-2.745-1.832-5.679-2.811-8.961-2.398C342.381,906.676,345.125,901.564,352.698,897.305L352.698,897.305z"/>
					</g>
					<g>
						<path fill="#C47D47" d="M383.084,941.73c0.757-4.007,2.24-7.385,5.111-9.497c3.061-4.606,6.813-6.941,11.988-4.953
							c4.388,1.48,7.446,4.008,8.3,8.299c0.663,1.294,1.956,3.597,1.042,6.311C405.266,945.519,390.373,944.414,383.084,941.73
							L383.084,941.73z"/>
						<path fill="#A35E3B" d="M387.659,932.644c-1.451,2.717-1.735,4.894-1.419,6.784c6.024,3.155,13.252,3.787,20.761,3.756
							c-5.995,1.988-17.701,0.82-23.917-1.453C383.81,937.977,385.135,934.79,387.659,932.644L387.659,932.644z"/>
						<path fill="#FFB773" d="M395.011,926.743L395.011,926.743c1.546-0.347,3.282-0.188,5.175,0.537
							c4.388,1.48,7.446,4.008,8.3,8.299c0.505,1.009,1.42,2.618,1.355,4.574c-1.104,0.945-3.219,1.355-6.658,0.44
							c-6.847,0.884-12.306,0.189-14.136-4.67C389.236,931.918,391.129,929.142,395.011,926.743L395.011,926.743z"/>
					</g>
					<g>
						<path fill="#C47D47" d="M434.768,928.385c0.475-2.521,1.421-4.639,3.22-5.964c1.925-2.901,4.292-4.354,7.542-3.124
							c2.745,0.947,4.669,2.525,5.206,5.207c0.408,0.852,1.229,2.271,0.661,3.977C448.714,930.751,439.374,930.057,434.768,928.385
							L434.768,928.385z"/>
						<path fill="#A35E3B" d="M437.639,922.674c-0.883,1.703-1.071,3.062-0.883,4.26c3.786,1.987,8.33,2.366,13.031,2.366
							c-3.754,1.23-11.106,0.506-15.021-0.915C435.209,926.018,436.061,924.03,437.639,922.674L437.639,922.674z"/>
						<path fill="#FFB773" d="M442.277,918.981L442.277,918.981c0.978-0.222,2.051-0.126,3.25,0.313
							c2.745,0.947,4.669,2.525,5.206,5.207c0.313,0.662,0.883,1.672,0.852,2.871c-0.694,0.599-2.019,0.885-4.196,0.284
							c-4.292,0.566-7.729,0.126-8.864-2.936C438.648,922.232,439.847,920.465,442.277,918.981L442.277,918.981z"/>
					</g>
					<g>
						<path fill="#C47D47" d="M461.019,937.787c0.381-1.988,1.104-3.659,2.525-4.733c1.515-2.271,3.407-3.438,5.963-2.428
							c2.177,0.726,3.692,1.956,4.104,4.101c0.347,0.662,0.978,1.802,0.537,3.125C472.031,939.682,464.616,939.112,461.019,937.787
							L461.019,937.787z"/>
						<path fill="#A35E3B" d="M463.292,933.275c-0.726,1.354-0.884,2.43-0.726,3.376c2.998,1.546,6.595,1.86,10.316,1.86
							c-2.966,0.979-8.803,0.41-11.864-0.727C461.367,935.926,462.029,934.348,463.292,933.275L463.292,933.275z"/>
						<path fill="#FFB773" d="M466.92,930.341L466.92,930.341c0.789-0.157,1.641-0.094,2.587,0.285
							c2.177,0.726,3.692,1.956,4.104,4.101c0.252,0.508,0.726,1.326,0.692,2.271c-0.566,0.474-1.607,0.695-3.312,0.222
							c-3.407,0.442-6.121,0.095-7.036-2.303C464.049,932.896,464.995,931.54,466.92,930.341L466.92,930.341z"/>
					</g>
				</g>
			</g>
			<g>
				<g>
					<g>
						<path fill="#34C290" d="M1662.424,970.764c21.551-19.057,31.049-5.236,29.66,20.793c14.641-15.145,20.636-6.119,12.306,14.013
							c7.604-5.05,11.99-1.956,12.116,10.602c8.992-18.175,13.126-13.062,12.905,2.493c21.077-19.657,39.725-10.445,33.667,22.876
							c10.443,5.554,7.257,12.589-10.223,19.972c2.934-0.312,4.446,0.315,3.026,2.559c19.026-7.826,42.502-8.236,33.479,15.934
							h-261.417c-7.067-20.414,4.575-35.15,32.374-30.386c-12.874-16.438-8.866-23.789,12.053-18.145
							c-14.956-34.105-5.237-42.909,23.034-20.696c-1.799-20.511,14.641-15.776,19.595-2.842c0.946-14.323,6.089-17.354,15.87-5.898
							C1623.235,968.713,1632.291,944.386,1662.424,970.764L1662.424,970.764z"/>
						<path fill="#057551" d="M1687.383,965.906c3.786,4.921,5.301,14.072,4.701,25.648c14.641-15.145,20.636-6.12,12.307,14.013
							c7.604-5.048,11.989-1.956,12.115,10.602c8.992-18.175,13.126-13.062,12.905,2.493c21.077-19.657,39.725-10.445,33.667,22.876
							c10.444,5.554,7.257,12.589-10.223,19.972c2.934-0.312,4.446,0.315,3.026,2.559c19.026-7.826,42.502-8.236,33.479,15.934
							h-256.399c-0.727-15.112,11.201-24.674,34.361-20.697c-12.843-16.438-8.867-23.792,12.053-18.144
							c-14.956-34.109-5.237-42.911,23.034-20.699c-1.799-20.51,14.64-15.776,19.594-2.84c0.979-14.324,6.121-17.354,15.903-5.9
							c-7.637-33.317,1.388-57.646,31.521-31.268C1673.688,973.131,1679.968,968.461,1687.383,965.906L1687.383,965.906z"/>
					</g>
					<g>
						<path fill="#34C290" d="M1895.79,948.235c10.317-9.119,18.71-12.938,25.21-12.621V1080h-218.787
							c4.164-15.396,20.54-24.012,47.991-19.311c-18.332-23.442-12.621-33.951,17.196-25.872
							c-21.361-48.655-7.479-61.184,32.813-29.533c-2.522-29.25,20.89-22.466,27.956-4.04c1.356-20.445,8.708-24.771,22.655-8.396
							C1839.941,945.333,1852.814,910.625,1895.79,948.235L1895.79,948.235z"/>
						<path fill="#057551" d="M1921,947.258V1080h-206.261c7.763-8.361,21.961-12.084,42.122-8.613
							c-3.094-3.977-5.521-7.572-7.227-10.792c0.189,0.031,0.379,0.063,0.567,0.095c-0.536-0.691-1.072-1.354-1.546-2.02
							c-6.784-14.262,1.673-19.594,25.432-13.188c-21.359-48.625-7.478-61.184,32.814-29.504
							c-2.557-29.25,20.889-22.466,27.957-4.069c1.354-20.414,8.709-24.736,22.623-8.396c-10.888-47.518,2.02-82.192,44.992-44.584
							C1909.547,952.652,1915.73,948.898,1921,947.258L1921,947.258z"/>
					</g>
				</g>
				<g>
					<g>
						<path fill="#34C290" d="M274.762,1042.578c21.551-19.026,31.017-5.238,29.66,20.793c14.609-15.146,20.635-6.089,12.306,14.042
							c5.585-3.724,9.436-3.03,11.14,2.587h-120.28c-0.189-17.479,15.019-12.59,19.752-0.252c0.947-14.325,6.09-17.354,15.871-5.868
							C235.574,1040.527,244.629,1016.2,274.762,1042.578L274.762,1042.578z M333.482,1080c3.723-5.048,6.151-4.447,7.383,0H333.482
							z M177.769,1080c-0.694-12.526,8.771-13.095,26.568,0H177.769z"/>
						<path fill="#057551" d="M299.721,1037.719c3.787,4.923,5.301,14.074,4.702,25.652c14.609-15.146,20.635-6.089,12.306,14.042
							c5.587-3.724,9.436-3.03,11.14,2.587H249.49c-6.216-31.458,3.218-53.166,32.278-27.733
							C286.027,1044.945,292.306,1040.307,299.721,1037.719L299.721,1037.719z M333.482,1080c3.723-5.048,6.151-4.447,7.383,0
							H333.482z M217.431,1080c2.429-2.398,6.058-2.113,9.466,0H217.431z M236.205,1080c2.02-4.511,5.522-4.732,10.665,0H236.205z"
							/>
					</g>
					<g>
						<path fill="#34C290" d="M39.347,1020.87c21.55-19.026,31.016-5.238,29.66,20.793c14.609-15.146,20.635-6.089,12.305,14.042
							c7.573-5.048,11.959-1.988,12.116,10.57c8.993-18.146,13.095-13.063,12.906,2.522c18.363-17.134,34.866-12.369,34.803,11.2H0
							v-34.423c2.146,0.851,4.765,3.026,7.793,6.594C0.158,1018.818,9.214,994.492,39.347,1020.87L39.347,1020.87z"/>
						<path fill="#057551" d="M64.273,1016.011c3.787,4.923,5.333,14.073,4.733,25.652c14.609-15.146,20.635-6.089,12.305,14.042
							c7.573-5.048,11.959-1.988,12.116,10.57c8.993-18.146,13.095-13.063,12.906,2.522c18.363-17.134,34.866-12.369,34.803,11.2H0
							v-19.467c2.114-7.766,6.973-7.856,14.798,1.322c-7.636-33.351,1.42-57.68,31.553-31.3
							C50.579,1023.236,56.89,1018.599,64.273,1016.011L64.273,1016.011z"/>
					</g>
				</g>
			</g>
		</g>
	</g>
	<g id="Layer_1_1_">
		<g>
			<g>
				<g>
					<path fill="#010101" d="M729.901,621.418c0,2.895-2.346,5.24-5.24,5.24h-10.609c-2.895,0-5.241-2.346-5.241-5.24v-36.076
						c0-2.895,2.346-5.24,5.241-5.24h10.609c2.894,0,5.24,2.346,5.24,5.24V621.418z"/>
					<path fill="#010101" d="M911.145,621.418c0,2.895-2.345,5.24-5.241,5.24h-10.607c-2.895,0-5.242-2.346-5.242-5.24v-36.076
						c0-2.895,2.347-5.24,5.242-5.24h10.607c2.896,0,5.241,2.346,5.241,5.24V621.418z"/>
				</g>
				<g>
					<path fill="#CA1C18" d="M913.158,366.561c0-0.351-0.009-0.698-0.022-1.047H706.82c-0.015,0.349-0.024,0.697-0.024,1.047
						l0.401,8.079l204.425,22.765L913.158,366.561z"/>
					<path fill="#F70601" d="M707.2,374.64l11.326,227.694c0,14.209,11.518,25.725,25.726,25.725h5.776h119.902h5.776
						c14.208,0,25.725-11.518,25.725-25.725l10.193-204.929L707.2,374.64z"/>
				</g>
				<path fill="#F70601" d="M921.384,363.821c0,3.882-3.147,7.03-7.032,7.03h-208.75c-3.882,0-7.032-3.148-7.032-7.03v-9.83
					c0-3.883,3.15-7.032,7.032-7.032h208.75c3.884,0,7.032,3.148,7.032,7.032V363.821z"/>
				<g>
					<path fill="#FFFFFF" d="M821.309,463.454l-10.306,7.251l13.512-1.613l0.598-0.071l1.722-0.202l12.015-1.437l5.154-10.319
						l0.539-1.082l6.834-13.69l-10.477,7.377l-9.039-15.654c-2.423-3.737-4.971-5.371-7.479-5.631
						c-4.445-0.218-8.964,3.772-12.176,7.673c-0.88,1.118-1.68,2.248-2.388,3.319c-0.28,0.421-0.548,0.835-0.795,1.233
						c0.246,0.51,0.516,1.059,0.795,1.619c0.38,0.764,0.78,1.558,1.215,2.401C813.671,449.769,817.287,456.342,821.309,463.454z"/>
					<path fill="#FFFFFF" d="M848.57,512.85c-1.338-0.097-2.847-0.191-4.492-0.27c-5.771-0.281-13.269-0.438-21.44-0.509
						l-1.128-12.551l-5.36,12.51l-0.234,0.551l-0.687,1.595l-4.765,11.124l6.361,9.619l0.665,1.01l8.442,12.763l-1.151-12.763
						h18.076c4.45-0.228,7.136-1.619,8.617-3.663c2.413-3.74,1.214-9.648-0.559-14.38C850.18,516.041,849.342,514.316,848.57,512.85
						z"/>
					<path fill="#FFFFFF" d="M869.265,504.421c0.02-1.432-0.283-2.292-0.47-2.695l-0.223-0.385L852.5,473.5l-18.553,9.844
						c1.152,1.932,2.546,4.387,4.024,7.015l10.148,17.578c0.363,0.549,1.19,1.862,2.165,3.654l0.058,0.008l0.302,0.551
						c0.744,1.363,1.598,3.164,2.341,5.153c1.497,3.819,2.712,8.188,1.913,12.001L869.265,504.421z"/>
					<path fill="#FFFFFF" d="M809.816,435.63c0.274-0.358,0.554-0.717,0.85-1.078c2.56-3.2,5.735-6.438,9.436-7.653h-10.286h-18.447
						c-1.249,0.699-1.843,1.389-2.099,1.755l-0.221,0.382l-16.072,27.84l17.802,11.146c1.096-1.965,2.527-4.399,4.062-6.994
						l10.147-17.578c0.295-0.59,1.021-1.962,2.083-3.703l-0.025-0.051l0.33-0.537C808.006,438.127,808.838,436.899,809.816,435.63z"
						/>
					<path fill="#FFFFFF" d="M764.874,512.908c1.966,0.286,3.883,0.425,5.534,0.486c0.757-1.11,1.591-2.371,2.48-3.752
						c3.13-4.858,7.014-11.275,11.162-18.316l11.435,5.3l-8.154-10.896l-0.359-0.48l-1.04-1.389l-7.25-9.687l-11.511,0.697
						l-1.207,0.074l-15.272,0.926l11.625,5.388l-9.036,15.651c-2.027,3.968-2.165,6.993-1.135,9.295
						C754.176,510.163,759.893,512.079,764.874,512.908z"/>
					<path fill="#FFFFFF" d="M795.187,515.461h-20.298c-0.656,0.038-2.208,0.101-4.245,0.048l-0.034,0.047l-0.631-0.018
						c-1.553-0.036-3.535-0.197-5.637-0.549c-4.053-0.61-8.443-1.747-11.344-4.343l14.367,24.883
						c1.226,0.734,2.124,0.902,2.564,0.944h0.446h32.147l0.751-20.99C801.023,515.512,798.2,515.495,795.187,515.461z"/>
				</g>
			</g>
			<g>
				<g>
					<path fill="#FFFFFF" d="M772.083,579.018c1.021-0.172,2.454-0.305,4.476-0.305c2.043,0,3.498,0.391,4.476,1.174
						c0.935,0.74,1.564,1.955,1.564,3.391c0,1.434-0.478,2.65-1.348,3.477c-1.131,1.064-2.803,1.543-4.757,1.543
						c-0.436,0-0.827-0.021-1.13-0.066v5.236h-3.282L772.083,579.018L772.083,579.018z M775.363,585.666
						c0.281,0.064,0.63,0.086,1.108,0.086c1.759,0,2.845-0.891,2.845-2.389c0-1.348-0.936-2.152-2.585-2.152
						c-0.674,0-1.13,0.066-1.369,0.131V585.666L775.363,585.666z"/>
					<path fill="#FFFFFF" d="M784.705,578.82h3.325v11.865h5.823v2.781h-9.148V578.82z"/>
					<path fill="#FFFFFF" d="M799.349,589.707l-1.043,3.76h-3.433l4.476-14.646h4.346l4.542,14.646h-3.563l-1.131-3.76H799.349z
						 M803.064,587.23l-0.912-3.105c-0.26-0.869-0.52-1.957-0.738-2.826h-0.044c-0.217,0.869-0.434,1.979-0.673,2.826l-0.869,3.105
						H803.064z"/>
					<path fill="#FFFFFF" d="M810.3,590.055c0.89,0.457,2.259,0.912,3.672,0.912c1.521,0,2.326-0.629,2.326-1.586
						c0-0.912-0.696-1.434-2.457-2.064c-2.432-0.848-4.018-2.193-4.018-4.322c0-2.5,2.086-4.41,5.54-4.41
						c1.652,0,2.868,0.348,3.738,0.738l-0.74,2.672c-0.587-0.281-1.63-0.695-3.063-0.695c-1.434,0-2.129,0.65-2.129,1.412
						c0,0.936,0.826,1.348,2.716,2.064c2.586,0.955,3.803,2.303,3.803,4.367c0,2.455-1.89,4.541-5.91,4.541
						c-1.673,0-3.324-0.436-4.15-0.891L810.3,590.055z"/>
					<path fill="#FFFFFF" d="M824.748,581.602h-3.933v-2.781h11.255v2.781h-3.998v11.865h-3.325V581.602z"/>
					<path fill="#FFFFFF" d="M837.154,578.82v14.646h-3.325V578.82H837.154z"/>
					<path fill="#FFFFFF" d="M850.776,593.053c-0.606,0.305-1.978,0.631-3.759,0.631c-5.062,0-7.67-3.15-7.67-7.322
						c0-4.998,3.564-7.777,7.996-7.777c1.717,0,3.021,0.348,3.606,0.65l-0.673,2.629c-0.673-0.283-1.609-0.543-2.781-0.543
						c-2.629,0-4.671,1.586-4.671,4.844c0,2.934,1.737,4.779,4.692,4.779c0.999,0,2.107-0.215,2.76-0.477L850.776,593.053z"/>
				</g>
			</g>
		</g>
		<g>
			<g>
				<g>
					<path fill="#010101" d="M1061.478,621.192c0,2.896-2.347,5.24-5.242,5.24h-10.606c-2.896,0-5.241-2.345-5.241-5.24v-36.075
						c0-2.895,2.346-5.241,5.241-5.241h10.606c2.896,0,5.242,2.347,5.242,5.241V621.192z"/>
					<path fill="#010101" d="M1242.721,621.192c0,2.896-2.346,5.24-5.241,5.24h-10.606c-2.896,0-5.241-2.345-5.241-5.24v-36.075
						c0-2.895,2.345-5.241,5.241-5.241h10.606c2.896,0,5.241,2.347,5.241,5.241V621.192z"/>
				</g>
				<g>
					<path fill="#0065AA" d="M1244.734,366.335c0-0.351-0.01-0.698-0.023-1.047h-206.315c-0.015,0.348-0.023,0.696-0.023,1.047
						l0.402,8.081l204.425,22.765L1244.734,366.335z"/>
					<path fill="#0098CE" d="M1038.775,374.416l11.326,227.694c0,14.207,11.518,25.725,25.726,25.725h5.776h119.902h5.777
						c14.207,0,25.724-11.519,25.724-25.725l10.193-204.928L1038.775,374.416z"/>
				</g>
				<path fill="#0098CE" d="M1252.961,363.596c0,3.884-3.149,7.031-7.032,7.031h-208.75c-3.884,0-7.031-3.148-7.031-7.031v-9.828
					c0-3.883,3.147-7.032,7.031-7.032h208.75c3.883,0,7.032,3.148,7.032,7.032V363.596z"/>
				<g>
					<path fill="#FFFFFF" d="M1152.885,463.229l-10.306,7.252l13.514-1.613l0.596-0.072l1.722-0.202l12.015-1.437l5.152-10.318
						l0.539-1.083l6.837-13.689l-10.479,7.374l-9.037-15.652c-2.425-3.738-4.973-5.372-7.481-5.631
						c-4.444-0.219-8.963,3.772-12.174,7.673c-0.881,1.116-1.681,2.249-2.388,3.319c-0.28,0.423-0.55,0.837-0.796,1.234
						c0.245,0.51,0.518,1.06,0.796,1.619c0.377,0.763,0.778,1.558,1.214,2.401C1145.248,449.544,1148.862,456.117,1152.885,463.229z
						"/>
					<path fill="#FFFFFF" d="M1180.146,512.625c-1.339-0.097-2.847-0.191-4.491-0.27c-5.771-0.282-13.268-0.439-21.439-0.511
						l-1.129-12.549l-5.36,12.51l-0.234,0.552l-0.687,1.593l-4.764,11.125l6.361,9.619l0.665,1.009l8.441,12.765l-1.15-12.765
						h18.076c4.45-0.225,7.135-1.617,8.616-3.662c2.413-3.74,1.215-9.647-0.559-14.38
						C1181.757,515.816,1180.918,514.09,1180.146,512.625z"/>
					<path fill="#FFFFFF" d="M1200.841,504.197c0.022-1.431-0.282-2.291-0.468-2.695l-0.224-0.385l-16.071-27.841l-18.554,9.843
						c1.152,1.933,2.547,4.387,4.023,7.017l10.149,17.578c0.361,0.549,1.19,1.861,2.163,3.653l0.059,0.009l0.302,0.552
						c0.745,1.362,1.599,3.163,2.343,5.153c1.496,3.817,2.712,8.187,1.91,12.001L1200.841,504.197z"/>
					<path fill="#FFFFFF" d="M1141.394,435.405c0.272-0.357,0.553-0.717,0.85-1.077c2.559-3.201,5.735-6.438,9.436-7.653h-10.285
						h-18.447c-1.25,0.698-1.844,1.389-2.101,1.754l-0.221,0.382l-16.072,27.842l17.802,11.146c1.096-1.965,2.525-4.4,4.063-6.995
						l10.146-17.576c0.295-0.59,1.018-1.963,2.081-3.703l-0.023-0.051l0.329-0.538
						C1139.582,437.902,1140.416,436.676,1141.394,435.405z"/>
					<path fill="#FFFFFF" d="M1096.451,512.683c1.966,0.286,3.883,0.425,5.532,0.486c0.757-1.11,1.591-2.371,2.479-3.752
						c3.131-4.858,7.016-11.275,11.163-18.316l11.432,5.299l-8.152-10.896l-0.359-0.48l-1.038-1.389l-7.252-9.687l-11.51,0.698
						l-1.207,0.073l-15.273,0.926l11.627,5.388l-9.037,15.65c-2.026,3.97-2.164,6.995-1.136,9.295
						C1085.753,509.938,1091.47,511.854,1096.451,512.683z"/>
					<path fill="#FFFFFF" d="M1126.763,515.235h-20.298c-0.656,0.04-2.208,0.103-4.244,0.05l-0.033,0.047l-0.632-0.018
						c-1.555-0.036-3.537-0.198-5.638-0.549c-4.054-0.611-8.443-1.746-11.344-4.343l14.366,24.883
						c1.227,0.733,2.125,0.902,2.564,0.944h0.446h32.146l0.751-20.992C1132.601,515.288,1129.777,515.271,1126.763,515.235z"/>
				</g>
			</g>
			<g>
				<g>
					<path fill="#FFFFFF" d="M1125.61,591.275c-1.021,0.348-2.955,0.825-4.888,0.825c-2.672,0-4.606-0.673-5.952-1.977
						c-1.348-1.26-2.086-3.172-2.064-5.323c0.022-4.867,3.562-7.647,8.364-7.647c1.891,0,3.346,0.369,4.064,0.717l-0.695,2.649
						c-0.806-0.347-1.803-0.629-3.412-0.629c-2.76,0-4.845,1.563-4.845,4.736c0,3.021,1.891,4.802,4.605,4.802
						c0.76,0,1.37-0.087,1.63-0.217v-3.064h-2.26v-2.586h5.454v7.714H1125.61z"/>
					<path fill="#FFFFFF" d="M1128.196,577.305h3.326v11.863h5.822v2.781h-9.148V577.305z"/>
					<path fill="#FFFFFF" d="M1142.841,588.19l-1.043,3.759h-3.433l4.476-14.646h4.345l4.543,14.646h-3.565l-1.128-3.759H1142.841z
						 M1146.557,585.713l-0.913-3.106c-0.261-0.869-0.521-1.955-0.738-2.823h-0.044c-0.218,0.868-0.435,1.977-0.674,2.823
						l-0.869,3.106H1146.557z"/>
					<path fill="#FFFFFF" d="M1153.791,588.538c0.891,0.457,2.26,0.913,3.674,0.913c1.52,0,2.324-0.631,2.324-1.587
						c0-0.912-0.695-1.435-2.455-2.063c-2.434-0.848-4.019-2.194-4.019-4.325c0-2.498,2.086-4.41,5.54-4.41
						c1.652,0,2.867,0.35,3.736,0.74l-0.739,2.671c-0.587-0.281-1.629-0.694-3.062-0.694s-2.13,0.65-2.13,1.412
						c0,0.936,0.826,1.347,2.717,2.064c2.586,0.956,3.803,2.303,3.803,4.366c0,2.455-1.891,4.541-5.91,4.541
						c-1.673,0-3.324-0.434-4.15-0.89L1153.791,588.538z"/>
					<path fill="#FFFFFF" d="M1165.523,588.538c0.891,0.457,2.259,0.913,3.673,0.913c1.52,0,2.325-0.631,2.325-1.587
						c0-0.912-0.695-1.435-2.456-2.063c-2.433-0.848-4.018-2.194-4.018-4.325c0-2.498,2.085-4.41,5.541-4.41
						c1.65,0,2.866,0.35,3.735,0.74l-0.739,2.671c-0.586-0.281-1.629-0.694-3.062-0.694s-2.13,0.65-2.13,1.412
						c0,0.936,0.825,1.347,2.717,2.064c2.584,0.956,3.803,2.303,3.803,4.366c0,2.455-1.892,4.541-5.909,4.541
						c-1.674,0-3.325-0.434-4.151-0.89L1165.523,588.538z"/>
				</g>
			</g>
		</g>
		<g>
			<g>
				<g>
					<path fill="#010101" d="M1398.016,620.531c0,2.896-2.346,5.242-5.241,5.242h-10.606c-2.896,0-5.242-2.347-5.242-5.242v-36.073
						c0-2.896,2.347-5.242,5.242-5.242h10.606c2.896,0,5.241,2.347,5.241,5.242V620.531z"/>
					<path fill="#010101" d="M1579.261,620.531c0,2.896-2.348,5.242-5.241,5.242h-10.608c-2.895,0-5.241-2.347-5.241-5.242v-36.073
						c0-2.896,2.347-5.242,5.241-5.242h10.608c2.894,0,5.241,2.347,5.241,5.242V620.531z"/>
				</g>
				<g>
					<path fill="#FDA201" d="M1581.273,365.675c0-0.352-0.01-0.699-0.023-1.046h-206.316c-0.013,0.348-0.022,0.696-0.022,1.046
						l0.401,8.08l204.425,22.765L1581.273,365.675z"/>
					<path fill="#FFC700" d="M1375.314,373.754l11.325,227.694c0,14.209,11.519,25.726,25.727,25.726h5.776h119.902h5.776
						c14.208,0,25.726-11.518,25.726-25.726l10.191-204.929L1375.314,373.754z"/>
				</g>
				<path fill="#FFC700" d="M1589.5,362.935c0,3.884-3.15,7.032-7.031,7.032h-208.751c-3.884,0-7.032-3.148-7.032-7.032v-9.828
					c0-3.884,3.149-7.032,7.032-7.032h208.751c3.883,0,7.031,3.148,7.031,7.032V362.935z"/>
				<g>
					<path fill="#FFFFFF" d="M1489.424,462.567l-10.305,7.252l13.512-1.613l0.597-0.071l1.722-0.202l12.016-1.436l5.152-10.319
						l0.539-1.083l6.836-13.691l-10.479,7.377l-9.037-15.654c-2.426-3.737-4.973-5.37-7.48-5.63
						c-4.444-0.217-8.963,3.773-12.176,7.673c-0.88,1.117-1.681,2.248-2.388,3.319c-0.279,0.422-0.548,0.835-0.796,1.233
						c0.247,0.511,0.518,1.059,0.796,1.619c0.378,0.765,0.78,1.558,1.216,2.402C1481.786,448.884,1485.402,455.456,1489.424,462.567
						z"/>
					<path fill="#FFFFFF" d="M1516.686,511.965c-1.339-0.097-2.847-0.192-4.491-0.27c-5.771-0.282-13.269-0.438-21.44-0.51
						l-1.129-12.55l-5.359,12.51l-0.235,0.551l-0.686,1.594l-4.765,11.125l6.36,9.619l0.666,1.01l8.44,12.763l-1.149-12.763h18.075
						c4.45-0.228,7.136-1.619,8.618-3.665c2.412-3.738,1.213-9.648-0.561-14.379
						C1518.297,515.156,1517.458,513.429,1516.686,511.965z"/>
					<path fill="#FFFFFF" d="M1537.379,503.537c0.021-1.432-0.282-2.293-0.469-2.697l-0.222-0.383l-16.071-27.843l-18.555,9.845
						c1.152,1.932,2.546,4.387,4.023,7.016l10.148,17.578c0.362,0.548,1.19,1.863,2.165,3.653l0.058,0.009l0.302,0.551
						c0.744,1.362,1.598,3.162,2.342,5.154c1.496,3.817,2.712,8.188,1.912,12L1537.379,503.537z"/>
					<path fill="#FFFFFF" d="M1477.932,434.744c0.272-0.358,0.554-0.717,0.851-1.078c2.558-3.2,5.734-6.437,9.435-7.653h-10.285
						h-18.447c-1.25,0.699-1.843,1.39-2.1,1.755l-0.22,0.382l-16.074,27.841l17.802,11.146c1.098-1.965,2.525-4.399,4.064-6.993
						l10.146-17.578c0.296-0.59,1.019-1.962,2.084-3.703l-0.026-0.051l0.331-0.537
						C1476.122,437.242,1476.954,436.013,1477.932,434.744z"/>
					<path fill="#FFFFFF" d="M1432.989,512.021c1.967,0.287,3.883,0.426,5.532,0.487c0.758-1.112,1.591-2.373,2.48-3.752
						c3.131-4.859,7.015-11.276,11.162-18.315l11.435,5.298l-8.153-10.896l-0.359-0.48l-1.04-1.389l-7.25-9.687l-11.511,0.699
						l-1.207,0.072l-15.273,0.925l11.627,5.388l-9.037,15.651c-2.026,3.968-2.164,6.994-1.135,9.296
						C1422.291,509.277,1428.009,511.194,1432.989,512.021z"/>
					<path fill="#FFFFFF" d="M1463.301,514.576h-20.298c-0.655,0.039-2.207,0.103-4.243,0.047l-0.034,0.047l-0.631-0.018
						c-1.555-0.036-3.537-0.196-5.639-0.548c-4.052-0.611-8.442-1.747-11.343-4.344l14.365,24.885
						c1.227,0.733,2.127,0.901,2.565,0.941h0.446h32.147l0.749-20.99C1469.141,514.626,1466.316,514.61,1463.301,514.576z"/>
				</g>
			</g>
			<g>
				<path fill="#FFFFFF" d="M1448.609,576.12c1.046-0.178,2.514-0.312,4.582-0.312c2.092,0,3.582,0.402,4.582,1.202
					c0.955,0.755,1.603,2.001,1.603,3.469c0,1.469-0.489,2.715-1.381,3.558c-1.155,1.091-2.866,1.58-4.87,1.58
					c-0.444,0-0.843-0.022-1.155-0.067v5.359h-3.358V576.12H1448.609z M1451.969,582.926c0.288,0.068,0.645,0.089,1.134,0.089
					c1.802,0,2.912-0.912,2.912-2.446c0-1.378-0.956-2.2-2.647-2.2c-0.688,0-1.155,0.066-1.4,0.133v4.425H1451.969z"/>
				<path fill="#FFFFFF" d="M1463.687,587.062l-1.067,3.847h-3.513l4.58-14.988h4.449l4.648,14.988h-3.647l-1.156-3.847H1463.687z
					 M1467.49,584.527l-0.935-3.182c-0.266-0.889-0.534-2-0.756-2.891h-0.043c-0.224,0.891-0.446,2.023-0.691,2.891l-0.89,3.182
					H1467.49z"/>
				<path fill="#FFFFFF" d="M1474.785,576.12c1.045-0.178,2.514-0.312,4.582-0.312c2.091,0,3.58,0.402,4.582,1.202
					c0.955,0.755,1.601,2.001,1.601,3.469c0,1.469-0.489,2.715-1.379,3.558c-1.157,1.091-2.867,1.58-4.87,1.58
					c-0.444,0-0.844-0.022-1.157-0.067v5.359h-3.357L1474.785,576.12L1474.785,576.12z M1478.143,582.926
					c0.29,0.068,0.647,0.089,1.135,0.089c1.801,0,2.913-0.912,2.913-2.446c0-1.378-0.958-2.2-2.647-2.2
					c-0.689,0-1.156,0.066-1.401,0.133L1478.143,582.926L1478.143,582.926z"/>
				<path fill="#FFFFFF" d="M1496.623,584.571h-5.514v3.558h6.16v2.779h-9.563V575.92h9.252v2.779h-5.848v3.113h5.514
					L1496.623,584.571L1496.623,584.571z"/>
				<path fill="#FFFFFF" d="M1499.582,576.12c1.088-0.178,2.712-0.312,4.514-0.312c2.225,0,3.78,0.334,4.847,1.179
					c0.891,0.713,1.379,1.756,1.379,3.137c0,1.912-1.356,3.225-2.646,3.691v0.066c1.045,0.423,1.623,1.424,2.001,2.802
					c0.467,1.692,0.935,3.648,1.223,4.226h-3.469c-0.245-0.422-0.603-1.646-1.045-3.489c-0.4-1.869-1.045-2.381-2.424-2.402h-1.024
					v5.892h-3.357V576.12H1499.582z M1502.939,582.569h1.333c1.69,0,2.691-0.844,2.691-2.156c0-1.378-0.935-2.067-2.491-2.09
					c-0.822,0-1.289,0.066-1.533,0.11V582.569L1502.939,582.569z"/>
			</g>
		</g>
		<g>
			<path fill="#C8C3C1" d="M553.04,880.173l1.805-24.093c0,0-16.914-9.941-7.769-18.012c9.146-8.068,15.657,3.49,15.657,3.49
				s9.278-12.01,15.361-2.436c6.083,9.572-8.648,15.232-8.648,15.232l-3.112,26.268l-12.599,0.804"/>
			<g>
				<path fill="#C2844F" d="M556.096,879.364c-1.237-0.074-2.357-0.259-3.374-0.533c-6.194,5.781-59.707,57.763-22.631,95.521
					c2.334,2.379,4.6,4.331,6.807,5.958C550.556,964.044,581.863,919.512,556.096,879.364z"/>
				<path fill="#B6794B" d="M556.096,879.364c25.768,40.146-5.54,84.68-19.198,100.945c34.962,25.753,53.925-37.905,53.925-37.905
					s6.746-37.713-24.412-64.592C562.288,879.13,558.899,879.533,556.096,879.364z"/>
			</g>
		</g>
		<g>
			<g>
				<path fill="#5C7134" d="M1325.461,864.88c0.619-3.771-0.09-7.564-2.309-10.68c-2.112-2.967-5.254-4.842-8.799-5.574
					c0.211-3.668-0.761-7.396-3.029-10.58c-4.613-6.479-13.098-8.622-20.357-5.655c-0.577-1.42-1.334-2.809-2.274-4.13
					c-5.582-7.836-15.496-10.35-22.146-5.614c-5.927,4.223-7.258,12.777-3.524,20.137c-6.123,5.454-7.459,14.49-2.822,21.004
					c2.271,3.188,5.587,5.222,9.218,5.996c-2.637,5.595-2.431,12.074,1.141,17.088c3.043,4.272,7.896,6.585,13.068,6.763
					c0.578,3.115,1.847,6.195,3.839,8.993c6.585,9.244,18.658,12.034,27.469,6.546c6.246,4.41,14.188,11.313,21.42,21.468
					l2.979-2.121l1.1-0.781l2.979-2.122c-6.659-9.352-10.515-18.365-12.743-25.469c0.09-0.15,0.178-0.303,0.264-0.452
					c7.556-6.643,8.65-18.597,2.226-27.619c-1.985-2.787-4.47-4.985-7.213-6.55L1325.461,864.88z"/>
				<path fill="#A4CB5D" d="M1339.938,927.447c-0.298,0.212-0.709,0.143-0.921-0.154l-73.104-102.646
					c-0.212-0.298-0.144-0.709,0.155-0.923c0.296-0.21,0.708-0.142,0.919,0.156l73.104,102.647
					C1340.305,926.824,1340.236,927.235,1339.938,927.447z"/>
				<path fill="#A4CB5D" d="M1290.719,858.312c-2.291,1.631-5.312,2.715-8.983,3.217c-2.899,0.397-6.214,0.438-9.851,0.12
					c-6.168-0.541-11.221-1.95-11.271-1.966c-0.352-0.099-0.556-0.463-0.455-0.813c0.099-0.351,0.463-0.556,0.812-0.455
					c0.052,0.014,5.002,1.394,11.052,1.922c5.52,0.482,13.109,0.334,17.932-3.099c0.297-0.212,0.709-0.143,0.92,0.154
					C1291.085,857.69,1291.016,858.102,1290.719,858.312z"/>
				<path fill="#A4CB5D" d="M1295.691,864.92c-0.297,0.211-0.708,0.143-0.92-0.154c-0.212-0.296-0.144-0.708,0.153-0.92
					c6.049-4.308,8.549-11.415,9.578-16.617c1.127-5.678,0.799-10.365,0.796-10.413c-0.026-0.362,0.245-0.68,0.608-0.706
					c0.364-0.026,0.681,0.248,0.707,0.609c0.014,0.198,0.344,4.915-0.815,10.767c-0.684,3.447-1.746,6.565-3.156,9.27
					C1300.863,860.154,1298.526,862.902,1295.691,864.92z"/>
				<path fill="#A4CB5D" d="M1307.631,882.06c-2.335,1.663-5.473,2.734-9.324,3.183c-3.041,0.354-6.54,0.322-10.397-0.09
					c-6.543-0.702-11.954-2.29-12.008-2.307c-0.351-0.104-0.55-0.472-0.445-0.819c0.104-0.351,0.471-0.55,0.82-0.445
					c0.053,0.017,5.365,1.573,11.795,2.26c5.864,0.628,13.888,0.64,18.795-2.854c0.297-0.211,0.709-0.144,0.92,0.153
					C1307.998,881.438,1307.928,881.848,1307.631,882.06z"/>
				<path fill="#A4CB5D" d="M1303.807,876.504c-0.297,0.212-0.709,0.143-0.92-0.156c-0.211-0.295-0.142-0.709,0.155-0.92
					c5.68-4.045,9.661-9.28,12.001-12.96c2.533-3.985,3.729-7.036,3.742-7.065c0.131-0.339,0.514-0.508,0.853-0.375
					c0.341,0.132,0.509,0.513,0.377,0.854c-0.051,0.129-1.257,3.201-3.859,7.296C1313.752,866.955,1309.66,872.334,1303.807,876.504
					z"/>
				<path fill="#A4CB5D" d="M1321.199,901.111c-2.246,1.6-5.032,2.678-8.279,3.204c-2.571,0.416-5.438,0.49-8.521,0.221
					c-5.231-0.459-9.228-1.735-9.395-1.789c-0.348-0.112-0.538-0.483-0.426-0.831c0.111-0.346,0.482-0.537,0.83-0.426l0,0
					c0.041,0.015,4.045,1.29,9.133,1.731c4.641,0.405,11.165,0.182,15.893-3.187c0.296-0.212,0.708-0.143,0.92,0.155
					C1321.566,900.488,1321.495,900.899,1321.199,901.111z"/>
				<path fill="#A4CB5D" d="M1322.135,890.284c-3.384,2.408-6.271,3.425-6.404,3.471c-0.343,0.118-0.719-0.062-0.839-0.408
					c-0.12-0.345,0.063-0.721,0.408-0.839c0.053-0.021,3.358-1.189,6.917-3.927c3.264-2.509,7.424-6.898,8.697-13.547
					c0.068-0.359,0.414-0.593,0.772-0.523c0.357,0.067,0.593,0.413,0.523,0.771c-0.599,3.127-1.842,6.047-3.691,8.675
					c-1.475,2.098-3.337,4.015-5.535,5.699C1322.699,889.875,1322.415,890.085,1322.135,890.284z"/>
			</g>
			<g>
				<path fill="#70833B" d="M1343.662,865.081c1.572-3.482,1.868-7.332,0.531-10.914c-1.273-3.411-3.821-6.035-7.06-7.659
					c1.154-3.486,1.181-7.34-0.188-11.005c-2.78-7.45-10.423-11.716-18.2-10.729c-0.191-1.521-0.564-3.057-1.131-4.577
					c-3.365-9.014-12.293-14.006-19.941-11.151c-6.815,2.544-10.315,10.466-8.613,18.539c-7.325,3.683-10.952,12.067-8.157,19.558
					c1.369,3.67,4.045,6.491,7.352,8.179c-3.993,4.722-5.47,11.032-3.317,16.8c1.835,4.916,5.924,8.404,10.875,9.915
					c-0.247,3.158,0.182,6.461,1.383,9.68c3.969,10.633,14.91,16.45,24.84,13.427c4.895,5.876,10.779,14.601,15.139,26.278
					l3.427-1.279l1.264-0.471l3.427-1.279c-4.015-10.754-5.406-20.46-5.724-27.897c0.127-0.122,0.249-0.244,0.373-0.369
					c9.015-4.462,13.166-15.725,9.291-26.104c-1.195-3.205-3.027-5.973-5.272-8.193L1343.662,865.081z"/>
				<path fill="#A4CB5D" d="M1341.463,929.264c-0.342,0.128-0.721-0.046-0.85-0.387l-44.066-118.062
					c-0.127-0.343,0.046-0.723,0.389-0.851c0.341-0.126,0.722,0.047,0.849,0.388l44.065,118.063
					C1341.979,928.756,1341.804,929.137,1341.463,929.264z"/>
				<path fill="#A4CB5D" d="M1311.8,849.751c-2.636,0.983-5.835,1.248-9.511,0.784c-2.904-0.365-6.115-1.186-9.545-2.434
					c-5.82-2.116-10.334-4.785-10.38-4.812c-0.313-0.188-0.416-0.591-0.23-0.905c0.188-0.312,0.593-0.415,0.905-0.229
					c0.044,0.025,4.469,2.643,10.176,4.716c5.207,1.892,12.578,3.714,18.123,1.644c0.342-0.128,0.723,0.048,0.851,0.39
					C1312.314,849.243,1312.141,849.623,1311.8,849.751z"/>
				<path fill="#A4CB5D" d="M1314.895,857.421c-0.342,0.127-0.721-0.046-0.85-0.388c-0.128-0.342,0.046-0.723,0.389-0.85
					c6.957-2.598,11.207-8.814,13.552-13.574c2.555-5.193,3.451-9.808,3.46-9.854c0.066-0.355,0.414-0.593,0.771-0.523
					c0.359,0.069,0.595,0.413,0.527,0.771c-0.039,0.194-0.941,4.837-3.574,10.188c-1.553,3.152-3.385,5.892-5.447,8.137
					C1321.123,854.154,1318.154,856.204,1314.895,857.421z"/>
				<path fill="#A4CB5D" d="M1321.994,877.064c-2.687,1.003-5.994,1.225-9.831,0.66c-3.028-0.444-6.399-1.38-10.02-2.776
					c-6.141-2.369-10.957-5.304-11.005-5.332c-0.31-0.19-0.406-0.597-0.218-0.907c0.19-0.31,0.596-0.407,0.906-0.219
					c0.048,0.03,4.776,2.91,10.811,5.234c5.504,2.122,13.248,4.211,18.895,2.104c0.343-0.126,0.722,0.046,0.849,0.388
					C1322.508,876.557,1322.336,876.938,1321.994,877.064z"/>
				<path fill="#A4CB5D" d="M1319.736,870.709c-0.342,0.126-0.722-0.047-0.85-0.388c-0.126-0.344,0.047-0.724,0.389-0.85
					c6.533-2.438,11.732-6.467,14.943-9.418c3.479-3.192,5.423-5.83,5.444-5.856c0.215-0.293,0.627-0.357,0.922-0.144
					c0.294,0.216,0.356,0.631,0.142,0.923c-0.081,0.111-2.04,2.768-5.613,6.052C1331.816,864.058,1326.472,868.195,1319.736,870.709
					z"/>
				<path fill="#A4CB5D" d="M1330.173,898.979c-2.583,0.964-5.553,1.284-8.826,0.952c-2.591-0.262-5.38-0.932-8.29-1.989
					c-4.934-1.799-8.463-4.064-8.61-4.159c-0.308-0.198-0.395-0.606-0.195-0.911c0.197-0.307,0.604-0.396,0.911-0.197l0,0
					c0.036,0.023,3.573,2.292,8.374,4.036c4.379,1.592,10.74,3.06,16.175,1.032c0.341-0.128,0.725,0.046,0.852,0.387
					C1330.688,898.47,1330.514,898.849,1330.173,898.979z"/>
				<path fill="#A4CB5D" d="M1333.877,888.76c-3.892,1.453-6.944,1.688-7.084,1.696c-0.362,0.025-0.679-0.248-0.705-0.611
					c-0.025-0.364,0.248-0.679,0.611-0.705c0.057-0.004,3.553-0.279,7.697-2.003c3.803-1.581,8.957-4.744,11.905-10.838
					c0.158-0.327,0.554-0.465,0.882-0.306c0.327,0.16,0.465,0.554,0.307,0.882c-1.387,2.865-3.342,5.363-5.81,7.424
					c-1.968,1.646-4.262,3.016-6.819,4.075C1334.529,888.511,1334.199,888.641,1333.877,888.76z"/>
			</g>
			<g>
				<path fill="#84A841" d="M1369.365,871.286c2.802-2.601,4.566-6.031,4.726-9.854c0.15-3.638-1.181-7.045-3.532-9.799
					c2.416-2.766,3.937-6.306,4.098-10.213c0.329-7.947-5.061-14.845-12.61-16.953c0.412-1.474,0.666-3.034,0.733-4.657
					c0.396-9.611-5.894-17.68-14.049-18.017c-7.271-0.3-13.569,5.641-15.137,13.742c-8.18,0.553-14.776,6.871-15.106,14.858
					c-0.16,3.912,1.209,7.553,3.603,10.391c-5.514,2.803-9.324,8.047-9.579,14.195c-0.217,5.244,2.197,10.044,6.177,13.357
					c-1.455,2.815-2.343,6.024-2.484,9.458c-0.468,11.34,7.358,20.948,17.684,22.015c2.229,7.314,4.269,17.639,3.752,30.094
					l3.655,0.151l1.347,0.056l3.654,0.151c0.476-11.47,2.957-20.954,5.553-27.933c0.163-0.063,0.325-0.129,0.486-0.197
					c10.04-0.611,18.236-9.381,18.693-20.448c0.143-3.42-0.471-6.681-1.68-9.599L1369.365,871.286z"/>
				<path fill="#A4CB5D" d="M1342.43,929.585c-0.364-0.016-0.647-0.323-0.633-0.687l5.208-125.911
					c0.015-0.364,0.321-0.647,0.688-0.634c0.362,0.017,0.646,0.323,0.633,0.688l-5.209,125.91
					C1343.102,929.316,1342.793,929.6,1342.43,929.585z"/>
				<path fill="#A4CB5D" d="M1345.949,844.792c-2.811-0.116-5.861-1.114-9.07-2.969c-2.533-1.463-5.175-3.466-7.852-5.946
					c-4.542-4.21-7.666-8.422-7.697-8.465c-0.217-0.293-0.154-0.705,0.139-0.923c0.292-0.215,0.706-0.153,0.922,0.142
					c0.031,0.04,3.097,4.166,7.549,8.293c4.064,3.766,10.15,8.306,16.064,8.549c0.364,0.018,0.646,0.322,0.632,0.688
					C1346.621,844.524,1346.312,844.807,1345.949,844.792z"/>
				<path fill="#A4CB5D" d="M1345.824,853.062c-0.363-0.016-0.646-0.323-0.632-0.688c0.017-0.363,0.322-0.646,0.687-0.632
					c7.42,0.308,13.752-3.772,17.758-7.251c4.372-3.794,6.987-7.698,7.015-7.737c0.201-0.304,0.61-0.386,0.916-0.185
					c0.303,0.2,0.385,0.61,0.183,0.916c-0.109,0.164-2.741,4.092-7.247,8.003c-2.653,2.304-5.405,4.115-8.179,5.384
					C1352.834,852.47,1349.303,853.206,1345.824,853.062z"/>
				<path fill="#A4CB5D" d="M1344.745,873.921c-2.864-0.119-5.999-1.196-9.317-3.205c-2.617-1.586-5.361-3.756-8.156-6.448
					c-4.737-4.566-8.038-9.14-8.071-9.186c-0.212-0.295-0.146-0.708,0.15-0.921c0.298-0.214,0.709-0.146,0.921,0.149
					c0.031,0.047,3.273,4.535,7.933,9.021c4.248,4.092,10.575,9.021,16.596,9.271c0.364,0.015,0.647,0.321,0.633,0.688
					C1345.416,873.653,1345.109,873.936,1344.745,873.921z"/>
				<path fill="#A4CB5D" d="M1345.131,867.188c-0.363-0.016-0.646-0.322-0.631-0.688c0.016-0.363,0.322-0.646,0.686-0.631
					c6.97,0.288,13.324-1.407,17.429-2.879c4.446-1.596,7.262-3.271,7.29-3.286c0.312-0.188,0.718-0.086,0.904,0.228
					c0.188,0.312,0.087,0.717-0.228,0.905c-0.118,0.071-2.954,1.757-7.522,3.396
					C1358.844,865.745,1352.312,867.485,1345.131,867.188z"/>
				<path fill="#A4CB5D" d="M1343.778,897.29c-2.755-0.114-5.615-0.971-8.505-2.546c-2.286-1.248-4.598-2.949-6.867-5.055
					c-3.851-3.569-6.224-7.027-6.322-7.174c-0.205-0.301-0.128-0.711,0.174-0.917c0.301-0.204,0.711-0.127,0.916,0.175l0,0
					c0.023,0.033,2.403,3.497,6.15,6.97c3.42,3.165,8.709,6.989,14.508,7.229c0.364,0.015,0.646,0.321,0.634,0.687
					C1344.449,897.021,1344.143,897.305,1343.778,897.29z"/>
				<path fill="#A4CB5D" d="M1351.156,889.312c-4.149-0.173-7.056-1.142-7.187-1.187c-0.346-0.117-0.528-0.492-0.412-0.837
					c0.116-0.347,0.49-0.53,0.837-0.413c0.054,0.019,3.383,1.12,7.871,1.142c4.118,0.021,10.094-0.896,15.179-5.366
					c0.273-0.24,0.69-0.216,0.932,0.06c0.239,0.273,0.214,0.691-0.06,0.932c-2.392,2.104-5.16,3.646-8.234,4.589
					c-2.451,0.752-5.1,1.124-7.868,1.106C1351.854,889.335,1351.5,889.326,1351.156,889.312z"/>
			</g>
		</g>
		<g>
			<circle fill="#F37E1C" cx="474.834" cy="355.751" r="50.659"/>
			<path fill="#60913E" d="M477.743,310.916c0,0-1.797-22.581,4.106-27.2l3.592,2.31c0,0-5.645,4.104-5.645,25.404
				C479.796,311.43,478.768,313.482,477.743,310.916z"/>
			<path fill="#60913E" d="M463.922,280.748c9.425,3.323,13.969,14.802,13.969,14.802s-10.737,6.09-20.165,2.769
				c-9.424-3.323-13.97-14.803-13.97-14.803S454.496,277.426,463.922,280.748z"/>
			
				<ellipse transform="matrix(0.1469 -0.9892 0.9892 0.1469 47.4725 728.3189)" fill="#E7B28D" cx="445.972" cy="336.638" rx="9.431" ry="7.445"/>
		</g>
		<g>
			<circle fill="#C4DCE8" cx="901.031" cy="798.871" r="44.648"/>
			<path fill="#CBCAC8" d="M917.27,798.87c0,8.969-7.269,16.239-16.237,16.239s-16.238-7.271-16.238-16.239
				c0-8.966,7.27-16.237,16.238-16.237C910,782.633,917.27,789.904,917.27,798.87z"/>
			<circle fill="#FFFFFF" cx="901.031" cy="798.87" r="12.451"/>
		</g>
		<g>
			<g>
				<polygon fill="none" points="148.778,565.225 146.117,568.099 149.637,565.243 				"/>
				<path fill="#A1C5D3" d="M208.01,517.854l-43.286,35.141l0.374,12.546l-19.464-0.715l0.484,3.272l-1.333,1.439l-1.299,22.582
					l16.545,3.232l-1.705,15.048l49.848,61.401c5.915,7.286,16.615,8.398,23.9,2.484l62.042-50.367
					c7.285-5.915,8.396-16.615,2.481-23.901l-64.688-79.682C225.995,513.051,215.294,511.94,208.01,517.854z M219.002,541.323
					L190.6,564.38c-3.463,2.812-8.548,2.283-11.36-1.18c-2.812-3.464-2.285-8.549,1.179-11.36l28.402-23.058
					c3.463-2.811,8.549-2.283,11.361,1.18S222.466,538.512,219.002,541.323z"/>
			</g>
			<path fill="#325A9B" d="M145.279,562.478c1.883,0.06,3.364,1.635,3.306,3.521l-0.802,25.445
				c-0.058,1.885-1.633,3.363-3.519,3.306l0,0c-1.887-0.06-3.364-1.635-3.306-3.521l0.799-25.444
				C141.817,563.898,143.394,562.418,145.279,562.478L145.279,562.478z"/>
		</g>
		<g>
			<g>
				<g>
					<g>
						<g>
							<g>
								<path fill="#C4DCE8" d="M607.842,716.835l1.593-0.368c0,0,14.201-2.217,22.11-8.417c7.873-6.17,9.806-14.961,11.742-15.466
									c0.646,0.358,1.298,0.493,1.917,0.354c0.11-0.024,0.216-0.059,0.319-0.1c0.109-0.008,0.221-0.022,0.329-0.049
									c0.826-0.183,1.525-0.7,1.989-1.797l4.373-0.972c-1.016,0.226-2.338-1.562-3.427-4.377
									c-0.029-1.327-0.199-2.761-0.525-4.236c-0.336-1.509-0.789-2.853-1.341-4.086c-0.226-3.074,0.225-5.256,1.254-5.484
									l-4.55,1.012c-0.799-0.618-1.597-0.845-2.35-0.678c-0.109,0.025-0.222,0.03-0.325,0.071
									c-0.111,0.007-0.226,0.004-0.333,0.029c-0.577,0.127-1.079,0.473-1.497,1.002l0.003-0.01
									c-1.946,0.434-7.44-6.417-17.229-8.688s-23.595,1.729-23.595,1.729l-1.58,0.415c-1.915,0.426-3.554,1.629-4.853,3.508
									l-45.08,10.008c-1.467-0.668-2.923-0.852-4.348-0.61c0.002,0-0.002-0.014,0-0.015l-0.003,0.001
									c-0.109,0.024-0.235-0.02-0.347,0.006c-0.542,0.121-1.066,0.276-1.564,0.522l-20.438,6.639c0,0-8.426,3.625-7.812,6.39
									l0.063,0.287l0.146,0.662c0,0,0.309,1.381,1.348,2.146c0,0,0.823,0.847-0.356,1.47c-1.181,0.625-2.094,1.491-2.094,1.491
									s-3.008,2.171-3.177,5.422c-0.006,0.14-0.011,0.278-0.008,0.422c0.089,3.484,0.395,4.866,0.395,4.866
									s-0.003,1.858,0.943,3.34c0.397,0.62,0.961,1.175,1.766,1.497c2.719,1.086,6.449,2.565,6.861,2.645
									c0.439,0.084,0.561,0.511-0.133,1.783l-2.292,3.921c0,0-0.237,0.32-0.384,0.833c-0.269,0.935-0.235,2.508,2.104,3.95
									c3.619,2.232,3.619,2.232,3.619,2.232s3.399,1.603,6.981,1.17l23.114-2.922c0.573,0.019,1.145-0.03,1.707-0.156
									c1.4-0.312,2.609-1.222,3.672-2.378c0.214-0.158,0.42-0.326,0.621-0.51c0.097-0.12,0.19-0.245,0.284-0.37l44.199-9.371
									C603.713,716.812,605.823,717.282,607.842,716.835z M543.57,680.146c0.019-0.004,0.037-0.011,0.056-0.014
									c0.237-0.053,0.473-0.088,0.713-0.113C544.081,680.05,543.826,680.093,543.57,680.146z M589.025,681.352l0.35-0.083
									c0.09-0.051,0.18-0.103,0.268-0.152c-0.164,2.409-0.104,5.021,0.202,7.752c-0.178,0.062-0.355,0.129-0.532,0.192
									C588.952,686.148,588.896,683.581,589.025,681.352z M592.84,703.111c-0.953-2.458-1.854-5.401-2.637-8.932
									c-0.366-1.645-0.638-3.199-0.833-4.673c0.175-0.062,0.352-0.127,0.526-0.19c0.196,1.605,0.478,3.252,0.848,4.917
									c0.699,3.146,1.652,6.09,2.789,8.736L592.84,703.111z M554.044,727.054c-0.021,0.004-0.043,0.009-0.062,0.014
									c0.127-0.03,0.253-0.062,0.377-0.099C554.254,727.001,554.15,727.031,554.044,727.054z M612.43,711.848
									c0.331-0.721,0.626-1.501,0.885-2.336c2.674-0.253,5.335-0.666,7.916-1.29c4.592-1.507,10.068-5.711,14.386-9.822
									c-0.533,1.946-1.837,4.75-4.382,7.437C625.919,710.086,619.234,711.665,612.43,711.848z"/>
							</g>
						</g>
					</g>
				</g>
			</g>
			<path fill="#325A9B" d="M651.053,691.871c-1.046,0.23-2.082-0.427-2.312-1.475l-3.786-17.049
				c-0.232-1.045,0.427-2.082,1.473-2.312l5.686-1.264c1.046-0.231,2.082,0.429,2.312,1.476l3.785,17.047
				c0.232,1.047-0.427,2.083-1.473,2.315L651.053,691.871z"/>
		</g>
		<g>
			<g>
				<path fill="#8D653C" d="M276,743.365l-126.095,61.922l37.786,76.945l58.249-28.605c1.555,0.737,3.74,0.675,5.791-0.332
					c2.053-1.007,3.438-2.7,3.804-4.38l58.25-28.604L276,743.365z"/>
				
					<rect x="164.414" y="771.501" transform="matrix(-0.8976 0.4408 -0.4408 -0.8976 797.1301 1438.8239)" fill="#C1B49F" width="134.07" height="80.991"/>
				<path fill="#2A5E5A" d="M219.759,855.691c0,0,5.834,8.024,6.067,15.25l3.468-6.438l5.593,2.228c0,0-0.989-7.802-6.923-15.542
					L219.759,855.691z"/>
				<path fill="#D0C2A7" d="M152.733,803.779l36.509,74.343c0,0,23.511-25.31,59.699-29.555l-36.406-74.138
					C212.535,774.431,176.896,787.581,152.733,803.779z"/>
				<path fill="#DFDAC3" d="M154.132,801.565l36.508,74.342c0,0,27.199-26.857,58.309-27.351l-36.313-74.166
					C212.634,774.392,162.39,791.394,154.132,801.565z"/>
				<path fill="#EEE7D8" d="M154.932,789.703l36.514,73.83c0,0,34.417-20.475,57.502-14.987l-36.43-74.097
					C212.518,774.449,177.865,773.597,154.932,789.703z"/>
				<path fill="#FFFFF9" d="M163.092,778.062l36.812,74.957c0,0,21.798-14.781,49.044-4.456l-36.298-74.396
					C212.648,774.168,188.781,762.897,163.092,778.062z"/>
			</g>
			<g>
				<path fill="#D0C2A7" d="M272.557,745.366l36.509,74.342c0,0-34.869,2.952-60.123,28.862l-35.94-73.958
					C213.001,774.612,244.966,754.582,272.557,745.366z"/>
				<path fill="#DFDAC3" d="M270.163,745.005l36.508,74.342c0,0-38.317,4.895-57.728,29.208l-36.088-73.88
					C212.855,774.676,257.064,745.321,270.163,745.005z"/>
				<path fill="#EEE7D8" d="M259.974,738.436l36.102,74.033c0,0-37.354,14.466-47.127,36.089l-36.3-74.137
					C212.646,774.421,233.208,746.737,259.974,738.436z"/>
			</g>
		</g>
		<g>
			<polygon fill="#D9D9D9" points="1026.104,790.62 1166.498,790.457 1166.489,782.539 1028.337,782.7 			"/>
			<g>
				<path fill="#939292" d="M1026.104,790.62c4.932-0.006,5.519-8.522,5.519-8.522l123.981-0.143l-0.135-115.375l-134.725,0.156
					l0.136,118.021C1021.41,787.059,1022.765,790.624,1026.104,790.62z"/>
			</g>
			
				<rect x="1031.684" y="657.245" transform="matrix(-1 0.0012 -0.0012 -1 2198.9587 1439.3187)" fill="#D9D9D9" width="134.725" height="126.151"/>
			<g>
				<g>
					<g>
						<path fill="#5A6374" d="M1046.428,687.059l-0.02-16.309l4.307-0.005l3.396,5.972c0.97,1.717,1.938,3.748,2.668,5.586h0.07
							c-0.242-2.151-0.318-4.354-0.32-6.799l-0.006-4.767l3.388-0.003l0.019,16.308l-3.871,0.005l-3.49-6.287
							c-0.971-1.74-2.037-3.845-2.84-5.755l-0.07,0.024c0.1,2.151,0.149,4.45,0.152,7.112l0.006,4.911L1046.428,687.059z"/>
						<path fill="#5A6374" d="M1072.816,680.131l-6,0.008l0.004,3.871l6.702-0.008l0.005,3.025l-10.405,0.012l-0.019-16.309
							l10.064-0.013l0.003,3.024l-6.363,0.007l0.005,3.389l6-0.008L1072.816,680.131z"/>
						<path fill="#5A6374" d="M1078.848,687.02l-3.89-16.303l3.944-0.004l1.241,6.725c0.364,1.937,0.706,4.04,0.975,5.685h0.048
							c0.264-1.766,0.65-3.728,1.059-5.735l1.373-6.68l3.92-0.005l1.313,6.871c0.365,1.911,0.634,3.651,0.877,5.467h0.05
							c0.238-1.814,0.598-3.728,0.937-5.662l1.322-6.681l3.75-0.005l-4.19,16.313l-3.991,0.005l-1.389-7.017
							c-0.315-1.646-0.584-3.168-0.78-5.031h-0.049c-0.286,1.839-0.553,3.389-0.938,5.033l-1.54,7.02L1078.848,687.02z"/>
						<path fill="#5A6374" d="M1097.618,683.2c0.992,0.507,2.519,1.013,4.091,1.011c1.693-0.002,2.589-0.705,2.588-1.77
							c-0.003-1.017-0.775-1.597-2.738-2.295c-2.71-0.941-4.479-2.438-4.48-4.81c-0.003-2.783,2.316-4.916,6.165-4.92
							c1.839-0.002,3.192,0.383,4.163,0.816l-0.819,2.979c-0.654-0.313-1.815-0.771-3.413-0.771
							c-1.598,0.001-2.371,0.729-2.368,1.574c0,1.041,0.921,1.5,3.027,2.295c2.878,1.062,4.235,2.562,4.239,4.858
							c0.002,2.735-2.102,5.06-6.576,5.065c-1.862,0.001-3.703-0.48-4.622-0.988L1097.618,683.2z"/>
					</g>
				</g>
				
					<rect x="1115.105" y="673.938" transform="matrix(-1 0.0012 -0.0012 -1 2271.4985 1356.1936)" fill="#648182" width="40.486" height="9.66"/>
			</g>
			
				<rect x="1040.417" y="690.272" transform="matrix(-1 0.0012 -0.0012 -1 2202.918 1384.771)" fill="#939292" width="121.254" height="5.549"/>
			
				<rect x="1040.839" y="699.092" transform="matrix(-1 0.0012 -0.0012 -1 2146.8533 1435.5248)" fill="#648182" width="64.314" height="38.628"/>
			
				<rect x="1108.508" y="699.026" transform="matrix(-1 0.0012 -0.0012 -1 2271.0142 1401.0769)" fill="#939292" width="53.162" height="4.381"/>
			
				<rect x="1108.521" y="710.442" transform="matrix(-1 0.0012 -0.0012 -1 2271.0532 1423.9087)" fill="#939292" width="53.161" height="4.381"/>
			
				<rect x="1108.489" y="721.931" transform="matrix(-1 0.0011 -0.0011 -1 2270.936 1446.9888)" fill="#939292" width="53.161" height="4.379"/>
			
				<rect x="1108.549" y="733.272" transform="matrix(-1 0.0012 -0.0012 -1 2271.1362 1469.5687)" fill="#939292" width="53.161" height="4.381"/>
			
				<rect x="1042.285" y="744.453" transform="matrix(-1 0.0012 -0.0012 -1 2201.2268 1503.4862)" fill="#D36C3E" width="115.756" height="15.898"/>
			
				<rect x="1042.294" y="766.133" transform="matrix(-1 0.0012 -0.0012 -1 2133.8784 1539.8779)" fill="#648182" width="48.356" height="8.905"/>
			
				<rect x="1108.027" y="766.054" transform="matrix(-1 0.0012 -0.0012 -1 2266.9937 1539.6619)" fill="#648182" width="50.022" height="8.903"/>
			
				<rect x="1042.311" y="779.74" transform="matrix(-1 0.0012 -0.0012 -1 2133.9507 1562.5894)" fill="#939292" width="48.399" height="4.38"/>
			
				<rect x="1109.666" y="779.661" transform="matrix(-1 0.0012 -0.0012 -1 2268.6621 1562.35)" fill="#939292" width="48.401" height="4.379"/>
		</g>
		<g>
			<g>
				<polygon fill="#57432A" points="1608.175,760.73 1619.281,846.086 1549.447,838.839 1534.271,782.337 				"/>
			</g>
			<g>
				<polygon fill="#664E2C" points="1662.652,776.98 1608.173,760.709 1620.442,855.012 1648.521,827.754 				"/>
			</g>
			<g>
				<path fill="#997B53" d="M1603.301,870.289c-8.012-2.123-19.252-32.112-25.031-51.913l12.418,70.847l41.565-21.543
					C1619.396,869.924,1607.767,871.471,1603.301,870.289z"/>
				<path fill="#8C724A" d="M1663.6,780.695l-87.148,26.979l1.817,10.702c5.78,19.801,17.021,49.79,25.032,51.913
					c4.466,1.182,16.096-0.365,28.952-2.609l33.176-17.192L1663.6,780.695z"/>
			</g>
			<g>
				<path fill="#BC9962" d="M1539.576,802.693l-0.731-0.101l11.438,46.104l37.89,38.005c-7.022-8.36-28.97-34.527-33.772-40.838
					C1550.751,841.073,1544.534,822.551,1539.576,802.693z"/>
				<path fill="#AE8F59" d="M1576.45,807.674l-36.874-4.979c4.958,19.856,11.175,38.38,14.822,43.17
					c4.804,6.311,26.75,32.478,33.772,40.838l2.515,2.521L1576.45,807.674z"/>
			</g>
			<g>
				<polygon fill="#BE9D72" points="1608.635,760.648 1662.884,776.935 1693.948,750.908 1635.908,740.328 				"/>
			</g>
			<g>
				<polygon fill="#CBA97F" points="1576.45,807.674 1662.884,776.935 1702.605,770.407 1605.074,806.441 				"/>
			</g>
			<g>
				<path fill="#D4B38A" d="M1576.439,807.667l-41.823-25.375l-42.949-3.055c5.797,4.458,28.034,21.374,32.885,22.394
					C1529.438,802.658,1567.046,806.672,1576.439,807.667z"/>
				<path fill="#E5C6A3" d="M1524.552,801.631c-4.851-1.02-27.088-17.936-32.885-22.394l-0.975-0.069l31.833,26.909l53.925,1.597
					l-0.011-0.007C1567.046,806.672,1529.438,802.658,1524.552,801.631z"/>
			</g>
			<g>
				<path fill="#CCA87D" d="M1539.936,775.355c-8.513-1.051-16.938-9.878-20.992-14.738l-1.161,0.295l16.835,21.38l35.072-10.255
					C1557.064,774.248,1544.842,775.961,1539.936,775.355z"/>
				<path fill="#BE9E72" d="M1588,743.161l-69.058,17.456c4.054,4.861,12.479,13.688,20.993,14.738
					c4.905,0.604,17.13-1.107,29.753-3.318l38.945-11.389L1588,743.161z"/>
			</g>
		</g>
		<g>
			<g>
				<polygon fill="#85A4B4" points="751.783,691.24 764.698,694.981 765.253,694.188 766.071,695.378 768.375,696.045 
					767.573,697.567 771.141,702.766 770.534,703.784 751.176,692.26 				"/>
				<path fill="#A0C4DA" d="M738.029,714.345l13.146-22.085l19.357,11.524l-13.147,22.084c0,0,10.421,22.271-1.846,42.88
					c-12.267,20.605-50.927,85.548-50.927,85.548l-0.001-0.001c-3.336,5.377-18.076,2.559-33.017-6.336
					c-14.938-8.895-24.442-20.507-21.306-26.004l-0.002-0.001c0,0,38.66-64.94,50.927-85.548
					C713.483,715.801,738.029,714.345,738.029,714.345z"/>
			</g>
			<path fill="#BED9E7" d="M750.52,686.261c-1.025,1.725-0.462,3.954,1.264,4.979l19.356,11.524c1.726,1.025,3.954,0.46,4.981-1.264
				l0,0c1.027-1.725,0.46-3.954-1.264-4.979L755.5,684.997C753.775,683.971,751.547,684.536,750.52,686.261L750.52,686.261z"/>
			<g>
				<polygon fill="#FFFFFF" points="748.868,720.338 761.214,699.672 767.375,703.351 755.034,724.008 				"/>
				<path fill="#FFFFFF" d="M750.326,737.955c-0.162-3.069-0.619-5.665-1.109-7.677l8.083,4.812c0.067,0.664,0.124,1.35,0.167,2.055
					c0.317,5.202-0.143,10.54-1.369,15.865c-0.928,4.027-2.296,8.053-4.09,12.033l-6.203-3.691
					C749.215,753.54,750.734,745.699,750.326,737.955z"/>
				<path fill="#FFFFFF" d="M694.666,848.278l47.229-79.333c0.027-0.048,0.054-0.095,0.081-0.142l6.167,3.671
					c-0.026,0.048-0.055,0.095-0.083,0.141l-47.663,80.065c0,0-9.665,2.803-28.114-8.18
					C672.282,844.502,689.568,850.74,694.666,848.278z"/>
			</g>
		</g>
		<path fill="#A0C4DA" d="M1757.327,629.142c-5.73-7.067-12.773-12.226-20.287-16.805l-2.258,1.577l-29.123,20.349l-2.258,1.578
			c1.716,8.63,4.137,17.018,8.802,24.829c0.996,1.668,2.312,3.709,3.679,5.265c9.082,10.327,21.32,3.416,31.561,6.437
			c6.096,1.797,26.496,30.65,28.163,36.229c1.279,4.289-2.729,8.591-6.299,11.879c-1.304,1.199-3.971,2.392-3.545,4.611
			c4.641-1.95,11.277-6.168,17.606-10.627c6.362-4.409,12.607-9.19,16.033-12.878c-1.938-1.163-3.976,0.932-5.549,1.743
			c-4.317,2.223-9.733,4.507-13.321,1.83c-4.665-3.483-24.744-32.562-24.334-38.905c0.686-10.653,11.385-19.769,4.809-31.848
			C1760.016,632.588,1758.55,630.651,1757.327,629.142z"/>
		<g>
			<g>
				<g>
					<g>
						<path fill="#A0C4DA" d="M817.425,892.048c-9.682-16.976-25.286-12.003-25.286-12.003l-21.954-39.958l-15.584,8.562
							l21.954,39.958c0,0-12.564,10.504-3.431,27.778c0.006,0.033,0.021,0.102,0.021,0.102l0.221,0.399l51.591,93.9
							c8.874-1.085,17.159-4.613,24.114-8.659c7.143-3.7,14.562-8.801,20.238-15.708l-51.59-93.9l-0.22-0.399
							C817.5,892.119,817.451,892.07,817.425,892.048z"/>
					</g>
					<g>
						
							<rect x="785.557" y="918.078" transform="matrix(-0.8764 0.4815 -0.4815 -0.8764 1970.6255 1359.6307)" fill="#7DA1B2" width="50.604" height="29.177"/>
					</g>
					<g>
						<polygon fill="#7DA1B2" points="770.711,838.173 769.808,838.669 753.608,847.569 752.707,848.064 759.539,860.499 
							760.439,860.004 771.636,880.383 787.836,871.481 776.64,851.104 777.542,850.607 						"/>
					</g>
				</g>
				<path fill="#A0C4DA" d="M831.438,925.387c1.605,2.923,0.537,6.592-2.384,8.197l-27.25,14.972
					c-2.921,1.605-6.591,0.539-8.196-2.384l-2.656-4.834c-1.605-2.922-0.538-6.592,2.384-8.197l27.25-14.971
					c2.922-1.604,6.592-0.539,8.197,2.383L831.438,925.387z"/>
			</g>
		</g>
		<g>
			<g>
				<g>
					<path fill="#010101" d="M394.245,621.229c0,2.894-2.347,5.245-5.24,5.245h-10.607c-2.893,0-5.242-2.352-5.242-5.245v-36.071
						c0-2.896,2.349-5.245,5.242-5.245h10.607c2.893,0,5.24,2.349,5.24,5.245V621.229z"/>
					<path fill="#010101" d="M575.49,621.229c0,2.894-2.347,5.245-5.243,5.245h-10.606c-2.896,0-5.24-2.352-5.24-5.245v-36.071
						c0-2.896,2.344-5.245,5.24-5.245h10.606c2.896,0,5.243,2.349,5.243,5.245V621.229z"/>
				</g>
				<g>
					<path fill="#016442" d="M577.501,366.375c0-0.35-0.009-0.699-0.023-1.046H371.165c-0.014,0.348-0.023,0.698-0.023,1.046
						l0.402,8.079l204.423,22.763L577.501,366.375z"/>
					<path fill="#009867" d="M371.543,374.453l11.327,227.69c0,14.214,11.518,25.728,25.726,25.728h5.776h119.902h5.775
						c14.211,0,25.727-11.515,25.727-25.728l10.192-204.927L371.543,374.453z"/>
				</g>
				<path fill="#009867" d="M585.729,363.635c0,3.881-3.151,7.031-7.032,7.031H369.945c-3.88,0-7.029-3.149-7.029-7.031v-9.83
					c0-3.883,3.149-7.03,7.029-7.03h208.752c3.879,0,7.032,3.147,7.032,7.03V363.635z"/>
				<g>
					<path fill="#FFFFFF" d="M485.623,463.269l-10.303,7.25l13.511-1.611l0.595-0.072l1.723-0.204l12.016-1.438l5.151-10.318
						l0.543-1.083l6.831-13.689l-10.479,7.374l-9.036-15.649c-2.425-3.741-4.969-5.375-7.479-5.635
						c-4.445-0.218-8.966,3.772-12.176,7.672c-0.884,1.118-1.681,2.25-2.389,3.319c-0.277,0.424-0.546,0.835-0.795,1.232
						c0.246,0.511,0.516,1.062,0.795,1.622c0.377,0.766,0.779,1.558,1.215,2.4C477.987,449.581,481.598,456.155,485.623,463.269z"/>
					<path fill="#FFFFFF" d="M512.886,512.662c-1.343-0.097-2.85-0.188-4.493-0.27c-5.771-0.282-13.27-0.438-21.44-0.505
						l-1.13-12.553l-5.36,12.512l-0.232,0.547l-0.689,1.594l-4.766,11.128l6.361,9.619l0.667,1.008l8.441,12.761l-1.149-12.761
						h18.074c4.449-0.227,7.138-1.619,8.623-3.663c2.407-3.741,1.209-9.648-0.564-14.379
						C514.494,515.854,513.658,514.13,512.886,512.662z"/>
					<path fill="#FFFFFF" d="M533.581,504.235c0.02-1.434-0.285-2.292-0.473-2.697l-0.22-0.383l-16.072-27.845l-18.551,9.847
						c1.151,1.932,2.545,4.384,4.021,7.016l10.149,17.577c0.364,0.546,1.191,1.859,2.163,3.655l0.06,0.007l0.301,0.548
						c0.744,1.365,1.594,3.164,2.338,5.155c1.497,3.816,2.715,8.187,1.916,12.002L533.581,504.235z"/>
					<path fill="#FFFFFF" d="M474.13,435.44c0.275-0.353,0.556-0.715,0.849-1.077c2.562-3.195,5.735-6.436,9.436-7.653H474.13
						h-18.448c-1.245,0.7-1.84,1.391-2.096,1.756l-0.219,0.383l-16.076,27.839l17.803,11.146c1.096-1.966,2.527-4.401,4.063-6.995
						l10.145-17.576c0.296-0.592,1.021-1.964,2.083-3.704l-0.027-0.05l0.332-0.539C472.323,437.941,473.155,436.712,474.13,435.44z"
						/>
					<path fill="#FFFFFF" d="M429.189,512.723c1.966,0.282,3.881,0.422,5.532,0.485c0.756-1.111,1.588-2.372,2.479-3.753
						c3.131-4.859,7.014-11.273,11.164-18.312l11.431,5.297l-8.15-10.896l-0.361-0.483l-1.041-1.391l-7.248-9.687l-11.513,0.7
						l-1.207,0.072l-15.273,0.927l11.626,5.386l-9.033,15.655c-2.029,3.965-2.167,6.992-1.136,9.292
						C418.491,509.976,424.208,511.891,429.189,512.723z"/>
					<path fill="#FFFFFF" d="M459.501,515.273h-20.299c-0.655,0.041-2.207,0.103-4.244,0.052l-0.034,0.046l-0.629-0.015
						c-1.553-0.04-3.539-0.201-5.638-0.554c-4.053-0.611-8.444-1.748-11.342-4.343l14.363,24.885c1.227,0.733,2.126,0.9,2.565,0.944
						h0.447h32.147l0.751-20.99C465.337,515.325,462.518,515.309,459.501,515.273z"/>
				</g>
			</g>
			<g>
				<g>
					<path fill="#FFFFFF" d="M442.584,581.888c0,4.794-2.909,7.702-7.182,7.702c-4.339,0-6.878-3.276-6.878-7.44
						c0-4.384,2.798-7.66,7.116-7.66C440.131,574.489,442.584,577.852,442.584,581.888z M432.018,582.085
						c0,2.862,1.343,4.878,3.557,4.878c2.236,0,3.515-2.125,3.515-4.967c0-2.624-1.26-4.879-3.535-4.879
						C433.319,577.117,432.018,579.24,432.018,582.085z"/>
					<path fill="#FFFFFF" d="M444.754,574.924c1.062-0.172,2.645-0.304,4.401-0.304c2.17,0,3.688,0.326,4.73,1.148
						c0.867,0.695,1.345,1.713,1.345,3.058c0,1.866-1.321,3.148-2.58,3.604v0.066c1.019,0.408,1.583,1.386,1.952,2.73
						c0.457,1.652,0.911,3.56,1.194,4.124h-3.387c-0.237-0.412-0.585-1.604-1.021-3.408c-0.39-1.821-1.019-2.319-2.364-2.341h-0.997
						v5.749h-3.275V574.924L444.754,574.924z M448.029,581.217h1.301c1.649,0,2.625-0.825,2.625-2.106
						c0-1.345-0.911-2.017-2.429-2.039c-0.803,0-1.259,0.065-1.497,0.11V581.217L448.029,581.217z"/>
					<path fill="#FFFFFF" d="M469.745,588.679c-1.019,0.348-2.953,0.824-4.882,0.824c-2.668,0-4.599-0.673-5.944-1.975
						c-1.345-1.259-2.082-3.167-2.062-5.315c0.022-4.858,3.56-7.637,8.353-7.637c1.889,0,3.342,0.37,4.058,0.716l-0.694,2.646
						c-0.803-0.346-1.801-0.628-3.406-0.628c-2.756,0-4.836,1.562-4.836,4.729c0,3.017,1.886,4.796,4.598,4.796
						c0.759,0,1.368-0.087,1.627-0.218v-3.058h-2.256v-2.582h5.445V588.679z"/>
					<path fill="#FFFFFF" d="M475.731,585.599l-1.039,3.754h-3.43l4.468-14.624h4.341l4.534,14.624h-3.556l-1.131-3.754H475.731z
						 M479.444,583.127l-0.912-3.104c-0.26-0.869-0.52-1.951-0.739-2.82h-0.044c-0.215,0.869-0.434,1.975-0.672,2.82l-0.867,3.104
						H479.444z"/>
					<path fill="#FFFFFF" d="M486.559,589.353v-14.624h3.86l3.04,5.359c0.869,1.54,1.734,3.363,2.385,5.012h0.066
						c-0.216-1.932-0.284-3.904-0.284-6.096v-4.274h3.038v14.624h-3.472l-3.122-5.641c-0.869-1.563-1.821-3.451-2.539-5.165
						l-0.065,0.021c0.088,1.932,0.128,3.994,0.128,6.38v4.404H486.559z"/>
					<path fill="#FFFFFF" d="M504.848,574.729v14.624h-3.319v-14.624H504.848z"/>
					<path fill="#FFFFFF" d="M518.448,588.938c-0.606,0.303-1.972,0.629-3.752,0.629c-5.052,0-7.657-3.146-7.657-7.312
						c0-4.988,3.557-7.767,7.982-7.767c1.716,0,3.016,0.349,3.604,0.65l-0.673,2.625c-0.672-0.283-1.606-0.544-2.774-0.544
						c-2.626,0-4.667,1.583-4.667,4.84c0,2.929,1.735,4.772,4.688,4.772c0.997,0,2.103-0.217,2.756-0.479L518.448,588.938z"/>
				</g>
			</g>
		</g>
	</g>
	<g>
		<polygon fill="#212121" points="484.851,291.528 484.851,313.682 484.777,313.717 464.769,325.19 461.42,322.179 475.335,309.883 
			475.335,294.502 463.642,282.917 451.455,283.18 439.795,294.502 439.795,309.955 453.601,322.179 450.289,325.19 
			430.282,313.717 430.282,291.528 447.206,274.23 467.928,274.23 		"/>
		<polygon points="484.851,313.682 484.851,313.717 484.777,313.717 		"/>
		<path fill="#212121" d="M517.12,159.186c-0.56,1.653-0.902,3.42-1.543,5.075c-0.375,0.979-1.127,1.768-1.651,2.709
			c-0.565,1.015-1.695,1.204-2.333,0.864c-1.317-0.676-25.161,0.151-28.244,0.564c-1.581,0.188-2.934,1.091-4.512,1.054
			c-0.451,0.978-1.243,1.503-2.221,1.204c-2.293-0.791-3.346,0.677-4.476,2.181c-2.782,3.272-4.475,7.26-6.843,10.794
			c-0.489,0.827-0.939,1.655-0.677,2.67c0.113,0.187,0.225,0.413,0.375,0.6c0.227,0.264,0.528,0.49,0.677,0.792
			c0.038,1.693-1.09,6.394-1.09,6.394v83.829h-14.519v-81.57c-0.037,0-0.037-3.499,1.053-5.23c1.24-1.916,6.77-14.403,8.84-18.314
			c1.428-2.707,2.97-5.376,4.511-8.01c0.601-1.091,1.502-1.993,2.181-3.122c1.655-2.67,3.761-5.114,5.717-7.599
			c0.638-0.789,1.316-1.277,2.069-0.112c0.526,1.167-0.188,2.145-0.528,3.159c-0.79,2.407-0.265,3.046,2.218,2.482
			c4.851-1.09,24.485-6.883,29.634-7.785c2.446-0.414,4.666-1.204,6.846-2.331c0.152-0.227,0.378-0.413,0.528-0.64
			c0.712-0.714,1.429-1.392,2.069-2.146c0.677-0.825,1.616-0.75,2.406-0.525c0.715,0.188,0.865,0.941,0.975,1.692
			C519.151,151.775,518.396,155.5,517.12,159.186z"/>
		<polygon points="430.282,313.607 430.282,313.717 430.169,313.643 		"/>
	</g>
</g>
</svg>
