<?xml version="1.0" encoding="utf-8"?>
<!-- Generator: Adobe Illustrator 16.0.4, SVG Export Plug-In . SVG Version: 6.00 Build 0)  -->
<!DOCTYPE svg PUBLIC "-//W3C//DTD SVG 1.1//EN" "http://www.w3.org/Graphics/SVG/1.1/DTD/svg11.dtd">
<svg version="1.1" xmlns="http://www.w3.org/2000/svg" xmlns:xlink="http://www.w3.org/1999/xlink" x="0px" y="0px" width="1920px"
	 height="1080px" viewBox="0 0 1920 1080" enable-background="new 0 0 1920 1080" xml:space="preserve">
<g id="BG">
	<g>
		<g>
			<rect fill="#BDF9F6" width="1920" height="734.739"/>
		</g>
		<g>
			<g>
				<path fill="#FFFFFF" d="M1919.631,88.49c-12.179-3.376-18.458,1.893-21.896,11.359c-4.322-7.509-11.99-10.002-20.951-10.507
					c17.133-51.242-53.955-46.036-48.056-5.238c-16.312-11.864-49.411-3.628-64.651,12.243c-19.12-7.73-41.335,12.526-43.669,27.956
					c-3.691-12.936-25.526-13.189-31.616-4.48c-6.879-2.588-15.682,11.643-11.17,20.193c-24.958-5.521-66.544-1.01-74.243,9.624
					h316.254L1919.631,88.49L1919.631,88.49z"/>
				<path fill="#B9DFF7" d="M1603.377,149.639c19.121-8.866,47.771-10.065,84.939-4.385c-11.013-5.9-3.817-22.908,10.033-21.393
					c-1.576,2.903-1.576,6.121,0,9.592c6.563-3.787,17.732-0.505,20.541,3.502c5.555-16.881,26.853-30.291,43.229-25.779
					c6.405-15.556,20.889-22.844,37.579-20.509c-15.492,1.452-24.518,8.583-29.724,22.718c15.492-14.956,61.371-11.611,73.394,4.354
					c10.538-2.84,20.004,0.883,24.895,7.004c-3.975-8.488-10.759-12.811-19.657-13.978c-2.491-8.331-6.09-16.439-15.303-23.602
					c-1.546-8.425,5.396-28.334,17.479-26.63c-6.595,1.893-8.804,20.699-6.562,27.956c10.255-2.114,17.923,4.165,19.216,10.917
					c18.742-1.704,27.01,12.874,27.104,23.57c4.512-3.187,12.715-1.767,18.332,3.502c-5.681-2.272-10.729-0.663-12.243,1.736
					c8.74-2.051,16.598-0.694,23.002,6.562v14.861h-316.254V149.639z"/>
			</g>
			<g>
				<path fill="#FFFFFF" d="M-0.369,79.366c16.092-4.449,24.359,2.524,28.902,14.987c5.711-9.876,15.808-13.157,27.704-13.82
					c-22.655-67.649,71.183-60.802,63.421-6.91c21.519-15.682,65.22-4.828,85.319,16.124c25.274-10.192,54.586,16.534,57.647,36.917
					c4.89-17.069,33.698-17.385,41.776-5.9c9.024-3.408,20.667,15.366,14.735,26.662c32.941-7.32,87.812-1.356,98.003,12.684H-0.369
					V79.366z"/>
				<path fill="#B9DFF7" d="M417.139,160.11c-25.241-11.706-63.042-13.284-112.139-5.774c14.546-7.793,5.048-30.259-13.252-28.271
					c2.114,3.849,2.114,8.078,0,12.684c-8.677-5.017-23.412-0.662-27.104,4.639c-7.352-22.308-35.465-39.978-57.079-34.014
					c-8.456-20.573-27.577-30.196-49.569-27.104c20.415,1.925,32.31,11.328,39.188,29.976
					c-20.446-19.752-80.996-15.335-96.867,5.774c-13.915-3.755-26.378,1.136-32.847,9.213c5.206-11.17,14.167-16.881,25.937-18.458
					c3.281-10.98,8.045-21.677,20.193-31.111c2.051-11.169-7.131-37.453-23.065-35.181c8.677,2.493,11.611,27.325,8.646,36.885
					c-13.505-2.777-23.633,5.521-25.368,14.419c-24.707-2.24-35.624,17.007-35.75,31.143c-5.995-4.228-16.786-2.367-24.232,4.606
					c7.51-2.997,14.167-0.883,16.155,2.304c-11.517-2.714-21.898-0.916-30.354,8.645v19.626L417.139,160.11L417.139,160.11z"/>
			</g>
			<g>
				<path fill="#FFFFFF" d="M1645.657,48.639c8.93-26.789-29.88-23.98-27.515-7.573c-5.144-3.723-15.587-1.136-20.384,3.881
					c-11.516-10.728-30.731,7.226-27.293,13.757c-7.889-1.736-20.981-0.315-23.412,3.029h133.06
					C1675.854,53.119,1662.002,46.083,1645.657,48.639L1645.657,48.639z"/>
				<path fill="#B9DFF7" d="M1547.055,61.733c8.33-3.502,17.07-2.776,25.811-1.641c2.493-6.248,8.142-11.454,14.704-9.718
					c-3.881,0.947-5.648,3.597-6.595,6.91c6.09-5.679,12.464-5.932,18.964-3.376c2.396-9.119,9.876-11.233,19.151-10.917
					c3.281-6.248,12.716-9.308,16.629-5.301c0.095-1.231-1.673-2.524-3.377-2.935c10.761-2.208,14.325,10.128,11.486,16.628
					c15.996-0.221,30.101,1.356,36.285,10.349C1635.75,61.733,1591.386,61.733,1547.055,61.733L1547.055,61.733z"/>
			</g>
			<g>
				<path fill="#FFFFFF" d="M268.272,164.591c16.88-50.611-56.48-45.311-52-14.293c-9.718-7.068-29.502-2.177-38.558,7.289
					c-21.771-20.226-58.121,13.662-51.589,26.062c-14.893-3.313-39.693-0.599-44.3,5.743h251.571
					C325.32,173.047,299.163,159.763,268.272,164.591L268.272,164.591z"/>
				<path fill="#B9DFF7" d="M81.826,189.391c15.776-6.689,32.279-5.269,48.812-3.155c4.702-11.801,15.43-21.614,27.83-18.364
					c-7.383,1.767-10.696,6.815-12.527,13.063c11.549-10.76,23.602-11.233,35.907-6.405c4.512-17.197,18.648-21.204,36.16-20.572
					c6.216-11.864,24.043-17.638,31.458-10.034c0.158-2.335-3.155-4.828-6.405-5.553c20.352-4.165,27.072,19.121,21.708,31.427
					c30.291-0.442,56.921,2.556,68.627,19.594C249.53,189.391,165.694,189.391,81.826,189.391L81.826,189.391z"/>
			</g>
			<g>
				<path fill="#FFFFFF" d="M559.316,48.823c10.728-32.216-35.971-28.84-33.1-9.119c-6.185-4.48-18.773-1.357-24.548,4.638
					c-13.852-12.874-36.979,8.709-32.846,16.597c-9.466-2.114-25.243-0.379-28.178,3.66h160.101
					C595.602,54.187,578.974,45.73,559.316,48.823L559.316,48.823z"/>
				<path fill="#B9DFF7" d="M440.646,64.6c10.064-4.26,20.541-3.376,31.079-2.02c2.998-7.509,9.813-13.757,17.702-11.674
					c-4.702,1.135-6.814,4.322-7.982,8.298c7.352-6.847,15.019-7.131,22.844-4.07c2.902-10.949,11.895-13.505,23.033-13.095
					c3.943-7.541,15.303-11.232,20.004-6.374c0.126-1.483-1.987-3.061-4.07-3.534c12.938-2.65,17.229,12.148,13.82,20.004
					c19.277-0.284,36.223,1.609,43.669,12.464C547.389,64.6,494.001,64.6,440.646,64.6L440.646,64.6z"/>
			</g>
			<g>
				<path fill="#FFFFFF" d="M1225.104,80.226c11.454-34.361-38.367-30.764-35.308-9.718c-6.594-4.796-20.036-1.452-26.188,4.954
					c-14.768-13.725-39.474,9.276-35.023,17.701c-10.129-2.24-26.947-0.41-30.069,3.881h170.796
					C1263.819,85.968,1246.087,76.944,1225.104,80.226L1225.104,80.226z"/>
				<path fill="#B9DFF7" d="M1098.514,97.043c10.729-4.512,21.897-3.565,33.131-2.146c3.22-7.983,10.476-14.672,18.899-12.463
					c-5.017,1.23-7.257,4.638-8.487,8.897c7.826-7.32,16.029-7.636,24.359-4.354c3.092-11.675,12.684-14.42,24.579-13.978
					c4.196-8.046,16.312-11.99,21.33-6.816c0.126-1.578-2.146-3.25-4.323-3.754c13.789-2.84,18.364,12.968,14.735,21.33
					c20.541-0.284,38.62,1.736,46.571,13.284C1212.389,97.043,1155.436,97.043,1098.514,97.043L1098.514,97.043z"/>
			</g>
			<g>
				<path fill="#FFFFFF" d="M1347.781,96.317c16.376-49.128-54.839-43.953-50.484-13.852c-9.466-6.878-28.619-2.114-37.453,7.068
					c-21.108-19.626-56.385,13.252-50.074,25.305c-14.451-3.218-38.526-0.6-42.975,5.554h244.188
					C1403.125,104.521,1377.757,91.647,1347.781,96.317L1347.781,96.317z"/>
				<path fill="#B9DFF7" d="M1166.795,120.393c15.334-6.469,31.331-5.112,47.393-3.061c4.574-11.422,14.955-20.983,27.01-17.828
					c-7.163,1.736-10.413,6.626-12.181,12.685c11.232-10.444,22.907-10.886,34.865-6.216C1268.268,89.281,1281.994,85.4,1299,86
					c5.996-11.485,23.318-17.134,30.513-9.719c0.157-2.271-3.062-4.701-6.217-5.427c19.753-4.007,26.284,18.553,21.077,30.543
					c29.376-0.441,55.25,2.461,66.609,18.995C1329.576,120.393,1248.169,120.393,1166.795,120.393L1166.795,120.393z"/>
			</g>
			<g>
				<path fill="#FFFFFF" d="M254.326,267.706c7.888-23.665-26.41-21.172-24.296-6.689c-4.575-3.313-13.789-1.01-18.048,3.408
					c-10.16-9.466-27.167,6.374-24.106,12.179c-6.942-1.546-18.553-0.284-20.699,2.683h117.598
					C280.988,271.65,268.777,265.434,254.326,267.706L254.326,267.706z"/>
				<path fill="#B9DFF7" d="M167.177,279.286c7.383-3.124,15.083-2.462,22.812-1.483c2.209-5.49,7.226-10.097,13-8.582
					c-3.439,0.852-4.985,3.187-5.837,6.121c5.396-5.017,11.044-5.269,16.787-2.998c2.114-8.046,8.708-9.908,16.912-9.624
					c2.871-5.522,11.233-8.235,14.672-4.67c0.095-1.104-1.451-2.272-2.966-2.619c9.498-1.925,12.653,8.929,10.128,14.703
					c14.167-0.221,26.599,1.199,32.089,9.151C245.554,279.286,206.365,279.286,167.177,279.286L167.177,279.286z"/>
			</g>
			<g>
				<path fill="#FFFFFF" d="M735.104,185.226c11.454-34.361-38.367-30.764-35.308-9.718c-6.594-4.796-20.036-1.452-26.188,4.954
					c-14.768-13.725-39.474,9.276-35.023,17.701c-10.129-2.24-26.947-0.41-30.07,3.881H779.31
					C773.819,190.968,756.087,181.944,735.104,185.226L735.104,185.226z"/>
				<path fill="#B9DFF7" d="M608.514,202.043c10.729-4.512,21.897-3.565,33.131-2.146c3.22-7.983,10.476-14.672,18.899-12.463
					c-5.017,1.23-7.257,4.638-8.487,8.897c7.826-7.32,16.029-7.636,24.359-4.354c3.092-11.675,12.684-14.42,24.579-13.978
					c4.196-8.046,16.312-11.99,21.33-6.816c0.126-1.578-2.146-3.25-4.323-3.754c13.789-2.84,18.364,12.968,14.735,21.33
					c20.541-0.284,38.62,1.736,46.571,13.284C722.389,202.043,665.435,202.043,608.514,202.043L608.514,202.043z"/>
			</g>
			<g>
				<path fill="#FFFFFF" d="M857.781,201.317c16.376-49.128-54.839-43.953-50.484-13.852c-9.466-6.878-28.619-2.114-37.453,7.068
					c-21.108-19.626-56.385,13.252-50.074,25.305c-14.451-3.218-38.526-0.6-42.975,5.554h244.188
					C913.125,209.521,887.757,196.647,857.781,201.317L857.781,201.317z"/>
				<path fill="#B9DFF7" d="M676.795,225.393c15.334-6.469,31.331-5.112,47.393-3.061c4.574-11.422,14.955-20.983,27.01-17.828
					c-7.163,1.736-10.413,6.626-12.181,12.685c11.232-10.444,22.907-10.886,34.865-6.216C778.268,194.281,791.994,190.4,809,191
					c5.996-11.485,23.318-17.134,30.513-9.719c0.157-2.271-3.062-4.701-6.217-5.427c19.753-4.007,26.284,18.553,21.077,30.543
					c29.376-0.441,55.25,2.461,66.609,18.995C839.576,225.393,758.169,225.393,676.795,225.393L676.795,225.393z"/>
			</g>
		</g>
		<rect y="309.531" fill="#FFD862" width="1922.678" height="770.018"/>
		<g>
			<rect y="253.217" fill="#29BCC5" width="1919.679" height="136.655"/>
			<path fill="#FFFFFF" d="M1035.552,375.832c14.052-1.231,25.493-13.441,39.622-12.526c14.052,0.946,22.652,15.491,36.551,17.543
				c10.75,1.578,20.578-7.004,31.482-7.51c12.979-0.63,25.646,4.859,38.625,4.166c18.275-0.979,35.514-9.277,53.826-9.182
				c93.566,0.473,167.282,3.849,260.81,2.082c12.478-0.221,32.634-5.048,44.919-6.91c10.1-1.514,25.303,6.626,35.592,6.5
				c12.977-0.158,21.038-4.386,34.017-4.386c8.831,0,19.235,3.313,27.951,4.386c7.756,0.946,15.55-3.124,23.344-2.492
				c6.833,0.536,12.478,6.09,19.312,5.836c9.944-0.347,18.506-6.941,28.45-7.509c18.929-1.104,38.2,5.333,56.898,2.493
				c15.318-2.335,26.185-5.459,41.389-8.33c9.367-1.799,18.812,4.006,28.45,4.165c8.216,0.126,16.316-4.765,24.38-3.345
				c13.478,2.367,24.495,2.146,37.816,5.017c6.719,1.42,13.784-1.104,20.693-1.672v25.714H0v-15.838
				c24.188,0.03,48.376,1.229,72.525,0.125c23.842-1.072,47.301-7.572,71.105-6.657c20.195,0.757,38.816,9.971,58.934,11.673
				c12.861,1.105,25.686-2.65,38.585-3.344c18.276-0.979,36.627-0.537,54.865-1.673c18.352-1.104,36.474-5.868,54.865-4.985
				c28.104,1.356,55.133,10.885,83.275,11.674c31.943,0.884,63.542-6.689,95.484-6.689c13.168,0,25.454,6.406,38.624,6.689
				c12.363,0.285,24.188-5.017,36.55-5.017c15.703,0,31.022,5.363,46.727,5.017c11.172-0.22,21.346-6.406,32.519-6.689
				c13.017-0.283,25.57,4.638,38.624,5.017c6.872,0.19,13.399-3.722,20.311-3.344c12.747,0.726,24.803,7.131,37.588,6.531
				c12.478-0.567,23.151-8.456,35.553-9.876c12.094-1.356,24.457,0.474,36.55,1.673c10.29,1.042,20.119,5.017,30.485,5.017
				c23.112,0,45.957-4.511,69.069-5.017C979.996,373.56,1007.909,378.293,1035.552,375.832L1035.552,375.832z"/>
		</g>
		<g>
			<g>
				<polygon fill="#FFCC99" points="1233.83,253.22 1250.145,228.293 1273.304,216.177 1283.811,207.752 1300.659,207.215 
					1320.128,200.369 1338.05,184.056 1352.249,161.432 1383.298,160.896 1418.573,180.901 1440.155,176.704 1474.896,189.861 
					1495.438,224.601 1507.521,228.293 1520.174,253.22 				"/>
				<polygon fill="#1FA394" points="1241.972,240.756 1250.145,228.293 1273.304,216.177 1283.811,207.752 1300.659,207.215 
					1320.128,200.369 1338.05,184.056 1352.249,161.432 1383.298,160.896 1418.573,180.901 1440.155,176.704 1474.896,189.861 
					1495.438,224.601 1507.521,228.293 1512.159,237.412 1506.479,243.028 1480.953,239.873 1464.641,244.322 1440.407,235.897 
					1415.418,234.067 1393.3,241.704 1370.14,237.475 1346.979,243.281 1316.973,235.393 1299.619,242.744 1279.078,244.606 
					1269.359,241.955 1260.146,246.184 				"/>
				<path fill="#34C290" d="M1243.706,238.074l6.438-9.781l23.159-12.117l10.507-8.424l16.85-0.537l19.469-6.847l17.922-16.312
					l14.199-22.624l31.206,14.262l0.853,15.839l-8.361,7.952l15.87,0.411l22.938-12.117l12.969-1.672l-11.705,10.853l-6.248,13.379
					l-30.891,13.347l-11.707-8.772l-24.611,7.1l-12.524,7.51l-17.545-4.165l16.691-8.771l-16.691-2.492l-17.102,5.426l-6.688-7.099
					l-21.708,18.364l-12.938,3.345l-5.018,3.755L1243.706,238.074z M1460.254,218.259l-10.002,2.935l-4.165,3.755l6.657-2.083
					L1460.254,218.259z M1449.4,196.96l-16.25,5.87l-5.869,7.92l12.526-1.262l4.165-5.428l4.605-1.23L1449.4,196.96z"/>
			</g>
			<g>
				<polygon fill="#FFCC99" points="1073.1,253.22 1080.957,241.167 1097.207,231.259 1113.74,220.089 1162.237,218.322 
					1172.682,216.272 1189.436,222.645 1199.343,239.399 1205.181,241.167 1211.271,253.22 				"/>
				<polygon fill="#1FA394" points="1077.013,247.193 1080.957,241.167 1097.207,231.259 1113.74,220.089 1162.237,218.322 
					1172.682,216.272 1189.436,222.645 1199.343,239.399 1205.181,241.167 1207.421,245.584 1204.676,248.297 1192.37,246.751 
					1184.482,248.929 1172.808,244.859 1160.723,243.975 1150.058,247.666 1138.889,245.616 1127.719,248.424 1113.235,244.606 
					1104.842,248.171 1094.936,249.055 1090.234,247.793 1085.784,249.812 				"/>
				<path fill="#34C290" d="M1077.864,245.899l3.093-4.733l11.17-5.837l5.08-4.07l16.533-11.17l37.58-1.389l-9.624,8.583
					l7.636,0.189l11.075-5.837l6.247-0.789l-5.647,5.238l-2.998,6.437l-14.924,6.438l-5.648-4.229l-11.863,3.439l-6.059,3.597
					l-8.456-1.988l8.046-4.228l-8.046-1.23l-8.267,2.619l-3.219-3.408l-10.477,8.866l-6.247,1.609l-2.397,1.799L1077.864,245.899z
					 M1182.368,236.339l-4.827,1.42l-2.021,1.798l3.22-1.009L1182.368,236.339z M1177.13,226.084l-7.855,2.809l-2.809,3.817
					l6.025-0.6l2.02-2.618l2.209-0.6L1177.13,226.084z"/>
			</g>
		</g>
		<g>
			<g>
				<g>
					<path fill="#C47D47" d="M0,827.7c21.172-3.503,31.458,32.278,47.203,48.4c14.451,15.304,33.951,16.438,43.385,45.94
						C88.632,933.371,42.912,936.178,0,939.555V827.7z"/>
					<path fill="#A35E3B" d="M85.003,927.659C71.246,934.443,34.708,936.841,0,939.555v-9.088
						C29.912,928.763,52.914,937.347,85.003,927.659L85.003,927.659z"/>
					<path fill="#FFB773" d="M0,827.7c21.172-3.503,31.458,32.278,47.203,48.4c13.946,14.799,32.594,16.345,42.376,43.008
						c-3.345,3.124-6.69,4.765-10.034,3.754c-11.517-10.854-19.847-11.705-27.987-11.896c12.621,2.937,18.774,8.33,19.437,15.871
						c-15.493,1.39-30.575-0.788-44.679-11.075c-10.254,1.609-19.658,1.801-26.315-2.713V861.02
						c11.454,3.405,12.053,16.975,20.667,23.033c7.542,7.571,9.624,19.12,22.561,22.749c-10.413-4.732-11.422-14.481-17.133-21.709
						C17.417,876.259,14.861,863.544,0,858.59V827.7z"/>
				</g>
				<g>
					<path fill="#C47D47" d="M36.191,951.545c-4.954-23.064-1.735-41.46,18.364-50.076c11.801-23.633,34.645-32.75,64.273-32.972
						c58.026-8.235,93.365,6.247,113.528,35.876c43.511,6.752,46.761,19.532,45.499,33.004c-7.036,7.416-26.599,9.688-65.946,3.755
						C179.252,958.423,118.923,960.948,36.191,951.545L36.191,951.545z"/>
					<path fill="#A35E3B" d="M36.191,951.545c-4.071-18.901-2.65-34.678,9.087-44.49c-4.765,10.571-4.638,20.131,1.735,28.461
						c15.051,7.162,33.888,5.965,53.987,1.987c26.22,14.894,50.201,12.873,73.645,7.1c-2.083-2.303-5.112-4.354-9.182-6.247
						c16.376,1.988,30.891-1.577,44.458-7.92c1.42-4.513,3.628-8.457,7.51-11.295c-4.165,21.551,26.599,20.256,50.516,23.442
						c-10.634,2.84-28.492,2.682-56.038-1.451C179.252,958.423,118.923,960.948,36.191,951.545L36.191,951.545z"/>
					<path fill="#FFB773" d="M85.918,873.735c9.624-3.534,20.699-5.145,32.91-5.238c58.026-8.235,93.365,6.247,113.528,35.876
						c27.482,4.259,38.904,10.948,43.29,18.68c-20.32,10.821-37.989,6.594-54.965-1.546c0.063-6.501,2.998-11.739,9.182-15.461
						c-10.191,1.766-19.09,6.185-26.504,13.788c-7.541,7.415-19.026,10.729-32.973,11.485c-7.731-3.692-15.587-4.322-23.602-3.123
						c-5.017-5.869-10.759-9.625-17.732-9.625c6.878,1.86,11.075,5.869,13.789,11.075c6.027,0.536,10.791,1.955,13.757,4.574
						c-0.063,2.052-2.84,3.533-9.592,4.197c-12.811-1.229-25.242-3.409-34.424-13.568c-24.769,3.282-46.604,4.039-54.082-7.729
						c3.218-10.352,10.917-14.326,19.437-17.135c5.521-9.497,14.987-14.419,26.062-17.512c-10.917,1.703-20.919,5.615-28.523,15.113
						c-5.143,0.41-10.223,1.294-15.082,3.66C63.895,888.47,73.518,880.109,85.918,873.735L85.918,873.735z M127.347,880.329
						c14.672-1.23,28.208,1.23,39.852,10.003c10.192-5.301,23.949-6.91,42.786-3.313c-8.172-5.144-18.269-6.973-31.71-2.934
						C160.163,875.975,143.471,876.449,127.347,880.329L127.347,880.329z"/>
				</g>
				<g>
					<path fill="#C47D47" d="M296.345,945.234c0.473-2.524,1.388-4.64,3.218-5.995c1.893-2.872,4.259-4.322,7.509-3.092
						c2.745,0.913,4.67,2.522,5.207,5.204c0.44,0.82,1.229,2.272,0.662,3.977C310.291,947.602,300.92,946.906,296.345,945.234
						L296.345,945.234z"/>
					<path fill="#A35E3B" d="M299.216,939.521c-0.915,1.705-1.104,3.062-0.884,4.261c3.787,1.987,8.298,2.366,13.031,2.366
						c-3.755,1.229-11.106,0.506-15.02-0.914C296.787,942.868,297.639,940.881,299.216,939.521L299.216,939.521z"/>
					<path fill="#FFB773" d="M303.823,935.799L303.823,935.799c0.979-0.188,2.051-0.094,3.25,0.35
						c2.745,0.914,4.67,2.522,5.207,5.205c0.347,0.632,0.915,1.673,0.852,2.871c-0.694,0.601-1.988,0.853-4.165,0.283
						c-4.292,0.568-7.731,0.127-8.898-2.934C300.194,939.049,301.393,937.314,303.823,935.799L303.823,935.799z"/>
				</g>
				<g>
					<path fill="#C47D47" d="M209.101,961.642c0.474-2.492,1.42-4.638,3.218-5.964c1.925-2.902,4.291-4.354,7.541-3.092
						c2.745,0.916,4.67,2.493,5.206,5.207c0.411,0.82,1.231,2.239,0.663,3.943C223.047,964.04,213.708,963.314,209.101,961.642
						L209.101,961.642z"/>
					<path fill="#A35E3B" d="M211.972,955.93c-0.883,1.704-1.073,3.095-0.883,4.262c3.787,1.987,8.33,2.397,13.031,2.366
						c-3.755,1.229-11.106,0.503-15.019-0.916C209.543,959.307,210.395,957.287,211.972,955.93L211.972,955.93z"/>
					<path fill="#FFB773" d="M216.61,952.239L216.61,952.239c0.979-0.223,2.051-0.127,3.25,0.347
						c2.745,0.916,4.67,2.493,5.206,5.207c0.316,0.63,0.884,1.641,0.853,2.869c-0.694,0.601-2.02,0.853-4.197,0.286
						c-4.291,0.535-7.699,0.093-8.866-2.937C212.982,955.489,214.181,953.754,216.61,952.239L216.61,952.239z"/>
				</g>
				<g>
					<path fill="#C47D47" d="M226.234,970.824c0.378-1.988,1.104-3.661,2.524-4.733c1.515-2.271,3.408-3.439,5.964-2.43
						c2.177,0.726,3.691,1.956,4.133,4.101c0.315,0.664,0.978,1.801,0.504,3.124C237.246,972.717,229.863,972.148,226.234,970.824
						L226.234,970.824z"/>
					<path fill="#A35E3B" d="M228.506,966.312c-0.726,1.356-0.852,2.43-0.694,3.377c2.998,1.546,6.563,1.86,10.286,1.86
						c-2.966,0.978-8.772,0.41-11.864-0.726C226.582,968.961,227.244,967.384,228.506,966.312L228.506,966.312z"/>
					<path fill="#FFB773" d="M232.166,963.378L232.166,963.378c0.758-0.159,1.609-0.096,2.556,0.283
						c2.177,0.726,3.691,1.956,4.133,4.101c0.252,0.506,0.694,1.295,0.663,2.273c-0.537,0.472-1.578,0.662-3.313,0.22
						c-3.375,0.442-6.089,0.096-7.004-2.303C229.295,965.933,230.242,964.575,232.166,963.378L232.166,963.378z"/>
				</g>
				<g>
					<path fill="#C47D47" d="M12.779,977.985c1.798-9.496,5.301-17.512,12.085-22.561c7.226-10.887,16.187-16.377,28.397-11.676
						c10.35,3.471,17.606,9.467,19.626,19.628c7.32,1.229,12.716,5.3,15.019,13.757C77.841,985.78,30.038,984.266,12.779,977.985
						L12.779,977.985z"/>
					<path fill="#A35E3B" d="M12.779,977.985c1.672-8.897,4.859-16.472,10.823-21.551c-3.408,6.438-4.102,11.58-3.376,16.061
						c16.344,8.521,36.286,9.245,56.795,8.835C58.91,984.928,26.378,982.939,12.779,977.985L12.779,977.985z"/>
					<path fill="#FFB773" d="M40.987,942.458c3.691-0.789,7.762-0.442,12.274,1.292c10.35,3.471,17.606,9.467,19.626,19.628
						c2.24,0.882,4.102,1.894,5.427,3.123c-1.704,2.492-5.301,2.429-9.908,1.041c-3.029-5.111-7.352-8.362-13.378-9.087
						c5.301,1.482,8.708,4.701,10.665,9.182c2.208,1.231,3.376,3.249,4.26,5.428c-1.199-1.609-2.998-2.936-6.342-3.438
						c0.284,2.46-0.631,4.416-3.25,5.646c-16.218,2.114-29.124,0.441-33.509-11.075c1.578-4.006,4.954-6.025,11.391-4.574
						c-2.745-1.829-5.68-2.809-8.993-2.43C30.701,951.86,33.415,946.718,40.987,942.458L40.987,942.458z"/>
				</g>
				<g>
					<path fill="#C47D47" d="M109.962,978.459c0.757-4.008,2.24-7.383,5.111-9.529c3.029-4.573,6.815-6.908,11.99-4.922
						c4.354,1.451,7.447,3.978,8.267,8.268c0.694,1.325,1.987,3.63,1.073,6.312C132.144,982.246,117.25,981.11,109.962,978.459
						L109.962,978.459z"/>
					<path fill="#A35E3B" d="M114.537,969.371c-1.451,2.714-1.735,4.892-1.419,6.784c6.027,3.124,13.221,3.756,20.73,3.756
						c-5.964,1.956-17.67,0.819-23.886-1.452C110.656,974.705,112.013,971.518,114.537,969.371L114.537,969.371z"/>
					<path fill="#FFB773" d="M121.889,963.471L121.889,963.471c1.546-0.347,3.282-0.188,5.175,0.537
						c4.354,1.451,7.447,3.978,8.267,8.268c0.536,1.041,1.451,2.649,1.388,4.574c-1.104,0.979-3.218,1.39-6.658,0.475
						c-6.847,0.884-12.306,0.188-14.167-4.67C116.114,968.646,118.008,965.869,121.889,963.471L121.889,963.471z"/>
				</g>
			</g>
			<g>
				<g>
					<path fill="#C47D47" d="M324.458,932.802c1.798-9.497,5.301-17.479,12.117-22.527c7.193-10.887,16.155-16.407,28.366-11.675
						c10.381,3.471,17.605,9.435,19.626,19.595c7.319,1.262,12.716,5.301,15.019,13.788
						C389.521,940.627,341.75,939.112,324.458,932.802L324.458,932.802z"/>
					<path fill="#A35E3B" d="M324.458,932.802c1.704-8.864,4.859-16.438,10.823-21.518c-3.408,6.403-4.103,11.578-3.346,16.06
						c16.312,8.486,36.286,9.244,56.796,8.805C370.589,939.743,338.058,937.755,324.458,932.802L324.458,932.802z"/>
					<path fill="#FFB773" d="M352.698,897.305c3.691-0.788,7.729-0.44,12.243,1.295c10.381,3.471,17.605,9.435,19.626,19.595
						c2.239,0.884,4.102,1.924,5.427,3.123c-1.704,2.492-5.301,2.462-9.908,1.071c-3.029-5.143-7.352-8.358-13.347-9.087
						c5.27,1.484,8.677,4.703,10.633,9.184c2.208,1.229,3.376,3.219,4.26,5.426c-1.199-1.607-2.966-2.933-6.342-3.438
						c0.284,2.462-0.6,4.418-3.25,5.617c-16.188,2.146-29.123,0.475-33.478-11.044c1.577-4.007,4.922-6.026,11.358-4.604
						c-2.745-1.832-5.679-2.81-8.961-2.398C342.381,906.676,345.125,901.564,352.698,897.305L352.698,897.305z"/>
				</g>
				<g>
					<path fill="#C47D47" d="M383.084,941.73c0.757-4.006,2.24-7.384,5.111-9.497c3.061-4.606,6.814-6.941,11.989-4.953
						c4.387,1.481,7.446,4.008,8.299,8.299c0.663,1.294,1.956,3.597,1.042,6.311C405.266,945.519,390.373,944.414,383.084,941.73
						L383.084,941.73z"/>
					<path fill="#A35E3B" d="M387.659,932.644c-1.451,2.716-1.735,4.893-1.419,6.784c6.025,3.155,13.252,3.787,20.761,3.756
						c-5.995,1.988-17.701,0.82-23.917-1.453C383.81,937.977,385.135,934.79,387.659,932.644L387.659,932.644z"/>
					<path fill="#FFB773" d="M395.011,926.743L395.011,926.743c1.546-0.347,3.282-0.188,5.175,0.537
						c4.387,1.481,7.446,4.008,8.299,8.299c0.505,1.009,1.42,2.618,1.356,4.574c-1.104,0.946-3.219,1.356-6.658,0.441
						c-6.847,0.884-12.306,0.189-14.136-4.67C389.236,931.918,391.129,929.142,395.011,926.743L395.011,926.743z"/>
				</g>
				<g>
					<path fill="#C47D47" d="M434.768,928.385c0.474-2.522,1.42-4.639,3.219-5.964c1.925-2.901,4.292-4.354,7.542-3.124
						c2.745,0.947,4.669,2.525,5.206,5.207c0.409,0.852,1.229,2.271,0.661,3.977C448.714,930.751,439.374,930.057,434.768,928.385
						L434.768,928.385z"/>
					<path fill="#A35E3B" d="M437.639,922.674c-0.883,1.703-1.072,3.062-0.883,4.26c3.786,1.987,8.33,2.366,13.031,2.366
						c-3.754,1.23-11.106,0.506-15.02-0.915C435.209,926.018,436.061,924.03,437.639,922.674L437.639,922.674z"/>
					<path fill="#FFB773" d="M442.277,918.981L442.277,918.981c0.978-0.221,2.051-0.126,3.25,0.314
						c2.745,0.947,4.669,2.525,5.206,5.207c0.314,0.662,0.883,1.672,0.852,2.871c-0.694,0.599-2.019,0.885-4.196,0.284
						c-4.292,0.567-7.729,0.126-8.865-2.935C438.648,922.232,439.847,920.465,442.277,918.981L442.277,918.981z"/>
				</g>
				<g>
					<path fill="#C47D47" d="M461.019,937.787c0.38-1.988,1.104-3.659,2.525-4.733c1.515-2.271,3.407-3.438,5.963-2.428
						c2.177,0.726,3.692,1.956,4.103,4.101c0.347,0.662,0.978,1.801,0.537,3.125C472.031,939.682,464.616,939.112,461.019,937.787
						L461.019,937.787z"/>
					<path fill="#A35E3B" d="M463.292,933.275c-0.726,1.355-0.884,2.43-0.726,3.376c2.998,1.546,6.595,1.861,10.317,1.861
						c-2.966,0.979-8.803,0.41-11.864-0.727C461.367,935.926,462.029,934.348,463.292,933.275L463.292,933.275z"/>
					<path fill="#FFB773" d="M466.92,930.341L466.92,930.341c0.789-0.157,1.641-0.094,2.587,0.285
						c2.177,0.726,3.692,1.956,4.103,4.101c0.252,0.507,0.726,1.326,0.693,2.271c-0.567,0.474-1.608,0.695-3.312,0.222
						c-3.407,0.442-6.121,0.095-7.036-2.303C464.049,932.896,464.995,931.54,466.92,930.341L466.92,930.341z"/>
				</g>
			</g>
		</g>
		<g>
			<g>
				<g>
					<path fill="#34C290" d="M1661.424,970.764c21.551-19.057,31.049-5.237,29.66,20.793c14.641-15.145,20.636-6.119,12.306,14.012
						c7.604-5.049,11.99-1.956,12.116,10.602c8.992-18.175,13.126-13.062,12.905,2.493c21.077-19.657,39.725-10.445,33.667,22.876
						c10.443,5.554,7.257,12.589-10.223,19.972c2.934-0.313,4.447,0.315,3.027,2.558c19.026-7.826,42.502-8.236,33.479,15.934
						h-261.417c-7.067-20.414,4.576-35.15,32.374-30.386c-12.874-16.438-8.866-23.789,12.053-18.144
						c-14.956-34.106-5.237-42.91,23.034-20.697c-1.799-20.51,14.641-15.776,19.595-2.841c0.946-14.324,6.089-17.354,15.87-5.899
						C1622.235,968.713,1631.291,944.386,1661.424,970.764L1661.424,970.764z"/>
					<path fill="#057551" d="M1686.383,965.906c3.786,4.921,5.301,14.072,4.701,25.649c14.641-15.145,20.636-6.12,12.307,14.012
						c7.604-5.048,11.989-1.956,12.115,10.602c8.992-18.175,13.126-13.062,12.905,2.493c21.077-19.657,39.725-10.445,33.667,22.876
						c10.444,5.554,7.257,12.589-10.223,19.972c2.934-0.313,4.447,0.315,3.027,2.558c19.026-7.826,42.502-8.236,33.479,15.934
						h-256.399c-0.727-15.112,11.201-24.674,34.361-20.697c-12.843-16.439-8.867-23.792,12.053-18.144
						c-14.956-34.109-5.237-42.911,23.034-20.699c-1.799-20.51,14.64-15.776,19.594-2.84c0.979-14.324,6.121-17.354,15.903-5.9
						c-7.637-33.318,1.388-57.646,31.521-31.268C1672.688,973.131,1678.968,968.461,1686.383,965.906L1686.383,965.906z"/>
				</g>
				<g>
					<path fill="#34C290" d="M1894.79,948.235c10.317-9.119,18.71-12.938,25.21-12.621V1080h-218.787
						c4.164-15.396,20.54-24.012,47.991-19.311c-18.332-23.442-12.621-33.951,17.196-25.872
						c-21.361-48.655-7.479-61.183,32.814-29.533c-2.523-29.25,20.889-22.466,27.956-4.04c1.356-20.445,8.708-24.77,22.655-8.395
						C1838.941,945.333,1851.814,910.625,1894.79,948.235L1894.79,948.235z"/>
					<path fill="#057551" d="M1920,947.258V1080h-206.261c7.763-8.361,21.961-12.084,42.122-8.613
						c-3.093-3.977-5.521-7.572-7.226-10.792c0.189,0.031,0.379,0.063,0.567,0.095c-0.536-0.692-1.072-1.354-1.546-2.02
						c-6.784-14.262,1.673-19.594,25.432-13.188c-21.36-48.625-7.478-61.183,32.814-29.503c-2.556-29.25,20.889-22.466,27.957-4.07
						c1.355-20.414,8.709-24.736,22.623-8.395c-10.887-47.518,2.02-82.193,44.993-44.584
						C1908.547,952.652,1914.73,948.898,1920,947.258L1920,947.258z"/>
				</g>
			</g>
			<g>
				<g>
					<path fill="#34C290" d="M274.762,1042.578c21.551-19.026,31.017-5.238,29.66,20.793c14.609-15.146,20.635-6.089,12.306,14.042
						c5.585-3.724,9.435-3.03,11.139,2.587h-120.28c-0.189-17.479,15.019-12.59,19.752-0.252c0.947-14.325,6.09-17.354,15.871-5.868
						C235.574,1040.527,244.629,1016.2,274.762,1042.578L274.762,1042.578z M333.482,1080c3.723-5.048,6.152-4.447,7.383,0H333.482z
						 M177.769,1080c-0.694-12.526,8.771-13.095,26.568,0H177.769z"/>
					<path fill="#057551" d="M299.721,1037.719c3.787,4.923,5.301,14.074,4.702,25.652c14.609-15.146,20.635-6.089,12.306,14.042
						c5.586-3.724,9.435-3.03,11.139,2.587H249.49c-6.216-31.458,3.218-53.166,32.278-27.733
						C286.027,1044.945,292.306,1040.307,299.721,1037.719L299.721,1037.719z M333.482,1080c3.723-5.048,6.152-4.447,7.383,0
						H333.482z M217.431,1080c2.429-2.398,6.058-2.113,9.466,0H217.431z M236.205,1080c2.02-4.511,5.522-4.732,10.665,0H236.205z"/>
				</g>
				<g>
					<path fill="#34C290" d="M39.347,1020.87c21.55-19.026,31.016-5.238,29.66,20.793c14.609-15.146,20.635-6.089,12.305,14.042
						c7.573-5.048,11.959-1.988,12.116,10.57c8.993-18.145,13.095-13.063,12.906,2.523c18.363-17.134,34.866-12.369,34.803,11.2H0
						v-34.423c2.146,0.851,4.765,3.027,7.793,6.594C0.158,1018.818,9.214,994.492,39.347,1020.87L39.347,1020.87z"/>
					<path fill="#057551" d="M64.273,1016.011c3.787,4.923,5.333,14.073,4.733,25.652c14.609-15.146,20.635-6.089,12.305,14.042
						c7.573-5.048,11.959-1.988,12.116,10.57c8.993-18.145,13.095-13.063,12.906,2.523c18.363-17.134,34.866-12.369,34.803,11.2H0
						v-19.467c2.114-7.765,6.973-7.856,14.798,1.323c-7.636-33.351,1.42-57.68,31.553-31.3
						C50.579,1023.236,56.89,1018.599,64.273,1016.011L64.273,1016.011z"/>
				</g>
			</g>
		</g>
	</g>
</g>
<g id="Layer_1">
	<g>
		<g>
			<g>
				<path fill="#010101" d="M322.053,596.827c0,2.506-2.033,4.543-4.539,4.543h-9.188c-2.506,0-4.541-2.037-4.541-4.543v-31.245
					c0-2.509,2.035-4.543,4.541-4.543h9.188c2.506,0,4.539,2.034,4.539,4.543V596.827z"/>
				<path fill="#010101" d="M479.046,596.827c0,2.506-2.033,4.543-4.541,4.543h-9.188c-2.508,0-4.539-2.037-4.539-4.543v-31.245
					c0-2.509,2.031-4.543,4.539-4.543h9.188c2.508,0,4.541,2.034,4.541,4.543V596.827z"/>
			</g>
			<g>
				<path fill="#016442" d="M480.788,376.074c0-0.303-0.008-0.605-0.02-0.906H302.061c-0.012,0.301-0.02,0.604-0.02,0.906
					l0.348,6.998l177.07,19.717L480.788,376.074z"/>
				<path fill="#009867" d="M302.389,383.072l9.811,197.224c0,12.311,9.977,22.285,22.283,22.285h5.003h103.859h5.002
					c12.309,0,22.284-9.975,22.284-22.285l8.828-177.507L302.389,383.072z"/>
			</g>
			<path fill="#009867" d="M487.915,373.701c0,3.362-2.729,6.09-6.091,6.09H301.005c-3.361,0-6.089-2.728-6.089-6.09v-8.515
				c0-3.363,2.728-6.089,6.089-6.089h180.819c3.361,0,6.091,2.726,6.091,6.089V373.701z"/>
			<g>
				<path fill="#FFFFFF" d="M401.204,460.003l-8.925,6.28l11.703-1.395l0.516-0.063l1.492-0.177l10.408-1.245l4.462-8.937
					l0.471-0.938l5.917-11.857l-9.077,6.387l-7.827-13.555c-2.101-3.24-4.304-4.656-6.479-4.881
					c-3.85-0.188-7.766,3.268-10.547,6.646c-0.765,0.968-1.456,1.949-2.069,2.875c-0.24,0.367-0.473,0.723-0.688,1.067
					c0.212,0.442,0.447,0.92,0.688,1.405c0.327,0.663,0.675,1.35,1.053,2.079C394.59,448.146,397.718,453.842,401.204,460.003z"/>
				<path fill="#FFFFFF" d="M424.819,502.787c-1.163-0.084-2.468-0.163-3.891-0.233c-4.999-0.244-11.494-0.38-18.572-0.438
					l-0.978-10.873l-4.643,10.838l-0.201,0.474l-0.597,1.381l-4.127,9.639l5.509,8.332l0.577,0.873l7.312,11.053l-0.995-11.053
					h15.655c3.854-0.196,6.183-1.402,7.469-3.173c2.085-3.24,1.048-8.357-0.488-12.455
					C426.212,505.553,425.487,504.059,424.819,502.787z"/>
				<path fill="#FFFFFF" d="M442.745,495.488c0.017-1.242-0.247-1.985-0.41-2.336l-0.19-0.332l-13.922-24.119l-16.069,8.529
					c0.997,1.674,2.204,3.798,3.483,6.078l8.791,15.225c0.315,0.473,1.032,1.611,1.874,3.166l0.052,0.006l0.26,0.475
					c0.645,1.182,1.381,2.74,2.026,4.465c1.297,3.305,2.351,7.091,1.659,10.396L442.745,495.488z"/>
				<path fill="#FFFFFF" d="M391.249,435.898c0.238-0.305,0.481-0.619,0.735-0.932c2.219-2.768,4.968-5.574,8.173-6.629h-8.908
					H375.27c-1.079,0.606-1.594,1.205-1.816,1.521l-0.189,0.332l-13.925,24.115l15.421,9.654c0.949-1.703,2.188-3.812,3.519-6.059
					l8.787-15.224c0.257-0.513,0.885-1.701,1.805-3.208l-0.023-0.043l0.287-0.467C389.684,438.064,390.404,437,391.249,435.898z"/>
				<path fill="#FFFFFF" d="M352.321,502.84c1.703,0.244,3.362,0.365,4.792,0.42c0.656-0.962,1.376-2.055,2.148-3.251
					c2.712-4.209,6.075-9.765,9.67-15.862l9.901,4.588l-7.06-9.438l-0.312-0.418l-0.901-1.205l-6.279-8.391l-9.972,0.607
					l-1.045,0.062l-13.23,0.803l10.07,4.665l-7.824,13.56c-1.758,3.435-1.877,6.057-0.984,8.049
					C343.055,500.461,348.007,502.119,352.321,502.84z"/>
				<path fill="#FFFFFF" d="M378.577,505.049h-17.583c-0.567,0.035-1.911,0.089-3.676,0.045l-0.029,0.04l-0.545-0.013
					c-1.346-0.034-3.065-0.174-4.884-0.479c-3.51-0.53-7.314-1.514-9.824-3.762l12.442,21.556c1.062,0.634,1.841,0.779,2.221,0.817
					h0.387h27.846l0.65-18.182C383.633,505.094,381.19,505.08,378.577,505.049z"/>
			</g>
		</g>
		<g>
			<g>
				<path fill="#FFFFFF" d="M363.924,562.75c0,4.152-2.52,6.672-6.221,6.672c-3.759,0-5.958-2.838-5.958-6.445
					c0-3.797,2.424-6.635,6.164-6.635C361.799,556.342,363.924,559.254,363.924,562.75z M354.771,562.921
					c0,2.479,1.164,4.225,3.082,4.225c1.936,0,3.044-1.84,3.044-4.302c0-2.273-1.091-4.226-3.062-4.226
					C355.898,558.618,354.771,560.457,354.771,562.921z"/>
				<path fill="#FFFFFF" d="M365.804,556.718c0.92-0.149,2.291-0.263,3.812-0.263c1.88,0,3.195,0.282,4.098,0.995
					c0.751,0.602,1.165,1.484,1.165,2.649c0,1.616-1.145,2.726-2.234,3.121v0.057c0.882,0.354,1.371,1.201,1.69,2.366
					c0.395,1.43,0.789,3.083,1.034,3.572h-2.933c-0.206-0.358-0.507-1.391-0.884-2.952c-0.338-1.578-0.883-2.01-2.048-2.029h-0.863
					v4.981h-2.837V556.718z M368.641,562.169h1.127c1.428,0,2.273-0.715,2.273-1.824c0-1.165-0.789-1.747-2.104-1.767
					c-0.695,0-1.09,0.057-1.296,0.096V562.169z"/>
				<path fill="#FFFFFF" d="M387.45,568.633c-0.883,0.301-2.557,0.714-4.228,0.714c-2.312,0-3.984-0.583-5.149-1.711
					c-1.165-1.09-1.804-2.743-1.786-4.604c0.02-4.209,3.083-6.615,7.235-6.615c1.636,0,2.895,0.32,3.515,0.62l-0.601,2.292
					c-0.696-0.299-1.56-0.544-2.951-0.544c-2.387,0-4.189,1.354-4.189,4.096c0,2.613,1.634,4.154,3.982,4.154
					c0.658,0,1.185-0.075,1.409-0.188v-2.649h-1.954v-2.236h4.717V568.633z"/>
				<path fill="#FFFFFF" d="M392.636,565.965l-0.9,3.251h-2.97l3.87-12.667h3.761l3.926,12.667h-3.08l-0.979-3.251H392.636z
					 M395.852,563.823l-0.79-2.688c-0.226-0.753-0.451-1.691-0.64-2.444h-0.038c-0.187,0.753-0.376,1.711-0.582,2.444l-0.751,2.688
					H395.852z"/>
				<path fill="#FFFFFF" d="M402.015,569.216v-12.667h3.343l2.633,4.642c0.753,1.334,1.502,2.913,2.067,4.341h0.057
					c-0.187-1.673-0.246-3.382-0.246-5.28v-3.702h2.632v12.667h-3.008l-2.704-4.886c-0.753-1.354-1.577-2.989-2.199-4.474
					l-0.057,0.018c0.076,1.673,0.112,3.46,0.112,5.526v3.815H402.015z"/>
				<path fill="#FFFFFF" d="M417.856,556.549v12.667h-2.875v-12.667H417.856z"/>
				<path fill="#FFFFFF" d="M429.637,568.857c-0.526,0.263-1.708,0.545-3.25,0.545c-4.376,0-6.633-2.724-6.633-6.334
					c0-4.321,3.081-6.727,6.914-6.727c1.486,0,2.612,0.302,3.121,0.563l-0.583,2.274c-0.582-0.245-1.392-0.471-2.403-0.471
					c-2.275,0-4.043,1.371-4.043,4.192c0,2.537,1.503,4.134,4.06,4.134c0.864,0,1.822-0.188,2.387-0.415L429.637,568.857z"/>
			</g>
		</g>
	</g>
	<g>
		<g>
			<g>
				<path fill="#010101" d="M671.852,597.247c0,2.508-2.033,4.54-4.54,4.54h-9.189c-2.508,0-4.54-2.032-4.54-4.54v-31.248
					c0-2.508,2.032-4.539,4.54-4.539h9.189c2.507,0,4.54,2.031,4.54,4.539V597.247z"/>
				<path fill="#010101" d="M828.844,597.247c0,2.508-2.032,4.54-4.54,4.54h-9.188c-2.508,0-4.541-2.032-4.541-4.54v-31.248
					c0-2.508,2.033-4.539,4.541-4.539h9.188c2.508,0,4.54,2.031,4.54,4.539V597.247z"/>
			</g>
			<g>
				<path fill="#CA1C18" d="M830.587,376.492c0-0.304-0.008-0.605-0.02-0.907H651.858c-0.012,0.302-0.02,0.604-0.02,0.907
					l0.348,6.998l177.071,19.719L830.587,376.492z"/>
				<path fill="#F70601" d="M652.187,383.49l9.811,197.227c0,12.307,9.977,22.283,22.283,22.283h5.003h103.859h5.003
					c12.307,0,22.283-9.977,22.283-22.283l8.829-177.508L652.187,383.49z"/>
			</g>
			<path fill="#F70601" d="M837.713,374.119c0,3.363-2.727,6.09-6.091,6.09H650.804c-3.363,0-6.091-2.727-6.091-6.09v-8.514
				c0-3.364,2.728-6.091,6.091-6.091h180.818c3.364,0,6.091,2.727,6.091,6.091V374.119z"/>
			<g>
				<path fill="#FFFFFF" d="M751.028,460.42l-8.926,6.281l11.704-1.397l0.517-0.062l1.491-0.175l10.408-1.244l4.463-8.938
					l0.467-0.938l5.92-11.858l-9.075,6.389l-7.829-13.559c-2.099-3.237-4.306-4.652-6.479-4.878
					c-3.85-0.189-7.764,3.268-10.546,6.646c-0.763,0.968-1.456,1.948-2.069,2.875c-0.242,0.366-0.474,0.724-0.688,1.069
					c0.213,0.441,0.447,0.917,0.688,1.402c0.329,0.662,0.676,1.35,1.053,2.08C744.412,448.566,747.544,454.26,751.028,460.42z"/>
				<path fill="#FFFFFF" d="M774.642,503.207c-1.16-0.084-2.466-0.166-3.891-0.233c-4.999-0.244-11.493-0.38-18.571-0.442
					l-0.978-10.871l-4.642,10.836l-0.204,0.478l-0.594,1.381l-4.127,9.636l5.51,8.332l0.576,0.875l7.312,11.055l-0.997-11.055
					h15.657c3.855-0.197,6.182-1.402,7.464-3.173c2.09-3.239,1.052-8.357-0.484-12.456
					C776.036,505.971,775.311,504.477,774.642,503.207z"/>
				<path fill="#FFFFFF" d="M792.567,495.906c0.018-1.24-0.245-1.985-0.407-2.335l-0.193-0.333l-13.921-24.116l-16.07,8.527
					c0.998,1.673,2.205,3.8,3.485,6.077l8.79,15.225c0.314,0.476,1.031,1.613,1.875,3.165l0.05,0.007l0.262,0.478
					c0.644,1.18,1.383,2.74,2.027,4.463c1.297,3.308,2.35,7.093,1.657,10.396L792.567,495.906z"/>
				<path fill="#FFFFFF" d="M741.073,436.319c0.238-0.31,0.48-0.621,0.737-0.933c2.216-2.772,4.967-5.576,8.172-6.629h-8.909
					h-15.978c-1.082,0.605-1.597,1.203-1.819,1.52l-0.191,0.331l-13.922,24.116l15.42,9.654c0.949-1.702,2.188-3.811,3.519-6.058
					l8.789-15.225c0.256-0.512,0.883-1.7,1.803-3.208l-0.021-0.044l0.286-0.465C739.506,438.482,740.227,437.419,741.073,436.319z"
					/>
				<path fill="#FFFFFF" d="M702.145,503.257c1.703,0.248,3.363,0.368,4.792,0.421c0.657-0.962,1.378-2.054,2.149-3.25
					c2.711-4.208,6.075-9.767,9.668-15.865l9.904,4.59l-7.062-9.438l-0.312-0.416l-0.9-1.203l-6.28-8.391l-9.971,0.604l-1.045,0.064
					l-13.229,0.802l10.07,4.667l-7.827,13.556c-1.756,3.438-1.875,6.058-0.984,8.052
					C692.878,500.879,697.83,502.539,702.145,503.257z"/>
				<path fill="#FFFFFF" d="M728.401,505.469h-17.582c-0.568,0.033-1.913,0.088-3.676,0.042l-0.03,0.041l-0.546-0.016
					c-1.346-0.031-3.063-0.171-4.883-0.475c-3.511-0.529-7.314-1.513-9.826-3.762l12.444,21.554c1.061,0.635,1.84,0.781,2.221,0.817
					h0.386h27.846l0.65-18.182C733.457,505.513,731.012,505.498,728.401,505.469z"/>
			</g>
		</g>
		<g>
			<g>
				<path fill="#FFFFFF" d="M708.389,560.521c0.884-0.15,2.126-0.264,3.877-0.264c1.769,0,3.029,0.339,3.877,1.017
					c0.809,0.64,1.354,1.693,1.354,2.936s-0.414,2.296-1.167,3.012c-0.979,0.922-2.428,1.336-4.121,1.336
					c-0.377,0-0.716-0.019-0.979-0.057v4.536h-2.842V560.521z M711.23,566.279c0.244,0.057,0.546,0.075,0.96,0.075
					c1.524,0,2.465-0.771,2.465-2.07c0-1.167-0.81-1.863-2.239-1.863c-0.584,0-0.979,0.057-1.186,0.113V566.279z"/>
				<path fill="#FFFFFF" d="M719.322,560.351h2.88v10.276h5.044v2.409h-7.924V560.351z"/>
				<path fill="#FFFFFF" d="M732.007,569.78l-0.903,3.256h-2.974l3.877-12.686h3.764l3.934,12.686h-3.086l-0.979-3.256H732.007z
					 M735.225,567.635l-0.79-2.691c-0.226-0.753-0.451-1.694-0.64-2.447h-0.038c-0.188,0.753-0.376,1.713-0.583,2.447l-0.753,2.691
					H735.225z"/>
				<path fill="#FFFFFF" d="M741.492,570.081c0.771,0.396,1.957,0.79,3.181,0.79c1.317,0,2.014-0.545,2.014-1.373
					c0-0.791-0.603-1.242-2.127-1.788c-2.107-0.734-3.481-1.901-3.481-3.745c0-2.165,1.807-3.82,4.799-3.82
					c1.431,0,2.484,0.301,3.237,0.64l-0.64,2.314c-0.509-0.244-1.412-0.603-2.654-0.603s-1.844,0.565-1.844,1.224
					c0,0.81,0.715,1.167,2.352,1.788c2.24,0.828,3.294,1.995,3.294,3.783c0,2.126-1.637,3.933-5.119,3.933
					c-1.449,0-2.879-0.376-3.595-0.771L741.492,570.081z"/>
				<path fill="#FFFFFF" d="M754.007,562.76h-3.406v-2.409h9.749v2.409h-3.463v10.276h-2.88V562.76z"/>
				<path fill="#FFFFFF" d="M764.753,560.351v12.686h-2.88v-12.686H764.753z"/>
				<path fill="#FFFFFF" d="M776.553,572.679c-0.526,0.263-1.713,0.545-3.256,0.545c-4.385,0-6.644-2.729-6.644-6.342
					c0-4.329,3.087-6.737,6.926-6.737c1.487,0,2.616,0.301,3.124,0.564l-0.583,2.276c-0.583-0.244-1.393-0.47-2.409-0.47
					c-2.277,0-4.046,1.374-4.046,4.196c0,2.541,1.505,4.141,4.064,4.141c0.866,0,1.826-0.188,2.391-0.414L776.553,572.679z"/>
			</g>
		</g>
	</g>
	<g>
		<g>
			<g>
				<path fill="#010101" d="M1083.638,590.732c0,2.508-2.032,4.54-4.54,4.54h-9.188c-2.508,0-4.54-2.032-4.54-4.54v-31.248
					c0-2.507,2.032-4.54,4.54-4.54h9.188c2.508,0,4.54,2.033,4.54,4.54V590.732z"/>
				<path fill="#010101" d="M1240.63,590.732c0,2.508-2.032,4.54-4.54,4.54h-9.188c-2.508,0-4.54-2.032-4.54-4.54v-31.248
					c0-2.507,2.032-4.54,4.54-4.54h9.188c2.508,0,4.54,2.033,4.54,4.54V590.732z"/>
			</g>
			<g>
				<path fill="#0065AA" d="M1242.374,369.977c0-0.304-0.009-0.605-0.021-0.907h-178.708c-0.013,0.301-0.021,0.603-0.021,0.907
					l0.349,6.999l177.071,19.719L1242.374,369.977z"/>
				<path fill="#0098CE" d="M1063.974,376.976l9.81,197.227c0,12.307,9.977,22.283,22.283,22.283h5.004h103.859h5.003
					c12.307,0,22.283-9.977,22.283-22.283l8.829-177.507L1063.974,376.976z"/>
			</g>
			<path fill="#0098CE" d="M1249.5,367.604c0,3.364-2.728,6.09-6.092,6.09h-180.817c-3.364,0-6.091-2.727-6.091-6.09v-8.513
				c0-3.364,2.727-6.091,6.091-6.091h180.817c3.364,0,6.092,2.727,6.092,6.091V367.604z"/>
			<g>
				<path fill="#FFFFFF" d="M1162.814,453.905l-8.926,6.282l11.705-1.397l0.517-0.062l1.491-0.175l10.407-1.244l4.463-8.938
					l0.467-0.938l5.921-11.858l-9.076,6.388l-7.828-13.558c-2.1-3.238-4.307-4.653-6.48-4.878c-3.85-0.189-7.764,3.268-10.545,6.647
					c-0.763,0.967-1.456,1.948-2.069,2.875c-0.242,0.366-0.475,0.724-0.689,1.069c0.213,0.442,0.448,0.918,0.689,1.402
					c0.328,0.662,0.675,1.35,1.052,2.081C1156.199,442.052,1159.33,447.745,1162.814,453.905z"/>
				<path fill="#FFFFFF" d="M1186.428,496.692c-1.16-0.084-2.466-0.166-3.891-0.233c-4.998-0.244-11.492-0.381-18.57-0.442
					l-0.979-10.871l-4.642,10.836l-0.203,0.478l-0.595,1.38l-4.126,9.637l5.51,8.332l0.576,0.874l7.311,11.056l-0.996-11.056h15.657
					c3.855-0.196,6.181-1.401,7.464-3.172c2.09-3.239,1.052-8.357-0.484-12.456C1187.823,499.456,1187.097,497.961,1186.428,496.692
					z"/>
				<path fill="#FFFFFF" d="M1204.354,489.392c0.019-1.24-0.245-1.985-0.406-2.335l-0.193-0.333l-13.921-24.117l-16.071,8.527
					c0.998,1.674,2.206,3.8,3.485,6.078l8.791,15.225c0.314,0.476,1.031,1.613,1.874,3.165l0.051,0.007l0.261,0.478
					c0.645,1.18,1.384,2.74,2.029,4.464c1.296,3.306,2.349,7.092,1.655,10.395L1204.354,489.392z"/>
				<path fill="#FFFFFF" d="M1152.86,429.805c0.237-0.31,0.48-0.621,0.737-0.933c2.216-2.772,4.967-5.576,8.172-6.629h-8.909
					h-15.978c-1.083,0.605-1.597,1.203-1.819,1.52l-0.192,0.331l-13.922,24.116l15.42,9.654c0.949-1.702,2.188-3.811,3.52-6.058
					l8.789-15.225c0.256-0.511,0.882-1.7,1.803-3.207l-0.021-0.044l0.285-0.466C1151.292,431.968,1152.014,430.905,1152.86,429.805z
					"/>
				<path fill="#FFFFFF" d="M1113.932,496.742c1.703,0.248,3.363,0.368,4.792,0.421c0.656-0.962,1.378-2.054,2.148-3.25
					c2.712-4.208,6.076-9.767,9.669-15.865l9.903,4.59l-7.062-9.439l-0.312-0.416l-0.899-1.203l-6.281-8.391l-9.97,0.605
					l-1.046,0.063l-13.229,0.802l10.071,4.667l-7.828,13.556c-1.755,3.438-1.874,6.058-0.983,8.052
					C1104.665,494.364,1109.617,496.024,1113.932,496.742z"/>
				<path fill="#FFFFFF" d="M1140.188,498.953h-17.582c-0.569,0.034-1.913,0.089-3.676,0.043l-0.03,0.041l-0.546-0.016
					c-1.347-0.031-3.064-0.171-4.884-0.475c-3.511-0.529-7.314-1.513-9.825-3.762l12.443,21.554
					c1.062,0.635,1.841,0.781,2.222,0.817h0.386h27.845l0.65-18.182C1145.244,498.998,1142.799,498.983,1140.188,498.953z"/>
			</g>
		</g>
		<g>
			<g>
				<path fill="#FFFFFF" d="M1139.19,564.818c-0.884,0.301-2.56,0.715-4.234,0.715c-2.314,0-3.99-0.583-5.156-1.712
					c-1.167-1.092-1.807-2.748-1.788-4.611c0.019-4.216,3.086-6.624,7.245-6.624c1.638,0,2.898,0.319,3.52,0.621l-0.602,2.295
					c-0.697-0.301-1.562-0.545-2.955-0.545c-2.391,0-4.197,1.355-4.197,4.103c0,2.616,1.638,4.159,3.99,4.159
					c0.658,0,1.186-0.075,1.411-0.188v-2.654h-1.957v-2.24h4.724V564.818z"/>
				<path fill="#FFFFFF" d="M1141.43,552.717h2.88v10.276h5.044v2.409h-7.924V552.717z"/>
				<path fill="#FFFFFF" d="M1154.114,562.146l-0.903,3.256h-2.974l3.877-12.686h3.764l3.934,12.686h-3.087l-0.978-3.256H1154.114z
					 M1157.333,560l-0.791-2.69c-0.226-0.753-0.451-1.694-0.64-2.446h-0.038c-0.188,0.752-0.376,1.712-0.583,2.446l-0.753,2.69
					H1157.333z"/>
				<path fill="#FFFFFF" d="M1163.6,562.447c0.771,0.396,1.957,0.791,3.181,0.791c1.317,0,2.014-0.547,2.014-1.375
					c0-0.79-0.603-1.242-2.127-1.787c-2.107-0.734-3.481-1.9-3.481-3.746c0-2.164,1.807-3.82,4.799-3.82
					c1.431,0,2.484,0.302,3.237,0.641l-0.641,2.314c-0.508-0.244-1.411-0.602-2.653-0.602s-1.844,0.564-1.844,1.223
					c0,0.81,0.715,1.167,2.352,1.788c2.24,0.828,3.294,1.995,3.294,3.782c0,2.127-1.638,3.934-5.119,3.934
					c-1.449,0-2.879-0.376-3.595-0.771L1163.6,562.447z"/>
				<path fill="#FFFFFF" d="M1173.762,562.447c0.771,0.396,1.957,0.791,3.181,0.791c1.317,0,2.014-0.547,2.014-1.375
					c0-0.79-0.602-1.242-2.127-1.787c-2.107-0.734-3.481-1.9-3.481-3.746c0-2.164,1.807-3.82,4.8-3.82
					c1.43,0,2.483,0.302,3.236,0.641l-0.64,2.314c-0.508-0.244-1.411-0.602-2.653-0.602s-1.845,0.564-1.845,1.223
					c0,0.81,0.715,1.167,2.353,1.788c2.239,0.828,3.294,1.995,3.294,3.782c0,2.127-1.638,3.934-5.119,3.934
					c-1.449,0-2.88-0.376-3.595-0.771L1173.762,562.447z"/>
			</g>
		</g>
	</g>
	<g>
		<g>
			<g>
				<path fill="#010101" d="M1449.638,601.42c0,2.508-2.032,4.541-4.54,4.541h-9.188c-2.508,0-4.54-2.033-4.54-4.541v-31.246
					c0-2.508,2.032-4.541,4.54-4.541h9.188c2.508,0,4.54,2.033,4.54,4.541V601.42z"/>
				<path fill="#010101" d="M1606.631,601.42c0,2.508-2.033,4.541-4.54,4.541h-9.189c-2.507,0-4.54-2.033-4.54-4.541v-31.246
					c0-2.508,2.033-4.541,4.54-4.541h9.189c2.507,0,4.54,2.033,4.54,4.541V601.42z"/>
			</g>
			<g>
				<path fill="#FDA201" d="M1608.374,380.665c0-0.304-0.008-0.605-0.02-0.906h-178.709c-0.012,0.301-0.02,0.603-0.02,0.906
					l0.348,6.999l177.071,19.719L1608.374,380.665z"/>
				<path fill="#FFC700" d="M1429.974,387.663l9.81,197.228c0,12.307,9.977,22.283,22.284,22.283h5.003h103.859h5.003
					c12.307,0,22.284-9.977,22.284-22.283l8.828-177.508L1429.974,387.663z"/>
			</g>
			<path fill="#FFC700" d="M1615.5,378.292c0,3.364-2.728,6.091-6.091,6.091h-180.818c-3.364,0-6.091-2.727-6.091-6.091v-8.513
				c0-3.364,2.727-6.091,6.091-6.091h180.818c3.363,0,6.091,2.727,6.091,6.091V378.292z"/>
			<g>
				<path fill="#FFFFFF" d="M1528.814,464.593l-8.925,6.282l11.704-1.397l0.517-0.062l1.491-0.175l10.408-1.244l4.463-8.938
					l0.467-0.938l5.92-11.859l-9.076,6.389l-7.828-13.559c-2.1-3.238-4.306-4.652-6.479-4.877c-3.85-0.189-7.764,3.268-10.546,6.646
					c-0.763,0.968-1.456,1.948-2.069,2.875c-0.242,0.366-0.474,0.724-0.689,1.069c0.214,0.442,0.448,0.917,0.689,1.402
					c0.328,0.662,0.676,1.35,1.053,2.081C1522.199,452.74,1525.331,458.433,1528.814,464.593z"/>
				<path fill="#FFFFFF" d="M1552.429,507.381c-1.16-0.084-2.466-0.166-3.891-0.234c-4.999-0.244-11.493-0.379-18.571-0.441
					l-0.978-10.871l-4.642,10.836l-0.204,0.477l-0.594,1.381l-4.127,9.637l5.51,8.332l0.576,0.875l7.311,11.055l-0.996-11.055
					h15.657c3.855-0.197,6.181-1.402,7.465-3.174c2.089-3.238,1.051-8.357-0.485-12.455
					C1553.824,510.145,1553.098,508.648,1552.429,507.381z"/>
				<path fill="#FFFFFF" d="M1570.354,500.08c0.018-1.24-0.246-1.986-0.407-2.336l-0.192-0.332l-13.921-24.117l-16.071,8.527
					c0.998,1.674,2.205,3.8,3.484,6.077l8.791,15.226c0.314,0.475,1.031,1.613,1.875,3.164l0.05,0.008l0.262,0.477
					c0.644,1.18,1.383,2.74,2.028,4.465c1.296,3.307,2.349,7.092,1.656,10.395L1570.354,500.08z"/>
				<path fill="#FFFFFF" d="M1518.86,440.492c0.237-0.31,0.48-0.621,0.737-0.933c2.216-2.772,4.967-5.576,8.172-6.629h-8.909
					h-15.978c-1.083,0.605-1.597,1.204-1.819,1.52l-0.191,0.331l-13.923,24.116l15.42,9.654c0.95-1.702,2.188-3.811,3.521-6.058
					l8.788-15.225c0.256-0.511,0.882-1.7,1.804-3.207l-0.022-0.044l0.286-0.465C1517.293,442.656,1518.014,441.592,1518.86,440.492z
					"/>
				<path fill="#FFFFFF" d="M1479.932,507.43c1.703,0.248,3.363,0.369,4.792,0.422c0.656-0.963,1.378-2.055,2.148-3.25
					c2.712-4.209,6.076-9.768,9.669-15.865l9.904,4.589l-7.062-9.438l-0.312-0.416l-0.9-1.203l-6.28-8.391l-9.971,0.605
					l-1.045,0.063l-13.23,0.802l10.071,4.667l-7.827,13.556c-1.756,3.438-1.875,6.059-0.984,8.053
					C1470.665,505.053,1475.617,506.713,1479.932,507.43z"/>
				<path fill="#FFFFFF" d="M1506.188,509.643h-17.582c-0.568,0.033-1.913,0.088-3.676,0.041l-0.03,0.041l-0.546-0.016
					c-1.347-0.031-3.064-0.17-4.884-0.475c-3.51-0.529-7.313-1.512-9.825-3.762l12.443,21.555c1.062,0.635,1.842,0.781,2.222,0.816
					h0.386h27.846l0.65-18.182C1511.245,509.686,1508.799,509.672,1506.188,509.643z"/>
			</g>
		</g>
		<g>
			<path fill="#FFFFFF" d="M1493.462,562.951c0.905-0.153,2.177-0.27,3.969-0.27c1.811,0,3.102,0.348,3.968,1.041
				c0.828,0.654,1.388,1.733,1.388,3.005s-0.424,2.351-1.195,3.082c-1.001,0.944-2.484,1.368-4.219,1.368
				c-0.385,0-0.731-0.02-1.001-0.059v4.643h-2.909V562.951z M1496.371,568.847c0.25,0.058,0.559,0.077,0.982,0.077
				c1.561,0,2.523-0.79,2.523-2.119c0-1.194-0.828-1.907-2.293-1.907c-0.597,0-1.001,0.058-1.213,0.116V568.847z"/>
			<path fill="#FFFFFF" d="M1506.522,572.43l-0.925,3.332h-3.043l3.968-12.983h3.853l4.026,12.983h-3.159l-1.002-3.332H1506.522z
				 M1509.816,570.233l-0.809-2.755c-0.231-0.77-0.463-1.733-0.655-2.504h-0.038c-0.193,0.771-0.386,1.753-0.598,2.504l-0.771,2.755
				H1509.816z"/>
			<path fill="#FFFFFF" d="M1516.135,562.951c0.905-0.153,2.177-0.27,3.968-0.27c1.812,0,3.102,0.348,3.969,1.041
				c0.828,0.654,1.387,1.733,1.387,3.005s-0.424,2.351-1.194,3.082c-1.002,0.944-2.484,1.368-4.219,1.368
				c-0.385,0-0.731-0.02-1.002-0.059v4.643h-2.908V562.951z M1519.043,568.847c0.251,0.058,0.56,0.077,0.983,0.077
				c1.56,0,2.523-0.79,2.523-2.119c0-1.194-0.829-1.907-2.293-1.907c-0.597,0-1.001,0.058-1.214,0.116V568.847z"/>
			<path fill="#FFFFFF" d="M1535.051,570.271h-4.777v3.083h5.336v2.407h-8.283v-12.983h8.014v2.408h-5.066v2.696h4.777V570.271z"/>
			<path fill="#FFFFFF" d="M1537.613,562.951c0.943-0.153,2.35-0.27,3.91-0.27c1.927,0,3.275,0.289,4.199,1.021
				c0.771,0.617,1.194,1.521,1.194,2.717c0,1.656-1.175,2.793-2.292,3.197v0.058c0.905,0.366,1.406,1.233,1.733,2.427
				c0.405,1.465,0.81,3.16,1.06,3.66h-3.005c-0.212-0.365-0.521-1.426-0.905-3.023c-0.347-1.619-0.905-2.062-2.1-2.081h-0.887v5.104
				h-2.908V562.951z M1540.521,568.538h1.156c1.464,0,2.331-0.731,2.331-1.868c0-1.194-0.81-1.791-2.158-1.811
				c-0.712,0-1.117,0.058-1.329,0.096V568.538z"/>
		</g>
	</g>
	<g>
		<path fill="#C8C3C1" d="M553.04,880.173l1.805-24.093c0,0-16.914-9.941-7.769-18.012c9.147-8.068,15.657,3.491,15.657,3.491
			s9.279-12.01,15.362-2.436c6.083,9.572-8.649,15.233-8.649,15.233l-3.112,26.267l-12.599,0.804"/>
		<g>
			<path fill="#C2844F" d="M556.096,879.364c-1.238-0.074-2.358-0.259-3.374-0.533c-6.195,5.781-59.707,57.763-22.631,95.521
				c2.334,2.378,4.599,4.331,6.806,5.958C550.556,964.044,581.863,919.512,556.096,879.364z"/>
			<path fill="#B6794B" d="M556.096,879.364c25.767,40.147-5.54,84.68-19.199,100.946c34.962,25.753,53.925-37.906,53.925-37.906
				s6.746-37.713-24.412-64.591C562.288,879.13,558.899,879.533,556.096,879.364z"/>
		</g>
	</g>
	<g>
		<g>
			<path fill="#5C7134" d="M1325.461,864.88c0.619-3.772-0.09-7.565-2.309-10.68c-2.112-2.967-5.254-4.842-8.799-5.574
				c0.211-3.668-0.76-7.396-3.029-10.58c-4.613-6.479-13.098-8.622-20.357-5.655c-0.577-1.42-1.334-2.809-2.275-4.13
				c-5.582-7.836-15.496-10.35-22.146-5.614c-5.927,4.222-7.258,12.777-3.525,20.136c-6.123,5.454-7.459,14.49-2.822,21.004
				c2.272,3.188,5.587,5.222,9.218,5.996c-2.637,5.595-2.431,12.074,1.141,17.088c3.043,4.273,7.895,6.585,13.068,6.763
				c0.578,3.115,1.847,6.195,3.839,8.993c6.585,9.244,18.658,12.034,27.469,6.546c6.246,4.41,14.188,11.313,21.42,21.468
				l2.979-2.121l1.1-0.782l2.978-2.122c-6.659-9.351-10.515-18.365-12.743-25.469c0.09-0.15,0.178-0.302,0.264-0.452
				c7.555-6.642,8.65-18.596,2.225-27.619c-1.985-2.787-4.47-4.985-7.213-6.55L1325.461,864.88z"/>
			<path fill="#A4CB5D" d="M1339.938,927.447c-0.298,0.212-0.71,0.143-0.921-0.154l-73.104-102.647
				c-0.212-0.297-0.143-0.709,0.155-0.922c0.296-0.21,0.708-0.142,0.919,0.156l73.105,102.647
				C1340.305,926.824,1340.236,927.235,1339.938,927.447z"/>
			<path fill="#A4CB5D" d="M1290.719,858.313c-2.291,1.63-5.313,2.714-8.984,3.216c-2.899,0.398-6.213,0.438-9.85,0.12
				c-6.168-0.541-11.221-1.95-11.271-1.965c-0.351-0.099-0.555-0.463-0.455-0.814c0.099-0.35,0.463-0.555,0.812-0.455
				c0.051,0.014,5.002,1.394,11.051,1.922c5.52,0.482,13.11,0.334,17.932-3.099c0.297-0.212,0.709-0.142,0.92,0.155
				S1291.016,858.102,1290.719,858.313z"/>
			<path fill="#A4CB5D" d="M1295.691,864.92c-0.297,0.211-0.708,0.143-0.92-0.154c-0.211-0.296-0.143-0.708,0.154-0.92
				c6.049-4.308,8.549-11.415,9.578-16.617c1.127-5.678,0.799-10.366,0.796-10.414c-0.027-0.362,0.245-0.679,0.608-0.706
				c0.364-0.026,0.681,0.248,0.707,0.61c0.014,0.198,0.344,4.915-0.815,10.766c-0.684,3.448-1.746,6.566-3.157,9.27
				C1300.863,860.154,1298.526,862.902,1295.691,864.92z"/>
			<path fill="#A4CB5D" d="M1307.631,882.06c-2.335,1.663-5.473,2.734-9.324,3.182c-3.041,0.354-6.54,0.322-10.398-0.09
				c-6.543-0.702-11.954-2.29-12.008-2.306c-0.35-0.104-0.549-0.472-0.445-0.82c0.104-0.35,0.471-0.549,0.82-0.445
				c0.053,0.017,5.366,1.573,11.795,2.26c5.865,0.628,13.888,0.64,18.795-2.854c0.297-0.211,0.709-0.143,0.92,0.154
				C1307.998,881.437,1307.928,881.848,1307.631,882.06z"/>
			<path fill="#A4CB5D" d="M1303.807,876.504c-0.297,0.212-0.709,0.142-0.92-0.156c-0.211-0.295-0.142-0.709,0.155-0.92
				c5.68-4.045,9.661-9.281,12.001-12.96c2.533-3.986,3.729-7.036,3.742-7.066c0.131-0.339,0.514-0.507,0.853-0.375
				c0.341,0.132,0.509,0.513,0.377,0.854c-0.051,0.129-1.257,3.201-3.86,7.296C1313.752,866.955,1309.66,872.334,1303.807,876.504z"
				/>
			<path fill="#A4CB5D" d="M1321.199,901.111c-2.246,1.6-5.032,2.678-8.279,3.204c-2.571,0.416-5.438,0.491-8.521,0.221
				c-5.232-0.459-9.228-1.735-9.395-1.789c-0.348-0.112-0.538-0.483-0.426-0.831c0.112-0.346,0.483-0.537,0.83-0.426l0,0
				c0.041,0.015,4.045,1.29,9.133,1.732c4.641,0.405,11.165,0.181,15.893-3.187c0.296-0.212,0.708-0.142,0.92,0.155
				C1321.566,900.488,1321.495,900.899,1321.199,901.111z"/>
			<path fill="#A4CB5D" d="M1322.135,890.284c-3.384,2.408-6.272,3.425-6.404,3.471c-0.343,0.118-0.719-0.063-0.839-0.408
				s0.063-0.721,0.408-0.839c0.053-0.021,3.358-1.19,6.917-3.927c3.264-2.509,7.424-6.898,8.697-13.547
				c0.069-0.359,0.414-0.593,0.773-0.523c0.357,0.067,0.592,0.413,0.523,0.771c-0.598,3.127-1.842,6.047-3.691,8.675
				c-1.475,2.098-3.337,4.015-5.535,5.699C1322.699,889.875,1322.415,890.085,1322.135,890.284z"/>
		</g>
		<g>
			<path fill="#70833B" d="M1343.662,865.081c1.572-3.482,1.868-7.332,0.531-10.914c-1.273-3.411-3.821-6.035-7.059-7.659
				c1.154-3.487,1.18-7.34-0.188-11.005c-2.78-7.45-10.423-11.716-18.2-10.729c-0.191-1.52-0.564-3.056-1.131-4.577
				c-3.365-9.013-12.293-14.006-19.941-11.151c-6.816,2.544-10.316,10.466-8.614,18.539c-7.325,3.683-10.952,12.067-8.157,19.558
				c1.369,3.67,4.045,6.491,7.352,8.178c-3.993,4.722-5.47,11.033-3.318,16.8c1.835,4.916,5.924,8.404,10.875,9.915
				c-0.247,3.158,0.182,6.461,1.383,9.68c3.969,10.633,14.91,16.45,24.84,13.427c4.894,5.876,10.779,14.6,15.139,26.278l3.426-1.279
				l1.264-0.471l3.427-1.279c-4.015-10.754-5.407-20.46-5.724-27.898c0.127-0.122,0.249-0.244,0.373-0.369
				c9.015-4.462,13.166-15.725,9.291-26.103c-1.195-3.205-3.027-5.973-5.272-8.194L1343.662,865.081z"/>
			<path fill="#A4CB5D" d="M1341.463,929.264c-0.342,0.128-0.721-0.046-0.85-0.387l-44.066-118.062
				c-0.127-0.343,0.046-0.723,0.389-0.851c0.34-0.126,0.721,0.047,0.848,0.388l44.066,118.063
				C1341.978,928.756,1341.804,929.137,1341.463,929.264z"/>
			<path fill="#A4CB5D" d="M1311.8,849.751c-2.636,0.983-5.835,1.248-9.511,0.784c-2.904-0.365-6.115-1.185-9.545-2.433
				c-5.82-2.117-10.334-4.786-10.38-4.812c-0.313-0.188-0.416-0.591-0.23-0.905c0.187-0.313,0.592-0.415,0.905-0.23
				c0.044,0.026,4.469,2.643,10.176,4.716c5.207,1.892,12.578,3.714,18.123,1.644c0.342-0.128,0.722,0.048,0.85,0.389
				C1312.314,849.243,1312.141,849.623,1311.8,849.751z"/>
			<path fill="#A4CB5D" d="M1314.895,857.421c-0.342,0.127-0.721-0.046-0.85-0.388c-0.128-0.342,0.046-0.722,0.389-0.849
				c6.956-2.598,11.207-8.815,13.551-13.575c2.555-5.193,3.451-9.807,3.46-9.854c0.067-0.356,0.414-0.593,0.771-0.524
				c0.359,0.07,0.594,0.414,0.527,0.772c-0.039,0.194-0.941,4.837-3.574,10.188c-1.553,3.153-3.385,5.892-5.447,8.137
				C1321.123,854.154,1318.154,856.204,1314.895,857.421z"/>
			<path fill="#A4CB5D" d="M1321.994,877.064c-2.686,1.003-5.994,1.225-9.831,0.661c-3.028-0.445-6.399-1.38-10.019-2.777
				c-6.141-2.369-10.957-5.304-11.005-5.332c-0.31-0.19-0.407-0.597-0.218-0.907c0.19-0.31,0.596-0.407,0.906-0.219
				c0.048,0.03,4.777,2.91,10.811,5.235c5.504,2.122,13.248,4.21,18.894,2.103c0.343-0.126,0.722,0.046,0.849,0.388
				C1322.508,876.557,1322.336,876.938,1321.994,877.064z"/>
			<path fill="#A4CB5D" d="M1319.736,870.709c-0.341,0.126-0.721-0.047-0.849-0.388c-0.126-0.343,0.047-0.723,0.388-0.849
				c6.534-2.439,11.733-6.467,14.944-9.418c3.479-3.193,5.423-5.83,5.444-5.857c0.215-0.293,0.627-0.357,0.922-0.143
				c0.294,0.216,0.357,0.631,0.142,0.923c-0.081,0.111-2.04,2.767-5.614,6.051C1331.816,864.058,1326.472,868.195,1319.736,870.709z
				"/>
			<path fill="#A4CB5D" d="M1330.173,898.978c-2.583,0.964-5.553,1.285-8.826,0.953c-2.591-0.262-5.38-0.932-8.29-1.99
				c-4.934-1.798-8.463-4.064-8.611-4.159c-0.307-0.198-0.394-0.606-0.195-0.911c0.197-0.307,0.605-0.395,0.911-0.197l0,0
				c0.036,0.023,3.573,2.292,8.374,4.036c4.379,1.592,10.74,3.06,16.175,1.032c0.341-0.128,0.724,0.046,0.851,0.387
				C1330.688,898.47,1330.514,898.849,1330.173,898.978z"/>
			<path fill="#A4CB5D" d="M1333.877,888.76c-3.892,1.453-6.944,1.687-7.084,1.696c-0.362,0.025-0.679-0.248-0.705-0.611
				c-0.026-0.364,0.248-0.679,0.611-0.705c0.057-0.004,3.553-0.28,7.697-2.003c3.803-1.581,8.957-4.744,11.906-10.838
				c0.158-0.327,0.553-0.465,0.882-0.306c0.327,0.16,0.465,0.554,0.306,0.882c-1.387,2.865-3.342,5.363-5.809,7.424
				c-1.968,1.646-4.262,3.016-6.82,4.075C1334.529,888.511,1334.199,888.641,1333.877,888.76z"/>
		</g>
		<g>
			<path fill="#84A841" d="M1369.365,871.286c2.802-2.6,4.567-6.031,4.726-9.853c0.15-3.638-1.181-7.045-3.532-9.799
				c2.416-2.766,3.936-6.306,4.097-10.213c0.329-7.947-5.06-14.845-12.61-16.953c0.412-1.474,0.666-3.034,0.733-4.657
				c0.397-9.612-5.893-17.68-14.049-18.017c-7.271-0.3-13.569,5.641-15.136,13.742c-8.18,0.553-14.777,6.871-15.107,14.859
				c-0.16,3.912,1.209,7.552,3.603,10.39c-5.514,2.803-9.325,8.047-9.579,14.195c-0.217,5.245,2.197,10.044,6.176,13.358
				c-1.455,2.815-2.342,6.024-2.484,9.458c-0.468,11.34,7.358,20.948,17.684,22.015c2.228,7.314,4.268,17.638,3.752,30.093
				l3.655,0.152l1.347,0.055l3.654,0.152c0.475-11.47,2.957-20.954,5.553-27.933c0.163-0.063,0.325-0.129,0.486-0.197
				c10.04-0.611,18.236-9.381,18.693-20.448c0.143-3.42-0.471-6.681-1.679-9.599L1369.365,871.286z"/>
			<path fill="#A4CB5D" d="M1342.43,929.585c-0.365-0.016-0.648-0.323-0.633-0.687l5.208-125.911
				c0.015-0.364,0.321-0.647,0.687-0.633c0.363,0.016,0.646,0.323,0.633,0.688l-5.209,125.91
				C1343.102,929.316,1342.793,929.6,1342.43,929.585z"/>
			<path fill="#A4CB5D" d="M1345.949,844.792c-2.81-0.116-5.861-1.114-9.07-2.969c-2.533-1.463-5.175-3.466-7.852-5.946
				c-4.542-4.21-7.666-8.422-7.697-8.465c-0.217-0.293-0.154-0.705,0.139-0.923c0.292-0.215,0.706-0.153,0.922,0.142
				c0.031,0.04,3.096,4.166,7.549,8.293c4.064,3.765,10.15,8.305,16.064,8.549c0.364,0.017,0.647,0.322,0.632,0.687
				C1346.621,844.524,1346.313,844.807,1345.949,844.792z"/>
			<path fill="#A4CB5D" d="M1345.824,853.062c-0.363-0.015-0.646-0.323-0.632-0.688c0.017-0.363,0.323-0.646,0.687-0.632
				c7.42,0.308,13.752-3.772,17.758-7.251c4.372-3.794,6.987-7.698,7.014-7.737c0.201-0.304,0.611-0.386,0.916-0.185
				c0.303,0.201,0.385,0.611,0.183,0.916c-0.11,0.164-2.741,4.092-7.247,8.003c-2.654,2.304-5.405,4.115-8.179,5.384
				C1352.834,852.47,1349.303,853.206,1345.824,853.062z"/>
			<path fill="#A4CB5D" d="M1344.745,873.921c-2.864-0.119-5.999-1.196-9.317-3.205c-2.617-1.586-5.362-3.756-8.156-6.448
				c-4.738-4.567-8.039-9.14-8.072-9.186c-0.212-0.295-0.145-0.708,0.151-0.921c0.297-0.214,0.709-0.145,0.921,0.15
				c0.031,0.046,3.273,4.535,7.932,9.021c4.248,4.092,10.575,9.021,16.596,9.271c0.364,0.015,0.647,0.322,0.633,0.688
				C1345.416,873.653,1345.109,873.936,1344.745,873.921z"/>
			<path fill="#A4CB5D" d="M1345.131,867.187c-0.363-0.015-0.646-0.322-0.631-0.687c0.016-0.363,0.322-0.646,0.686-0.631
				c6.969,0.288,13.324-1.407,17.428-2.879c4.447-1.595,7.262-3.271,7.29-3.286c0.312-0.187,0.718-0.086,0.904,0.228
				c0.188,0.312,0.087,0.716-0.227,0.905c-0.118,0.071-2.954,1.757-7.522,3.395C1358.844,865.745,1352.313,867.485,1345.131,867.187
				z"/>
			<path fill="#A4CB5D" d="M1343.778,897.29c-2.755-0.114-5.615-0.971-8.505-2.546c-2.286-1.248-4.597-2.949-6.867-5.054
				c-3.85-3.57-6.223-7.028-6.322-7.174c-0.205-0.301-0.128-0.711,0.174-0.917c0.301-0.204,0.711-0.127,0.916,0.174l0,0
				c0.023,0.034,2.403,3.498,6.15,6.97c3.42,3.165,8.709,6.989,14.508,7.229c0.364,0.014,0.647,0.321,0.634,0.686
				C1344.449,897.022,1344.143,897.305,1343.778,897.29z"/>
			<path fill="#A4CB5D" d="M1351.156,889.312c-4.149-0.172-7.055-1.141-7.186-1.186c-0.346-0.117-0.529-0.492-0.412-0.837
				c0.116-0.347,0.49-0.53,0.836-0.413c0.054,0.019,3.383,1.12,7.872,1.142c4.118,0.02,10.093-0.896,15.178-5.367
				c0.274-0.24,0.691-0.215,0.932,0.06c0.239,0.273,0.214,0.691-0.06,0.932c-2.391,2.103-5.16,3.646-8.234,4.588
				c-2.451,0.752-5.099,1.124-7.868,1.107C1351.854,889.335,1351.5,889.326,1351.156,889.312z"/>
		</g>
	</g>
	<g>
		<circle fill="#F37E1C" cx="170.834" cy="653.751" r="50.659"/>
		<path fill="#60913E" d="M173.743,608.916c0,0-1.797-22.581,4.106-27.2l3.592,2.309c0,0-5.645,4.105-5.645,25.405
			C175.796,609.43,174.768,611.482,173.743,608.916z"/>
		<path fill="#60913E" d="M159.922,578.748c9.425,3.323,13.969,14.802,13.969,14.802s-10.737,6.09-20.165,2.768
			c-9.424-3.323-13.97-14.802-13.97-14.802S150.496,575.426,159.922,578.748z"/>
		
			<ellipse transform="matrix(0.9892 0.1469 -0.1469 0.9892 94.7673 -13.9698)" fill="#E7B28D" cx="141.962" cy="634.607" rx="7.445" ry="9.431"/>
	</g>
	<g>
		<circle fill="#C4DCE8" cx="901.031" cy="798.871" r="44.648"/>
		<path fill="#CBCAC8" d="M917.27,798.87c0,8.969-7.269,16.239-16.238,16.239c-8.969,0-16.238-7.271-16.238-16.239
			c0-8.966,7.269-16.237,16.238-16.237C910,782.633,917.27,789.904,917.27,798.87z"/>
		<circle fill="#FFFFFF" cx="901.031" cy="798.87" r="12.451"/>
	</g>
	<g>
		<g>
			<polygon fill="none" points="96.778,417.225 94.117,420.099 97.637,417.243 			"/>
			<path fill="#A1C5D3" d="M156.01,369.854l-43.286,35.141l0.374,12.546l-19.464-0.715l0.484,3.273l-1.333,1.439l-1.299,22.582
				l16.545,3.233l-1.705,15.047l49.848,61.402c5.915,7.286,16.615,8.398,23.9,2.484l62.042-50.367
				c7.285-5.915,8.396-16.615,2.481-23.901l-64.688-79.682C173.995,365.051,163.294,363.94,156.01,369.854z M167.002,393.323
				l-28.402,23.057c-3.463,2.812-8.548,2.283-11.36-1.18c-2.812-3.464-2.285-8.549,1.179-11.36l28.402-23.058
				c3.463-2.811,8.549-2.283,11.361,1.18S170.466,390.512,167.002,393.323z"/>
		</g>
		<path fill="#325A9B" d="M93.279,414.478c1.883,0.059,3.364,1.634,3.306,3.521l-0.802,25.445c-0.058,1.885-1.633,3.364-3.519,3.306
			l0,0c-1.887-0.06-3.364-1.635-3.306-3.521l0.799-25.445C89.817,415.898,91.394,414.418,93.279,414.478L93.279,414.478z"/>
	</g>
	<g>
		<g>
			<g>
				<g>
					<g>
						<g>
							<path fill="#C4DCE8" d="M607.842,716.835l1.593-0.368c0,0,14.201-2.217,22.11-8.417c7.873-6.17,9.806-14.961,11.742-15.466
								c0.647,0.358,1.298,0.493,1.917,0.354c0.11-0.024,0.216-0.058,0.319-0.099c0.11-0.008,0.221-0.023,0.33-0.049
								c0.826-0.183,1.525-0.7,1.989-1.797l4.373-0.972c-1.016,0.226-2.338-1.562-3.427-4.377c-0.029-1.327-0.199-2.76-0.525-4.236
								c-0.336-1.509-0.789-2.852-1.341-4.086c-0.226-3.074,0.225-5.256,1.254-5.484l-4.55,1.012
								c-0.799-0.619-1.597-0.845-2.35-0.678c-0.109,0.025-0.221,0.03-0.325,0.071c-0.111,0.007-0.225,0.004-0.333,0.029
								c-0.577,0.127-1.079,0.473-1.497,1.002l0.003-0.009c-1.946,0.433-7.44-6.417-17.229-8.688
								c-9.789-2.27-23.595,1.729-23.595,1.729l-1.58,0.415c-1.915,0.425-3.554,1.629-4.853,3.507l-45.08,10.008
								c-1.467-0.668-2.923-0.851-4.347-0.61c0.001,0-0.002-0.014,0-0.015l-0.003,0.001c-0.11,0.025-0.236-0.019-0.347,0.006
								c-0.542,0.121-1.067,0.277-1.565,0.523l-20.437,6.638c0,0-8.426,3.625-7.812,6.39l0.064,0.287l0.146,0.662
								c0,0,0.309,1.381,1.348,2.147c0,0,0.823,0.846-0.356,1.469c-1.181,0.625-2.094,1.492-2.094,1.492s-3.008,2.17-3.177,5.421
								c-0.006,0.14-0.011,0.279-0.008,0.422c0.089,3.485,0.395,4.866,0.395,4.866s-0.003,1.859,0.943,3.34
								c0.398,0.62,0.961,1.175,1.766,1.497c2.719,1.086,6.449,2.566,6.861,2.645c0.44,0.084,0.561,0.511-0.133,1.783l-2.292,3.921
								c0,0-0.237,0.32-0.383,0.833c-0.269,0.934-0.236,2.508,2.104,3.95c3.619,2.233,3.619,2.233,3.619,2.233
								s3.4,1.602,6.982,1.169l23.114-2.921c0.573,0.018,1.144-0.031,1.707-0.157c1.4-0.311,2.609-1.221,3.672-2.378
								c0.214-0.158,0.42-0.326,0.621-0.509c0.097-0.12,0.19-0.245,0.284-0.371l44.199-9.371
								C603.713,716.812,605.823,717.282,607.842,716.835z M543.57,680.147c0.019-0.004,0.037-0.011,0.056-0.014
								c0.237-0.053,0.473-0.088,0.713-0.113C544.081,680.05,543.826,680.093,543.57,680.147z M589.025,681.352l0.35-0.083
								c0.09-0.051,0.18-0.103,0.268-0.153c-0.165,2.409-0.104,5.021,0.202,7.752c-0.178,0.063-0.356,0.129-0.533,0.193
								C588.952,686.148,588.896,683.581,589.025,681.352z M592.84,703.111c-0.953-2.458-1.855-5.401-2.637-8.931
								c-0.366-1.645-0.638-3.2-0.833-4.673c0.175-0.063,0.352-0.127,0.527-0.191c0.196,1.606,0.477,3.252,0.847,4.917
								c0.699,3.147,1.653,6.09,2.789,8.737L592.84,703.111z M554.044,727.054c-0.021,0.004-0.043,0.009-0.063,0.013
								c0.127-0.03,0.253-0.062,0.377-0.098C554.254,727.001,554.15,727.031,554.044,727.054z M612.43,711.848
								c0.331-0.721,0.626-1.501,0.884-2.336c2.674-0.253,5.335-0.666,7.917-1.29c4.591-1.507,10.068-5.711,14.385-9.823
								c-0.533,1.947-1.837,4.75-4.382,7.437C625.919,710.086,619.234,711.665,612.43,711.848z"/>
						</g>
					</g>
				</g>
			</g>
		</g>
		<path fill="#325A9B" d="M651.053,691.871c-1.046,0.231-2.082-0.427-2.313-1.474l-3.786-17.049
			c-0.232-1.045,0.427-2.082,1.473-2.313l5.685-1.263c1.046-0.232,2.082,0.428,2.313,1.475l3.785,17.047
			c0.232,1.047-0.427,2.083-1.473,2.315L651.053,691.871z"/>
	</g>
	<g>
		<g>
			<path fill="#8D653C" d="M1764,397.365l-126.095,61.922l37.786,76.945l58.249-28.605c1.555,0.737,3.741,0.675,5.791-0.332
				c2.053-1.007,3.438-2.7,3.804-4.38l58.25-28.604L1764,397.365z"/>
			
				<rect x="1652.427" y="425.524" transform="matrix(0.8976 -0.4408 0.4408 0.8976 -29.3617 805.6364)" fill="#C1B49F" width="134.071" height="80.991"/>
			<path fill="#2A5E5A" d="M1707.759,509.691c0,0,5.834,8.025,6.067,15.25l3.468-6.438l5.593,2.227c0,0-0.99-7.801-6.923-15.542
				L1707.759,509.691z"/>
			<path fill="#D0C2A7" d="M1640.733,457.779l36.509,74.343c0,0,23.511-25.31,59.699-29.555l-36.406-74.137
				C1700.535,428.431,1664.896,441.581,1640.733,457.779z"/>
			<path fill="#DFDAC3" d="M1642.132,455.565l36.508,74.342c0,0,27.199-26.857,58.308-27.35l-36.313-74.166
				C1700.634,428.392,1650.39,445.394,1642.132,455.565z"/>
			<path fill="#EEE7D8" d="M1642.932,443.703l36.513,73.83c0,0,34.417-20.474,57.502-14.987l-36.429-74.097
				C1700.518,428.449,1665.865,427.597,1642.932,443.703z"/>
			<path fill="#FFFFF9" d="M1651.092,432.062l36.811,74.958c0,0,21.798-14.782,49.044-4.457l-36.298-74.395
				C1700.648,428.168,1676.781,416.897,1651.092,432.062z"/>
		</g>
		<g>
			<path fill="#D0C2A7" d="M1760.557,399.366l36.508,74.342c0,0-34.869,2.952-60.123,28.862l-35.94-73.958
				C1701.001,428.612,1732.966,408.582,1760.557,399.366z"/>
			<path fill="#DFDAC3" d="M1758.163,399.005l36.508,74.342c0,0-38.317,4.894-57.728,29.208l-36.087-73.88
				C1700.856,428.676,1745.065,399.321,1758.163,399.005z"/>
			<path fill="#EEE7D8" d="M1747.974,392.436l36.101,74.033c0,0-37.354,14.466-47.127,36.089l-36.3-74.137
				C1700.647,428.421,1721.208,400.737,1747.974,392.436z"/>
		</g>
	</g>
	<g>
		<polygon fill="#D9D9D9" points="1026.104,790.62 1166.498,790.457 1166.489,782.539 1028.337,782.7 		"/>
		<g>
			<path fill="#939292" d="M1026.104,790.62c4.931-0.006,5.518-8.522,5.518-8.522l123.982-0.143l-0.135-115.375l-134.725,0.156
				l0.136,118.022C1021.41,787.059,1022.765,790.624,1026.104,790.62z"/>
		</g>
		
			<rect x="1031.654" y="657.289" transform="matrix(1 -0.0012 0.0012 1 -0.8347 1.2751)" fill="#D9D9D9" width="134.725" height="126.151"/>
		<g>
			<g>
				<g>
					<path fill="#5A6374" d="M1046.428,687.059l-0.02-16.309l4.307-0.005l3.396,5.972c0.97,1.717,1.939,3.748,2.668,5.586h0.071
						c-0.243-2.152-0.319-4.354-0.321-6.799l-0.006-4.767l3.388-0.003l0.019,16.308l-3.871,0.005l-3.491-6.287
						c-0.97-1.74-2.037-3.845-2.839-5.755l-0.071,0.024c0.1,2.152,0.15,4.451,0.153,7.113l0.005,4.911L1046.428,687.059z"/>
					<path fill="#5A6374" d="M1072.816,680.131l-6,0.008l0.004,3.871l6.702-0.008l0.005,3.025l-10.405,0.012l-0.019-16.309
						l10.065-0.012l0.003,3.024l-6.363,0.007l0.004,3.389l6.001-0.008L1072.816,680.131z"/>
					<path fill="#5A6374" d="M1078.848,687.02l-3.89-16.303l3.944-0.004l1.242,6.725c0.364,1.936,0.706,4.04,0.974,5.684h0.048
						c0.264-1.766,0.65-3.727,1.059-5.735l1.373-6.68l3.92-0.005l1.313,6.871c0.365,1.911,0.634,3.652,0.877,5.467h0.05
						c0.238-1.814,0.598-3.727,0.936-5.662l1.323-6.681l3.75-0.005l-4.191,16.314l-3.991,0.005l-1.389-7.017
						c-0.315-1.645-0.584-3.168-0.78-5.031h-0.049c-0.286,1.839-0.552,3.389-0.938,5.033l-1.54,7.02L1078.848,687.02z"/>
					<path fill="#5A6374" d="M1097.618,683.2c0.992,0.507,2.519,1.013,4.091,1.011c1.693-0.002,2.589-0.705,2.588-1.77
						c-0.003-1.016-0.776-1.596-2.738-2.295c-2.71-0.941-4.479-2.438-4.481-4.809c-0.003-2.783,2.317-4.916,6.165-4.92
						c1.839-0.002,3.193,0.383,4.163,0.816l-0.819,2.979c-0.654-0.314-1.816-0.771-3.413-0.771
						c-1.598,0.001-2.371,0.729-2.368,1.575c0,1.041,0.92,1.5,3.027,2.295c2.878,1.062,4.235,2.561,4.239,4.858
						c0.002,2.735-2.101,5.06-6.576,5.065c-1.862,0.001-3.703-0.48-4.622-0.988L1097.618,683.2z"/>
				</g>
			</g>
			
				<rect x="1115.092" y="673.958" transform="matrix(1 -0.0012 0.0012 1 -0.8014 1.3423)" fill="#648182" width="40.487" height="9.661"/>
		</g>
		
			<rect x="1040.388" y="690.316" transform="matrix(1 -0.0012 0.0012 1 -0.8031 1.2773)" fill="#939292" width="121.254" height="5.549"/>
		
			<rect x="1040.817" y="699.125" transform="matrix(1 -0.0012 0.0012 1 -0.8392 1.255)" fill="#648182" width="64.313" height="38.628"/>
		
			<rect x="1108.49" y="699.053" transform="matrix(1 -0.0012 0.0012 1 -0.8236 1.335)" fill="#939292" width="53.162" height="4.381"/>
		
			<rect x="1108.503" y="710.469" transform="matrix(1 -0.0012 0.0012 1 -0.837 1.335)" fill="#939292" width="53.161" height="4.381"/>
		
			<rect x="1108.516" y="721.886" transform="matrix(1 -0.0011 0.0011 1 -0.824 1.2933)" fill="#939292" width="53.161" height="4.379"/>
		
			<rect x="1108.53" y="733.299" transform="matrix(1 -0.0012 0.0012 1 -0.8639 1.3351)" fill="#939292" width="53.161" height="4.381"/>
		
			<rect x="1042.251" y="744.501" transform="matrix(1 -0.0012 0.0012 1 -0.8689 1.272)" fill="#D36C3E" width="115.756" height="15.899"/>
		
			<rect x="1042.272" y="766.163" transform="matrix(1 -0.0012 0.0012 1 -0.902 1.2497)" fill="#648182" width="48.356" height="8.905"/>
		
			<rect x="1108.005" y="766.086" transform="matrix(1 -0.0012 0.0012 1 -0.9017 1.3277)" fill="#648182" width="50.022" height="8.904"/>
		
			<rect x="1042.286" y="779.771" transform="matrix(1 -0.0012 0.0012 1 -0.9143 1.2485)" fill="#939292" width="48.4" height="4.38"/>
		
			<rect x="1109.642" y="779.694" transform="matrix(1 -0.0012 0.0012 1 -0.9143 1.3273)" fill="#939292" width="48.401" height="4.379"/>
	</g>
	<g>
		<g>
			<polygon fill="#57432A" points="1608.175,760.73 1619.281,846.086 1549.447,838.839 1534.272,782.337 			"/>
		</g>
		<g>
			<polygon fill="#664E2C" points="1662.652,776.98 1608.173,760.709 1620.442,855.012 1648.521,827.754 			"/>
		</g>
		<g>
			<path fill="#997B53" d="M1603.301,870.289c-8.012-2.123-19.252-32.112-25.032-51.913l12.418,70.847l41.566-21.543
				C1619.396,869.924,1607.767,871.471,1603.301,870.289z"/>
			<path fill="#8C724A" d="M1663.6,780.695l-87.149,26.979l1.818,10.702c5.78,19.801,17.021,49.79,25.032,51.913
				c4.466,1.182,16.096-0.365,28.952-2.609l33.176-17.193L1663.6,780.695z"/>
		</g>
		<g>
			<path fill="#BC9962" d="M1539.576,802.693l-0.731-0.1l11.438,46.103l37.89,38.005c-7.023-8.36-28.97-34.527-33.773-40.838
				C1550.751,841.073,1544.534,822.551,1539.576,802.693z"/>
			<path fill="#AE8F59" d="M1576.45,807.674l-36.874-4.98c4.958,19.857,11.175,38.38,14.822,43.17
				c4.804,6.311,26.75,32.478,33.773,40.838l2.515,2.521L1576.45,807.674z"/>
		</g>
		<g>
			<polygon fill="#BE9D72" points="1608.635,760.648 1662.884,776.935 1693.948,750.908 1635.908,740.328 			"/>
		</g>
		<g>
			<polygon fill="#CBA97F" points="1576.45,807.674 1662.884,776.935 1702.605,770.407 1605.074,806.441 			"/>
		</g>
		<g>
			<path fill="#D4B38A" d="M1576.439,807.667l-41.823-25.375l-42.949-3.055c5.797,4.458,28.034,21.374,32.885,22.394
				C1529.438,802.658,1567.046,806.672,1576.439,807.667z"/>
			<path fill="#E5C6A3" d="M1524.552,801.631c-4.851-1.02-27.088-17.936-32.885-22.394l-0.975-0.069l31.833,26.909l53.925,1.597
				l-0.011-0.007C1567.046,806.672,1529.438,802.658,1524.552,801.631z"/>
		</g>
		<g>
			<path fill="#CCA87D" d="M1539.936,775.355c-8.513-1.05-16.939-9.877-20.993-14.738l-1.161,0.295l16.835,21.38l35.072-10.255
				C1557.065,774.248,1544.842,775.961,1539.936,775.355z"/>
			<path fill="#BE9E72" d="M1588,743.161l-69.058,17.456c4.054,4.861,12.48,13.688,20.993,14.738
				c4.906,0.605,17.13-1.107,29.753-3.318l38.946-11.389L1588,743.161z"/>
		</g>
	</g>
	<g>
		<g>
			<polygon fill="#85A4B4" points="751.783,691.24 764.698,694.981 765.253,694.187 766.071,695.378 768.375,696.045 
				767.573,697.567 771.141,702.766 770.534,703.784 751.176,692.26 			"/>
			<path fill="#A0C4DA" d="M738.029,714.345l13.147-22.085l19.357,11.524l-13.147,22.084c0,0,10.421,22.272-1.846,42.88
				c-12.267,20.606-50.927,85.548-50.927,85.548l-0.001-0.001c-3.336,5.377-18.076,2.559-33.016-6.336
				c-14.939-8.894-24.443-20.507-21.306-26.004l-0.002-0.001c0,0,38.66-64.94,50.927-85.548
				C713.483,715.801,738.029,714.345,738.029,714.345z"/>
		</g>
		<path fill="#BED9E7" d="M750.52,686.261c-1.026,1.724-0.462,3.954,1.263,4.979l19.357,11.525c1.725,1.025,3.954,0.46,4.981-1.264
			l0,0c1.027-1.725,0.46-3.954-1.264-4.98L755.5,684.997C753.775,683.971,751.547,684.536,750.52,686.261L750.52,686.261z"/>
		<g>
			<polygon fill="#FFFFFF" points="748.868,720.338 761.214,699.672 767.375,703.351 755.034,724.008 			"/>
			<path fill="#FFFFFF" d="M750.326,737.955c-0.162-3.069-0.619-5.665-1.109-7.677l8.083,4.812c0.067,0.664,0.124,1.349,0.167,2.055
				c0.317,5.202-0.143,10.54-1.369,15.865c-0.928,4.027-2.296,8.053-4.09,12.033l-6.203-3.691
				C749.215,753.54,750.734,745.699,750.326,737.955z"/>
			<path fill="#FFFFFF" d="M694.666,848.278l47.228-79.333c0.028-0.048,0.054-0.094,0.082-0.141l6.167,3.671
				c-0.027,0.047-0.055,0.094-0.083,0.14l-47.664,80.066c0,0-9.665,2.802-28.114-8.18
				C672.282,844.502,689.568,850.74,694.666,848.278z"/>
		</g>
	</g>
	<path fill="#A0C4DA" d="M943.327,507.142c-5.73-7.068-12.773-12.226-20.287-16.805l-2.258,1.577l-29.123,20.349l-2.258,1.578
		c1.716,8.63,4.137,17.017,8.802,24.829c0.996,1.668,2.312,3.709,3.679,5.265c9.082,10.327,21.32,3.416,31.56,6.436
		c6.096,1.797,26.496,30.651,28.163,36.229c1.28,4.289-2.728,8.59-6.298,11.879c-1.304,1.199-3.971,2.391-3.545,4.611
		c4.64-1.95,11.277-6.168,17.606-10.627c6.362-4.409,12.607-9.191,16.033-12.878c-1.938-1.163-3.975,0.932-5.549,1.743
		c-4.317,2.223-9.733,4.507-13.321,1.83c-4.665-3.483-24.744-32.562-24.334-38.905c0.686-10.653,11.385-19.769,4.809-31.848
		C946.016,510.588,944.55,508.651,943.327,507.142z"/>
	<g>
		<g>
			<g>
				<g>
					<path fill="#A0C4DA" d="M817.425,892.048c-9.682-16.976-25.286-12.003-25.286-12.003l-21.954-39.958l-15.584,8.562
						l21.954,39.958c0,0-12.565,10.504-3.431,27.779c0.006,0.033,0.022,0.101,0.022,0.101l0.22,0.4l51.591,93.9
						c8.874-1.085,17.159-4.613,24.114-8.659c7.143-3.7,14.563-8.801,20.239-15.708L817.72,892.52l-0.22-0.4
						C817.5,892.119,817.451,892.07,817.425,892.048z"/>
				</g>
				<g>
					
						<rect x="785.606" y="918.083" transform="matrix(0.8764 -0.4815 0.4815 0.8764 -348.9041 505.7254)" fill="#7DA1B2" width="50.606" height="29.178"/>
				</g>
				<g>
					<polygon fill="#7DA1B2" points="770.711,838.173 769.808,838.669 753.608,847.569 752.707,848.064 759.539,860.499 
						760.439,860.004 771.636,880.383 787.836,871.481 776.64,851.104 777.542,850.607 					"/>
				</g>
			</g>
			<path fill="#A0C4DA" d="M831.438,925.387c1.605,2.923,0.537,6.592-2.384,8.197l-27.25,14.972
				c-2.921,1.605-6.591,0.539-8.197-2.384l-2.656-4.834c-1.605-2.922-0.538-6.592,2.384-8.197l27.25-14.971
				c2.922-1.605,6.592-0.539,8.197,2.383L831.438,925.387z"/>
		</g>
	</g>
</g>
</svg>
