<?xml version="1.0" encoding="utf-8"?>
<!-- Generator: Adobe Illustrator 16.0.4, SVG Export Plug-In . SVG Version: 6.00 Build 0)  -->
<!DOCTYPE svg PUBLIC "-//W3C//DTD SVG 1.1//EN" "http://www.w3.org/Graphics/SVG/1.1/DTD/svg11.dtd">
<svg version="1.1" xmlns="http://www.w3.org/2000/svg" xmlns:xlink="http://www.w3.org/1999/xlink" x="0px" y="0px" width="1920px"
	 height="1080px" viewBox="0 0 1920 1080" enable-background="new 0 0 1920 1080" xml:space="preserve">
<g id="bg">
	<rect x="0.437" y="461" fill="#FFD862" width="1921.42" height="619"/>
</g>
<g id="water">
	<g>
		<rect x="0.437" fill="#92E9FB" width="1542.42" height="461"/>
	</g>
	<g>
		<rect x="0.001" fill="#29BCC5" width="1921.383" height="467.544"/>
	</g>
	<g>
		<g>
			<path fill="#95EAE5" d="M17.693,459.493c63.219,2.588,114.878,27.777,177.992,24.79c20.339-0.962,39.034-4.845,57.443-8.5
				c49.359-9.796,106.884-18.466,157.789-10.085c20.776,3.421,38.566,9.467,59.666,12.542s58.817-1.091,70.025-8.998l0,0
				c25.456-8.744,62.923-8.43,95.328-5.315c32.404,3.115,64.022,8.573,97.316,8.576c67.933,0.007,125.387-18.788,193.209-20.374
				c97.188-2.271,178.068,34.699,275.102,31.518c69.523-2.28,129.028-26.996,198.428-24.154
				c63.221,2.588,114.877,27.777,177.992,24.79c20.339-0.962,39.033-4.845,57.443-8.5c49.358-9.796,106.884-18.466,157.787-10.085
				c20.777,3.421,38.567,9.467,59.667,12.542s55.892,1.278,67.1-6.629v-59.849c-20.574,7.152-99.059,7.369-124.358,3.476
				c-25.302-3.893-50.478-9.531-77.454-8.757c-54.249,1.555-92.167,28.178-146.387,26.458
				c-50.638-1.607-75.022-26.011-117.188-37.549c-50.263-13.753-120.262-6.994-169.833,7.17
				c-38.037,10.869-84.857,29.646-129.537,24.462c-25.317-2.937-50.15-31.665-67.891-40.927
				c-67.082-35.024-177.296-37.054-244.952,1.387c-28.31,16.086-63.841,42.59-95.374,46.477
				c-33.638,4.146-76.54-6.91-110.251-10.957c-33.712-4.045-75.293-5.414-99.073,5.129c-26.435,11.048-120.748,5.369-153.841-8.115
				c-23.941-9.756-55.579-9.756-79.52-6.272c-51.215,7.453-60.619,20.915-114.838,19.194
				c-50.638-1.607-75.023-26.011-117.188-37.549c-21.406-5.856-46.394-7.985-71.855-7.415v71.366
				C6.131,459.218,11.875,459.254,17.693,459.493z"/>
		</g>
		<g>
			<path fill="#FCC041" d="M17.709,495.855c63.22,2.588,114.879,27.777,177.993,24.791c20.34-0.963,39.034-4.846,57.443-8.5
				c49.359-9.798,106.883-18.468,157.79-10.086c20.776,3.421,38.565,9.468,59.665,12.542c21.101,3.075,54.332-3.078,70.025-8.999
				l0,0c25.455-8.743,62.923-8.429,95.329-5.314c32.404,3.114,64.021,8.572,97.316,8.575
				c67.934,0.006,134.793-37.439,202.616-39.023c97.188-2.271,168.661,53.35,265.696,50.168
				c69.523-2.28,132.658-46.066,202.058-43.225c63.219,2.588,111.246,46.848,174.359,43.861c20.341-0.963,39.037-4.846,57.444-8.5
				c49.36-9.798,106.883-18.468,157.79-10.086c20.775,3.421,38.564,9.468,59.664,12.542c21.101,3.075,55.895,1.277,67.102-6.63
				v-65.861c-20.574,7.153-91.802,3.893-117.103,0c-25.303-3.892-55.497-5.016-82.476-4.242
				c-54.248,1.556-88.907,26.327-143.125,24.606c-50.639-1.607-71.176-29.996-113.343-41.533
				c-50.262-13.753-134.989-1.154-184.559,13.01c-38.038,10.869-73.326,31.564-118.009,26.381
				c-25.315-2.937-42.859-11.971-62.353-19.178c-76.352-28.229-198.255-39.133-275.175-11.163
				c-24.581,8.938-52.791,31.312-84.325,35.2c-33.638,4.147-69.049-1.783-102.76-5.829c-33.712-4.045-80.301-12.805-104.081-2.261
				c-26.437,11.048-108.312,5.518-141.403-7.966c-23.943-9.756-63.594-8.333-87.537-4.85
				c-51.215,7.454-60.033,26.733-114.252,25.012c-50.638-1.607-73.012-23.935-106.73-42.331
				c-18.924-10.324-56.852-13.387-82.314-12.815v81.548C6.148,495.582,11.893,495.617,17.709,495.855z"/>
		</g>
		<g>
			<path fill="#FFFFFF" d="M17.693,490.771c63.219,2.588,114.878,27.777,177.992,24.791c20.339-0.963,39.034-4.846,57.443-8.5
				c49.359-9.798,106.884-18.468,157.789-10.085c20.776,3.42,38.566,9.466,59.666,12.542c21.1,3.075,54.741-3.174,70.025-8.998l0,0
				c25.456-8.744,62.923-8.43,95.328-5.315c32.404,3.114,64.022,8.572,97.316,8.575c67.933,0.006,134.793-37.439,202.616-39.023
				c97.188-2.271,168.662,53.35,265.695,50.168c69.523-2.28,132.659-46.066,202.059-43.225
				c63.219,2.588,111.246,46.848,174.361,43.861c20.339-0.963,39.033-4.846,57.443-8.5c49.358-9.798,106.884-18.468,157.787-10.085
				c20.777,3.42,38.567,9.466,59.667,12.542c21.1,3.075,55.892,1.278,67.1-6.63v-65.861c-20.574,7.153-91.802,3.893-117.102,0
				c-25.301-3.892-55.497-5.016-82.475-4.241c-54.249,1.555-88.906,26.326-143.126,24.606
				c-50.639-1.608-71.176-29.997-113.341-41.534c-50.265-13.753-134.99-1.153-184.561,13.01
				c-38.037,10.869-73.327,31.564-118.009,26.381c-25.315-2.937-42.859-11.971-62.353-19.178
				c-76.351-28.229-198.255-39.133-275.175-11.163c-24.58,8.938-52.791,31.313-84.325,35.2c-33.638,4.146-69.049-1.783-102.76-5.829
				c-33.712-4.045-80.301-12.805-104.081-2.26c-26.436,11.047-108.312,5.518-141.403-7.967c-23.942-9.756-63.594-8.333-87.536-4.85
				c-51.215,7.454-60.033,26.733-114.252,25.012c-50.638-1.606-73.012-23.935-106.73-42.331
				c-18.922-10.324-56.852-13.386-82.313-12.815v81.548C6.131,490.498,11.875,490.533,17.693,490.771z"/>
		</g>
		<g>
			<path fill="#5EE6E2" d="M17.727,462.324c63.22,2.588,112.347,50.058,175.461,47.071c20.339-0.962,47.89-9.642,66.298-13.295
				c49.361-9.798,100.527-22.706,151.431-14.324c20.776,3.421,38.566,9.467,59.666,12.542s56.44-2.902,70.025-8.998l0,0
				c25.456-8.743,62.933-17.265,95.338-14.15c32.406,3.114,64.013,17.408,97.307,17.411c67.933,0.007,133.023-39.981,200.845-41.565
				c97.189-2.271,169.392,49.531,266.426,46.349c69.523-2.279,133.708-40.826,203.106-37.983
				c63.221,2.588,111.232,57.137,174.345,54.15c20.341-0.963,37.979-3.313,56.387-6.967c49.361-9.797,107.726-35.236,158.63-26.854
				c20.776,3.42,37.388,14.02,58.486,17.094c21.102,3.075,57.295-6.404,68.503-14.312v-56.665c-20.574,7.152-91.802,3.893-117.102,0
				c-25.301-3.892-55.497-5.016-82.475-4.243c-54.249,1.557-88.906,26.328-143.126,24.607
				c-50.639-1.607-71.176-29.997-113.341-41.533c-50.265-13.753-134.99-1.154-184.561,13.01
				c-38.037,10.869-73.327,31.564-118.009,26.381c-25.315-2.937-47.583-24.221-67.076-31.427
				c-76.35-28.229-178.868-50.276-263.31,5.084c-20.365,13.351-59.932,27.316-91.466,31.203
				c-33.638,4.146-69.049-1.783-102.76-5.829c-33.712-4.045-80.301-12.805-104.081-2.261
				c-26.436,11.048-108.312,5.518-141.403-7.966c-23.942-9.756-63.594-8.333-87.536-4.849
				c-51.215,7.454-60.033,26.733-114.252,25.013c-50.638-1.608-73.012-23.936-106.73-42.332
				C63.832,396.361,25.902,393.299,0.44,393.87l0.035,68.302C6.165,462.051,11.91,462.086,17.727,462.324z"/>
		</g>
	</g>
</g>
<g id="hat">
</g>
<g id="photos">
</g>
<g id="goggles">
</g>
<g id="camera">
</g>
<g id="thongs">
</g>
<g id="dased_x5F_lines">
</g>
<g id="txt">
</g>
<g id="lorem">
</g>
<g id="title">
</g>
</svg>
