<?xml version="1.0" encoding="utf-8"?>
<!-- Generator: Adobe Illustrator 16.0.4, SVG Export Plug-In . SVG Version: 6.00 Build 0)  -->
<!DOCTYPE svg PUBLIC "-//W3C//DTD SVG 1.1//EN" "http://www.w3.org/Graphics/SVG/1.1/DTD/svg11.dtd">
<svg version="1.1" id="Layer_1" xmlns="http://www.w3.org/2000/svg" xmlns:xlink="http://www.w3.org/1999/xlink" x="0px" y="0px"
	 width="1920px" height="1080px" viewBox="0 0 1920 1080" enable-background="new 0 0 1920 1080" xml:space="preserve">
<g id="BACKGROUND_2">
	<rect x="-3.25" y="-39.5" fill="#0E0F2D" width="1926.75" height="1284.5"/>
	
		<linearGradient id="SVGID_1_" gradientUnits="userSpaceOnUse" x1="1418.6621" y1="626.2314" x2="1883.9865" y2="626.2314" gradientTransform="matrix(1 0 0 -1 -256 785)">
		<stop  offset="7.100001e-04" style="stop-color:#FFFFFF"/>
		<stop  offset="0.254" style="stop-color:#FFFFFF;stop-opacity:0.5"/>
		<stop  offset="1" style="stop-color:#FFFFFF;stop-opacity:0"/>
	</linearGradient>
	<path opacity="0.1" fill="url(#SVGID_1_)" enable-background="new    " d="M1667.498-39.5l-395.573,395.574
		c-1.26,1.285-3.314,1.285-4.575,0c-0.643-0.616-0.948-1.463-0.948-2.286c0-0.821,0.307-1.67,0.948-2.285L1658.354-39.5H1667.498z"
		/>
	
		<linearGradient id="SVGID_2_" gradientUnits="userSpaceOnUse" x1="1653.6221" y1="642.3516" x2="2085.5361" y2="642.3516" gradientTransform="matrix(1 0 0 -1 -256 785)">
		<stop  offset="7.100001e-04" style="stop-color:#FFFFFF"/>
		<stop  offset="0.254" style="stop-color:#FFFFFF;stop-opacity:0.5"/>
		<stop  offset="1" style="stop-color:#FFFFFF;stop-opacity:0"/>
	</linearGradient>
	<path opacity="0.1" fill="url(#SVGID_2_)" enable-background="new    " d="M1866.211-39.5L1503.57,323.14
		c-2.209,2.21-5.805,2.21-8.015,0c-1.104-1.105-1.643-2.569-1.643-4.008c0-1.438,0.539-2.903,1.643-4.006L1850.181-39.5H1866.211z"
		/>
	<g>
		<g>
			<path fill="#FFFFFF" d="M1633.723,1137.279c2.782-0.122,5.138-2.257,5.138-5.138v-3.854c0-2.686-2.363-5.259-5.138-5.137
				c-2.784,0.125-5.14,2.258-5.14,5.137v3.854C1628.583,1134.832,1630.948,1137.406,1633.723,1137.279z"/>
			<path fill="#FFFFFF" d="M1870.063,1130.213c2.784-0.126,5.138-2.259,5.138-5.139v-3.854c0-2.689-2.364-5.264-5.138-5.139
				c-2.785,0.124-5.139,2.261-5.139,5.139v3.854C1864.925,1127.763,1867.288,1130.336,1870.063,1130.213z"/>
			<path fill="#FFFFFF" d="M80.882,871.761c2.786-0.127,5.138-2.26,5.138-5.139v-3.854c0-2.688-2.363-5.264-5.138-5.139
				c-2.781,0.123-5.139,2.259-5.139,5.139v3.854C75.743,869.31,78.106,871.884,80.882,871.761z"/>
			<path fill="#FFFFFF" d="M1772.439,921.496c6.615,0,6.624-10.274,0-10.274C1765.828,911.222,1765.817,921.496,1772.439,921.496z"
				/>
			<path fill="#FFFFFF" d="M1784.001,717.271c6.611,0,6.623-10.275,0-10.275C1777.389,706.996,1777.378,717.271,1784.001,717.271z"
				/>
			<path fill="#FFFFFF" d="M1487.297,624.792c6.61,0,6.621-10.275,0-10.275C1480.684,614.517,1480.673,624.792,1487.297,624.792z"/>
			<path fill="#FFFFFF" d="M1703.08,574.698c2.784-0.125,5.138-2.258,5.138-5.139v-3.854c0-2.688-2.361-5.262-5.138-5.139
				c-2.782,0.126-5.138,2.259-5.138,5.139v3.854C1697.942,572.247,1700.305,574.822,1703.08,574.698z"/>
			<path fill="#FFFFFF" d="M1602.894,378.179c2.785-0.124,5.139-2.257,5.139-5.137v-3.854c0-2.687-2.362-5.262-5.139-5.139
				c-2.779,0.125-5.138,2.258-5.138,5.139v3.854C1597.757,375.729,1600.119,378.303,1602.894,378.179z"/>
			<path fill="#FFFFFF" d="M1315.626,279.372c2.781-0.124,5.137-2.257,5.137-5.138v-3.854c0-2.688-2.362-5.262-5.137-5.138
				c-2.786,0.125-5.138,2.258-5.138,5.138v3.854C1310.488,276.922,1312.851,279.496,1315.626,279.372z"/>
			<path fill="#FFFFFF" d="M1703.08,185.515h2.387c6.613,0,6.622-10.277,0-10.277h-2.387
				C1696.469,175.238,1696.459,185.515,1703.08,185.515z"/>
			<path fill="#FFFFFF" d="M1792.644,398.943h2.386c6.613,0,6.623-10.276,0-10.276h-2.386
				C1786.032,388.667,1786.02,398.943,1792.644,398.943z"/>
			<path fill="#FFFFFF" d="M1541.243,15.968h3.851c2.689,0,5.265-2.363,5.139-5.138c-0.123-2.784-2.256-5.138-5.139-5.138h-3.851
				c-2.69,0-5.264,2.362-5.138,5.138C1536.229,13.615,1538.36,15.968,1541.243,15.968z"/>
			<path fill="#FFFFFF" d="M581.77,73.768h3.853c2.689,0,5.261-2.362,5.139-5.138c-0.126-2.783-2.257-5.138-5.139-5.138h-3.853
				c-2.688,0-5.264,2.363-5.139,5.138C576.757,71.414,578.89,73.768,581.77,73.768z"/>
			<path fill="#FFFFFF" d="M793.703,150.833h3.854c2.686,0,5.259-2.362,5.138-5.138c-0.126-2.782-2.258-5.138-5.138-5.138h-3.854
				c-2.692,0-5.264,2.363-5.138,5.138C788.687,148.479,790.819,150.833,793.703,150.833z"/>
			<path fill="#FFFFFF" d="M292.772,42.941h3.854c2.686,0,5.261-2.363,5.138-5.138c-0.125-2.783-2.258-5.138-5.138-5.138h-3.854
				c-2.69,0-5.264,2.364-5.138,5.138C287.756,40.586,289.889,42.941,292.772,42.941z"/>
			<path fill="#FFFFFF" d="M215.705,266.434c6.612,0,6.622-10.276,0-10.276C209.094,256.158,209.082,266.434,215.705,266.434z"/>
			<path fill="#FFFFFF" d="M404.515,316.526c6.614,0,6.623-10.275,0-10.275C397.905,306.251,397.893,316.526,404.515,316.526z"/>
			<path fill="#FFFFFF" d="M323.598,466.805c6.611,0,6.622-10.277,0-10.277C316.985,456.528,316.974,466.805,323.598,466.805z"/>
			<path fill="#FFFFFF" d="M123.226,655.617c6.611,0,6.622-10.276,0-10.276C116.613,645.341,116.603,655.617,123.226,655.617z"/>
			<path fill="#FFFFFF" d="M265.797,775.071h3.855c2.686,0,5.262-2.362,5.136-5.139c-0.125-2.783-2.257-5.138-5.136-5.138h-3.855
				c-2.688,0-5.263,2.362-5.139,5.138C260.784,772.716,262.917,775.071,265.797,775.071z"/>
			<path fill="#FFFFFF" d="M1236.038,763.531c2.052,1.883,5.234,2.031,7.266,0c1.282-1.284,2.568-2.57,3.854-3.854
				c1.901-1.901,2.044-5.39,0-7.266c-2.051-1.886-5.237-2.033-7.266,0c-1.285,1.283-2.569,2.569-3.854,3.853
				C1234.133,758.168,1233.992,761.653,1236.038,763.531z"/>
			<path fill="#FFFFFF" d="M393.995,913.055c2.048,1.882,5.236,2.03,7.265,0c1.283-1.284,2.569-2.569,3.854-3.854
				c1.905-1.904,2.045-5.389,0-7.266c-2.049-1.883-5.236-2.032-7.265,0c-1.285,1.285-2.568,2.566-3.853,3.852
				C392.09,907.691,391.949,911.178,393.995,913.055z"/>
			<path fill="#FFFFFF" d="M86.02,1199.808c6.614,0,6.623-10.276,0-10.276C79.41,1189.531,79.397,1199.808,86.02,1199.808z"/>
			<path fill="#FFFFFF" d="M250.384,1052.508h3.854c2.689,0,5.262-2.363,5.138-5.138c-0.126-2.784-2.259-5.139-5.138-5.139h-3.854
				c-2.688,0-5.261,2.364-5.139,5.139C245.37,1050.154,247.503,1052.508,250.384,1052.508z"/>
			<path fill="#FFFFFF" d="M555.015,1151.189c2.053,1.883,5.236,2.031,7.265,0c1.286-1.284,2.569-2.57,3.855-3.856
				c1.904-1.9,2.044-5.389,0-7.264c-2.05-1.885-5.234-2.031-7.266,0l-3.854,3.854
				C553.115,1145.824,552.972,1149.312,555.015,1151.189z"/>
			<path fill="#FFFFFF" d="M550.487,1052.312c2.738,0.626,5.526-0.822,6.32-3.587c0.002-0.006,0.002-0.006,0.002-0.011
				c0.003-0.003,0.006-0.005,0.006-0.005c0.106-0.067,0.235-0.152,0.331-0.216c0.002-0.001,0.002-0.001,0.006-0.001
				c0.174,0.066,0.412,0.121,0.126-0.028c0.07,0.007,0.136,0.013,0.191,0.021c2.343,0.776,5.117,0.346,6.396-2.073
				c1.181-2.231,0.778-5.865-1.842-7.029c-3.212-1.422-6.388-1.538-9.593-0.009c-2.711,1.295-4.707,3.744-5.532,6.619
				C546.158,1048.575,547.799,1051.702,550.487,1052.312z"/>
			<path fill="#FFFFFF" d="M1001.778,1152.693c6.614,0,6.622-10.275,0-10.275C995.168,1142.418,995.158,1152.693,1001.778,1152.693z
				"/>
			<path fill="#FFFFFF" d="M1280.503,978.01v-2.383c0-6.614-10.276-6.627-10.276,0v2.383
				C1270.227,984.622,1280.503,984.633,1280.503,978.01z"/>
			<path fill="#FFFFFF" d="M1267.879,1166.603c2.048,1.882,5.235,2.029,7.265,0c1.284-1.283,2.568-2.569,3.854-3.854
				c1.904-1.902,2.045-5.389,0-7.266c-2.052-1.883-5.236-2.03-7.266,0c-1.284,1.285-2.568,2.569-3.853,3.854
				C1265.975,1161.238,1265.833,1164.727,1267.879,1166.603z"/>
			<path fill="#FFFFFF" d="M1530.541,997.292c2.049,1.882,5.235,2.03,7.266,0c1.283-1.285,2.568-2.567,3.854-3.854
				c1.903-1.901,2.044-5.388,0-7.265c-2.05-1.884-5.237-2.032-7.267,0c-1.284,1.284-2.569,2.569-3.853,3.854
				C1528.637,991.929,1528.497,995.416,1530.541,997.292z"/>
			<path fill="#FFFFFF" d="M1475.737,848.282c6.611,0,6.621-10.276,0-10.276C1469.123,838.006,1469.112,848.282,1475.737,848.282z"
				/>
			<path fill="#FFFFFF" d="M328.56,1194.67c6.613,0,6.623-10.276,0-10.276C321.948,1184.394,321.936,1194.67,328.56,1194.67z"/>
			<path fill="#FFFFFF" d="M1861.066,185.515h3.854c2.688,0,5.264-2.366,5.138-5.139c-0.126-2.785-2.257-5.138-5.138-5.138h-3.854
				c-2.688,0-5.262,2.363-5.139,5.138C1856.055,183.161,1858.187,185.515,1861.066,185.515z"/>
			<path fill="#FFFFFF" d="M497.113,585.202h3.854c2.689,0,5.261-2.363,5.138-5.138c-0.125-2.784-2.257-5.139-5.138-5.139h-3.854
				c-2.686,0-5.264,2.363-5.138,5.139C492.101,582.848,494.233,585.202,497.113,585.202z"/>
			<path fill="#FFFFFF" d="M65.425,89.181c6.614,0,6.623-10.276,0-10.276C58.813,78.905,58.802,89.181,65.425,89.181z"/>
			<path fill="#FFFFFF" d="M50.012,447.539c6.612,0,6.622-10.277,0-10.277C43.401,437.262,43.388,447.539,50.012,447.539z"/>
			<path fill="#FFFFFF" d="M1545.094,131.568c6.614,0,6.624-10.276,0-10.276C1538.484,121.292,1538.473,131.568,1545.094,131.568z"
				/>
			<path fill="#FFFFFF" d="M1163.617,100.741c6.614,0,6.622-10.276,0-10.276C1157.008,90.465,1156.994,100.741,1163.617,100.741z"/>
			<path fill="#FFFFFF" d="M1017.192,162.396c6.613,0,6.623-10.276,0-10.276C1010.582,152.119,1010.568,162.396,1017.192,162.396z"
				/>
			<path fill="#FFFFFF" d="M603.403,286.637h3.853c2.689,0,5.261-2.362,5.139-5.138c-0.126-2.783-2.257-5.138-5.139-5.138h-3.853
				c-2.689,0-5.264,2.364-5.139,5.138C598.39,284.282,600.523,286.637,603.403,286.637z"/>
			<path fill="#FFFFFF" d="M682.743,441.936h3.853c2.687,0,5.26-2.363,5.138-5.138c-0.126-2.783-2.258-5.138-5.138-5.138h-3.853
				c-2.691,0-5.264,2.364-5.138,5.138C677.728,439.582,679.859,441.936,682.743,441.936z"/>
			<path fill="#FFFFFF" d="M523.342,830.117h3.854c2.688,0,5.261-2.361,5.138-5.137c-0.125-2.785-2.257-5.139-5.138-5.139h-3.854
				c-2.687,0-5.264,2.363-5.138,5.139C518.329,827.764,520.462,830.117,523.342,830.117z"/>
			<path fill="#FFFFFF" d="M689.638,743.634h3.854c2.689,0,5.261-2.363,5.138-5.138c-0.125-2.784-2.257-5.139-5.138-5.139h-3.854
				c-2.686,0-5.264,2.363-5.138,5.139C684.625,741.279,686.758,743.634,689.638,743.634z"/>
			<path fill="#FFFFFF" d="M1132.846,338.779h3.854c2.688,0,5.261-2.362,5.138-5.138c-0.125-2.783-2.257-5.138-5.138-5.138h-3.854
				c-2.687,0-5.265,2.362-5.138,5.138C1127.833,336.424,1129.966,338.779,1132.846,338.779z"/>
		</g>
	</g>
	<g>
		<path fill="#DC450E" d="M1254.991,1078.547H626.963c0-173.422,140.593-314.016,314.016-314.016
			c10.757,0,21.369,0.536,31.848,1.609c113.92,11.461,209.873,83.827,254.81,184.048
			C1245.214,989.377,1254.991,1032.816,1254.991,1078.547z"/>
		<path fill="#C23D0C" d="M972.827,766.14v0.738c0,52.681-42.718,95.399-95.416,95.399c-17.136,0-33.606,4.695-47.838,13.143
			c-14.215,8.446-26.212,20.647-34.417,35.711l-5.732,10.518c-12.587,23.106-1.403,51.98,23.459,60.556l32.827,11.349
			c6.93,2.403,13.142,6.564,18.004,12.071l64.343,72.923H626.963c0-76.768,27.559-147.1,73.291-201.648
			c42.273-50.409,100.058-87.34,166.027-103.422c23.938-5.84,48.948-8.946,74.698-8.946
			C951.736,764.531,962.348,765.067,972.827,766.14z"/>
		<path fill="#E8490F" d="M916.449,942.732l26.309-30.417c13.459-15.561,32.17-25.629,52.577-28.288l102.883-13.409
			c4.608-0.6,9.246,0.878,12.656,4.034l63.53,58.763c3.202,2.963,5.025,7.132,5.025,11.496v44.911
			c0,20.927-15.463,38.635-36.2,41.458l-26.067,3.55c-12.448,1.691-19.936,14.696-15.148,26.31l7.174,17.407H968.239l0.87-63.018
			c0.064-4.68-1.965-9.144-5.538-12.166l-45.395-38.439C911.526,959.297,910.751,949.32,916.449,942.732z"/>
		<path fill="#C23D0C" d="M1254.991,1078.547h-45.988l-8.54-30.168c-2.863-10.073-2.385-20.795,1.351-30.573l25.823-67.618
			C1245.214,989.377,1254.991,1032.816,1254.991,1078.547z"/>
		<path fill="#DC450E" d="M987.132,919.563l-15.095,22.166c-2.167,3.184-1.617,7.484,1.282,10.015l23.912,20.893
			c1.389,1.211,3.167,1.879,5.008,1.879h47.969c3.071,0,5.84-1.845,7.022-4.677l20.111-48.162c2.179-5.215-1.887-10.9-7.525-10.526
			l-76.897,5.103C990.583,916.408,988.449,917.628,987.132,919.563z"/>
		<path fill="#DC450E" d="M1059.717,997.205l4.059,16.682c0.888,3.647,3.991,6.327,7.728,6.672l19.278,1.785
			c5.151,0.479,9.598-3.576,9.598-8.748v-27.095c0-6.117-6.095-10.36-11.832-8.241l-23.34,8.625
			C1061.021,988.434,1058.661,992.869,1059.717,997.205z"/>
		<path fill="#AD370B" d="M665.559,1078.547l21.162-37.795c3.742-6.676,10.433-11.176,18.028-12.123l55.328-6.885
			c5.797-0.722,11.663,0.691,16.494,3.977l28.261,19.199c12.725,8.644,27.84,13.078,43.219,12.681l10.726-0.278
			c8.351-0.216,16.387,3.187,22.041,9.33l10.947,11.895H665.559z"/>
		<path fill="#AD370B" d="M727.222,975.152l9.014,20.323c1.233,2.778,3.99,4.569,7.027,4.569h21.896
			c3.697,0,6.872-2.634,7.555-6.266l4.837-25.774c0.651-3.471-1.146-6.939-4.359-8.408l-17.413-7.954
			c-2.528-1.154-5.484-0.855-7.728,0.786l-18.338,13.402C726.793,967.964,725.758,971.848,727.222,975.152z"/>
		<path fill="#E8490F" d="M996.413,853.444l22.004,3.188c3.008,0.437,5.988-0.941,7.606-3.517l11.654-18.535
			c1.971-3.13,1.432-7.218-1.284-9.729l-19.243-17.816c-2.592-2.399-6.485-2.722-9.438-0.783l-16.002,10.507
			c-2.323,1.524-3.644,4.188-3.447,6.96l1.587,22.659C990.101,849.983,992.835,852.928,996.413,853.444z"/>
		<path fill="#AD370B" d="M697.407,987.973h9c4.983,0,8.558,4.794,7.138,9.569l-3.197,10.756c-1.231,4.133-5.701,6.361-9.742,4.854
			l-9.113-3.401c-4.032-1.507-5.953-6.107-4.186-10.032l3.311-7.355C691.821,989.69,694.477,987.973,697.407,987.973z"/>
		<path fill="#C23D0C" d="M827.293,924.17L827.293,924.17c0,7.132,5.781,12.914,12.914,12.914h4.394
			c6.068,0,11.32,4.227,12.615,10.155l0.94,4.291c1.294,5.928,6.547,10.153,12.614,10.153h8.08c7.132,0,12.915-5.781,12.915-12.913
			v-24.725c0-7.147-5.807-12.937-12.956-12.912l-38.643,0.123C833.05,911.278,827.293,917.052,827.293,924.17z"/>
		<path fill="#C23D0C" d="M1170.003,1074.498v4.049h-25.638v-4.049c0-4.842,3.919-8.761,8.758-8.761h8.099
			C1166.063,1065.737,1170.003,1069.656,1170.003,1074.498z"/>
		<path fill="#DC450E" d="M875.284,816.713l-31.698,21.037c-8.1,5.376-18.21,6.745-27.434,3.713
			c-5.027-1.663-10.184-2.458-15.305-2.458c-14.602,0-28.762,6.562-38.226,18.372c-3.364,4.199-7.485,7.672-12.107,10.241
			c-4.619,2.57-9.722,4.271-15.062,4.936l-35.197,4.345c42.273-50.409,100.058-87.34,166.027-103.422l12.938,30.02
			C881.274,808.284,879.628,813.849,875.284,816.713z"/>
	</g>
	<g>
		<path opacity="0.05" fill="#FFFFFF" enable-background="new    " d="M322.934,195.147c0,64.646-52.389,117.034-117.035,117.034
			c-64.645,0-117.035-52.388-117.035-117.034c0-1.409,0.03-2.801,0.087-4.195c2.198-62.707,53.711-112.84,116.948-112.84
			s114.75,50.133,116.948,112.84C322.903,192.346,322.934,193.739,322.934,195.147z"/>
		<path opacity="0.05" fill="#FFFFFF" enable-background="new    " d="M302.221,195.147c0,53.205-43.115,96.324-96.322,96.324
			s-96.323-43.119-96.323-96.324c0-1.159,0.022-2.306,0.07-3.453c1.808-51.609,44.204-92.87,96.252-92.87
			c52.046,0,94.444,41.261,96.251,92.87C302.198,192.841,302.221,193.989,302.221,195.147z"/>
		<g>
			<g>
				<path fill="#F9BA2F" d="M285.688,195.147c0,44.072-35.717,79.789-79.789,79.789s-79.79-35.717-79.79-79.789
					c0-0.96,0.02-1.911,0.061-2.862c1.497-42.749,36.618-76.927,79.729-76.927c43.111,0,78.231,34.177,79.729,76.927
					C285.669,193.237,285.688,194.187,285.688,195.147z"/>
				<circle fill="#F9C143" cx="205.899" cy="195.147" r="56.423"/>
				<circle fill="#F9BA2F" cx="190.387" cy="227.311" r="8"/>
				<circle fill="#F9BA2F" cx="213.408" cy="234.33" r="5.225"/>
				<circle fill="#F9C143" cx="149.477" cy="227.311" r="5.225"/>
				<circle fill="#F9BA2F" cx="235.614" cy="175.556" r="15.673"/>
				<circle fill="#F9BA2F" cx="194.307" cy="168.535" r="7.021"/>
				<circle fill="#F9BA2F" cx="212.592" cy="151.556" r="4.408"/>
				<circle fill="#F9C143" cx="256.886" cy="242.052" r="7.721"/>
				<circle fill="#F9C143" cx="141.755" cy="211.59" r="7.721"/>
				<path fill="#F9C143" d="M246.104,249.638c0,2.503-2.028,4.531-4.53,4.531c-2.505,0-4.531-2.028-4.531-4.531
					c0-2.502,2.026-4.53,4.531-4.53C244.075,245.107,246.104,247.135,246.104,249.638z"/>
			</g>
		</g>
	</g>
	<path fill="#21100D" d="M890.122,367.167c-18.448-0.045-32.417-6.755-33.198-10.771c-0.125-0.629-0.857-0.777-1.351-0.548
		c-5.257,2.442-3.703,9.871-0.964,13.519c1.081,1.438,2.415,2.626,3.898,3.618c-2.17,0.831-15.03-7.073-12.897-18.96
		c0.216-1.21-1.19-1.602-1.828-0.771c-3.954,5.15-6.551,10.571-4.155,17.015c1.343,3.607,3.93,6.248,6.978,8.331
		c-0.212,0.121-0.424,0.238-0.635,0.362c-2.258-0.755-4.479-1.606-6.631-2.655c-2.969-1.451-8.527-3.995-8.087-7.909
		c0.091-0.816-1.019-0.912-1.397-0.379c-2.956,4.142,0.25,8.442,3.423,11.278c1.873,1.675,2.351,6.697,0.558,8.214
		c-17.437,14.744-28.421,36.229-28.421,60.153c0,44.458,37.927,80.495,84.71,80.495c46.782,0,84.709-36.038,84.709-80.495
		C974.832,403.205,936.904,367.278,890.122,367.167z"/>
	<g>
		<ellipse opacity="0.2" fill="#0B0C24" enable-background="new    " cx="889.501" cy="887.984" rx="148.97" ry="25.859"/>
		<path opacity="0.2" fill="#0B0C24" enable-background="new    " d="M1015.727,887.984c0-11.532,28.793-20.881,64.313-20.881
			c35.518,0,64.311,9.349,64.311,20.881c0,11.535-28.793,20.884-64.311,20.884C1044.52,908.868,1015.727,899.52,1015.727,887.984z"
			/>
		<g>
			<path fill="none" stroke="#E8E3DF" stroke-width="25" stroke-linecap="round" stroke-miterlimit="10" d="M823.195,543.537
				L823.195,543.537c-23.975,13.863-38.739,39.457-38.739,67.149v50.139"/>
			<path fill="#57585C" d="M796.783,701.239L796.783,701.239c3.89,0,7.042-3.153,7.042-7.041V680.26
				c0-3.889-3.154-7.039-7.042-7.039l0,0c-3.888,0-7.041,3.15-7.041,7.039v13.938C789.743,698.086,792.896,701.239,796.783,701.239z
				"/>
			<path fill="#68696D" d="M770.375,697.475v-24.254c0-7.78,6.304-14.084,14.082-14.084l0,0c7.777,0,14.082,6.304,14.082,14.084
				v24.254c0,2.08-1.684,3.765-3.763,3.765h-20.638C772.059,701.239,770.375,699.555,770.375,697.475z"/>
		</g>
		<path fill="none" stroke="#E8E3DF" stroke-width="25" stroke-linecap="round" stroke-miterlimit="10" d="M947.408,539.274
			l34.125,50.013c10.18,14.917,27.069,23.839,45.128,23.839h32.327"/>
		<path fill="#E8E3DF" d="M966.529,722.714c0,14.959-34.261,27.088-76.525,27.088c-42.266,0-76.53-12.129-76.53-27.088v-27.089
			H966.53L966.529,722.714L966.529,722.714z"/>
		<g>
			<path fill="#BAB6AD" d="M916.95,875.277h78.6v-14.599c0-14.262-11.565-25.822-25.827-25.822H916.95V875.277L916.95,875.277z"/>
			<path fill="#E8E3DF" d="M937.441,846.646h22.265c3.769,0,6.823-3.057,6.823-6.827V695.625h-56.318v123.793
				C910.211,834.454,922.405,846.646,937.441,846.646z"/>
			<circle fill="#A8A6A1" cx="923.471" cy="837.729" r="15.438"/>
			<circle fill="#E8E3DF" cx="923.471" cy="837.729" r="8.918"/>
			<rect x="916.95" y="865.171" fill="#A8A6A1" width="78.6" height="10.106"/>
			<rect x="910.211" y="779.836" fill="#A8A6A1" width="56.706" height="3.369"/>
			<path fill="#BAB6AD" d="M962.882,804.542h7.298c4.648,0,8.419-3.771,8.419-8.421v-29.2c0-4.651-3.771-8.418-8.419-8.418h-7.298
				c-4.652,0-8.422,3.768-8.422,8.418v29.2C954.46,800.771,958.23,804.542,962.882,804.542z"/>
		</g>
		<g>
			<path fill="#BAB6AD" d="M863.054,875.277h-78.598v-14.599c0-14.262,11.562-25.822,25.825-25.822h52.772V875.277L863.054,875.277z
				"/>
			<path fill="#E8E3DF" d="M842.564,846.646H820.3c-3.769,0-6.826-3.057-6.826-6.827V695.625h56.319v123.793
				C869.793,834.454,857.601,846.646,842.564,846.646z"/>
			<circle fill="#A8A6A1" cx="856.534" cy="837.729" r="15.439"/>
			<circle fill="#E8E3DF" cx="856.534" cy="837.729" r="8.919"/>
			<rect x="784.457" y="865.171" fill="#A8A6A1" width="78.598" height="10.106"/>
			<rect x="813.088" y="779.836" fill="#A8A6A1" width="56.705" height="3.369"/>
			<path fill="#BAB6AD" d="M817.125,804.542h-7.297c-4.652,0-8.423-3.771-8.423-8.421v-29.2c0-4.651,3.772-8.418,8.423-8.418h7.297
				c4.65,0,8.42,3.768,8.42,8.418v29.2C825.545,800.771,821.774,804.542,817.125,804.542z"/>
		</g>
		<g>
			<rect x="1081.393" y="433.164" fill="#0B0C24" width="11.227" height="442.113"/>
			<g>
				<path fill="#343E85" d="M1092.619,585.992c75.923,28.411,151.847-28.411,227.769,0c0-47.353,0-94.706,0-142.059
					c-75.924-28.412-151.848,28.411-227.769,0C1092.619,491.286,1092.619,538.64,1092.619,585.992z"/>
			</g>
		</g>
		<g>
			<g>
				<path fill="#57585C" d="M1097.423,620.395L1097.423,620.395c2.026,0,3.668-1.641,3.668-3.663v-4.721
					c0-7.152-5.799-12.948-12.949-12.948h-14.211c-2.326,0-4.209,1.885-4.209,4.21l0,0c0,2.324,1.883,4.21,4.209,4.21h14.211
					c2.501,0,4.527,2.027,4.527,4.528v3.632C1092.669,618.268,1094.799,620.395,1097.423,620.395z"/>
			</g>
		</g>
		<g>
			<path fill="#E8E3DF" d="M813.474,695.625h153.056V549.491c0-19.429-15.75-35.179-35.179-35.179h-82.697
				c-19.43,0-35.18,15.75-35.18,35.179V695.625z"/>
			<rect x="887.757" y="514.312" fill="#A8A6A1" width="4.491" height="165.874"/>
			<rect x="813.474" y="680.188" fill="#BAB6AD" width="153.056" height="15.438"/>
			<g>
				<path fill="#BAB6AD" d="M861.844,643.554h56.315c5.397,0,9.77-4.373,9.77-9.77v-28.461c0-5.396-4.372-9.77-9.77-9.77h-56.315
					c-5.396,0-9.77,4.374-9.77,9.77v28.461C852.075,639.181,856.449,643.554,861.844,643.554z"/>
				<path fill="#57585C" d="M866.376,633.163L866.376,633.163c2.46,0,4.458-1.997,4.458-4.462v-18.296
					c0-2.463-1.997-4.459-4.458-4.459l0,0c-2.465,0-4.461,1.996-4.461,4.459v18.296
					C861.915,631.166,863.912,633.163,866.376,633.163z"/>
				<path fill="#57585C" d="M882.127,633.163L882.127,633.163c2.462,0,4.457-1.997,4.457-4.462v-18.296
					c0-2.463-1.995-4.459-4.457-4.459l0,0c-2.465,0-4.46,1.996-4.46,4.459v18.296C877.667,631.166,879.663,633.163,882.127,633.163z
					"/>
				<path fill="#57585C" d="M897.878,633.163L897.878,633.163c2.461,0,4.459-1.997,4.459-4.462v-18.296
					c0-2.463-1.998-4.459-4.459-4.459l0,0c-2.464,0-4.459,1.996-4.459,4.459v18.296
					C893.419,631.166,895.415,633.163,897.878,633.163z"/>
				<path fill="#57585C" d="M913.629,633.163L913.629,633.163c2.464,0,4.459-1.997,4.459-4.462v-18.296
					c0-2.463-1.996-4.459-4.459-4.459l0,0c-2.461,0-4.457,1.996-4.457,4.459v18.296
					C909.172,631.166,911.167,633.163,913.629,633.163z"/>
			</g>
			<path fill="none" stroke="#57585C" stroke-width="7" stroke-linecap="round" stroke-miterlimit="10" d="M913.629,643.554
				L913.629,643.554c0,12.325,9.992,22.317,22.316,22.317h30.972"/>
			<path fill="none" stroke="#57585C" stroke-width="7" stroke-linecap="round" stroke-miterlimit="10" d="M866.759,643.554
				L866.759,643.554c0,12.325-9.988,22.317-22.315,22.317h-30.971"/>
		</g>
		<path fill="#68696D" d="M1097.327,627.209h-24.258c-7.776,0-14.081-6.303-14.081-14.082l0,0c0-7.776,6.305-14.082,14.081-14.082
			h24.258c2.078,0,3.764,1.686,3.764,3.763v20.639C1101.091,625.524,1099.405,627.209,1097.327,627.209z"/>
	</g>
	<g>
		<g opacity="0.54">
			<path fill="#FFFFFF" d="M889.808,326.596c55.162,0,100.04,44.877,100.04,100.041c0,55.163-44.877,100.04-100.04,100.04
				c-55.162,0-100.039-44.877-100.039-100.04C789.769,371.473,834.646,326.596,889.808,326.596 M889.808,323.587
				c-56.913,0-103.047,46.136-103.047,103.049s46.135,103.048,103.047,103.048c56.915,0,103.047-46.135,103.047-103.048
				S946.723,323.587,889.808,323.587L889.808,323.587z"/>
		</g>
		<g opacity="0.19">
			<path fill="#FFFFFF" d="M992.855,426.636c0,56.912-46.132,103.048-103.047,103.048c-56.913,0-103.047-46.135-103.047-103.048
				s46.135-103.049,103.047-103.049C946.723,323.587,992.855,369.723,992.855,426.636z"/>
		</g>
		
			<linearGradient id="SVGID_3_" gradientUnits="userSpaceOnUse" x1="1160.3477" y1="447.2827" x2="1248.7716" y2="358.128" gradientTransform="matrix(1 0 0 -1 -256 785)">
			<stop  offset="0" style="stop-color:#FFFFFF"/>
			<stop  offset="1" style="stop-color:#FFFFFF;stop-opacity:0"/>
		</linearGradient>
		<path opacity="0.79" fill="url(#SVGID_3_)" enable-background="new    " d="M895.331,344.031
			c5.147-10.868,43.094-6.787,66.237,24.631c19.832,26.927,23.408,67.592,12.951,67.589c-2.834,0-10.53-38.981-37.089-56.539
			C909.011,360.927,886.859,361.926,895.331,344.031z"/>
		
			<linearGradient id="SVGID_4_" gradientUnits="userSpaceOnUse" x1="1062.0713" y1="386.2793" x2="1122.5386" y2="288.6328" gradientTransform="matrix(1 0 0 -1 -256 785)">
			<stop  offset="0" style="stop-color:#FFFFFF"/>
			<stop  offset="1" style="stop-color:#FFFFFF;stop-opacity:0"/>
		</linearGradient>
		<path opacity="0.79" fill="url(#SVGID_4_)" enable-background="new    " d="M891.159,497.808
			c-4.674,11.081-42.76,8.64-67.237-21.749c-20.98-26.044-26.305-66.518-15.86-66.967c2.83-0.12,12.203,38.492,39.5,54.883
			C876.764,481.517,898.852,479.564,891.159,497.808z"/>
	</g>
	<path fill="#514F4F" d="M958.087,527.686H822.551c-5.261,0-9.528-4.267-9.528-9.526l0,0c0-5.264,4.267-9.53,9.528-9.53h135.536
		c5.262,0,9.529,4.266,9.529,9.53l0,0C967.616,523.419,963.349,527.686,958.087,527.686z"/>
	<path fill="#514F4F" d="M967.614,518.168c0,0.553-0.05,1.108-0.15,1.638c-0.757-4.51-4.662-7.913-9.373-7.913H822.553
		c-2.647,0-5.013,1.059-6.728,2.797c-1.387,1.36-2.317,3.125-2.645,5.116c-0.1-0.529-0.15-1.085-0.15-1.638
		c0-2.648,1.061-5.014,2.795-6.753c1.715-1.739,4.081-2.797,6.728-2.797h135.539C963.356,508.619,967.614,512.904,967.614,518.168z"
		/>
	<path opacity="0.5" fill="#514F4F" enable-background="new    " d="M967.614,518.168c0,2.619-1.058,5.015-2.796,6.728
		c-1.715,1.713-4.109,2.796-6.727,2.796H822.553c-5.265,0-9.523-4.283-9.523-9.524c0-1.059,0.178-2.066,0.505-3.025
		c1.232,3.781,4.809,6.501,9.018,6.501h135.539c2.618,0,5.012-1.06,6.727-2.797c1.033-1.031,1.837-2.292,2.291-3.704
		C967.437,516.102,967.614,517.11,967.614,518.168z"/>
	<path fill="#636262" d="M839.762,497.74c6.532-3.834,92.513-3.455,101.817,0c9.306,3.456,9.99,52.1,2.69,55.354
		c-7.299,3.254-101.017,2.3-105.659-0.312C829.924,547.897,833.229,501.576,839.762,497.74z"/>
	<path opacity="0.3" fill="#636262" enable-background="new    " d="M949.168,532.604c-0.354-13.228-2.872-26.683-7.584-28.422
		c-9.295-3.452-95.294-3.83-101.822,0c-3.425,2.015-5.969,15.748-6.349,29.053c-0.427-14.917,2.368-33.134,6.349-35.504
		c6.528-3.829,92.526-3.451,101.822,0C947.08,499.773,949.573,517.665,949.168,532.604z"/>
	<path opacity="0.2" fill="#777676" enable-background="new    " d="M944.28,553.093c-7.308,3.248-101.039,2.291-105.675-0.303
		c-4.435-2.494-5.746-15.876-5.067-28.852c0.481,8.214,2.042,14.991,5.067,16.68c4.637,2.598,98.368,3.555,105.675,0.303
		c2.697-1.209,4.309-8.616,4.789-17.665C949.749,536.963,948.137,551.379,944.28,553.093z"/>
</g>
<g id="BACKGROUND_1">
</g>
<g id="DESIGNED_BY_FREEPIK">
</g>
<g>
	<path fill="none" d="M1092.781,504.264c75.921,28.411,151.845-28.412,227.769,0c0,47.353,0,94.706,0,142.059
		c-75.922-28.411-151.846,28.411-227.769,0C1092.781,598.97,1092.781,551.616,1092.781,504.264z"/>
	<text transform="matrix(0.995 -0.1003 0.1003 0.995 1156.7539 511.8643)"><tspan x="0" y="0" fill="#FFFFFF" font-family="'Acme-Regular'" font-size="35">I</tspan><tspan x="10.987" y="-0.048" fill="#FFFFFF" font-family="'Acme-Regular'" font-size="35" rotate="-1.652"> </tspan><tspan x="16.894" y="-0.121" fill="#FFFFFF" font-family="'Acme-Regular'" font-size="35" rotate="-3.554">K</tspan><tspan x="37.12" y="-1.454" fill="#FFFFFF" font-family="'Acme-Regular'" font-size="35" rotate="-4.65">i</tspan><tspan x="45.615" y="-2.149" fill="#FFFFFF" font-family="'Acme-Regular'" font-size="35" rotate="-4.84">l</tspan><tspan x="54.436" y="-2.9" fill="#FFFFFF" font-family="'Acme-Regular'" font-size="35" rotate="-4.675">l</tspan><tspan x="63.17" y="-3.652" fill="#FFFFFF" font-family="'Acme-Regular'" font-size="35" rotate="-3.853">e</tspan><tspan x="78.494" y="-4.739" fill="#FFFFFF" font-family="'Acme-Regular'" font-size="35" rotate="-1.633">d</tspan></text>
</g>
<g>
	<path fill="none" d="M1093.114,551.931c75.921,28.41,151.845-28.412,227.769,0c0,47.352,0,94.705,0,142.059
		c-75.922-28.412-151.846,28.41-227.769,0C1093.114,646.636,1093.114,599.282,1093.114,551.931z"/>
	<text transform="matrix(0.9985 0.0553 -0.0553 0.9985 1123.2559 559.3926)"><tspan x="0" y="0" fill="#FFFFFF" font-family="'Acme-Regular'" font-size="35">P</tspan><tspan x="19.107" y="-0.269" fill="#FFFFFF" font-family="'Acme-Regular'" font-size="35" rotate="-4.895">l</tspan><tspan x="28.902" y="-1.038" fill="#FFFFFF" font-family="'Acme-Regular'" font-size="35" rotate="-8.476">a</tspan><tspan x="46.008" y="-3.63" fill="#FFFFFF" font-family="'Acme-Regular'" font-size="35" rotate="-11.801">n</tspan><tspan x="64.152" y="-7.481" fill="#FFFFFF" font-family="'Acme-Regular'" font-size="35" rotate="-13.444">e</tspan><tspan x="79.283" y="-11.121" fill="#FFFFFF" font-family="'Acme-Regular'" font-size="35" rotate="-13.755">t</tspan><tspan x="91.324" y="-14.065" fill="#FFFFFF" font-family="'Acme-Regular'" font-size="35" rotate="-13.482"> </tspan><tspan x="96.456" y="-15.352" fill="#FFFFFF" font-family="'Acme-Regular'" font-size="35" rotate="-12.612">E</tspan><tspan x="113.028" y="-19.09" fill="#FFFFFF" font-family="'Acme-Regular'" font-size="35" rotate="-10.213">a</tspan><tspan x="128.868" y="-21.919" fill="#FFFFFF" font-family="'Acme-Regular'" font-size="35" rotate="-7.086">r</tspan><tspan x="140.871" y="-23.435" fill="#FFFFFF" font-family="'Acme-Regular'" font-size="35" rotate="-3.598">t</tspan><tspan x="152.715" y="-24.363" fill="#FFFFFF" font-family="'Acme-Regular'" font-size="35" rotate="1.67">h</tspan></text>
</g>
</svg>
