<?xml version="1.0" encoding="utf-8"?>
<!-- Generator: Adobe Illustrator 16.0.4, SVG Export Plug-In . SVG Version: 6.00 Build 0)  -->
<!DOCTYPE svg PUBLIC "-//W3C//DTD SVG 1.1//EN" "http://www.w3.org/Graphics/SVG/1.1/DTD/svg11.dtd">
<svg version="1.1" id="Layer_1" xmlns="http://www.w3.org/2000/svg" xmlns:xlink="http://www.w3.org/1999/xlink" x="0px" y="0px"
	 width="506.975px" height="514.475px" viewBox="0 0 506.975 514.475" enable-background="new 0 0 506.975 514.475"
	 xml:space="preserve">
<g>
	<g>
		<defs>
			<rect id="SVGID_1_" x="2.571" y="205.128" width="295.812" height="307.103"/>
		</defs>
		<clipPath id="SVGID_2_">
			<use xlink:href="#SVGID_1_"  overflow="visible"/>
		</clipPath>
		<g clip-path="url(#SVGID_2_)">
			<path fill="#B6BAB3" d="M201.583,520.791L27.708,445.605c-43.909-10.181-41.752,44.267-2.542,43.119
				c-52.762,18.698-20.474,95.933,28.853,72.812c-25.638,27.055,51.767,103.948,70.296,32.772
				C166.217,666.877,268.714,589.505,201.583,520.791z"/>
			<path fill="#B6BAB3" d="M106.383,504.295l-191.819-82.943c-48.44-11.232-46.061,48.836-2.804,47.569
				c-58.208,20.625-22.587,105.832,31.831,80.326c-28.286,29.847,57.109,114.677,77.55,36.154
				C67.366,665.459,180.44,580.101,106.383,504.295z"/>
			<path fill="#CACCCA" d="M35.331,300.774c-10.939-17.93-20.086-47.736-52.266-35.673c-26.611,9.976-27.886,36.603-18.355,55.133
				c-77.892-37.927-106.287,62.495-33.857,72.341c-19.268,5.367-15.173,31.693-7.478,43.953c17.265,27.507,52.22,19.69,77.549-0.46
				L35.331,300.774z"/>
			<path fill="#DFE1DE" d="M87.984,383.375c-13.103-17.309-75.099-51.448-75.099-51.448c-17.184-0.575-42.066,6.307-47.071,26.568
				c-4.432,17.945,12.327,38.86,29.064,41.591c-18.234,3.312-40.352,18.763-36.327,39.443c5.977,30.695,28.089,24.874,47.867,20.276
				c-11.184,12.618,6.023,34.477,17.467,38.751C65.312,514.036,105.979,407.149,87.984,383.375z"/>
			<path fill="#FDFEFF" d="M206.145,447.291c21.338-18.971,14.253-41.608,0.664-53.399c17.484,10.672,45.364-8.514,49.357-26.964
				c3.283-15.171-7.347-30.051-16.263-38.685l4.504-2.09c4.616-17.227-26.906-33.935-41.904-31.274
				c-14.352,2.546-24.286,15.561-28.626,27.38c11.24-59.054-57.348-77.003-84.934-27.832c0.416-18.18-26.559-29.564-42.982-27.416
				c-23.021,3.011-47.142,17.565-55.87,38.83c-10.424,25.394,4.387,62.566,36.733,64.681c-56.124,32.168,2.82,112.073,43.856,69.138
				c-8.028,31.506,17.74,42.813,39.109,41.039c20.451-1.704,41.715-22.716,33.796-41.539
				C157.738,461.059,183.118,467.764,206.145,447.291z"/>
			<path fill="#FDFEFF" d="M241.032,506.06c7.318-26.958-8.524-57.51-38.034-54.786c16.364-14.196,36.604-44.248,23.896-65.854
				c-10.481-17.815-41.837-25.738-59.428-15.225c0,0-133.711,48.178-134.776,46.694c-39.842,30.672-8.288,81.927,26.658,62.453
				c-47.862,39.342-2.771,91.312,43.026,51.174c-7.203,72.677,91.335,67.046,73.908,6.537
				C200.8,548.132,232.853,536.198,241.032,506.06z"/>
			<path fill="#DFE1DE" d="M45.961,267.011c-23.021,3.011-47.142,17.565-55.87,38.83c-10.424,25.394,4.387,62.566,36.733,64.681
				c-56.124,32.168,2.82,112.073,43.856,69.138c-8.028,31.506,17.74,42.813,39.109,41.039c20.451-1.704,41.715-22.716,33.796-41.539
				c14.152,21.899,39.532,28.604,62.559,8.132c14.984-13.319,15.943-28.444,10.486-40.354c-20.87,17.319-59.881,21.716-69.327-6.942
				c3.291,33.277-40.219,15.055-40.448-6.284c-10.595,22.295-48.507,44.566-71.397,9.96c-14.946-22.6,13.919-50.145,31.272-61.964
				c-28.122,12.698-58.607-2.884-53.971-28.29c5.883-32.248,42.845-56.147,75.729-19.612l0.139-3.093
				C85.616,274.724,61.234,265.014,45.961,267.011z"/>
			<path fill="#DFE1DE" d="M100.551,535.338c-6.488,76.709,97.619,67.711,77.658,3.421c26.749,12.155,58.479-2.899,66.793-34.617
				c7.439-28.368-10.271-60.958-42.177-58.612c0.921-0.776,1.857-1.607,2.794-2.477c-2.142,0.536-5.582,4.209-7.649,5.005
				c15.567,11.591,31.488,29.229,20.166,49.502c-11.908,21.334-38.177,24.238-58.355,15.518
				c11.899,20.256,11.409,43.529-16.988,46.562c-30.512,3.254-30.298-36.171-36.002-66.945
				c-18.821,83.301-85.319,37.654-59.352-9.764C-4.215,534.896,60.009,598.654,100.551,535.338z"/>
		</g>
	</g>
	<g>
		<g>
			<path fill="#EAAB28" d="M154.222,354.78c88.135-7.975,84.623-54.157,84.623-54.157l-14.677-14.873l-0.141-0.142l-14.677-14.872
				c0,0-46.134-4.119-55.269,83.9l-0.175,0.173c0.053-0.003,0.104-0.012,0.158-0.015c-0.007,0.052-0.013,0.104-0.018,0.158
				L154.222,354.78z"/>
			<g>
				<g id="rocket_1_">
					<polygon fill="#C0392E" points="198.869,261.774 252.198,314.372 269.225,297.094 215.905,244.49 					"/>
					<path fill="#294966" d="M313.711,195.603c-51.427-50.722-133.484-50.89-183.283-0.356
						c-11.571,11.742-20.349,25.198-26.407,39.555c47.132-20.709,104.643-11.6,144.116,27.339
						c39.477,38.945,49.396,96.343,29.357,143.773c14.263-6.255,27.586-15.226,39.164-26.967
						C366.459,328.412,365.138,246.33,313.711,195.603z"/>
					<path fill="#131D21" d="M268.877,288.669c21.484,35.94,24.473,79.699,8.617,117.245c14.263-6.255,27.586-15.226,39.164-26.967
						c41.835-42.461,47.569-107.185,17.839-156.867L268.877,288.669z"/>
					<path fill="#FDFEFF" d="M285.517,109.089c-42.499,43.129-72.106,91.752-86.87,137.532c13.54,6.989,26.32,16.111,37.771,27.413
						c11.453,11.294,20.751,23.941,27.935,37.399c45.53-15.427,93.712-45.729,136.208-88.854
						c67.512-68.503,102.575-150.896,97.114-213.656C434.87,4.347,353.025,40.582,285.517,109.089z"/>
					<path fill="#CFD0D0" d="M497.675,8.923c-7.167-0.522-263.236,263.231-263.236,263.231c0.659,0.629,1.329,1.237,1.979,1.88
						c11.453,11.294,20.751,23.941,27.935,37.399c45.53-15.427,93.712-45.729,136.208-88.854
						C468.072,154.076,503.136,71.683,497.675,8.923z"/>
					<path fill="#3D6176" d="M242.516,243.146c-28.079,28.491-47.365,58.105-51.978,77.441c19.254-4.887,48.585-24.6,76.663-53.091
						c28.076-28.488,47.362-58.113,51.976-77.442C299.917,194.942,270.592,214.656,242.516,243.146z"/>
					<path fill="#131D21" d="M190.792,319.664c-0.074,0.306-0.183,0.627-0.254,0.924c19.254-4.887,48.585-24.6,76.663-53.091
						c28.076-28.488,47.362-58.113,51.976-77.442c-0.295,0.081-0.622,0.193-0.917,0.26L190.792,319.664z"/>
					<path fill="#E0652D" d="M389.923,33.296c14.716,12.737,29.377,26.212,43.84,40.481c14.458,14.264,28.205,28.783,41.133,43.328
						c17.618-38.192,25.594-75.827,22.779-108.182C465.294,6.563,427.846,15.134,389.923,33.296z"/>
					<path fill="#C0392E" d="M435.156,75.173c13.938,13.814,27.232,27.86,39.739,41.932c17.618-38.192,25.594-75.827,22.779-108.182
						c-0.584-0.042-1.156-0.075-1.742-0.11L435.156,75.173z"/>
					<path fill="#EAAB28" d="M399.398,109.365l-0.354-0.354c-6.805-6.716-15.781-10.426-25.274-10.445
						c-9.494-0.02-18.352,3.65-24.941,10.335c-13.432,13.636-13.225,36.014,0.463,49.884l0.352,0.352
						c14.066,13.875,36.594,13.917,50.212,0.095C413.288,145.6,413.081,123.229,399.398,109.365z"/>
					<path fill="#457471" d="M393.043,115.099c-10.648-10.511-27.706-10.544-38.017-0.083
						c-10.316,10.473-10.036,27.524,0.617,38.034c10.646,10.502,27.696,10.542,38.015,0.072
						C403.966,142.66,403.691,125.599,393.043,115.099z"/>
				</g>
			</g>
		</g>
	</g>
	<path opacity="0.22" fill="#CFD0D0" d="M497.675,8.923c-7.167-0.522-263.236,263.231-263.236,263.231
		c0.659,0.629,1.329,1.237,1.979,1.88c11.453,11.294,20.751,23.941,27.935,37.399c45.53-15.427,93.712-45.729,136.208-88.854
		C468.072,154.076,503.136,71.683,497.675,8.923z"/>
	<path opacity="0.22" fill="#CFD0D0" d="M497.675,8.923c-7.167-0.522-263.236,263.231-263.236,263.231
		c0.659,0.629,1.329,1.237,1.979,1.88c11.453,11.294,20.751,23.941,27.935,37.399c45.53-15.427,93.712-45.729,136.208-88.854
		C468.072,154.076,503.136,71.683,497.675,8.923z"/>
</g>
</svg>
